<svg width="150" height="150" viewBox="0 0 150 150" fill="none" xmlns="http://www.w3.org/2000/svg">
<path d="M128.38 52.0701C129.931 51.6473 131.564 52.6337 131.961 54.1133C132.159 54.8531 132.066 55.675 131.681 56.3443C131.308 57.0137 130.666 57.5187 129.919 57.7183C129.744 57.7653 129.546 57.8004 129.36 57.8122H129.208C129.021 57.8122 128.893 57.8122 128.776 57.7887C128.578 57.7653 128.403 57.7183 128.228 57.6596C128.053 57.6009 127.866 57.5187 127.715 57.4247C127.551 57.3308 127.412 57.2368 127.26 57.1076C127.108 56.9785 126.98 56.8376 126.863 56.6967C126.735 56.5323 126.618 56.3561 126.548 56.2034C126.478 56.0508 126.408 55.8864 126.338 55.6633C126.14 54.9118 126.245 54.1133 126.618 53.4439C126.992 52.7746 127.633 52.2697 128.368 52.0583L128.38 52.0701ZM143.977 74.1463C144.035 75.0035 143.778 75.8372 143.218 76.6122L142.985 76.894L126.175 86.7696L126.012 86.8166C125.627 86.9223 125.253 86.9693 124.892 86.9693C122.92 86.9693 121.975 85.478 121.485 84.5973C120.354 85.889 119.082 87.1101 117.601 88.3431C118.347 90.95 118.184 93.3103 117.122 95.5766C115.757 98.4771 113.424 99.9449 110.181 99.9449C109.645 99.9449 109.073 99.9097 108.455 99.8275C107.953 104.207 104.337 108.905 99.2736 108.975C99.297 109.445 99.2972 109.95 99.2389 110.431C98.9589 112.662 96.9174 115.128 95.1793 116.15C93.5694 117.101 91.6095 117.488 89.5446 117.301C88.4831 121.974 85.625 124.252 80.7954 124.252C78.7422 124.252 76.5725 123.853 74.4727 123.477C73.4694 123.289 72.5362 123.125 71.5562 123.019C71.2179 123.301 70.8912 123.595 70.5762 123.876C69.5146 124.828 68.4298 125.802 66.8783 126.389C65.805 126.8 64.685 127 63.5534 127C60.3804 127 57.5456 125.379 55.9591 122.679C55.3525 121.645 54.9325 120.401 54.7925 119.238C54.6525 119.238 54.501 119.238 54.3493 119.238C49.5081 119.238 45.6117 115.762 45.25 111.136C45.1101 111.136 44.9699 111.136 44.83 111.136C42.3685 111.136 40.0703 110.149 38.3554 108.364C36.6756 106.615 35.7891 104.313 35.8591 101.882C32.9194 101.601 30.4345 99.9449 29.0462 97.3145C27.588 94.5785 27.6114 91.2788 29.1046 88.4958L27.2266 86.429C26.8066 87.1101 25.8966 88.3549 24.2051 88.3549C23.7851 88.3549 23.33 88.2727 22.8634 88.1201C21.2768 87.5916 19.6087 86.476 17.9989 85.4074C16.6923 84.5385 15.3508 83.6461 14.2075 83.1764C14.0442 83.1059 13.8927 83.0237 13.741 82.918C12.7844 82.2487 11.6762 81.6616 10.5096 81.051C9.30802 80.4168 8.05972 79.7475 6.93982 78.9725C5.06164 77.669 4.53661 75.9781 5.41154 74.111L5.45825 74.0289C9.00462 68.1106 12.411 62.0278 15.7124 56.1447L15.7825 56.0156C19.0489 50.1912 22.4319 44.1672 25.9433 38.2959C26.0483 38.1197 26.1533 37.9319 26.2699 37.7205C26.9582 36.464 27.8097 34.914 29.3963 34.4913C29.6529 34.4208 29.9211 34.3856 30.1895 34.3856C31.181 34.3856 31.9627 34.8435 32.5927 35.2076C32.721 35.278 32.8377 35.3485 32.966 35.419C35.6258 36.8281 38.2739 38.4485 40.8287 39.9986C43.1152 41.396 45.4599 42.8169 47.7814 44.0851L47.9913 44.2142L48.1081 44.3316C49.368 45.5411 49.6011 47.0442 48.8312 48.8056C48.7262 49.0522 48.5513 49.3105 48.2713 49.7685L48.1898 49.8859C51.2462 51.7765 54.0575 53.1387 56.7873 54.0546L59.0504 51.2246C59.132 51.1306 59.2139 51.0367 59.3073 50.9428C64.0319 46.2457 72.5709 45.6938 78.5787 45.6938C80.8885 45.6938 83.1284 45.7877 85.0999 45.8582C85.8815 45.8934 86.6164 45.9169 87.3163 45.9404C89.1945 45.9991 91.0728 46.0461 92.9509 46.093C95.2024 46.1517 97.454 46.2105 99.7871 46.2457C99.7288 46.0108 99.7054 45.7878 99.7054 45.5529C99.7054 44.4843 100.347 43.31 101.304 42.6524L115.851 33.3288C116.376 33.1056 116.889 33 117.379 33C119.432 33 120.447 34.7966 121.112 35.9826C121.229 36.194 121.333 36.3818 121.438 36.5462C121.882 37.286 122.827 38.7774 123.853 40.4096L124.005 40.6562C125.312 42.7229 126.945 45.3063 127.586 46.3983C127.971 47.0559 128.088 47.8427 127.89 48.5825C127.691 49.334 127.225 49.9564 126.56 50.3439C126.128 50.5905 125.638 50.7314 125.137 50.7314C124.133 50.7314 123.165 50.1795 122.687 49.3223L116.667 39.4585L106.133 46.4336L125.813 80.4873L137.49 73.5474L131.144 63.0964C130.363 61.7225 130.853 59.9611 132.218 59.1626C132.649 58.916 133.139 58.7751 133.641 58.7751C134.668 58.7751 135.612 59.3388 136.126 60.2312C136.487 60.8653 137.595 62.6502 138.669 64.3764L138.809 64.5995C139.87 66.3022 140.874 67.9227 141.247 68.5685C141.34 68.7329 141.48 68.9795 141.655 69.273L141.434 69.4727L141.679 69.32C143.428 72.2909 143.942 73.3595 144 74.1228L143.977 74.1463ZM42.8118 47.9366L31.1111 41.0202L11.4195 75.0505L23.4002 81.873L42.8118 47.9366ZM42.5902 92.136C43.1269 91.0791 43.0918 89.9167 42.5085 88.9655C41.9019 87.9791 40.817 87.3803 39.5921 87.3803C39.4171 87.3803 39.2305 87.3803 39.0438 87.4155C38.1922 87.533 34.6691 90.2337 34.0042 91.4314C33.4092 92.4883 33.4209 93.6743 34.0042 94.6959C34.7974 96.0698 36.4308 96.6922 37.9473 96.1402C38.7289 95.8349 42.1819 92.8405 42.5786 92.136H42.5902ZM56.3441 96.563C57.7907 95.1891 58.3039 93.6978 57.779 92.3709C57.3007 91.1731 56.0874 90.3628 54.7575 90.3628C53.6026 90.3628 52.5176 90.9501 51.5261 92.1126C50.2195 93.4278 48.6563 94.6724 47.1397 95.8702C45.4366 97.2206 43.71 98.5827 42.4501 99.9566C41.0969 101.424 41.5404 102.939 41.797 103.515C42.322 104.724 43.4419 105.499 44.6551 105.499C45.425 105.499 46.23 105.206 47.0233 104.618C49.8347 102.54 53.801 98.982 56.3558 96.563H56.3441ZM59.5055 109.891C60.8354 108.611 62.0952 107.413 63.2735 106.685C63.5418 106.392 63.81 106.168 64.0316 105.981C64.3933 105.664 64.6501 105.44 64.8485 105.112C65.5134 104.008 65.5599 102.787 64.9883 101.777C64.405 100.732 63.2851 100.109 62.0135 100.109C61.7802 100.109 61.547 100.133 61.3021 100.168C61.1621 100.192 60.4854 100.508 60.0654 100.79C58.7355 101.706 57.429 102.951 56.0408 104.278C54.6526 105.617 53.2177 106.979 51.6895 108.059C50.8146 109.034 50.5696 110.372 51.0946 111.594C51.5029 112.557 52.4828 113.59 54.0227 113.59C54.3143 113.59 54.6176 113.555 54.921 113.472C56.0875 113.179 57.9073 111.441 59.5055 109.903V109.891ZM70.5178 112.556C69.8996 111.664 68.9079 111.136 67.858 111.136C67.2397 111.136 66.6448 111.323 66.0731 111.688C65.2682 112.204 61.7452 115.257 61.1152 115.985C60.4036 116.807 60.182 117.958 60.5203 119.074C60.8469 120.166 61.6519 120.988 62.6668 121.258C63.9034 121.587 64.5916 121.434 66.0498 120.295C68.7679 118.193 70.6696 116.232 70.8912 115.621C71.2762 114.529 71.1478 113.437 70.5178 112.545V112.556ZM84.1316 115.469L76.2573 111.464C76.8872 113.308 76.9106 115.328 76.304 117.242C76.2223 117.488 76.129 117.723 76.0123 117.982L76.6423 118.087C77.9722 118.322 79.4771 118.592 80.772 118.592C82.9418 118.592 83.5019 117.864 83.7585 117.16C83.8285 116.983 84.0266 116.185 84.1199 115.469H84.1316ZM110.438 87.4859C107.055 84.6207 102.843 81.7437 98.7604 78.9725C97.3605 78.0213 96.0074 77.0937 94.7241 76.1895L93.8259 75.5554C89.9062 72.8194 85.9049 70.0129 81.8802 67.4882L81.5652 67.2416C80.6436 66.8893 79.7687 66.3726 78.9287 65.8677C78.0888 65.3745 77.3189 64.9048 76.6306 64.6817C75.9774 64.4703 75.0907 64.8696 73.9825 65.7972C73.0026 66.6075 71.8245 67.8991 70.5879 69.2613C67.4848 72.6666 63.985 76.5065 60.2753 76.8588C59.9254 76.894 59.5521 76.9058 59.1788 76.9058C56.0641 76.9058 52.996 75.6846 50.9661 73.6413C49.2979 71.9504 48.4114 69.825 48.4114 67.4764C48.4114 65.2453 50.383 62.7676 52.2962 60.3838C52.7045 59.8789 53.0777 59.4092 53.416 58.8926C50.4296 57.6831 47.8047 56.3679 45.4016 54.8648L30.2946 81.2271L33.0942 84.4446C34.4824 83.2234 36.4073 81.826 38.9971 81.6616C39.2071 81.6499 39.4054 81.6381 39.6154 81.6381C43.4068 81.6381 46.7665 84.0102 48.038 87.5564C48.5396 87.075 49.1463 86.5347 49.7996 86.112C51.3278 85.1373 53.0309 84.6208 54.7341 84.6208C57.2072 84.6208 59.5989 85.701 61.3021 87.5798C63.0052 89.4704 63.8218 91.9246 63.6002 94.4845C67.4848 95.1186 70.6229 98.4653 70.9262 102.305C71.0196 103.562 70.9262 104.701 70.6229 105.898C72.1395 106.392 73.4575 107.261 74.4957 108.435C74.5191 108.259 74.5542 108.094 74.6125 107.918C74.9975 106.744 76.0941 105.957 77.3307 105.957C77.6107 105.957 77.8906 105.992 78.1706 106.074L78.3688 106.145C80.0137 106.85 81.6468 107.754 83.2333 108.623C84.9365 109.55 86.6865 110.513 88.3664 111.194C89.113 111.5 89.9062 111.664 90.6295 111.664C91.6444 111.664 92.4377 111.359 92.9976 110.772C93.7909 109.926 93.8726 108.858 93.2776 106.979L76.9923 97.1971L76.8639 97.0445C76.0706 96.105 75.8841 94.8838 76.3507 93.8505C76.8056 92.8641 77.7621 92.2535 78.8587 92.2535C79.2903 92.2535 79.722 92.3474 80.1303 92.5236L80.3055 92.6174L97.7223 103.045C98.1189 103.209 98.5504 103.315 98.982 103.315C100.09 103.315 101.199 102.657 101.957 101.554C102.808 100.332 103.042 98.8175 102.587 97.5846L84.4816 85.9828L84.3535 85.8302C83.5485 84.8203 83.35 83.5521 83.8516 82.5188C84.2949 81.5794 85.24 80.9923 86.3132 80.9923C86.8615 80.9923 87.398 81.1449 87.9697 81.4502C90.6878 83.0941 93.406 84.926 96.0192 86.6991C99.2855 88.9067 102.61 91.1613 105.935 93.0284C107.405 93.8504 108.898 94.3318 110.03 94.3318C111.22 94.3318 111.873 93.8387 112.223 92.6762C112.771 90.8444 112.094 88.9068 110.414 87.4859H110.438ZM118.429 79.2309L102.785 52.0231C98.702 52.1405 94.4325 51.9057 90.3612 51.6943C87.0131 51.5182 83.5952 51.3303 80.2471 51.3303C76.7007 51.3303 73.6092 51.5416 70.8095 51.9761C65.4083 52.8216 63.9851 53.6905 60.6837 58.2115L59.4821 59.8555C57.9073 62.0044 56.2742 64.2237 54.9093 66.2669C54.2638 67.2298 54.1237 68.0949 54.4892 68.8621C55.1658 70.2829 56.8108 71.2106 58.6773 71.2106C59.6455 71.2106 60.5671 70.9405 61.2787 70.4473C62.6552 69.4961 64.1135 67.8874 65.665 66.1965C68.7331 62.8263 72.2211 59.01 76.4674 59.01C76.7941 59.01 77.1205 59.0334 77.4355 59.0804C79.3953 59.3505 85.8231 63.1669 85.8931 63.2021C90.4661 65.9968 95.2142 69.4492 99.8105 72.7841L100.172 73.0424C101.513 74.0171 102.844 74.98 104.138 75.8959L104.687 76.2834C107.533 78.3149 110.45 80.3934 113.261 82.5188C113.459 82.6714 113.728 82.9063 114.101 83.2586C114.218 83.3643 114.357 83.4934 114.497 83.6226C114.719 83.4582 115.034 83.1999 115.466 82.8124C116.177 82.1782 116.807 81.5324 117.321 80.8983C118.196 79.818 118.382 79.3834 118.417 79.2425L118.429 79.2309Z" fill="url(#paint0_linear_2613_149)"></path>
<defs>
<linearGradient id="paint0_linear_2613_149" x1="16.7506" y1="34.7027" x2="135.411" y2="107.537" gradientUnits="userSpaceOnUse">
<stop offset="0.22" stop-color="#00CB78"></stop>
<stop offset="0.83" stop-color="#00C3D0"></stop>
</linearGradient>
</defs>
</svg>