<svg width="150" height="150" viewBox="0 0 150 150" fill="none" xmlns="http://www.w3.org/2000/svg">
<path d="M49.8799 53.24H26.1799C24.4099 53.24 22.97 54.6801 22.97 56.4501C22.97 58.2201 24.4099 59.66 26.1799 59.66H49.8799C51.6499 59.66 53.0898 58.2201 53.0898 56.4501C53.0898 54.6801 51.6499 53.24 49.8799 53.24Z" fill="url(#paint0_linear_2613_184)"></path>
<path d="M49.8799 63.12H26.1799C24.4099 63.12 22.97 64.5601 22.97 66.3301C22.97 68.1001 24.4099 69.54 26.1799 69.54H49.8799C51.6499 69.54 53.0898 68.1001 53.0898 66.3301C53.0898 64.5601 51.6499 63.12 49.8799 63.12Z" fill="url(#paint1_linear_2613_184)"></path>
<path d="M26.1899 49.78H29.1499C30.9199 49.78 32.3599 48.3401 32.3599 46.5701C32.3599 44.8001 30.9199 43.3601 29.1499 43.3601H26.1899C24.4199 43.3601 22.98 44.8001 22.98 46.5701C22.98 48.3401 24.4199 49.78 26.1899 49.78Z" fill="url(#paint2_linear_2613_184)"></path>
<path d="M49.8799 43.37H38.03C36.26 43.37 34.8201 44.8101 34.8201 46.5801C34.8201 48.3501 36.26 49.79 38.03 49.79H49.8799C51.6499 49.79 53.0898 48.3501 53.0898 46.5801C53.0898 44.8101 51.6499 43.37 49.8799 43.37Z" fill="url(#paint3_linear_2613_184)"></path>
<path d="M109.11 46.67C110.56 46.67 112.02 46.6901 113.42 46.7101C112.01 46.6901 110.56 46.67 109.11 46.67Z" fill="url(#paint4_linear_2613_184)"></path>
<path d="M113.98 46.9701H113.41C112 46.9401 110.55 46.92 109.1 46.92C107.44 46.92 106 46.95 104.67 47.01C94.6599 47.48 86.37 54.3901 84.03 64.2101C83.96 64.4901 83.9099 64.76 83.8499 65.04L83.77 65.4401L83.45 65.1901C81.63 63.7701 79.75 62.8 77.7 62.24C75.83 61.73 73.78 61.49 71.25 61.49C69.94 61.49 68.6199 61.5501 67.3499 61.6101C66.8399 61.6301 66.3499 61.6601 65.8599 61.6801C64.3999 61.7401 63.0199 62.68 62.4199 64.03L62.3799 64.13L62.3201 64.27V73.15L62.3699 73.4601C62.4199 73.8401 62.46 74.24 62.55 74.65C64.17 82.32 70.8199 87.59 79.1099 87.75C79.7899 87.76 80.4599 87.77 81.1499 87.77C81.7099 87.77 82.2698 87.77 82.8398 87.77H82.97H83.1199H83.3699V88.02V110.29L83.45 116.09C83.45 118.33 83.45 120.58 83.45 122.84V123.3C83.45 125.51 83.45 127.71 83.45 129.92C83.45 133.36 85.8699 133.7 86.6099 133.72H86.72C88.7 133.72 89.99 132.23 90.01 129.93C90.02 128.34 90.02 126.74 90.01 125.15V123.14V118.25V117.4L90.02 112.83L90.04 112.34V111.82C89.99 110.27 90 108.8 90.01 107.24V107.13V106.88H90.26H90.47C91.01 106.88 91.5498 106.88 92.0798 106.88C92.7498 106.88 93.4001 106.88 94.0601 106.86C97.6901 106.76 100.71 105.21 103.04 102.27C105.44 99.25 105.63 95.73 105.53 92.99C105.41 89.68 103.34 87.6201 100.14 87.6101C99.6399 87.6101 99.1399 87.6001 98.6399 87.5901C98.0099 87.5801 97.4198 87.5601 96.8298 87.5601C94.8798 87.5601 92.5898 87.7001 90.3398 88.7001L89.99 88.8601V77.8201H90.24L91.0798 77.8401H91.21C92.05 77.8601 92.87 77.88 93.7 77.88C94.95 77.88 95.9799 77.8301 96.9399 77.7301C99.7699 77.4301 102.6 76.7 105.04 76.04C106.12 75.75 106.95 75.1101 107.38 74.2301C107.78 73.4101 107.8 72.4701 107.43 71.5701C106.9 70.2801 105.86 69.5601 104.51 69.5601C103.98 69.5601 103.4 69.67 102.78 69.9C102.53 69.99 102.28 70.0901 102.03 70.1901C101.36 70.4601 100.72 70.71 100.16 70.75C97.6799 70.93 95.1399 71.03 92.6799 71.12C91.8699 71.15 91.07 71.1801 90.27 71.2101H90.01V70.9601C90.01 70.4001 90.01 69.84 90.01 69.28C90.13 63.37 92.83 58.7601 98.03 55.5601C100.83 53.8401 103.81 53.49 107.42 53.49C108.16 53.49 108.9 53.5 109.64 53.52C110.42 53.53 111.17 53.55 111.93 53.55H112.18V53.8V53.8501V53.91C112.2 55.01 112.22 56.03 112.14 57.04C111.91 59.84 110.89 62.44 109.01 65C108.36 65.89 108.09 66.85 108.24 67.76C108.38 68.59 108.84 69.3201 109.59 69.8501C110.16 70.2501 110.78 70.4601 111.43 70.4601C112.19 70.4601 113.3 70.1801 114.33 68.8201C114.59 68.4801 114.84 68.13 115.08 67.78C118.08 63.39 119.26 58.11 118.77 51.15C118.6 48.73 116.63 47.0001 113.98 46.9601V46.9701ZM83.4199 80.87V81.12H83.1699C82.7499 81.12 82.3299 81.1201 81.9199 81.1101C79.9999 81.1001 78.02 81.0801 76.22 80.6901C71.95 79.7701 68.7599 75.75 68.6399 71.13C68.6199 70.32 68.6199 69.5001 68.6299 68.5901V68.3501H68.8699C69.2599 68.3401 69.65 68.3201 70.04 68.3101C70.87 68.2801 71.66 68.25 72.45 68.25C73.52 68.25 74.3899 68.3101 75.1799 68.4401C79.5299 69.1501 82.8899 72.89 83.3499 77.54C83.4499 78.55 83.4799 79.62 83.4399 80.89L83.4199 80.87ZM91.29 95.9601C92.31 94.7801 93.9601 94.15 96.0701 94.15H97.52H98.72H98.96V94.39C99 95.99 98.5499 97.3901 97.6599 98.4601C96.6599 99.6501 95.16 100.34 93.54 100.34C93.37 100.34 93.2 100.34 93.02 100.32C92.55 100.28 92.06 100.26 91.46 100.26C91.08 100.26 90.69 100.26 90.29 100.28H90.04V100.04C90.01 98.36 90.44 96.9501 91.28 95.9701L91.29 95.9601Z" fill="url(#paint5_linear_2613_184)"></path>
<path d="M77.5 48.2201C77.43 48.0301 77.3099 47.81 77.1799 47.62C77.0399 47.42 76.89 47.2301 76.72 47.0601C76.06 46.4001 75.1199 46.02 74.1299 46.02C73.1399 46.02 72.2 46.4001 71.53 47.0601C70.85 47.7501 70.46 48.69 70.46 49.65C70.46 50.61 70.85 51.56 71.52 52.24C71.71 52.42 71.8798 52.5701 72.0898 52.7001C72.2698 52.8301 72.49 52.94 72.73 53.04C72.95 53.13 73.1799 53.2 73.4099 53.25C73.6499 53.29 73.8899 53.3201 74.1199 53.3201C75.0899 53.3201 76.03 52.93 76.71 52.25C77.4 51.57 77.79 50.62 77.79 49.65C77.79 49.38 77.76 49.13 77.71 48.9C77.67 48.68 77.59 48.4301 77.49 48.2201H77.5Z" fill="url(#paint6_linear_2613_184)"></path>
<path d="M68.28 39.3601L68.21 39.29L63.6899 34.77L63.5 34.5801C60.2 31.2801 58.25 29.3301 53.28 24.3401C52.32 23.3801 51.1901 22.91 49.8101 22.91H49.73C48.88 22.92 48.0299 22.92 47.1799 22.92H45.49H43.79C42.4 22.92 41.3399 22.9201 40.3599 22.9501H40.26C40.07 22.9501 39.9699 22.9401 39.9199 22.9301L39.8101 22.91L39.75 22.8201C39.7 22.7401 39.6498 22.6301 39.5898 22.4701C38.1498 18.6001 34.39 16 30.24 16C30.14 16 30.0399 16 29.9399 16C25.5499 16.13 21.84 18.94 20.48 23.14L20.1399 24.2101L20.1199 24.26V24.29C19.9999 24.88 20 25.46 20 26.03V26.25C20 28.89 21.0399 31.3701 22.9199 33.2201C24.6699 35.1301 26.96 36.2001 29.55 36.3401C29.75 36.3501 29.9499 36.3601 30.1499 36.3601C34.4699 36.3601 37.95 33.91 39.7 29.65L39.76 29.49H39.9299C40.3399 29.49 40.7199 29.49 41.1099 29.49C41.6899 29.49 42.2799 29.49 42.8599 29.49C43.4499 29.49 44.0299 29.49 44.6099 29.49C45.6599 29.49 47.0399 29.49 48.4299 29.54C48.7999 29.55 49.3201 29.77 49.5701 30.02C54.1101 34.5 55.0699 35.46 57.9099 38.3L61.1699 41.5601C61.3999 41.7901 61.6399 42.03 61.8699 42.27L61.98 42.38C62.67 43.08 63.3799 43.8001 64.1099 44.4701C64.7799 45.0801 65.5699 45.41 66.3799 45.41C67.1899 45.41 67.9599 45.09 68.5999 44.49C69.8899 43.27 69.95 41.33 68.75 39.87C68.6 39.69 68.44 39.5301 68.27 39.3601H68.28ZM30.24 30.37C27.87 30.37 25.9399 28.4401 25.9399 26.0701C25.9399 23.7001 27.87 21.77 30.24 21.77C32.61 21.77 34.54 23.7001 34.54 26.0701C34.54 28.4401 32.61 30.37 30.24 30.37Z" fill="url(#paint7_linear_2613_184)"></path>
<path d="M63.8699 34.6001C62.1599 32.9001 60.83 31.56 59.29 30.02C60.83 31.56 62.1699 32.9001 63.8699 34.6001Z" fill="#CCCCCC"></path>
<defs>
<linearGradient id="paint0_linear_2613_184" x1="19.77" y1="56.45" x2="119.13" y2="56.45" gradientUnits="userSpaceOnUse">
<stop offset="0.22" stop-color="#00CB78"></stop>
<stop offset="0.83" stop-color="#00C3D0"></stop>
</linearGradient>
<linearGradient id="paint1_linear_2613_184" x1="19.77" y1="66.32" x2="119.13" y2="66.32" gradientUnits="userSpaceOnUse">
<stop offset="0.22" stop-color="#00CB78"></stop>
<stop offset="0.83" stop-color="#00C3D0"></stop>
</linearGradient>
<linearGradient id="paint2_linear_2613_184" x1="19.77" y1="46.5801" x2="119.129" y2="46.5801" gradientUnits="userSpaceOnUse">
<stop offset="0.22" stop-color="#00CB78"></stop>
<stop offset="0.83" stop-color="#00C3D0"></stop>
</linearGradient>
<linearGradient id="paint3_linear_2613_184" x1="19.7703" y1="46.58" x2="119.129" y2="46.58" gradientUnits="userSpaceOnUse">
<stop offset="0.22" stop-color="#00CB78"></stop>
<stop offset="0.83" stop-color="#00C3D0"></stop>
</linearGradient>
<linearGradient id="paint4_linear_2613_184" x1="19.7686" y1="46.6901" x2="119.13" y2="46.6901" gradientUnits="userSpaceOnUse">
<stop offset="0.22" stop-color="#00CB78"></stop>
<stop offset="0.83" stop-color="#00C3D0"></stop>
</linearGradient>
<linearGradient id="paint5_linear_2613_184" x1="19.7701" y1="90.3101" x2="119.13" y2="90.3101" gradientUnits="userSpaceOnUse">
<stop offset="0.22" stop-color="#00CB78"></stop>
<stop offset="0.83" stop-color="#00C3D0"></stop>
</linearGradient>
<linearGradient id="paint6_linear_2613_184" x1="25.7395" y1="49.67" x2="114.06" y2="49.67" gradientUnits="userSpaceOnUse">
<stop offset="0.22" stop-color="#00CB78"></stop>
<stop offset="0.83" stop-color="#00C3D0"></stop>
</linearGradient>
<linearGradient id="paint7_linear_2613_184" x1="19.77" y1="30.71" x2="119.13" y2="30.71" gradientUnits="userSpaceOnUse">
<stop offset="0.22" stop-color="#00CB78"></stop>
<stop offset="0.83" stop-color="#00C3D0"></stop>
</linearGradient>
</defs>
</svg>