<svg width="150" height="150" viewBox="0 0 150 150" fill="none" xmlns="http://www.w3.org/2000/svg">
<path d="M30.57 74.27C30.46 74.03 30.36 73.8399 30.25 73.6699C30.13 73.4799 29.98 73.3099 29.83 73.1499C29.19 72.5099 28.31 72.1499 27.4 72.1499C27.18 72.1499 26.96 72.17 26.75 72.21C26.51 72.27 26.31 72.3299 26.12 72.3999C25.88 72.5099 25.69 72.61 25.52 72.72C25.34 72.84 25.16 72.9799 25 73.1399C24.86 73.2699 24.72 73.4399 24.58 73.6599C24.44 73.8699 24.33 74.07 24.26 74.26C24.19 74.44 24.13 74.6299 24.07 74.8599C24.02 75.0999 24 75.33 24 75.55C24 75.77 24.02 75.98 24.06 76.21C24.12 76.47 24.18 76.6601 24.26 76.8501C24.34 77.0401 24.44 77.24 24.58 77.45C24.73 77.67 24.87 77.84 25.02 77.98C25.13 78.1 25.3 78.2399 25.52 78.3899C25.73 78.5299 25.93 78.64 26.12 78.71C26.3 78.78 26.5 78.8399 26.71 78.8999C26.97 78.9499 27.19 78.97 27.41 78.97C28.31 78.97 29.19 78.6 29.82 77.96C29.97 77.81 30.12 77.63 30.24 77.45C30.35 77.28 30.45 77.0899 30.55 76.8799C30.65 76.6399 30.71 76.43 30.75 76.22C30.8 76.02 30.82 75.8001 30.82 75.5601C30.82 75.3201 30.79 75.0899 30.74 74.8699C30.71 74.6799 30.64 74.47 30.56 74.26L30.57 74.27ZM125.47 120.75L35.06 30.3401H75.8C77.55 30.3401 78.97 28.9199 78.97 27.1699C78.97 25.4199 77.55 24 75.8 24H27.41C27.21 24 27 24.0201 26.79 24.0601C26.71 24.0801 26.64 24.0999 26.56 24.1199L26.46 24.1499C26.37 24.1799 26.28 24.2 26.19 24.24C26.1 24.28 26.02 24.3199 25.93 24.3699L25.88 24.3999C25.77 24.4599 25.7 24.49 25.64 24.53C25.29 24.76 24.99 25.0599 24.76 25.4099C24.72 25.4699 24.68 25.5401 24.65 25.6001L24.6 25.6899C24.55 25.7799 24.5 25.86 24.46 25.96C24.42 26.05 24.4 26.13 24.37 26.22V26.27L24.34 26.3101C24.31 26.3901 24.29 26.46 24.28 26.54C24.25 26.71 24.23 26.8901 24.22 27.0701V27.1599L24.19 65.8999C24.19 67.6499 25.61 69.0701 27.36 69.0701C29.11 69.0701 30.53 67.6499 30.53 65.8999L30.55 34.8101L120.96 125.22C121.56 125.82 122.35 126.15 123.2 126.15C124.05 126.15 124.84 125.82 125.44 125.22C126.04 124.62 126.37 123.83 126.37 122.98C126.37 122.13 126.04 121.34 125.44 120.74L125.47 120.75Z" fill="url(#paint0_linear_2613_298)"></path>
<defs>
<linearGradient id="paint0_linear_2613_298" x1="24" y1="75.09" x2="126.4" y2="75.09" gradientUnits="userSpaceOnUse">
<stop offset="0.22" stop-color="#00CB78"></stop>
<stop offset="0.83" stop-color="#00C3D0"></stop>
</linearGradient>
</defs>
</svg>