<svg width="150" height="150" viewBox="0 0 150 150" fill="none" xmlns="http://www.w3.org/2000/svg">
<path d="M126.37 26.1699C126.37 25.3199 126.04 24.5299 125.44 23.9299C124.84 23.3299 124.05 23 123.2 23C122.35 23 121.56 23.3299 120.96 23.9299L29.6 115.3V84.26C29.6 82.51 28.18 81.0898 26.43 81.0898C24.68 81.0898 23.26 82.51 23.26 84.26V122.95C23.26 123.16 23.28 123.36 23.32 123.57C23.33 123.64 23.36 123.72 23.38 123.79L23.41 123.89C23.44 123.98 23.46 124.08 23.5 124.17C23.53 124.25 23.58 124.33 23.62 124.41L23.65 124.46L23.67 124.5C23.71 124.57 23.74 124.64 23.79 124.71C23.89 124.85 24 124.99 24.13 125.13V125.15L24.2 125.21L24.24 125.25L24.26 125.27C24.4 125.4 24.54 125.51 24.68 125.6C24.74 125.64 24.81 125.68 24.88 125.71L24.97 125.76C25.05 125.81 25.13 125.85 25.22 125.89C25.31 125.93 25.4 125.95 25.49 125.98L25.54 126C25.66 126.04 25.73 126.06 25.81 126.08C26.02 126.12 26.23 126.14 26.43 126.14H74.82C76.57 126.14 77.99 124.72 77.99 122.97C77.99 121.22 76.57 119.8 74.82 119.8H34.08L125.45 28.4299C126.05 27.8299 126.38 27.0399 126.38 26.1899L126.37 26.1699ZM26.43 77.96C27.33 77.96 28.21 77.6 28.84 76.97C29.48 76.33 29.84 75.45 29.84 74.55C29.84 73.65 29.47 72.7799 28.84 72.1399C28.68 71.9799 28.51 71.84 28.32 71.72C28.13 71.59 27.93 71.4899 27.72 71.4099C27.55 71.3299 27.32 71.26 27.08 71.22C26.88 71.18 26.65 71.1499 26.42 71.1499C26.19 71.1499 25.97 71.17 25.74 71.22C25.52 71.26 25.3 71.3299 25.09 71.4199C24.91 71.4899 24.71 71.6 24.52 71.72C24.33 71.84 24.16 71.9899 24 72.1399C23.85 72.2799 23.7 72.4599 23.57 72.6599C23.46 72.8499 23.34 73.04 23.26 73.26C23.19 73.44 23.13 73.6299 23.07 73.8699C23.02 74.1199 23 74.3401 23 74.5601C23 75.4601 23.37 76.34 24 76.98C24.63 77.61 25.51 77.97 26.41 77.97L26.43 77.96Z" fill="url(#paint0_linear_2613_292)"></path>
<defs>
<linearGradient id="paint0_linear_2613_292" x1="23.02" y1="74.5599" x2="126.37" y2="74.5599" gradientUnits="userSpaceOnUse">
<stop offset="0.22" stop-color="#00CB78"></stop>
<stop offset="0.83" stop-color="#00C3D0"></stop>
</linearGradient>
</defs>
</svg>