<svg width="150" height="150" viewBox="0 0 150 150" fill="none" xmlns="http://www.w3.org/2000/svg">
<path d="M93.4399 47.5801C93.6799 47.5801 93.91 47.56 94.12 47.51C94.31 47.48 94.52 47.4201 94.72 47.3401C94.96 47.2401 95.1501 47.14 95.3101 47.03C95.5301 46.89 95.7 46.7601 95.85 46.6101C96.48 46.0201 96.85 45.17 96.85 44.29C96.85 43.41 96.48 42.56 95.83 41.95C95.21 41.35 94.33 41 93.42 41C93.2 41 92.99 41.0201 92.78 41.0601C92.53 41.1101 92.34 41.17 92.16 41.24C91.92 41.34 91.7301 41.44 91.5601 41.55C91.3501 41.68 91.19 41.81 91.03 41.95C90.39 42.56 90.02 43.41 90.02 44.28C90.02 45.15 90.39 46.0001 91.03 46.6101C91.67 47.2101 92.5399 47.5601 93.4399 47.5601V47.5801ZM130.48 75.9299C130.46 75.8199 130.42 75.7201 130.39 75.6201L130.37 75.5701C130.34 75.4801 130.32 75.4201 130.3 75.3601C130.24 75.2301 130.18 75.12 130.1 75C130.06 74.93 130.03 74.8801 130 74.8301C129.9 74.6901 129.78 74.5499 129.66 74.4199L129.61 74.3601L102.96 49.03C102.36 48.46 101.57 48.1499 100.73 48.1499C99.89 48.1499 99.1 48.46 98.5 49.03C97.89 49.61 97.5601 50.38 97.5601 51.2C97.5601 52.02 97.89 52.7901 98.5 53.3701L119.66 73.48H23.17C21.42 73.48 20 74.85 20 76.53C20 78.21 21.42 79.5801 23.17 79.5801H119.67L91.23 106.61C90.62 107.19 90.29 107.96 90.29 108.78C90.29 109.6 90.62 110.37 91.23 110.95C91.83 111.52 92.62 111.83 93.46 111.83C94.3 111.83 95.0899 111.52 95.6899 110.95L129.62 78.6899C129.77 78.5499 129.9 78.4 130.02 78.23C130.05 78.18 130.08 78.1301 130.11 78.0801C130.19 77.9601 130.26 77.83 130.32 77.7C130.35 77.64 130.37 77.58 130.38 77.52L130.4 77.45C130.44 77.34 130.47 77.2399 130.5 77.1299C130.54 76.9599 130.56 76.7801 130.56 76.6001V76.52C130.56 76.32 130.54 76.1099 130.5 75.9099L130.48 75.9299Z" fill="url(#paint0_linear_2613_304)"></path>
<defs>
<linearGradient id="paint0_linear_2613_304" x1="19.98" y1="76.43" x2="130.55" y2="76.43" gradientUnits="userSpaceOnUse">
<stop offset="0.22" stop-color="#00CB78"></stop>
<stop offset="0.83" stop-color="#00C3D0"></stop>
</linearGradient>
</defs>
</svg>