<svg width="150" height="150" viewBox="0 0 150 150" fill="none" xmlns="http://www.w3.org/2000/svg">
<path d="M124.78 64.8999C124.78 66.6499 126.2 68.0701 127.95 68.0701C129.7 68.0701 131.12 66.6499 131.12 64.8999V26.1599C131.12 25.9599 131.1 25.75 131.06 25.55C131.05 25.49 131.03 25.4299 131.01 25.3799C130.97 25.2099 130.93 25.09 130.88 24.96C130.85 24.9 130.82 24.84 130.79 24.78L130.75 24.71C130.7 24.61 130.65 24.5099 130.59 24.4199C130.47 24.2399 130.34 24.0799 130.19 23.9299C130.04 23.7799 129.88 23.65 129.7 23.53C129.61 23.47 129.5 23.4199 129.4 23.3599L129.35 23.3401C129.27 23.2901 129.21 23.26 129.15 23.24C129.03 23.19 128.9 23.1499 128.77 23.1199C128.68 23.0899 128.62 23.0701 128.56 23.0601C128.39 23.0301 128.22 23.01 128.04 23H128.02H127.95H79.56C77.81 23 76.39 24.4199 76.39 26.1699C76.39 27.9199 77.81 29.3401 79.56 29.3401H120.3L28.93 120.71C27.69 121.95 27.69 123.96 28.93 125.19C29.53 125.79 30.32 126.12 31.17 126.12C32.02 126.12 32.81 125.79 33.41 125.19L124.77 33.8201V64.8999H124.78ZM130.35 72.1399C129.74 71.5299 128.86 71.1799 127.94 71.1799C127.02 71.1799 126.14 71.5299 125.53 72.1399C125.37 72.2999 125.23 72.4699 125.11 72.6599C125 72.8499 124.88 73.04 124.8 73.26C124.73 73.44 124.67 73.6299 124.61 73.8599C124.56 74.0999 124.54 74.33 124.54 74.55C124.54 74.77 124.56 74.98 124.6 75.21C124.66 75.47 124.72 75.6599 124.8 75.8499C124.89 76.0699 125 76.2599 125.1 76.4199C125.24 76.6299 125.38 76.8 125.54 76.96C125.69 77.11 125.86 77.2499 126.07 77.3799C126.28 77.5199 126.48 77.63 126.67 77.7C126.85 77.77 127.05 77.8299 127.26 77.8899C127.52 77.9399 127.74 77.96 127.96 77.96C128.86 77.96 129.74 77.59 130.37 76.95C130.52 76.8 130.67 76.6199 130.79 76.4399C130.9 76.2699 131 76.0799 131.1 75.8699C131.2 75.6299 131.26 75.42 131.3 75.21C131.35 75.01 131.37 74.79 131.37 74.55C131.37 73.65 131 72.7699 130.36 72.1399H130.35Z" fill="url(#paint0_linear_2613_295)"></path>
<defs>
<linearGradient id="paint0_linear_2613_295" x1="28" y1="74.5599" x2="131.36" y2="74.5599" gradientUnits="userSpaceOnUse">
<stop offset="0.22" stop-color="#00CB78"></stop>
<stop offset="0.83" stop-color="#00C3D0"></stop>
</linearGradient>
</defs>
</svg>