<svg width="150" height="150" viewBox="0 0 150 150" fill="none" xmlns="http://www.w3.org/2000/svg">
<path d="M121.94 81.0898C120.19 81.0898 118.77 82.51 118.77 84.26V115.3L27.41 23.9299C26.81 23.3299 26.02 23 25.17 23C24.32 23 23.53 23.3299 22.93 23.9299C22.33 24.5299 22 25.3199 22 26.1699C22 27.0199 22.33 27.8099 22.93 28.4099L114.3 119.78H73.56C71.81 119.78 70.39 121.2 70.39 122.95C70.39 124.7 71.81 126.12 73.56 126.12H121.95C122.15 126.12 122.36 126.1 122.57 126.06C122.65 126.04 122.72 126.02 122.8 126L122.9 125.97C122.99 125.95 123.08 125.92 123.17 125.88C123.26 125.84 123.34 125.8 123.42 125.75L123.47 125.72C123.58 125.66 123.65 125.63 123.72 125.58C123.87 125.48 124.01 125.37 124.14 125.24H124.15L124.2 125.18L124.23 125.15V125.13C124.37 125 124.49 124.85 124.59 124.7C124.64 124.63 124.67 124.56 124.71 124.49L124.73 124.45L124.76 124.4C124.8 124.32 124.85 124.24 124.88 124.16C124.92 124.07 124.95 123.97 124.97 123.88V123.83C125.02 123.72 125.04 123.64 125.06 123.57C125.1 123.36 125.12 123.16 125.12 122.95V84.26C125.12 82.51 123.7 81.0898 121.95 81.0898H121.94ZM121.94 77.96C122.84 77.96 123.72 77.6 124.35 76.97C124.99 76.33 125.35 75.45 125.35 74.55C125.35 74.31 125.32 74.0699 125.27 73.8599C125.23 73.6699 125.17 73.46 125.09 73.25C124.98 73.01 124.88 72.8199 124.77 72.6499C124.63 72.4299 124.49 72.2599 124.33 72.1199C123.71 71.4999 122.83 71.1399 121.93 71.1399C121.71 71.1399 121.48 71.16 121.27 71.21C121.04 71.25 120.83 71.3199 120.62 71.4199C120.44 71.4899 120.24 71.6 120.05 71.72C119.86 71.84 119.69 71.9899 119.53 72.1399C118.89 72.7799 118.53 73.66 118.53 74.55C118.53 75.44 118.9 76.33 119.53 76.97C120.16 77.6 121.04 77.96 121.94 77.96Z" fill="url(#paint0_linear_2613_289)"></path>
<defs>
<linearGradient id="paint0_linear_2613_289" x1="22" y1="74.5599" x2="125.35" y2="74.5599" gradientUnits="userSpaceOnUse">
<stop offset="0.22" stop-color="#00CB78"></stop>
<stop offset="0.83" stop-color="#00C3D0"></stop>
</linearGradient>
</defs>
</svg>