<svg width="150" height="150" viewBox="0 0 150 150" fill="none" xmlns="http://www.w3.org/2000/svg">
<path d="M61.5801 110.62C61.5201 110.47 61.44 110.33 61.36 110.19C61.33 110.13 61.31 110.09 61.28 110.05C61.14 109.84 61.0001 109.66 60.8401 109.5C60.6701 109.34 60.5 109.19 60.29 109.06C60.15 108.96 59.9501 108.85 59.7101 108.76C59.5001 108.67 59.2801 108.6 59.0801 108.57C58.8601 108.53 58.64 108.51 58.42 108.51C58.2 108.51 57.98 108.53 57.76 108.57C57.57 108.61 57.36 108.67 57.12 108.76C56.91 108.84 56.71 108.95 56.52 109.07C56.34 109.19 56.16 109.33 56 109.49C55.71 109.78 55.47 110.13 55.3 110.52L55.27 110.57C55.24 110.65 55.2201 110.69 55.2101 110.74C55.0701 111.13 55 111.52 55 111.91C55 112.81 55.37 113.69 56 114.33C56.63 114.96 57.51 115.32 58.41 115.32C58.63 115.32 58.8501 115.3 59.0701 115.26C59.3201 115.21 59.5301 115.14 59.7101 115.06C59.9201 114.98 60.1201 114.87 60.3101 114.75C60.4801 114.64 60.6501 114.5 60.8201 114.34C61.4701 113.68 61.8301 112.8 61.8301 111.91C61.8301 111.69 61.81 111.47 61.77 111.25C61.71 110.99 61.6501 110.79 61.5801 110.61V110.62ZM95.4601 77.97C95.4401 77.15 95.11 76.3898 94.53 75.8098L60.65 41.9299C60.05 41.3299 59.26 41 58.41 41C57.56 41 56.77 41.3299 56.17 41.9299C55.57 42.5299 55.24 43.3299 55.24 44.1799C55.24 45.0299 55.57 45.8199 56.17 46.4199L87.8 78.0498L63.4301 102.41C62.8301 103.01 62.5 103.81 62.5 104.66C62.5 105.51 62.8301 106.3 63.4301 106.9C64.0301 107.5 64.82 107.83 65.67 107.83C66.52 107.83 67.31 107.5 67.91 106.9L94.52 80.2998C95.09 79.7298 95.4301 78.9499 95.4501 78.1399V78.0598V77.98L95.4601 77.97Z" fill="url(#paint0_linear_2613_310)"></path>
<defs>
<linearGradient id="paint0_linear_2613_310" x1="55.01" y1="78.1699" x2="95.4601" y2="78.1699" gradientUnits="userSpaceOnUse">
<stop offset="0.22" stop-color="#00CB78"></stop>
<stop offset="0.83" stop-color="#00C3D0"></stop>
</linearGradient>
</defs>
</svg>