<svg width="150" height="150" viewBox="0 0 150 150" fill="none" xmlns="http://www.w3.org/2000/svg">
<path d="M62.65 75.23L87.02 50.8701C87.62 50.2701 87.9501 49.4801 87.9501 48.6301C87.9501 47.7801 87.62 46.9901 87.02 46.3901C86.42 45.7901 85.63 45.46 84.78 45.46C83.93 45.46 83.14 45.7901 82.54 46.3901L55.9301 72.99C55.3301 73.59 55 74.38 55 75.23C55 76.08 55.3301 76.87 55.9301 77.47L89.8101 111.35C90.4101 111.95 91.2 112.28 92.05 112.28C92.9 112.28 93.69 111.95 94.29 111.35C94.89 110.75 95.22 109.96 95.22 109.11C95.22 108.26 94.89 107.47 94.29 106.87L62.66 75.23H62.65ZM90.14 44.21C90.31 44.32 90.4901 44.42 90.7101 44.52C90.9401 44.61 91.16 44.68 91.38 44.72C91.56 44.76 91.79 44.79 92.04 44.79C92.94 44.79 93.8201 44.42 94.4601 43.79C95.0901 43.16 95.4501 42.2801 95.4501 41.3801C95.4501 40.4801 95.0901 39.6 94.4601 38.97C93.8501 38.36 92.97 38 92.05 38C91.13 38 90.24 38.35 89.63 38.97C89 39.6 88.63 40.4801 88.63 41.3801C88.63 42.2801 89 43.15 89.63 43.79C89.79 43.95 89.96 44.09 90.15 44.21H90.14Z" fill="url(#paint0_linear_2613_307)"></path>
<defs>
<linearGradient id="paint0_linear_2613_307" x1="55" y1="75.14" x2="95.4501" y2="75.14" gradientUnits="userSpaceOnUse">
<stop offset="0.22" stop-color="#00CB78"></stop>
<stop offset="0.83" stop-color="#00C3D0"></stop>
</linearGradient>
</defs>
</svg>