<svg width="150" height="150" viewBox="0 0 150 150" fill="none" xmlns="http://www.w3.org/2000/svg">
<path d="M53.85 42.6699C53.93 42.8599 54.03 43.06 54.17 43.27C54.32 43.49 54.46 43.66 54.61 43.8C55.22 44.42 56.1 44.78 57 44.78C57.9 44.78 58.78 44.41 59.41 43.77C60.04 43.15 60.41 42.2699 60.41 41.3699C60.41 40.4699 60.04 39.59 59.4 38.96C58.79 38.35 57.91 38 56.99 38C56.07 38 55.19 38.35 54.58 38.97C53.95 39.59 53.58 40.4699 53.58 41.3799C53.58 41.5999 53.6 41.82 53.64 42.04C53.7 42.3 53.76 42.4999 53.83 42.6799L53.85 42.6699ZM127.18 72.0701H30.79L51.99 50.8799C53.23 49.6399 53.23 47.6299 51.99 46.3999C51.39 45.7999 50.6 45.47 49.75 45.47C48.9 45.47 48.11 45.7999 47.51 46.3999L20.9 73L20.86 73.04C20.73 73.19 20.62 73.33 20.52 73.48C20.49 73.53 20.46 73.5799 20.43 73.6299C20.35 73.7699 20.28 73.89 20.23 74.02C20.2 74.08 20.18 74.15 20.17 74.21L20.15 74.29C20.11 74.4 20.08 74.4999 20.06 74.6199C20.02 74.8299 20 75.04 20 75.25V75.3301C20 75.5201 20.03 75.7099 20.06 75.8799C20.08 75.9899 20.12 76.1 20.16 76.21L20.18 76.26C20.2 76.35 20.22 76.41 20.25 76.47C20.31 76.61 20.38 76.7399 20.46 76.8599C20.49 76.9099 20.51 76.96 20.54 77.01C20.66 77.18 20.79 77.34 20.93 77.49L54.8 111.36C55.4 111.96 56.19 112.29 57.04 112.29C57.89 112.29 58.68 111.96 59.28 111.36C59.88 110.76 60.21 109.97 60.21 109.12C60.21 108.27 59.88 107.48 59.28 106.88L30.81 78.4099H127.2C128.95 78.4099 130.37 76.99 130.37 75.24C130.37 73.49 128.95 72.0701 127.2 72.0701H127.18Z" fill="url(#paint0_linear_2613_301)"></path>
<defs>
<linearGradient id="paint0_linear_2613_301" x1="19.97" y1="75.14" x2="130.35" y2="75.14" gradientUnits="userSpaceOnUse">
<stop offset="0.22" stop-color="#00CB78"></stop>
<stop offset="0.83" stop-color="#00C3D0"></stop>
</linearGradient>
</defs>
</svg>