<svg width="150" height="150" viewBox="0 0 150 150" fill="none" xmlns="http://www.w3.org/2000/svg">
<path d="M57.9519 88.7123C58.6374 89.0343 59.2087 89.19 59.7072 89.19C59.9773 89.19 60.2268 89.1485 60.445 89.055C61.0786 88.8057 61.6186 88.2136 62.086 87.2373L64.662 81.7738H76.1816L78.7577 87.2269C79.2251 88.2344 79.7653 88.8369 80.399 89.0966C80.6275 89.1797 80.8663 89.2316 81.1364 89.2316C81.635 89.2316 82.2062 89.0759 82.8814 88.7643C83.5358 88.4215 83.993 88.089 84.2838 87.7462C84.6266 87.3515 84.7824 86.8737 84.772 86.3336C84.7512 85.8454 84.5954 85.3262 84.2838 84.7341L73.2108 61.6647C73.0134 61.27 72.7746 60.9481 72.5045 60.6884C72.224 60.4287 71.9229 60.221 71.6009 60.0756C71.2581 59.9198 70.8737 59.847 70.4686 59.847C69.8765 59.847 69.3155 60.0133 68.8065 60.3353C68.2976 60.6573 67.9134 61.0935 67.6537 61.6129L56.643 84.5159C56.3418 85.1703 56.1756 85.7416 56.1237 86.2194C56.0614 86.801 56.2275 87.3101 56.5911 87.736C56.9027 88.0891 57.3494 88.4111 57.9622 88.7227L57.9519 88.7123ZM67.1967 76.4038L70.4166 69.5795L73.6368 76.4038H67.1863H67.1967ZM59.5931 88.5668C59.6451 88.5668 59.6969 88.5668 59.7488 88.5668C59.7281 88.5668 59.7176 88.5668 59.7072 88.5668C59.6761 88.5668 59.6347 88.5564 59.6035 88.546L59.5931 88.5668ZM58.9386 88.4526C59.0009 88.4734 59.0634 88.4838 59.1258 88.5046C59.0634 88.4942 59.0009 88.4734 58.9386 88.4526ZM81.0948 88.6188C81.0948 88.6188 81.1986 88.6188 81.2505 88.6188C81.2194 88.6188 81.178 88.6396 81.1468 88.6396C81.126 88.6396 81.1156 88.6396 81.1052 88.6396L81.0948 88.6188ZM81.7182 88.5356C81.7805 88.5253 81.8427 88.5046 81.9051 88.4838C81.8427 88.5046 81.7805 88.5149 81.7182 88.5356ZM130.611 79.9458C132.377 79.9458 133.8 78.5123 133.8 76.7465C133.8 74.9808 132.367 73.5474 130.611 73.5474H112.267V60.356H130.611C132.377 60.356 133.8 58.9226 133.8 57.1568C133.8 55.3911 132.367 53.9577 130.611 53.9577H112.267V45.1496C112.267 41.3688 109.192 38.2942 105.411 38.2942H98.556V18.9641C98.556 17.1984 97.1224 15.765 95.3566 15.765C93.5907 15.765 92.1676 17.1984 92.1676 18.9641V38.2942H78.9758V18.9641C78.9758 17.1984 77.5422 15.765 75.7868 15.765C74.0313 15.765 72.5877 17.1984 72.5877 18.9641V38.2942H59.3958V18.9641C59.3958 17.1984 57.9623 15.765 56.1965 15.765C54.4306 15.765 52.9971 17.1984 52.9971 18.9641V38.2942H44.1887C40.4077 38.2942 37.3332 41.3688 37.3332 45.1496V53.9577H18.989C17.2232 53.9577 15.8 55.3911 15.8 57.1568C15.8 58.9226 17.2336 60.356 18.989 60.356H37.3332V73.5474H18.989C17.2232 73.5474 15.8 74.9808 15.8 76.7465C15.8 78.5123 17.2336 79.9458 18.989 79.9458H37.3332V93.1371H18.989C17.2232 93.1371 15.8 94.5704 15.8 96.3362C15.8 98.102 17.2336 99.5251 18.989 99.5251H37.3332V106.38C37.3332 110.161 40.4077 113.236 44.1887 113.236H52.9971V132.566C52.9971 134.332 54.4306 135.765 56.1965 135.765C57.9623 135.765 59.3958 134.332 59.3958 132.566V113.236H72.5877V132.566C72.5877 134.332 74.0209 135.765 75.7868 135.765C77.5526 135.765 78.9758 134.332 78.9758 132.566V113.236H92.1676V132.566C92.1676 134.332 93.6011 135.765 95.3566 135.765C97.112 135.765 98.556 134.332 98.556 132.566V113.236H105.411C109.192 113.236 112.267 110.161 112.267 106.38V99.5251H130.611C132.377 99.5251 133.8 98.0916 133.8 96.3362C133.8 94.5808 132.367 93.1371 130.611 93.1371H112.267V79.9458H130.611ZM43.7213 45.1599C43.7213 44.9002 43.929 44.6925 44.1887 44.6925H105.411C105.671 44.6925 105.879 44.9002 105.879 45.1599V106.38C105.879 106.64 105.671 106.848 105.411 106.848H44.1887C43.929 106.848 43.7213 106.64 43.7213 106.38V45.1599ZM88.4179 65.6326C88.553 65.7261 88.7504 65.8404 88.9789 65.9234C89.1762 66.0065 89.3838 66.0688 89.5812 66.1103C89.7993 66.1519 90.0072 66.1727 90.2253 66.1727C91.0875 66.1727 91.9288 65.8299 92.5417 65.2171C93.1545 64.6043 93.5076 63.7629 93.5076 62.8904C93.5076 62.6619 93.487 62.4334 93.4351 62.236C93.3935 62.0283 93.331 61.8206 93.2479 61.6232C93.1752 61.4467 93.0713 61.2493 92.9571 61.0727C92.8324 60.8857 92.6975 60.7196 92.5521 60.5742C91.9704 59.9925 91.1186 59.6497 90.2357 59.6497C89.3528 59.6497 88.501 59.9821 87.9194 60.5742C87.3065 61.1974 86.9636 62.0387 86.9636 62.8904C86.9636 63.7421 87.3065 64.5939 87.9194 65.2067C88.0752 65.3625 88.2414 65.4975 88.4387 65.6222L88.4179 65.6326ZM90.7343 60.3041C90.807 60.3145 90.8796 60.3456 90.942 60.3663C90.8693 60.3456 90.807 60.3249 90.7343 60.3041ZM93.0714 69.7977C93.1545 70.2132 93.2063 70.6806 93.2063 71.2V86.0117C93.2063 86.5103 93.1649 86.9672 93.0714 87.3619C92.9572 87.8813 92.6558 88.2968 92.1884 88.598C91.7521 88.8785 91.0978 89.0135 90.2045 89.0135C89.3112 89.0135 88.6777 88.8681 88.2414 88.5668C87.774 88.2552 87.4831 87.8294 87.3688 87.3205C87.2753 86.9154 87.2336 86.4791 87.2336 85.9701V71.1169C87.2336 70.6183 87.2753 70.1613 87.3688 69.7666C87.4831 69.2472 87.7946 68.8214 88.2828 68.5202C88.7294 68.2501 89.3736 68.1151 90.2357 68.1151C91.0979 68.1151 91.7417 68.25 92.1884 68.5304C92.6558 68.8317 92.9572 69.2576 93.0714 69.7977Z" fill="url(#paint0_linear_2613_201)"></path>
<defs>
<linearGradient id="paint0_linear_2613_201" x1="32.7937" y1="32.2802" x2="114.549" y2="117.383" gradientUnits="userSpaceOnUse">
<stop offset="0.22" stop-color="#00CB78"></stop>
<stop offset="0.83" stop-color="#00C3D0"></stop>
</linearGradient>
</defs>
</svg>