<svg width="150" height="150" viewBox="0 0 150 150" fill="none" xmlns="http://www.w3.org/2000/svg">
<path d="M75.3826 79.17C76.3626 79.17 77.3126 78.78 77.9926 78.09C78.6826 77.4 79.0826 76.44 79.0826 75.47C79.0826 75.21 79.0526 74.96 79.0026 74.73C78.9626 74.52 78.8926 74.2899 78.8126 74.0699C78.6926 73.8099 78.5826 73.61 78.4626 73.42C78.3326 73.22 78.1726 73.03 78.0026 72.86C77.3426 72.2 76.3926 71.8199 75.3926 71.8199C74.3926 71.8199 73.4425 72.2 72.7825 72.87C72.6125 73.03 72.4626 73.22 72.3326 73.41L72.3126 73.4299V73.45C72.1926 73.63 72.0626 73.8399 71.9726 74.0699C71.8926 74.2599 71.8325 74.48 71.7725 74.73C71.7225 74.99 71.7026 75.24 71.7026 75.47C71.7026 76.45 72.1025 77.4 72.7925 78.09C73.4725 78.77 74.4325 79.17 75.4025 79.17H75.3826ZM114.793 75.48C116.143 74.05 117.383 72.63 118.503 71.26C126.333 61.57 128.703 52.87 125.163 46.74C122.453 42.05 116.713 39.58 108.563 39.58C106.113 39.58 103.433 39.81 100.603 40.25C98.8826 40.52 97.0626 40.88 95.1826 41.33C90.6826 26.28 83.7126 18 75.5126 18C67.3126 18 60.1726 26.51 55.7326 41.36C53.8026 40.9 51.9425 40.53 50.1725 40.25C47.3425 39.8 44.6626 39.58 42.2126 39.58C34.0526 39.58 28.3126 42.06 25.6026 46.74C22.0626 52.86 24.4326 61.57 32.2626 71.26C33.3726 72.64 34.6226 74.06 35.9726 75.48C34.6226 76.91 33.3826 78.33 32.2626 79.7C24.4326 89.39 22.0626 98.09 25.6026 104.22C28.3026 108.9 34.0526 111.38 42.2026 111.38C44.6526 111.38 47.3325 111.15 50.1625 110.71C51.9325 110.43 53.8026 110.06 55.7226 109.6C60.1626 124.46 67.3526 132.97 75.5026 132.97C83.6526 132.97 90.7726 124.48 95.2226 109.65C97.0926 110.09 98.9026 110.45 100.603 110.72C103.433 111.17 106.113 111.39 108.563 111.39C116.723 111.39 122.463 108.91 125.163 104.23C128.703 98.11 126.333 89.4 118.503 79.71C117.393 78.33 116.143 76.91 114.793 75.49V75.48ZM90.3326 101.17C88.0926 100.45 85.7926 99.6199 83.4626 98.6899C84.8426 97.9499 86.2026 97.2 87.4926 96.45C88.8326 95.68 90.2126 94.85 91.5926 93.99C91.2426 96.49 90.8126 98.9 90.3326 101.17ZM58.1426 75.48C58.1426 72.17 58.2626 68.8399 58.5026 65.5699C61.1426 63.7799 63.9026 62.0599 66.7026 60.4399C69.5526 58.7899 72.4726 57.24 75.3826 55.83C78.2926 57.24 81.2126 58.7899 84.0626 60.4399C91.8926 64.9599 99.1126 70.15 104.993 75.48C103.143 77.16 101.133 78.84 99.0225 80.49C98.5225 78.7 97.6026 77.06 96.3326 75.71C94.1526 73.38 91.0425 72.04 87.8025 72.04L87.0026 72.0599C86.0826 72.0799 85.2326 72.46 84.6026 73.13C83.9726 73.79 83.6425 74.66 83.6625 75.58C83.7125 77.45 85.2226 78.92 87.1126 78.92H87.1725L87.8926 78.9C89.2026 78.9 90.4326 79.44 91.3426 80.41C92.2526 81.38 92.7026 82.63 92.6226 83.95C92.5926 84.38 92.5625 84.81 92.5325 85.23C89.8225 87.07 86.9826 88.85 84.0726 90.53C81.2226 92.18 78.3026 93.73 75.3926 95.14C72.4826 93.73 69.5626 92.18 66.7126 90.53C63.9126 88.91 61.1626 87.19 58.5126 85.4C58.2726 82.13 58.1525 78.8 58.1525 75.49L58.1426 75.48ZM63.2725 54.5C62.0225 55.22 60.7426 55.99 59.4526 56.79C59.8026 54.41 60.2126 52.09 60.6926 49.87C62.8526 50.57 65.0625 51.37 67.3025 52.26C65.9125 53 64.5625 53.75 63.2725 54.5ZM62.4025 43.22C65.7825 32.03 70.8926 24.85 75.5026 24.85C80.1126 24.85 85.2626 32 88.6226 43.14C84.3226 44.5 79.8726 46.22 75.3826 48.26C70.9926 46.26 66.6325 44.57 62.4025 43.22ZM119.223 50.16C121.153 53.5 118.833 59.9299 113.163 66.9399C112.183 68.1499 111.093 69.4 109.893 70.67C106.623 67.69 102.993 64.76 99.0826 61.96C98.6126 57.14 97.8826 52.44 96.8926 47.96C98.5626 47.57 100.173 47.25 101.673 47.02C104.133 46.63 106.453 46.4299 108.553 46.4299C114.053 46.4299 117.843 47.75 119.233 50.16H119.223ZM87.4926 54.5C86.2026 53.75 84.8426 53 83.4626 52.26C85.7926 51.33 88.0926 50.5 90.3226 49.79C90.8126 52.09 91.2426 54.5 91.5926 56.97C90.2026 56.11 88.8326 55.28 87.4926 54.51V54.5ZM63.2725 96.45C64.5725 97.2 65.9225 97.9499 67.3025 98.6899C65.0725 99.5799 62.8526 100.38 60.6926 101.08C60.2126 98.86 59.7926 96.54 59.4526 94.16C60.7326 94.95 62.0125 95.72 63.2725 96.45ZM75.3826 102.7C79.8826 104.75 84.3326 106.47 88.6326 107.83C85.2826 118.96 80.1626 126.12 75.5026 126.12C70.8426 126.12 65.7825 118.93 62.4025 107.75C66.6325 106.4 70.9926 104.71 75.3826 102.71V102.7ZM99.0826 88.99C102.993 86.19 106.633 83.26 109.903 80.28C111.103 81.55 112.193 82.81 113.173 84.01C118.843 91.02 121.163 97.45 119.233 100.79C117.843 103.19 114.053 104.52 108.553 104.52C106.453 104.52 104.133 104.32 101.673 103.93C100.193 103.7 98.6026 103.38 96.9426 103C97.8926 98.64 98.6126 93.94 99.0926 88.99H99.0826ZM49.0926 47.02C50.6526 47.27 52.3025 47.59 54.0225 48C53.0925 52.3 52.3825 56.94 51.9225 61.79C47.9025 64.65 44.1926 67.6399 40.8626 70.6799C39.6626 69.4099 38.5726 68.15 37.5926 66.95C31.9226 59.94 29.6025 53.51 31.5325 50.17C32.9225 47.77 36.7126 46.4399 42.2126 46.4399C44.3126 46.4399 46.6226 46.64 49.0926 47.03V47.02ZM51.3526 80.1899C49.3726 78.6399 47.5026 77.06 45.7626 75.48C47.5026 73.9 49.3826 72.32 51.3526 70.77C51.3026 72.35 51.2825 73.93 51.2825 75.48C51.2825 77.03 51.3126 78.6099 51.3526 80.1899ZM37.5926 84.01C38.5726 82.8 39.6626 81.55 40.8626 80.28C44.1926 83.32 47.9125 86.3 51.9225 89.17C52.3825 94.02 53.0825 98.66 54.0225 102.96C52.3025 103.36 50.6526 103.69 49.0926 103.94C46.6326 104.33 44.3126 104.53 42.2126 104.53C36.7126 104.53 32.9225 103.21 31.5325 100.8C29.6025 97.4599 31.9226 91.03 37.5926 84.02V84.01Z" fill="url(#paint0_linear_2613_265)"></path>
<defs>
<linearGradient id="paint0_linear_2613_265" x1="31.9126" y1="44.97" x2="116.033" y2="104.01" gradientUnits="userSpaceOnUse">
<stop offset="0.22" stop-color="#00CB78"></stop>
<stop offset="0.83" stop-color="#00C3D0"></stop>
</linearGradient>
</defs>
</svg>