<svg width="150" height="150" viewBox="0 0 150 150" fill="none" xmlns="http://www.w3.org/2000/svg">
<path d="M19 76.5853C19 48.3929 40.1943 25.0709 67.5086 21.6306L65.1249 19.2504C63.9229 18.0503 63.9229 16.1002 65.1249 14.9001C66.3268 13.7 68.28 13.7 69.4819 14.9001L76.6735 22.0807C76.8137 22.2207 76.944 22.3807 77.0642 22.5507C77.1142 22.6207 77.1443 22.7007 77.1944 22.7807C77.2445 22.8807 77.3046 22.9708 77.3547 23.0808C77.3947 23.1808 77.4248 23.2908 77.4548 23.3908C77.4849 23.4808 77.5149 23.5608 77.5349 23.6508C77.615 24.0509 77.615 24.4609 77.5349 24.8609C77.5149 24.9509 77.4849 25.0309 77.4548 25.1209C77.4248 25.2209 77.4047 25.331 77.3547 25.431C77.3146 25.531 77.2545 25.631 77.1944 25.731C77.1543 25.811 77.1142 25.891 77.0642 25.961C76.954 26.131 76.8238 26.291 76.6735 26.4311L69.4819 33.6117C68.8809 34.2117 68.0896 34.5117 67.2983 34.5117C66.507 34.5117 65.7158 34.2117 65.1148 33.6117C63.9129 32.4116 63.9129 30.4614 65.1148 29.2613L66.3669 28.0112C43.019 31.8915 25.16 52.1932 25.16 76.5853C25.16 103.748 47.2859 125.839 74.49 125.839C101.694 125.839 123.82 103.748 123.82 76.5853C123.82 58.3738 113.824 41.7224 97.7277 33.1216C96.2252 32.3216 95.6643 30.4514 96.4656 28.9513C97.2669 27.4511 99.14 26.8911 100.642 27.6912C118.752 37.362 130 56.0936 130 76.5853C130 107.138 105.1 132 74.5001 132C43.9004 132 19 107.138 19 76.5853ZM67.5086 42.7324H81.5314C82.8535 42.7324 84.0254 43.5725 84.4461 44.8126L87.0804 52.5233C87.9118 52.9433 88.7331 53.4033 89.5144 53.9034L97.7277 52.2632C99.0198 52.0132 100.322 52.5933 100.983 53.7134L107.994 65.5644C108.685 66.7245 108.535 68.1946 107.624 69.1947L102.015 75.3752V77.8254L107.624 84.0059C108.535 85.006 108.685 86.4761 107.994 87.6362L100.983 99.4872C100.312 100.617 99.0098 101.197 97.7277 100.937L89.5144 99.2972C88.7231 99.7973 87.9118 100.257 87.0804 100.677L84.4461 108.388C84.0154 109.638 82.8435 110.468 81.5314 110.468H67.5086C66.1865 110.468 65.0147 109.628 64.594 108.388L61.9597 100.677C61.1283 100.257 60.307 99.7973 59.5257 99.2972L51.3124 100.937C50.0203 101.197 48.7182 100.607 48.0571 99.4872L41.0458 87.6362C40.3546 86.4761 40.5049 85.006 41.4164 84.0059L47.0254 77.8254V75.3752L41.4164 69.1947C40.5049 68.1946 40.3546 66.7245 41.0458 65.5644L48.0571 53.7134C48.7282 52.5833 50.0303 52.0032 51.3124 52.2632L59.5257 53.9034C60.317 53.4033 61.1283 52.9433 61.9597 52.5233L64.594 44.8126C65.0247 43.5625 66.1965 42.7324 67.5086 42.7324ZM69.7223 48.8829L67.3785 55.7435C67.0981 56.5536 66.497 57.2237 65.7058 57.5637C64.3936 58.1437 63.1316 58.8538 61.9597 59.6839C61.2686 60.1739 60.4072 60.3539 59.5758 60.1839L52.2539 58.7238L47.5062 66.7445L52.3941 72.1249C52.905 72.695 53.1955 73.425 53.1955 74.1951V79.0155C53.1955 79.7756 52.915 80.5156 52.3941 81.0857L47.5062 86.4661L52.2539 94.4868L59.5758 93.0267C60.4072 92.8567 61.2686 93.0467 61.9597 93.5267C63.1316 94.3568 64.3936 95.0669 65.7058 95.6369C66.497 95.9869 67.1081 96.647 67.3785 97.4571L69.7223 104.318H79.3379L81.6816 97.4571C81.9621 96.637 82.5731 95.9769 83.3544 95.6369C84.6665 95.0569 85.9286 94.3468 87.1005 93.5267C87.7916 93.0367 88.653 92.8567 89.4843 93.0267L96.8061 94.4868L101.554 86.4661L96.666 81.0857C96.1552 80.5156 95.8647 79.7856 95.8647 79.0155V74.1951C95.8647 73.435 96.1452 72.695 96.666 72.1249L101.554 66.7445L96.8061 58.7238L89.4843 60.1839C88.653 60.3539 87.7916 60.1639 87.1005 59.6839C85.9286 58.8538 84.6665 58.1437 83.3544 57.5637C82.5631 57.2137 81.9621 56.5536 81.6816 55.7435L79.3379 48.8829H69.7223ZM84.977 28.5312C85.1573 28.6512 85.3576 28.7612 85.5679 28.8512C85.7582 28.9312 85.9786 28.9913 86.199 29.0313C86.4293 29.0813 86.6397 29.1013 86.8701 29.1013C87.1005 29.1013 87.3108 29.0813 87.5312 29.0313C87.7516 28.9913 87.9618 28.9312 88.1721 28.8512C88.3825 28.7612 88.5729 28.6612 88.7632 28.5312C88.9435 28.4112 89.1238 28.2612 89.274 28.1112C89.9151 27.4811 90.2756 26.6111 90.2756 25.721C90.2756 25.491 90.2555 25.2809 90.2055 25.0509C90.1654 24.8309 90.1054 24.6309 90.0252 24.4209C89.9351 24.2109 89.8349 24.0208 89.7047 23.8408C89.5845 23.6608 89.4343 23.4808 89.284 23.3308C89.1338 23.1708 88.9535 23.0308 88.7732 22.9107C88.5929 22.7907 88.3925 22.6707 88.1822 22.5907C87.9818 22.5107 87.7615 22.4507 87.5411 22.4007C87.1104 22.3207 86.6597 22.3207 86.219 22.4007C85.9987 22.4507 85.7883 22.5107 85.588 22.5907C85.3776 22.6707 85.1874 22.7807 84.9971 22.9107C84.8168 23.0308 84.6365 23.1708 84.4762 23.3308C84.326 23.4808 84.1757 23.6608 84.0555 23.8408C83.9453 24.0208 83.8252 24.2209 83.745 24.4209C83.6649 24.6309 83.6047 24.8309 83.5446 25.0509C83.5046 25.2809 83.4846 25.491 83.4846 25.721C83.4846 26.6111 83.8452 27.4911 84.4662 28.1112C84.6264 28.2612 84.8067 28.4112 84.987 28.5312H84.977ZM71.365 77.8854C71.4551 78.0854 71.5552 78.2854 71.6854 78.4655C71.8156 78.6455 71.9459 78.8255 72.0961 78.9755C72.7372 79.6056 73.6086 79.9556 74.5001 79.9556C75.3915 79.9556 76.2629 79.5956 76.894 78.9755C77.0542 78.8255 77.1944 78.6455 77.3146 78.4655C77.4348 78.2854 77.545 78.0854 77.6351 77.8854C77.7153 77.6754 77.7753 77.4654 77.8154 77.2454C77.8655 77.0253 77.8856 76.8053 77.8856 76.5753C77.8856 76.3453 77.8655 76.1352 77.8154 75.9152C77.7753 75.6952 77.7153 75.4852 77.6351 75.2752C77.545 75.0752 77.4448 74.8751 77.3146 74.6951C77.1843 74.5151 77.0542 74.3351 76.894 74.1851C75.6319 72.925 73.3582 72.925 72.0961 74.1851C71.9459 74.3351 71.8056 74.5151 71.6854 74.6951C71.5652 74.8751 71.4551 75.0752 71.365 75.2752C71.2848 75.4852 71.2247 75.6952 71.1746 75.9152C71.1345 76.1352 71.1146 76.3553 71.1146 76.5753C71.1146 76.7953 71.1345 77.0253 71.1746 77.2454C71.2247 77.4654 71.2848 77.6754 71.365 77.8854Z" fill="url(#paint0_linear_2613_55)"></path>
<defs>
<linearGradient id="paint0_linear_2613_55" x1="43.2393" y1="35.1418" x2="114.225" y2="129.505" gradientUnits="userSpaceOnUse">
<stop offset="0.22" stop-color="#00CB78"></stop>
<stop offset="0.83" stop-color="#00C3D0"></stop>
</linearGradient>
</defs>
</svg>