<svg width="150" height="150" viewBox="0 0 150 150" fill="none" xmlns="http://www.w3.org/2000/svg">
<path d="M130.11 74.34H122.7C121.06 74.34 119.73 75.67 119.73 77.31C119.73 78.95 121.06 80.28 122.7 80.28H130.11C131.75 80.28 133.08 78.95 133.08 77.31C133.08 75.67 131.75 74.34 130.11 74.34ZM73.3 33.35C74.94 33.35 76.27 32.02 76.27 30.38V22.97C76.27 21.33 74.94 20 73.3 20C71.66 20 70.3301 21.33 70.3301 22.97V30.38C70.3301 32.02 71.66 33.35 73.3 33.35ZM26.38 71.85H18.97C17.33 71.85 16 73.18 16 74.82C16 76.46 17.33 77.79 18.97 77.79H26.38C28.02 77.79 29.35 76.46 29.35 74.82C29.35 73.18 28.02 71.85 26.38 71.85ZM112.45 107.32C111.89 106.76 111.14 106.45 110.35 106.45C109.56 106.45 108.81 106.76 108.25 107.32C107.09 108.48 107.09 110.36 108.25 111.52L113.19 116.46C113.75 117.02 114.5 117.33 115.29 117.33C116.08 117.33 116.83 117.02 117.39 116.46C118.55 115.3 118.55 113.42 117.39 112.26L112.45 107.32ZM115.29 34.82C114.5 34.82 113.75 35.13 113.19 35.69L108.25 40.63C107.09 41.79 107.09 43.67 108.25 44.83C108.81 45.39 109.56 45.7 110.35 45.7C111.14 45.7 111.89 45.39 112.45 44.83L117.39 39.89C118.55 38.73 118.55 36.85 117.39 35.69C116.83 35.13 116.08 34.82 115.29 34.82ZM108.38 51.89C108.38 47.98 105.54 44.69 101.63 44.07L54.63 38.12C54.27 38.07 53.9 38.04 53.53 38.04C51.62 38.04 49.78 38.73 48.34 39.98C46.61 41.48 45.62 43.66 45.62 45.95V64.48C42.86 64.74 40.6801 67.07 40.6801 69.9V99.54C40.6801 103.9 44.23 107.45 48.59 107.45H50.5601V114.36C50.5601 115.15 50.8601 115.9 51.4301 116.46C51.9901 117.02 52.74 117.33 53.53 117.33C55.17 117.33 56.5 116 56.5 114.36V106.95C56.5 105.5 55.94 104.13 54.91 103.1C53.88 102.07 52.5201 101.51 51.0601 101.51H48.59C47.5 101.51 46.62 100.63 46.62 99.54V70.4H81.8V70.72C81.8 74.55 77.14 77.63 73.28 77.63H63.4C61.76 77.63 60.4301 78.96 60.4301 80.6C60.4301 82.24 61.76 83.57 63.4 83.57H73.28C77.7 83.57 82.32 81.32 85.12 77.81H97.98C99.62 77.81 100.95 76.48 100.95 74.84C100.95 73.2 99.62 71.87 97.98 71.87H87.66C87.71 71.46 87.73 71.08 87.73 70.72V69.9C87.73 66.9 85.29 64.46 82.29 64.46H51.54V45.95C51.54 45.37 51.78 44.84 52.22 44.46C52.59 44.14 53.02 43.98 53.51 43.98C53.61 43.98 53.7201 43.98 53.8301 44L100.78 49.94C101.73 50.09 102.42 50.91 102.42 51.88V99.53C102.42 100.62 101.53 101.5 100.44 101.5C97.4401 101.5 95 103.94 95 106.94V121.26H65.86C64.22 121.26 62.89 122.59 62.89 124.23C62.89 125.87 64.22 127.2 65.86 127.2H97.97C99.61 127.2 100.94 125.87 100.94 124.23V107.43C105.07 107.17 108.35 103.73 108.35 99.54V51.89H108.38ZM38.73 106.45C37.94 106.45 37.19 106.76 36.63 107.32L31.6901 112.26C31.1301 112.82 30.8201 113.57 30.8201 114.36C30.8201 115.15 31.1301 115.9 31.6901 116.46C32.2501 117.02 33 117.33 33.79 117.33C34.58 117.33 35.33 117.02 35.89 116.46L40.8301 111.52C41.3901 110.96 41.7001 110.21 41.7001 109.42C41.7001 108.63 41.3901 107.88 40.8301 107.32C40.2701 106.76 39.52 106.45 38.73 106.45ZM36.63 44.83C37.19 45.39 37.94 45.7 38.73 45.7C39.52 45.7 40.2701 45.39 40.8301 44.83C41.3901 44.27 41.7001 43.52 41.7001 42.73C41.7001 41.94 41.3901 41.19 40.8301 40.63L35.89 35.69C35.33 35.13 34.58 34.82 33.79 34.82C33 34.82 32.2501 35.13 31.6901 35.69C31.1301 36.25 30.8201 37 30.8201 37.79C30.8201 38.58 31.1301 39.33 31.6901 39.89L36.63 44.83ZM53.53 121.02C53.32 121.02 53.12 121.04 52.92 121.08C52.69 121.13 52.5001 121.19 52.3301 121.26C52.1501 121.33 51.97 121.43 51.77 121.56C51.58 121.69 51.42 121.82 51.27 121.96C50.67 122.56 50.3301 123.38 50.3301 124.23C50.3301 125.08 50.67 125.91 51.27 126.5C51.41 126.64 51.57 126.77 51.77 126.9C51.93 127.01 52.1101 127.1 52.3101 127.2C52.5301 127.29 52.72 127.34 52.92 127.38C53.11 127.42 53.32 127.45 53.55 127.45C54.4 127.45 55.2301 127.1 55.8201 126.5C56.4201 125.91 56.76 125.08 56.76 124.23C56.76 123.38 56.4101 122.55 55.8101 121.96C55.2201 121.36 54.39 121.02 53.52 121.02H53.53Z" fill="url(#paint0_linear_2613_102)"></path>
<defs>
<linearGradient id="paint0_linear_2613_102" x1="26.06" y1="41.84" x2="121.7" y2="109.38" gradientUnits="userSpaceOnUse">
<stop offset="0.22" stop-color="#00CB78"></stop>
<stop offset="0.83" stop-color="#00C3D0"></stop>
</linearGradient>
</defs>
</svg>