<svg width="150" height="150" viewBox="0 0 150 150" fill="none" xmlns="http://www.w3.org/2000/svg">
<path d="M46.53 32.4984C45.89 31.8584 45.53 30.9784 45.53 30.0784C45.53 29.1784 45.89 28.2984 46.53 27.6684C47.79 26.3984 50.07 26.3984 51.35 27.6684C51.99 28.3084 52.35 29.1884 52.35 30.0784C52.35 30.9684 51.99 31.8584 51.35 32.4984C51.19 32.6584 51.02 32.7984 50.83 32.9184C50.64 33.0384 50.45 33.1484 50.24 33.2284C50.03 33.3084 49.82 33.3884 49.6 33.4284C49.38 33.4684 49.16 33.4884 48.94 33.4884C48.72 33.4884 48.5 33.4684 48.27 33.4284C48.05 33.3884 47.85 33.3184 47.64 33.2284C47.43 33.1384 47.24 33.0384 47.05 32.9184C46.86 32.7984 46.69 32.6484 46.53 32.4984ZM102.75 128.208C102.98 129.968 101.79 131.698 99.83 131.988C99.07 132.098 98.3 131.878 97.65 131.488L74.82 117.788L51.93 131.518C50.41 132.428 48.35 132.028 47.31 130.348C46.91 129.698 46.8 128.898 46.9 128.138L52.58 85.3784C43.13 78.4984 37 67.3684 37 54.8084C37 50.6784 37.67 46.6984 38.89 42.9784C39.67 40.6184 42.68 39.9284 44.44 41.6884C45.34 42.5884 45.64 43.8984 45.25 45.1084C43.92 49.1684 43.39 53.5984 43.88 58.1984C45.43 72.6984 57.17 84.3384 71.68 85.7584C78.97 86.4684 85.79 84.6584 91.41 81.0984C91.57 80.9684 91.74 80.8584 91.93 80.7684C100.7 74.9784 106.37 64.8584 105.89 53.4484C105.23 37.9084 92.88 25.0484 77.38 23.7884C72.57 23.3984 67.97 24.1184 63.79 25.6984C62.55 26.1684 61.16 25.8784 60.23 24.9384C58.5 23.2084 59.15 20.2784 61.44 19.4084C66.16 17.6484 71.33 16.7784 76.72 17.0484C95.75 17.9884 111.33 33.3284 112.54 52.3384C113.4 65.8984 107.1 78.0384 97.06 85.3684L102.75 128.208ZM95.19 122.198L90.8 89.0684C85.94 91.3384 80.53 92.6184 74.82 92.6184C69.11 92.6184 63.69 91.3484 58.84 89.0784L54.44 122.208L73.1 111.018L73.51 110.808C74.49 110.388 75.62 110.458 76.55 111.018L95.2 122.208L95.19 122.198Z" fill="url(#paint0_linear_2613_210)"></path>
<defs>
<linearGradient id="paint0_linear_2613_210" x1="37" y1="74.5084" x2="112.62" y2="74.5084" gradientUnits="userSpaceOnUse">
<stop stop-color="#25C478"></stop>
<stop offset="1" stop-color="#50B7C9"></stop>
</linearGradient>
</defs>
</svg>