<svg width="150" height="150" viewBox="0 0 150 150" fill="none" xmlns="http://www.w3.org/2000/svg">
<path d="M126.6 51.1575L81.25 21.7475C77.67 19.4175 73.04 19.4175 69.45 21.7475L24.1 51.1575C19.97 53.8375 18.21 58.6075 19.6 63.3275C21 68.0475 25.08 71.0875 29.99 71.0875H38.49V110.087H27.22C25.44 110.087 23.99 111.657 23.99 113.587C23.99 115.517 25.44 117.087 27.22 117.087H122.76C124.54 117.087 125.99 115.517 125.99 113.587C125.99 111.657 124.54 110.087 122.76 110.087H114.49V71.0875H120.69C125.61 71.0875 129.69 68.0375 131.08 63.3275C132.47 58.6175 130.71 53.8375 126.59 51.1575H126.6ZM60.5 110.087H45.5V71.0875H60.5V110.087ZM85.5 110.087H67.5V71.0875H85.5V110.087ZM107.5 110.087H92.5V71.0875H107.5V110.087ZM124.38 61.3375C123.99 62.6675 122.81 64.0875 120.7 64.0875H30C27.88 64.0875 26.71 62.6675 26.32 61.3375C25.93 60.0075 26.14 58.1775 27.91 57.0275L73.26 27.6175C73.88 27.2175 74.61 26.9975 75.35 26.9975C76.09 26.9975 76.81 27.2075 77.44 27.6175L122.79 57.0275C124.56 58.1775 124.78 60.0075 124.38 61.3375ZM120 125.587C120 127.517 118.43 129.087 116.5 129.087H22.5C20.57 129.087 19 127.517 19 125.587C19 123.657 20.57 122.087 22.5 122.087H116.5C118.43 122.087 120 123.657 120 125.587ZM82.07 47.7475C82.36 48.3675 82.5 49.1475 82.5 50.0875C82.5 50.8375 82.39 51.5175 82.16 52.1475C81.94 52.7675 81.61 53.3175 81.2 53.7875C80.78 54.2575 80.29 54.6475 79.71 54.9575C79.13 55.2675 78.48 55.4975 77.75 55.6475V57.6075C77.75 57.9675 77.72 58.3175 77.65 58.6375C77.59 58.9575 77.43 59.2175 77.17 59.4275C76.91 59.6275 76.51 59.7375 75.95 59.7375C75.39 59.7375 74.99 59.6275 74.73 59.4175C74.47 59.2075 74.32 58.9375 74.26 58.6175C74.21 58.2975 74.18 57.9575 74.18 57.5875V55.6275C73.62 55.5175 73.09 55.3475 72.59 55.1175C72.09 54.8875 71.63 54.5975 71.21 54.2475C70.79 53.9075 70.43 53.5275 70.13 53.1275C69.72 52.5475 69.54 52.0575 69.57 51.6475C69.6 51.2375 69.91 50.7675 70.48 50.2375C70.87 49.9175 71.23 49.7375 71.57 49.7075C71.91 49.6775 72.24 49.7575 72.57 49.9475C72.89 50.1375 73.18 50.4075 73.44 50.7475C73.78 51.1975 74.15 51.5275 74.55 51.7475C74.95 51.9575 75.39 52.0675 75.88 52.0675C76.44 52.0675 76.9 51.9975 77.28 51.8575C77.65 51.7175 77.93 51.5075 78.11 51.2175C78.29 50.9275 78.38 50.5775 78.38 50.1775C78.38 49.6875 78.13 49.3175 77.63 49.0875C77.13 48.8475 76.5 48.6375 75.74 48.4475C74.98 48.2575 74.23 47.9875 73.48 47.6475C73.01 47.4575 72.56 47.2175 72.13 46.9375C71.7 46.6575 71.32 46.3275 70.99 45.9375C70.66 45.5475 70.39 45.0875 70.19 44.5575C69.99 44.0275 69.88 43.3875 69.88 42.6675C69.88 41.9875 69.98 41.3675 70.19 40.8075C70.39 40.2475 70.68 39.7575 71.06 39.3275C71.44 38.8975 71.88 38.5375 72.41 38.2575C72.94 37.9675 73.53 37.7475 74.19 37.5975V35.8675C74.19 35.5075 74.22 35.1675 74.27 34.8575C74.32 34.5475 74.48 34.2875 74.74 34.0875C75 33.8875 75.4 33.7875 75.96 33.7875C76.52 33.7875 76.92 33.8875 77.18 34.0875C77.44 34.2875 77.6 34.5575 77.66 34.8775C77.72 35.1975 77.76 35.5375 77.76 35.9075V37.5775C78.36 37.6575 78.89 37.8375 79.35 38.0875C79.81 38.3475 80.26 38.6675 80.71 39.0475C81.22 39.4975 81.5 39.8875 81.54 40.2175C81.58 40.5475 81.39 41.0175 80.96 41.6175C80.68 42.0475 80.39 42.3475 80.09 42.5175C79.79 42.6875 79.49 42.7375 79.18 42.6775C78.87 42.6175 78.53 42.4675 78.17 42.2275C77.98 42.0575 77.78 41.8975 77.58 41.7475C77.38 41.5975 77.14 41.4775 76.86 41.3775C76.58 41.2775 76.22 41.2275 75.77 41.2275C75.51 41.2275 75.28 41.2675 75.06 41.3375C74.85 41.4175 74.66 41.5175 74.5 41.6575C74.34 41.7975 74.21 41.9575 74.11 42.1375C74.01 42.3175 73.96 42.5075 73.96 42.6975C73.96 43.1475 74.13 43.4875 74.47 43.7275C74.81 43.9675 75.27 44.1575 75.83 44.3075C76.4 44.4575 77 44.6175 77.64 44.7875C78.22 44.9375 78.79 45.1275 79.36 45.3475C79.93 45.5675 80.45 45.8775 80.92 46.2675C81.39 46.6475 81.77 47.1575 82.06 47.7775L82.07 47.7475ZM131.22 123.277C131.88 123.927 132.26 124.837 132.26 125.767C132.26 126.697 131.88 127.607 131.23 128.257C130.58 128.917 129.67 129.298 128.74 129.298C127.81 129.298 126.9 128.917 126.25 128.267C125.59 127.617 125.21 126.707 125.21 125.777C125.21 124.847 125.59 123.937 126.24 123.287C126.87 122.657 127.77 122.298 128.73 122.298C129.69 122.298 130.59 122.657 131.22 123.287V123.277Z" fill="url(#paint0_linear_2613_207)"></path>
<defs>
<linearGradient id="paint0_linear_2613_207" x1="19" y1="74.6475" x2="132.26" y2="74.6475" gradientUnits="userSpaceOnUse">
<stop offset="0.22" stop-color="#00CB78"></stop>
<stop offset="0.83" stop-color="#00C3D0"></stop>
</linearGradient>
</defs>
</svg>