<svg width="150" height="150" viewBox="0 0 150 150" fill="none" xmlns="http://www.w3.org/2000/svg">
<path d="M128.88 104.61V78.36C128.88 73.58 124.99 69.6899 120.21 69.6899H109.82V64.4099C109.82 61.5999 107.86 59.23 105.05 58.65C101.5 57.92 98.9299 54.76 98.9299 51.14C98.9299 47.88 101 44.97 104.08 43.89C107.51 42.7 109.82 39.38 109.82 35.64V34.7999C109.82 33.0199 108.37 31.58 106.6 31.58C104.83 31.58 103.38 33.0299 103.38 34.7999V35.64C103.38 36.63 102.8 37.5199 101.97 37.8099C96.3 39.7799 92.49 45.14 92.49 51.14C92.49 57.66 97.05 63.38 103.38 64.89V69.6899H77.15V59.4399C79.61 58.8699 81.87 57.64 83.71 55.87C86.5 53.18 88.04 49.57 88.04 45.7C88.04 43.92 86.5899 42.48 84.8199 42.48C83.0499 42.48 81.6 43.93 81.6 45.7C81.6 47.8 80.77 49.77 79.25 51.23C77.81 52.61 75.93 53.37 73.95 53.37C73.85 53.37 73.74 53.37 73.63 53.37C69.72 53.22 66.42 49.92 66.27 46.01C66.14 42.66 68.1699 39.64 71.3099 38.5C74.8099 37.23 77.16 33.9399 77.16 30.3099V29.37C77.16 27.59 75.7099 26.15 73.9399 26.15C72.1699 26.15 70.72 27.6 70.72 29.37V30.3099C70.72 31.2499 70.09 32.0899 69.12 32.4399C63.34 34.5399 59.61 40.1 59.84 46.25C60.08 52.61 64.53 57.9799 70.72 59.4299V69.6899H47.22V64.4099C47.22 61.5999 45.26 59.23 42.45 58.65C38.9 57.92 36.33 54.76 36.33 51.14C36.33 47.88 38.4 44.97 41.48 43.89C44.91 42.7 47.22 39.38 47.22 35.64V34.7999C47.22 33.0199 45.77 31.58 44 31.58C42.23 31.58 40.78 33.0299 40.78 34.7999V35.64C40.78 36.63 40.2 37.5199 39.37 37.8099C33.7 39.7799 29.89 45.14 29.89 51.14C29.89 57.66 34.45 63.38 40.78 64.89V69.6799H27.6699C22.8899 69.6799 19 73.57 19 78.35V121.95C19 126.73 22.8899 130.62 27.6699 130.62H120.24C125.02 130.62 128.91 126.74 128.91 121.96V105.77C128.98 105.38 128.98 105 128.91 104.61H128.88ZM25.4199 78.35C25.4199 77.12 26.42 76.13 27.64 76.13H120.21C121.44 76.13 122.43 77.14 122.43 78.36V97.35L116.41 91.3199C114.77 89.6799 112.6 88.78 110.28 88.78C107.96 88.78 105.79 89.6799 104.15 91.3199L93.7 101.77C93.3 102.17 92.73 102.39 92.13 102.39C91.53 102.39 90.9599 102.16 90.5599 101.77L80.11 91.3199C78.47 89.6799 76.3 88.78 73.98 88.78C71.66 88.78 69.49 89.6799 67.85 91.3199L57.4 101.77C57 102.17 56.43 102.39 55.83 102.39C55.23 102.39 54.66 102.16 54.26 101.77L43.8099 91.3199C42.1699 89.6799 39.9999 88.78 37.6799 88.78C35.3599 88.78 33.1899 89.6799 31.5499 91.3199L25.4199 97.46V78.36V78.35ZM27.64 124.18C26.41 124.18 25.4199 123.18 25.4199 121.96V106.58L36.11 95.88C36.51 95.48 37.0799 95.26 37.6799 95.26C38.2799 95.26 38.85 95.49 39.25 95.89L49.7 106.34C51.34 107.98 53.51 108.88 55.83 108.88C58.15 108.88 60.32 107.98 61.96 106.34L72.41 95.89C72.81 95.49 73.38 95.27 73.98 95.27C74.58 95.27 75.1499 95.5 75.5499 95.9L86 106.35C87.64 107.99 89.81 108.89 92.13 108.89C94.45 108.89 96.62 107.99 98.26 106.35L108.71 95.9C109.11 95.5 109.68 95.28 110.28 95.28C110.88 95.28 111.45 95.51 111.85 95.9L122.43 106.49V121.98C122.43 123.21 121.43 124.2 120.21 124.2H27.64V124.18ZM71.99 21.39C72.18 21.52 72.39 21.63 72.6 21.71C72.79 21.8 73.01 21.8599 73.25 21.9099C73.46 21.9599 73.6899 21.98 73.9299 21.98C74.1699 21.98 74.41 21.95 74.63 21.9C74.85 21.86 75.08 21.79 75.28 21.7C75.47 21.62 75.68 21.51 75.87 21.39C76.06 21.26 76.24 21.12 76.4 20.96C77.05 20.32 77.4299 19.42 77.4299 18.49C77.4299 17.56 77.06 16.67 76.4 16.01C76.24 15.85 76.06 15.7 75.87 15.58C75.68 15.45 75.47 15.34 75.26 15.26C75.02 15.16 74.8 15.0999 74.61 15.0599C74.4 15.0199 74.17 15 73.95 15C73.02 15 72.11 15.37 71.47 16.02C70.82 16.67 70.4399 17.58 70.4399 18.5C70.4399 19.42 70.82 20.33 71.47 20.97C71.63 21.13 71.81 21.28 72 21.4L71.99 21.39Z" fill="url(#paint0_linear_2613_268)"></path>
<defs>
<linearGradient id="paint0_linear_2613_268" x1="25.48" y1="55.78" x2="118.94" y2="113.7" gradientUnits="userSpaceOnUse">
<stop offset="0.22" stop-color="#00CB78"></stop>
<stop offset="0.83" stop-color="#00C3D0"></stop>
</linearGradient>
</defs>
</svg>