<svg width="150" height="150" viewBox="0 0 150 150" fill="none" xmlns="http://www.w3.org/2000/svg">
<path d="M21.168 86.7999C21.598 86.0399 21.7081 85.13 21.4781 84.29C21.1081 82.92 19.7081 81.88 18.2281 81.88C17.9481 81.88 17.678 81.92 17.418 81.99C16.578 82.23 15.858 82.7999 15.428 83.5499C15.008 84.2999 14.8882 85.2099 15.1082 86.0499C15.1782 86.2899 15.2582 86.49 15.3482 86.66C15.4282 86.83 15.548 87.02 15.698 87.21C15.828 87.38 15.9782 87.54 16.1382 87.67C16.3082 87.82 16.488 87.94 16.668 88.04C16.858 88.15 17.0481 88.2299 17.2481 88.2999C17.4381 88.3599 17.6382 88.4099 17.8782 88.4399C18.0182 88.4599 18.1581 88.47 18.2981 88.47C18.3781 88.47 18.4481 88.47 18.5281 88.47C18.7381 88.45 18.958 88.42 19.168 88.36C20.008 88.13 20.738 87.5699 21.158 86.8099L21.168 86.7999ZM134.668 83.29C134.078 82.38 132.998 81.8299 131.778 81.8199C129.138 81.8099 126.468 81.7999 123.828 81.7999H118.758H118.658H116.258H113.268H111.458V70.3H111.978C112.418 70.3 112.838 70.3 113.258 70.3C113.668 70.3 114.068 70.3 114.468 70.3C114.938 70.3 115.398 70.3 115.858 70.28C123.978 69.95 130.828 63.99 131.788 56.42C132.278 52.56 132.238 48.56 132.198 44.68C132.178 43.04 132.158 41.19 132.198 39.42V39.38V39.34C132.198 39.29 132.178 39.24 132.168 39.19L132.138 39.07C131.828 37.76 130.718 36.84 129.378 36.77C129.318 36.77 129.248 36.77 129.188 36.77C128.378 36.77 127.628 37.05 127.088 37.56C126.488 38.13 126.148 38.96 126.138 39.9C126.128 41.86 126.128 43.85 126.138 45.78V45.85C126.138 48.1 126.138 50.43 126.118 52.71C126.068 57.32 124.078 60.75 120.208 62.9C117.978 64.14 115.588 64.19 113.278 64.24C112.948 64.24 112.668 64.25 112.388 64.26H112.238C111.008 64.26 110.358 63.77 110.018 62.55C107.438 53.53 101.988 46.48 93.8182 41.59C93.5482 41.43 93.3082 41.27 93.0682 41.1L92.7281 40.87L92.1182 40.47L92.688 40.02C93.158 39.66 93.6182 39.31 94.0682 38.97C95.0782 38.22 96.0082 37.53 96.8482 36.74C101.678 32.22 104.148 26.56 104.188 19.94C104.188 18.36 103.008 17.1 101.428 17C101.348 17 101.268 17 101.188 17C99.568 17 98.378 18.05 98.158 19.67C98.078 20.24 98.0381 20.83 98.0081 21.37C97.5281 29.37 90.7182 36.2 82.8082 36.6C80.4982 36.72 78.168 36.77 75.688 36.77C74.048 36.77 72.3181 36.74 70.5481 36.69C63.5981 36.49 58.508 33.18 55.428 26.86C54.308 24.56 54.0882 22.08 53.8682 19.67C53.7282 18.07 52.5182 17 50.8582 17C50.7882 17 50.7082 17 50.6382 17C49.0082 17.09 47.8382 18.37 47.8482 20.03C47.8882 25.85 49.7981 30.89 53.5181 34.98C54.6881 36.26 55.9982 37.37 57.3782 38.54C57.9882 39.06 58.6281 39.6 59.2481 40.15L59.7681 40.62L59.168 40.99C58.978 41.11 58.7681 41.23 58.5481 41.36C58.0581 41.66 57.4981 41.99 56.9681 42.33C50.2181 46.7 45.3782 52.82 42.5782 60.53C42.4682 60.84 42.3781 61.21 42.2881 61.6C42.0781 62.53 41.858 63.48 41.168 63.94C40.758 64.21 40.2381 64.34 39.5081 64.34C39.1281 64.34 38.7282 64.31 38.3482 64.27C38.0082 64.24 37.6582 64.21 37.3482 64.21C33.4782 64.17 30.388 62.68 28.158 59.78C26.648 57.82 25.918 55.47 25.908 52.6C25.908 50.8 25.908 49 25.908 47.21C25.908 44.96 25.9082 42.41 25.8982 39.91C25.8982 38.87 25.4881 37.98 24.7681 37.4C24.2381 36.97 23.5882 36.75 22.8782 36.75C22.6482 36.75 22.408 36.77 22.178 36.82C20.708 37.12 19.7881 38.42 19.7781 40.21V42.51C19.7381 45.95 19.7181 49.5 19.7781 53C19.9681 62.76 26.9381 69.88 36.7381 70.31C37.1381 70.33 37.538 70.33 37.938 70.33C38.288 70.33 38.6381 70.33 38.9781 70.33C39.3381 70.33 39.6781 70.33 40.0181 70.33H40.5381V81.79H38.6382C36.9582 81.79 35.2782 81.79 33.5982 81.79H31.6282H31.158C30.988 81.79 30.908 81.79 30.688 81.79C30.378 81.79 29.7982 81.77 28.3082 81.75H28.2281C26.2181 81.75 25.0082 82.46 24.3182 84.04L24.2781 84.14V85.58L24.3182 85.67C24.9982 87.26 26.188 87.97 28.198 87.97H28.2981C29.7781 87.95 30.368 87.9399 30.698 87.9299C30.938 87.9299 31.0181 87.9299 31.2081 87.9299H31.7081H33.678C35.368 87.9299 37.0581 87.9299 38.7481 87.9299H40.698V98.84H39.3482H39.2081H38.448C38.108 98.84 37.758 98.84 37.408 98.84C28.328 98.95 21.238 104.83 20.158 113.15C19.648 117.09 19.7281 121.2 19.7981 125.17C19.8281 126.61 19.8582 128.25 19.8482 129.82C19.8482 130.76 20.408 131.58 21.438 132.11C21.908 132.35 22.3882 132.47 22.8882 132.47C23.4182 132.47 23.948 132.32 24.408 132.05C25.328 131.5 25.8682 130.53 25.8782 129.4C25.9082 127 25.9082 124.57 25.8982 122.22C25.8982 120.34 25.8982 118.39 25.8982 116.48C25.9382 110.96 29.0481 106.75 34.0181 105.5C35.5281 105.12 37.118 105.09 38.658 105.06C39.438 105.04 40.2481 105.03 41.0181 104.96C41.0981 104.96 41.1781 104.96 41.2481 104.96C42.3281 104.96 42.7281 105.64 42.9681 106.3C44.3781 110.09 46.3582 113.46 48.8582 116.32C56.2282 124.76 65.1582 129.04 75.3882 129.04C77.3982 129.04 79.4782 128.87 81.5882 128.54C93.4882 126.68 102.378 120 107.998 108.7C108.158 108.37 108.298 108 108.448 107.61C108.778 106.71 109.158 105.7 109.928 105.22C110.348 104.96 110.878 104.84 111.588 104.84C111.998 104.84 112.418 104.88 112.818 104.92C113.228 104.96 113.608 104.99 113.958 104.99C115.728 104.99 117.808 105.12 119.738 106.1C123.918 108.21 126.048 111.75 126.088 116.63C126.108 118.84 126.098 121.09 126.088 123.27V123.45C126.088 125.34 126.088 127.29 126.088 129.21C126.098 131.11 127.278 132.41 129.018 132.46H129.108C129.958 132.46 130.728 132.17 131.278 131.64C131.868 131.07 132.178 130.28 132.188 129.35C132.188 128.65 132.198 127.95 132.208 127.25V126.83C132.248 122.74 132.298 118.51 132.048 114.36C131.578 106.35 124.558 99.44 116.398 98.96C115.888 98.93 115.348 98.92 114.688 98.92C114.188 98.92 113.698 98.9199 113.208 98.9399C112.728 98.9399 112.268 98.96 111.808 98.96H111.288V87.95H118.178H123.428C126.168 87.95 128.898 87.95 131.638 87.95C133.208 87.95 134.238 87.3299 134.808 86.0599C135.228 85.0999 135.168 84.11 134.618 83.27L134.668 83.29ZM101.178 17.52C101.248 17.52 101.318 17.52 101.388 17.52C101.258 17.52 101.138 17.52 101.008 17.52C101.068 17.52 101.118 17.51 101.178 17.51V17.52ZM50.658 17.53C50.718 17.53 50.7882 17.53 50.8482 17.53C50.9082 17.53 50.9681 17.54 51.0381 17.54C50.9181 17.54 50.788 17.52 50.658 17.54V17.53ZM72.8582 122.74L72.2781 122.67C67.6081 122.09 63.5181 120.55 59.7581 117.98C52.3081 112.87 47.9882 105.67 46.8982 96.59C46.7782 95.6 46.7781 94.6 46.7781 93.63V93.51C46.7781 86.8 46.7881 80.1 46.7981 73.39V71.86C46.7981 71.65 46.8182 71.46 46.8382 71.26L46.8682 70.94L46.8982 70.45H72.8582V122.75V122.74ZM47.918 64.19L48.1182 63.52C49.3882 59.23 51.5381 55.51 54.7181 52.15C59.7281 46.85 65.8781 43.79 72.9881 43.07C74.0281 42.96 75.0782 42.91 76.1082 42.91C82.2382 42.91 88.1082 44.81 93.0782 48.41C98.2782 52.17 102.218 57.68 103.878 63.53L104.068 64.19H47.928H47.918ZM105.138 95.02C104.768 104.92 100.168 112.81 91.4681 118.47C87.9781 120.74 84.1481 122.11 79.7581 122.66L79.178 122.73V70.41H105.048L105.118 70.85C105.128 70.92 105.138 70.99 105.158 71.06C105.188 71.23 105.228 71.4 105.228 71.6C105.228 73.96 105.248 76.35 105.268 78.67C105.308 84.02 105.358 89.55 105.158 95L105.138 95.02Z" fill="url(#paint0_linear_2613_146)"></path>
<defs>
<linearGradient id="paint0_linear_2613_146" x1="20.4882" y1="39.44" x2="114.268" y2="115.79" gradientUnits="userSpaceOnUse">
<stop offset="0.22" stop-color="#00CB78"></stop>
<stop offset="0.83" stop-color="#00C3D0"></stop>
</linearGradient>
</defs>
</svg>