<svg width="150" height="150" viewBox="0 0 150 150" fill="none" xmlns="http://www.w3.org/2000/svg">
<path d="M124.8 37.5H94.91V32.8201C94.91 27.9601 90.95 24 86.09 24H63.52C58.66 24 54.71 27.9501 54.71 32.8101V37.49H24.8199C19.9599 37.49 16.01 41.44 16.01 46.3V65.4701C16.01 67.4601 17.63 69.0901 19.63 69.0901C21.63 69.0901 23.25 67.4701 23.25 65.4701V46.3C23.25 45.43 23.96 44.7201 24.83 44.7201H124.81C125.68 44.7201 126.39 45.43 126.39 46.3V111.88C126.39 112.75 125.68 113.46 124.81 113.46H24.83C23.96 113.46 23.25 112.75 23.25 111.88V91.27C23.25 89.28 21.63 87.65 19.63 87.65C17.63 87.65 16.01 89.27 16.01 91.27V111.87C16.01 116.73 19.97 120.69 24.83 120.69H124.81C129.67 120.69 133.62 116.74 133.62 111.88V46.3C133.62 41.44 129.66 37.4801 124.8 37.4801V37.5ZM87.6801 37.5H61.9401V32.8201C61.9401 31.9501 62.65 31.24 63.52 31.24H86.1C86.97 31.24 87.6801 31.9501 87.6801 32.8201V37.5ZM18.25 81.77C18.47 81.86 18.7 81.9301 18.92 81.9801C19.16 82.0201 19.39 82.05 19.62 82.05C20.57 82.05 21.5 81.67 22.17 81C22.84 80.33 23.23 79.3901 23.23 78.4401C23.23 78.1801 23.2 77.9401 23.15 77.7101C23.11 77.4901 23.0301 77.25 22.9401 77.04C22.8601 76.85 22.75 76.6301 22.62 76.4401C22.49 76.2401 22.34 76.06 22.17 75.89C21.52 75.24 20.59 74.87 19.61 74.87C18.63 74.87 17.7 75.24 17.05 75.89C16.38 76.57 16 77.5001 16 78.4401C16 79.3801 16.38 80.32 17.05 81C17.22 81.16 17.4 81.3201 17.63 81.4601C17.78 81.5701 18 81.68 18.25 81.78V81.77Z" fill="url(#paint0_linear_2613_232)"></path>
<defs>
<linearGradient id="paint0_linear_2613_232" x1="16.6" y1="53.28" x2="124.1" y2="100.98" gradientUnits="userSpaceOnUse">
<stop offset="0.22" stop-color="#00CB78"></stop>
<stop offset="0.83" stop-color="#00C3D0"></stop>
</linearGradient>
</defs>
</svg>