<svg width="150" height="150" viewBox="0 0 150 150" fill="none" xmlns="http://www.w3.org/2000/svg">
<path d="M78.63 133.08C78.63 134.91 77.1399 136.4 75.3099 136.4L28.9301 136.35C22.9001 136.35 18 131.44 18 125.41V40.86C18 34.83 22.9099 29.9199 28.9399 29.9199H41.26V21.3199C41.26 19.4899 42.75 18 44.58 18C46.41 18 47.9 19.4899 47.9 21.3199V29.9199H71.84V21.3199C71.84 19.4899 73.33 18 75.16 18C76.99 18 78.48 19.4899 78.48 21.3199V29.9199H102.42V21.3199C102.42 19.4899 103.91 18 105.74 18C107.57 18 109.06 19.4899 109.06 21.3199V29.9199H120.39C126.42 29.9199 131.33 34.83 131.33 40.86L131.35 76.64C131.35 78.47 129.86 79.96 128.03 79.96C126.2 79.96 124.71 78.47 124.71 76.64L124.69 40.86C124.69 38.49 122.76 36.5599 120.39 36.5599H109.06V44.5299C109.06 46.3599 107.57 47.85 105.74 47.85C103.91 47.85 102.42 46.3599 102.42 44.5299V36.5599H78.48V44.5299C78.48 46.3599 76.99 47.85 75.16 47.85C73.33 47.85 71.84 46.3599 71.84 44.5299V36.5599H47.9V44.5299C47.9 46.3599 46.41 47.85 44.58 47.85C42.75 47.85 41.26 46.3599 41.26 44.5299V36.5599H28.9399C26.5699 36.5599 24.64 38.49 24.64 40.86V125.41C24.64 127.78 26.5699 129.71 28.9399 129.71L75.33 129.76C77.16 129.76 78.65 131.25 78.65 133.09L78.63 133.08ZM48.14 66.1699C48.1 65.9399 48.0299 65.72 47.9399 65.49C47.8399 65.27 47.73 65.06 47.6 64.86C47.47 64.66 47.31 64.4699 47.15 64.2999C45.79 62.9499 43.34 62.9499 41.99 64.2999C41.81 64.4799 41.66 64.67 41.53 64.86C41.41 65.06 41.29 65.27 41.2 65.49C41.11 65.71 41.03 65.9299 40.99 66.1699C40.95 66.4099 40.92 66.65 40.92 66.89C40.92 67.85 41.31 68.79 41.99 69.47C42.67 70.16 43.6099 70.5399 44.5699 70.5399C44.7999 70.5399 45.05 70.52 45.28 70.46C45.51 70.42 45.74 70.35 45.97 70.26C46.19 70.16 46.4 70.0499 46.6 69.9199C46.8 69.7899 46.99 69.63 47.15 69.47C47.84 68.79 48.22 67.85 48.22 66.89C48.22 66.65 48.2 66.4099 48.14 66.1699ZM68.53 66.1699C68.49 65.9399 68.4099 65.72 68.3199 65.49C68.2299 65.27 68.12 65.06 67.99 64.86C67.86 64.66 67.7 64.4699 67.54 64.2999C66.18 62.9499 63.73 62.9499 62.37 64.2999C62.2 64.4799 62.05 64.67 61.92 64.86C61.79 65.05 61.68 65.27 61.59 65.49C61.49 65.71 61.42 65.9299 61.38 66.1699C61.34 66.4099 61.3 66.65 61.3 66.89C61.3 67.85 61.7 68.79 62.37 69.47C62.54 69.64 62.72 69.7899 62.92 69.9199C63.12 70.0499 63.33 70.16 63.55 70.26C63.77 70.35 64 70.42 64.24 70.46C64.47 70.52 64.72 70.5399 64.95 70.5399C65.91 70.5399 66.85 70.15 67.54 69.47C68.22 68.79 68.6 67.85 68.6 66.89C68.6 66.65 68.58 66.4099 68.53 66.1699ZM88.37 64.87C88.24 64.67 88.09 64.4799 87.92 64.3099C86.56 62.9599 84.11 62.9599 82.76 64.3099C82.58 64.4899 82.4399 64.68 82.3099 64.87C82.1799 65.07 82.07 65.28 81.97 65.5C81.88 65.72 81.82 65.9399 81.76 66.1799C81.72 66.4199 81.6899 66.6599 81.6899 66.8999C81.6899 67.8599 82.08 68.8 82.76 69.48C82.93 69.65 83.1099 69.7999 83.3099 69.9299C83.5099 70.0599 83.7199 70.1699 83.9399 70.2699C84.1599 70.3599 84.38 70.43 84.63 70.47C84.86 70.53 85.11 70.5499 85.34 70.5499C86.3 70.5499 87.24 70.16 87.92 69.48C88.61 68.8 88.99 67.8599 88.99 66.8999C88.99 66.6599 88.97 66.4199 88.91 66.1799C88.87 65.9499 88.8 65.73 88.71 65.5C88.61 65.28 88.5 65.07 88.37 64.87ZM108.77 64.87C108.64 64.67 108.48 64.4799 108.32 64.3099C108.15 64.1399 107.97 63.99 107.77 63.86C107.57 63.74 107.36 63.6199 107.14 63.5299C106.92 63.4399 106.69 63.3799 106.45 63.3199C105.97 63.2299 105.5 63.2299 105.02 63.3199C104.79 63.3799 104.56 63.4399 104.33 63.5299C104.1 63.6199 103.9 63.74 103.7 63.86C103.5 63.99 103.31 64.1499 103.15 64.3099C102.98 64.4899 102.83 64.68 102.7 64.87C102.57 65.06 102.46 65.28 102.37 65.5C102.28 65.72 102.2 65.9399 102.16 66.1799C102.12 66.4199 102.09 66.6599 102.09 66.8999C102.09 67.8599 102.48 68.8 103.15 69.48C103.32 69.65 103.5 69.7999 103.7 69.9299C103.9 70.0599 104.11 70.1699 104.33 70.2699C104.55 70.3599 104.78 70.43 105.02 70.47C105.25 70.53 105.5 70.5499 105.74 70.5499C105.98 70.5499 106.22 70.53 106.45 70.47C106.68 70.43 106.91 70.3599 107.14 70.2699C107.36 70.1699 107.57 70.0599 107.77 69.9299C107.97 69.7999 108.16 69.64 108.32 69.48C109 68.8 109.39 67.8599 109.39 66.8999C109.39 66.6599 109.36 66.4199 109.31 66.1799C109.27 65.9499 109.2 65.73 109.1 65.5C109.01 65.28 108.9 65.07 108.77 64.87ZM47.15 84.0199C45.79 82.6599 43.34 82.6599 41.98 84.0199C41.3 84.7099 40.92 85.65 40.92 86.61C40.92 87.57 41.31 88.4999 41.98 89.1899C42.16 89.3599 42.35 89.51 42.54 89.64C42.74 89.77 42.95 89.88 43.17 89.97C43.39 90.07 43.61 90.1399 43.85 90.1799C44.09 90.2199 44.3299 90.26 44.5699 90.26C45.5299 90.26 46.47 89.8599 47.15 89.1899C47.84 88.4999 48.22 87.56 48.22 86.61C48.22 85.66 47.83 84.6899 47.15 84.0199ZM67.54 84.0199C66.69 83.1799 65.43 82.7899 64.24 83.0199C64.01 83.0599 63.78 83.14 63.55 83.23C63.33 83.32 63.12 83.4299 62.92 83.5599C62.72 83.6899 62.53 83.85 62.37 84.01C61.69 84.69 61.3 85.64 61.3 86.6C61.3 87.56 61.7 88.4999 62.37 89.1799C62.54 89.3499 62.72 89.5 62.92 89.63C63.12 89.76 63.33 89.87 63.55 89.96C63.77 90.06 64 90.1299 64.24 90.1699C64.48 90.2099 64.72 90.25 64.95 90.25C65.91 90.25 66.85 89.8499 67.54 89.1799C68.22 88.4899 68.6 87.55 68.6 86.6C68.6 85.65 68.21 84.68 67.54 84.01V84.0199ZM47.6 105.95C47.47 105.75 47.31 105.56 47.15 105.4C45.8 104.04 43.34 104.04 41.98 105.4C41.81 105.57 41.66 105.75 41.53 105.95C41.41 106.15 41.29 106.36 41.2 106.58C41.11 106.8 41.04 107.03 40.99 107.27C40.95 107.5 40.92 107.75 40.92 107.98C40.92 108.94 41.31 109.88 41.98 110.57C42.67 111.25 43.6099 111.63 44.5699 111.63C44.7999 111.63 45.05 111.61 45.28 111.56C45.51 111.5 45.74 111.44 45.97 111.35C46.19 111.26 46.4 111.14 46.6 111.02C46.8 110.89 46.99 110.73 47.15 110.57C47.32 110.39 47.47 110.2 47.6 110.01C47.73 109.81 47.8399 109.6 47.9399 109.38C48.0299 109.16 48.1 108.94 48.14 108.7C48.2 108.46 48.22 108.22 48.22 107.98C48.22 107.74 48.2 107.5 48.14 107.27C48.1 107.04 48.0299 106.81 47.9399 106.58C47.8399 106.36 47.73 106.15 47.6 105.95ZM67.99 105.95C67.86 105.75 67.7 105.56 67.54 105.4C66.18 104.04 63.73 104.04 62.37 105.4C62.2 105.57 62.05 105.75 61.92 105.95C61.79 106.15 61.68 106.36 61.59 106.58C61.49 106.8 61.42 107.03 61.38 107.27C61.34 107.51 61.3 107.75 61.3 107.98C61.3 108.94 61.7 109.88 62.37 110.57C63.06 111.25 64 111.63 64.95 111.63C65.9 111.63 66.85 111.24 67.54 110.57C67.71 110.39 67.86 110.2 67.99 110.01C68.12 109.81 68.2299 109.6 68.3199 109.38C68.4099 109.16 68.49 108.94 68.53 108.7C68.57 108.46 68.6 108.22 68.6 107.98C68.6 107.74 68.58 107.5 68.53 107.27C68.48 107.04 68.4099 106.81 68.3199 106.58C68.2299 106.36 68.12 106.15 67.99 105.95ZM131.49 109.38C131.49 123.77 119.79 135.47 105.4 135.47C91.01 135.47 79.3099 123.77 79.3099 109.38C79.3099 94.99 91.02 83.2899 105.4 83.2899C119.78 83.2899 131.49 95 131.49 109.38ZM124.84 109.38C124.84 98.65 116.11 89.9299 105.39 89.9299C94.67 89.9299 85.9399 98.66 85.9399 109.38C85.9399 120.1 94.67 128.83 105.39 128.83C116.11 128.83 124.84 120.1 124.84 109.38ZM114.83 106.73H108.72V100.77C108.72 98.9399 107.23 97.45 105.4 97.45C103.57 97.45 102.08 98.9399 102.08 100.77V110.05C102.08 111.88 103.57 113.37 105.4 113.37H114.83C116.66 113.37 118.15 111.88 118.15 110.05C118.15 108.22 116.66 106.73 114.83 106.73Z" fill="url(#paint0_linear_2613_259)"></path>
<defs>
<linearGradient id="paint0_linear_2613_259" x1="27.9" y1="44.44" x2="119.12" y2="119.93" gradientUnits="userSpaceOnUse">
<stop offset="0.22" stop-color="#00CB78"></stop>
<stop offset="0.83" stop-color="#00C3D0"></stop>
</linearGradient>
</defs>
</svg>