<svg width="150" height="150" viewBox="0 0 150 150" fill="none" xmlns="http://www.w3.org/2000/svg">
<path d="M15 117.762V34.6394C15 32.1303 15.9893 29.771 17.7761 28.0016C19.563 26.2322 21.9454 25.2625 24.4692 25.2625H24.4894L49.7371 25.3125C51.4836 25.3125 52.8969 26.722 52.8868 28.4415C52.8868 30.1709 51.4735 31.5605 49.727 31.5605L24.4793 31.5105C23.6414 31.5105 22.8439 31.8304 22.2483 32.4202C21.6527 33.01 21.3195 33.7997 21.3195 34.6294V117.752L29.8701 109.285C31.657 107.515 34.0393 106.536 36.5731 106.536H125.531C127.267 106.536 128.691 105.126 128.691 103.407V34.6094C128.691 32.89 127.277 31.4805 125.531 31.4805H75.0051C73.2587 31.4805 71.8454 30.0809 71.8454 28.3515C71.8454 26.6221 73.2587 25.2225 75.0051 25.2225H125.531C130.75 25.2225 135 29.4311 135 34.5994V103.397C135 108.565 130.75 112.774 125.531 112.774H36.5731C35.7252 112.774 34.9378 113.104 34.3422 113.693L25.7917 122.161C24.5803 123.36 22.9751 124 21.3296 124C20.5119 124 19.6942 123.84 18.9068 123.52C16.5344 122.55 15.0101 120.281 15.0101 117.742L15 117.762ZM116.052 69.0281C116.052 67.2987 114.638 65.8991 112.892 65.8991H37.0981C35.3517 65.8991 33.9383 67.2987 33.9383 69.0281C33.9383 70.7575 35.3517 72.1571 37.0981 72.1571H112.892C114.638 72.1571 116.052 70.7575 116.052 69.0281ZM112.892 47.1353H37.0981C35.3517 47.1353 33.9383 48.5349 33.9383 50.2643C33.9383 51.9937 35.3517 53.3933 37.0981 53.3933H112.892C114.638 53.3933 116.052 51.9937 116.052 50.2643C116.052 48.5349 114.638 47.1353 112.892 47.1353ZM37.1082 84.663C35.3618 84.663 33.9485 86.0625 33.9485 87.7919C33.9485 89.5214 35.3618 90.9209 37.1082 90.9209H81.3145C83.061 90.9209 84.4743 89.5214 84.4743 87.7919C84.4743 86.0625 83.061 84.663 81.3145 84.663H37.1082ZM65.5764 27.1219C65.4956 26.912 65.3845 26.712 65.2634 26.5321C65.1422 26.3422 64.9909 26.1622 64.8293 26.0123C64.6678 25.8623 64.4962 25.7124 64.3044 25.5824C64.1126 25.4525 63.9106 25.3525 63.7087 25.2625C63.4967 25.1825 63.2747 25.1126 63.0526 25.0626C61.9219 24.8427 60.7307 25.2125 59.913 26.0123C59.7515 26.1722 59.6101 26.3422 59.4789 26.5321C59.3578 26.722 59.2467 26.922 59.1659 27.1219C59.0851 27.3318 59.0044 27.5518 58.964 27.7717C58.9237 27.9916 58.9035 28.2215 58.9035 28.4415C58.9035 28.6714 58.9237 28.8913 58.964 29.1212C59.0044 29.3412 59.075 29.5511 59.1659 29.761C59.2467 29.971 59.3578 30.1709 59.4789 30.3508C59.6101 30.5408 59.7515 30.7207 59.913 30.8707C60.0847 31.0406 60.2562 31.1706 60.448 31.3005C60.6297 31.4205 60.8418 31.5305 61.0437 31.6204C61.2456 31.7004 61.4676 31.7704 61.6897 31.8204C61.9218 31.8603 62.144 31.8803 62.3762 31.8803C63.2948 31.8803 64.1833 31.5205 64.8293 30.8707C65.4855 30.2309 65.8488 29.3512 65.8488 28.4415C65.8488 28.2215 65.8287 27.9916 65.7782 27.7717C65.7378 27.5518 65.6773 27.3318 65.5764 27.1219Z" fill="url(#paint0_linear_2613_64)"></path>
<defs>
<linearGradient id="paint0_linear_2613_64" x1="43.0441" y1="32.0203" x2="100.965" y2="112.753" gradientUnits="userSpaceOnUse">
<stop offset="0.22" stop-color="#00CB78"></stop>
<stop offset="0.83" stop-color="#00C3D0"></stop>
</linearGradient>
</defs>
</svg>