<svg width="150" height="150" viewBox="0 0 150 150" fill="none" xmlns="http://www.w3.org/2000/svg">
<path d="M57.7169 43.2074H114.486C116.267 43.2074 117.722 41.796 117.722 40.0468C117.722 38.2975 116.277 36.8862 114.486 36.8862H57.7169C55.9362 36.8862 54.4811 38.2975 54.4811 40.0468C54.4811 41.796 55.926 43.2074 57.7169 43.2074ZM126.829 20H47.8467C43.3389 20 39.6757 23.578 39.6757 27.9809V59.7755C39.6757 61.5148 41.1205 62.9361 42.9114 62.9361C44.7023 62.9361 46.1474 61.5247 46.1474 59.7755V27.9809C46.1474 27.0666 46.9105 26.3112 47.8568 26.3112H126.839C127.775 26.3112 128.549 27.0566 128.549 27.9809V90.2681L125.639 87.4255C124.092 85.9148 122.047 85.0899 119.859 85.0899H102.917V76.1946C102.917 71.8016 99.2635 68.2236 94.7557 68.2136L54.7966 68.1739C53.0159 68.1739 51.5606 69.5852 51.5606 71.3245C51.5606 72.1693 51.8966 72.9644 52.5071 73.5608C53.1177 74.1571 53.9317 74.4851 54.7864 74.4851L94.7455 74.5248C95.6817 74.5248 96.445 75.2703 96.445 76.1946V114.787C96.445 115.702 95.6717 116.457 94.7356 116.457H30.1513C27.9737 116.457 25.9183 117.282 24.3716 118.793L21.4616 121.635V76.2045C21.4616 75.7573 21.6345 75.3398 21.9602 75.0317C22.2858 74.7137 22.7131 74.5447 23.171 74.5447H31.0367C32.8174 74.5447 34.2724 73.1334 34.2724 71.3842C34.2724 69.6349 32.8275 68.2236 31.0367 68.2236H23.171C20.9934 68.2236 18.938 69.0485 17.3913 70.5592C15.8447 72.0699 15 74.0676 15 76.2045V123.434C15 125.69 16.3838 127.708 18.5207 128.573C19.2228 128.851 19.9556 129 20.7086 129C22.2247 129 23.6594 128.424 24.7381 127.37L28.9506 123.255C29.2762 122.937 29.7035 122.768 30.1513 122.768H94.7356C99.2433 122.768 102.906 119.19 102.906 114.787V91.411H119.849C120.307 91.411 120.734 91.58 121.049 91.898L125.262 96.0128C126.341 97.0663 127.765 97.6427 129.292 97.6427C130.045 97.6427 130.777 97.5036 131.479 97.2154C133.616 96.3507 135 94.3331 135 92.0769V27.9909C135 23.5879 131.337 20.0099 126.829 20.0099V20ZM33.0412 99.5709C31.2605 99.5709 29.8055 100.982 29.8055 102.731C29.8055 104.481 31.2503 105.892 33.0412 105.892H70.0599C71.8406 105.892 73.2957 104.481 73.2957 102.731C73.2957 100.982 71.8508 99.5709 70.0599 99.5709H33.0412ZM40.9782 74.2167C41.1715 74.3459 41.3749 74.4453 41.5885 74.5248C41.7717 74.6043 41.9957 74.6739 42.2297 74.7137C42.4231 74.7534 42.657 74.7832 42.9114 74.7832C43.8272 74.7832 44.7228 74.4155 45.3639 73.7894C46.0151 73.1533 46.3814 72.2786 46.3814 71.3941C46.3814 71.1456 46.3508 70.9071 46.3 70.6984C46.2694 70.5095 46.1983 70.3008 46.1169 70.0921C46.0049 69.8436 45.9031 69.6647 45.7912 69.4957C45.6691 69.3168 45.5165 69.138 45.3639 68.9789C44.7432 68.3727 43.8476 68.0149 42.9012 68.0149C41.9549 68.0149 41.0697 68.3627 40.449 68.9789C40.3066 69.1081 40.1642 69.2771 40.0217 69.4957C39.8793 69.7045 39.7673 69.9032 39.696 70.0921C39.6248 70.271 39.5638 70.4698 39.5028 70.6984C39.4519 70.9468 39.4315 71.1655 39.4315 71.3941C39.4315 72.2886 39.808 73.1632 40.449 73.7894C40.6118 73.9484 40.7848 74.0875 40.9782 74.2167ZM85.6283 88.2604C85.6283 86.5211 84.1834 85.0998 82.3925 85.0998H33.031C31.2503 85.0998 29.7953 86.5112 29.7953 88.2604C29.7953 90.0096 31.2401 91.421 33.031 91.421H82.3925C84.1733 91.421 85.6283 90.0096 85.6283 88.2604ZM57.7169 57.6684H114.486C116.267 57.6684 117.722 56.2571 117.722 54.5079C117.722 52.7586 116.277 51.3473 114.486 51.3473H57.7169C55.9362 51.3473 54.4811 52.7586 54.4811 54.5079C54.4811 56.2571 55.926 57.6684 57.7169 57.6684Z" fill="url(#paint0_linear_2613_67)"></path>
<defs>
<linearGradient id="paint0_linear_2613_67" x1="22.0516" y1="42.124" x2="121.891" y2="107.186" gradientUnits="userSpaceOnUse">
<stop offset="0.22" stop-color="#00CB78"></stop>
<stop offset="0.83" stop-color="#00C3D0"></stop>
</linearGradient>
</defs>
</svg>