<svg width="150" height="150" viewBox="0 0 150 150" fill="none" xmlns="http://www.w3.org/2000/svg">
<path d="M132.939 110.95C131.129 97.18 121.699 85.68 108.659 81.1C114.079 77.2 117.359 70.89 117.359 64.15C117.359 52.64 107.989 43.27 96.4789 43.27C84.9689 43.27 75.5989 52.64 75.5989 64.15C75.5989 75.66 84.9689 85.03 96.4789 85.03C111.859 85.03 124.969 96.51 126.969 111.73C126.999 111.99 126.929 112.23 126.749 112.43C126.559 112.64 126.289 112.77 126.009 112.77H66.9589C66.6789 112.77 66.3989 112.65 66.2189 112.43C66.0389 112.23 65.9689 111.99 65.9989 111.73C66.2289 110.01 66.6189 108.26 67.1689 106.52H81.0289C83.0489 106.52 84.9689 105.65 86.2989 104.13C87.6089 102.63 88.2189 100.64 87.9589 98.68C86.1489 84.91 76.7189 73.41 63.6789 68.83C69.0989 64.93 72.3789 58.62 72.3789 51.88C72.3889 40.37 63.0289 31 51.5089 31C39.9889 31 30.6289 40.37 30.6289 51.88C30.6289 63.39 39.9989 72.76 51.5089 72.76C66.8889 72.76 79.9989 84.24 81.9989 99.46C82.0289 99.72 81.9589 99.96 81.7789 100.16C81.5889 100.37 81.3189 100.5 81.0389 100.5H21.9889C21.7089 100.5 21.4289 100.38 21.2489 100.16C21.0689 99.96 20.9989 99.72 21.0289 99.46C21.9089 92.79 25.0189 86.5 29.8089 81.73C30.9789 80.56 30.9889 78.65 29.8089 77.48C28.6389 76.3 26.7289 76.3 25.5589 77.48C19.8389 83.17 16.1089 90.71 15.0589 98.68C14.7989 100.65 15.4089 102.63 16.7189 104.13C18.0489 105.65 19.9689 106.52 21.9889 106.52H60.9089C60.5189 108 60.2289 109.48 60.0389 110.95C59.7789 112.92 60.3889 114.9 61.6989 116.4C63.0289 117.92 64.9489 118.79 66.9689 118.79H126.019C128.039 118.79 129.959 117.92 131.289 116.4C132.599 114.9 133.209 112.91 132.949 110.95H132.939ZM96.4889 49.28C104.689 49.28 111.349 55.95 111.349 64.14C111.349 72.33 104.679 79 96.4889 79C88.2989 79 81.6289 72.33 81.6289 64.14C81.6289 55.95 88.2989 49.28 96.4889 49.28ZM51.5089 37.02C59.7089 37.02 66.3689 43.69 66.3689 51.88C66.3689 60.07 59.6989 66.74 51.5089 66.74C43.3189 66.74 36.6489 60.07 36.6489 51.88C36.6489 43.69 43.3189 37.02 51.5089 37.02ZM35.6189 76.93C34.7689 76.93 33.9489 76.59 33.3489 75.99C32.7489 75.39 32.4089 74.57 32.4089 73.72C32.4089 72.87 32.7589 72.04 33.3589 71.45C33.9189 70.88 34.7489 70.55 35.6189 70.55C36.4889 70.55 37.3089 70.88 37.8889 71.46C38.4789 72.04 38.8289 72.87 38.8289 73.72C38.8289 74.57 38.4889 75.39 37.8889 75.99C37.7389 76.14 37.5689 76.28 37.3989 76.39C37.1989 76.51 37.0289 76.61 36.8389 76.68C36.6489 76.76 36.4389 76.82 36.2389 76.86C36.0389 76.9 35.8189 76.92 35.6189 76.92V76.93Z" fill="url(#paint0_linear_2613_223)"></path>
<defs>
<linearGradient id="paint0_linear_2613_223" x1="25.4089" y1="59.23" x2="135.349" y2="108.01" gradientUnits="userSpaceOnUse">
<stop offset="0.22" stop-color="#00CB78"></stop>
<stop offset="0.83" stop-color="#00C3D0"></stop>
</linearGradient>
</defs>
</svg>