<svg width="150" height="150" viewBox="0 0 150 150" fill="none" xmlns="http://www.w3.org/2000/svg">
<path d="M15.01 78.7721C15.01 60.6248 29.5536 45.8682 47.4389 45.8682C48.7257 45.8682 50.0324 45.9491 51.3491 46.1111C58.2718 39.5728 67.2194 36 76.7257 36C95.6982 36 111.319 50.2 113.693 68.904C113.773 68.904 113.843 68.904 113.923 68.904C125.544 68.904 135 78.4989 135 90.29C135 102.081 125.544 111.676 113.923 111.676H83.1197C80.5262 111.676 78.0823 110.654 76.2369 108.781C74.4015 106.919 73.3841 104.439 73.3841 101.798V83.4279L72.4364 84.3894C71.1696 85.6748 69.1147 85.6748 67.8479 84.3894C66.581 83.104 66.581 81.019 67.8479 79.7337L74.3317 73.1549C74.4813 73.0031 74.6509 72.8614 74.8304 72.7399C74.9102 72.6893 75 72.6488 75.0798 72.6083C75.1795 72.5476 75.2793 72.4869 75.389 72.4464C75.4987 72.4059 75.6085 72.3755 75.7182 72.3452C75.808 72.3148 75.8978 72.2845 75.9875 72.2642C76.4065 72.1832 76.8354 72.1832 77.2544 72.2642C77.3441 72.2845 77.4339 72.3148 77.5237 72.3452C77.6334 72.3755 77.7431 72.4059 77.8529 72.4464C77.9626 72.497 78.0623 72.5577 78.1621 72.6083C78.2419 72.6589 78.3317 72.6893 78.4115 72.75C78.591 72.8715 78.7606 73.0132 78.9102 73.165L85.394 79.7438C86.6608 81.0292 86.6608 83.1141 85.394 84.3995C84.7656 85.0371 83.9277 85.361 83.0998 85.361C82.2718 85.361 81.4439 85.0371 80.8055 84.3995L79.8579 83.438V101.808C79.8579 102.688 80.197 103.508 80.8055 104.136C81.4139 104.753 82.2319 105.097 83.0998 105.097H113.903C121.943 105.097 128.496 98.4578 128.496 90.29C128.496 82.1222 121.953 75.4827 113.903 75.4827C113.075 75.4827 112.217 75.5637 111.299 75.7358C110.372 75.9078 109.424 75.6548 108.696 75.0577C107.968 74.4605 107.519 73.5698 107.489 72.6185C106.86 55.7768 93.3441 42.5788 76.7157 42.5788C68.3965 42.5788 60.606 45.8884 54.7606 51.9105C54.0125 52.6797 52.9451 53.0238 51.8978 52.8417C50.4015 52.5785 48.8953 52.4469 47.4289 52.4469C33.1247 52.4469 21.4838 64.2583 21.4838 78.7721C21.4838 93.2859 33.1247 105.097 47.4289 105.097C49.2244 105.097 50.6708 106.575 50.6708 108.387C50.6708 110.198 49.2145 111.676 47.4289 111.676C29.5436 111.676 15 96.9194 15 78.7721H15.01ZM64.3766 106.373C64.2469 106.17 64.0973 105.988 63.9377 105.826C62.611 104.48 60.217 104.48 58.8903 105.826C58.7307 105.988 58.5811 106.18 58.4514 106.373C58.3317 106.575 58.212 106.777 58.1222 107C58.0324 107.223 57.9726 107.445 57.9127 107.678C57.8728 107.911 57.8429 108.154 57.8429 108.377C57.8429 109.328 58.2219 110.259 58.8803 110.947C59.0499 111.109 59.2394 111.261 59.4289 111.393C59.6184 111.524 59.8279 111.636 60.0474 111.717C60.2668 111.808 60.4763 111.879 60.7057 111.929C60.9451 111.97 61.1746 112 61.404 112C62.3416 112 63.2593 111.615 63.9177 110.947C64.5761 110.279 64.9651 109.338 64.9651 108.377C64.9651 108.144 64.9451 107.901 64.8853 107.678C64.8454 107.445 64.7756 107.213 64.6858 107C64.586 106.777 64.4763 106.575 64.3466 106.373H64.3766Z" fill="url(#paint0_linear_2613_41)"></path>
<defs>
<linearGradient id="paint0_linear_2613_41" x1="47.3691" y1="63.6106" x2="110.42" y2="104.046" gradientUnits="userSpaceOnUse">
<stop offset="0.22" stop-color="#00CB78"></stop>
<stop offset="0.83" stop-color="#00C3D0"></stop>
</linearGradient>
</defs>
</svg>