<svg width="150" height="150" viewBox="0 0 150 150" fill="none" xmlns="http://www.w3.org/2000/svg">
<path d="M79.1364 86.9785C79.7982 87.6351 80.1893 88.5405 80.1893 89.4757C80.1893 90.4109 79.7982 91.3162 79.1364 91.9828C78.4746 92.6394 77.562 93.0075 76.6195 93.0075C75.6769 93.0075 74.7644 92.6295 74.0925 91.9828C73.4307 91.3162 73.0597 90.4009 73.0597 89.4757C73.0597 88.5504 73.4407 87.6351 74.0925 86.9785C75.4262 85.6553 77.8127 85.6553 79.1364 86.9785ZM134.99 91.0874C134.99 102.618 125.534 112 113.912 112H47.4292C29.55 112 15 97.5741 15 79.8252C15 62.0764 29.55 47.6505 47.4292 47.6505C48.7227 47.6505 50.0263 47.73 51.3399 47.8892C58.259 41.502 67.2036 38 76.7197 38C95.6919 38 111.325 51.8787 113.691 70.1847C125.444 70.0753 135 79.487 135 91.0973L134.99 91.0874ZM128.502 91.0874C128.502 83.1083 121.954 76.6117 113.912 76.6117C113.08 76.6117 112.227 76.6913 111.305 76.8604C110.382 77.0296 109.43 76.7908 108.698 76.2038C107.966 75.6168 107.524 74.7513 107.484 73.8161C106.853 57.3407 93.3354 44.4369 76.7097 44.4369C70.3522 44.4369 64.3056 46.3272 59.2016 49.8492C67.8854 53.2019 74.8345 60.1861 78.0133 69.1102C78.8355 71.4184 79.3971 73.826 79.6678 76.2635C79.8684 78.0344 78.5849 79.6163 76.7999 79.8153C75.0251 80.0142 73.4207 78.7408 73.2201 76.9699C72.9995 75.0199 72.5583 73.0998 71.8965 71.2493C68.7779 62.5042 61.1268 56.0772 51.9416 54.4854C51.9115 54.4854 51.8814 54.4853 51.8614 54.4754C50.3773 54.2267 48.8932 54.0973 47.4392 54.0973C33.1299 54.0973 21.4878 65.648 21.4878 79.8451C21.4878 94.0422 33.1299 105.593 47.4392 105.593H113.922C121.964 105.593 128.512 99.0863 128.512 91.1073L128.502 91.0874Z" fill="url(#paint0_linear_2613_38)"></path>
<defs>
<linearGradient id="paint0_linear_2613_38" x1="22.9418" y1="57.3805" x2="132.184" y2="106.662" gradientUnits="userSpaceOnUse">
<stop offset="0.22" stop-color="#00CB78"></stop>
<stop offset="0.83" stop-color="#00C3D0"></stop>
</linearGradient>
</defs>
</svg>