<svg width="150" height="150" viewBox="0 0 150 150" fill="none" xmlns="http://www.w3.org/2000/svg">
<path d="M44.449 110.55C44.5805 110.74 44.7321 110.92 44.8939 111.08C45.0556 111.24 45.2376 111.39 45.4297 111.52C45.6218 111.65 45.834 111.75 46.0463 111.84C46.2586 111.94 46.4912 112 46.7136 112.04C46.936 112.08 47.1786 112.12 47.4212 112.12C48.3513 112.12 49.2713 111.73 49.9385 111.08C50.1003 110.92 50.2519 110.74 50.3833 110.55C50.5148 110.36 50.626 110.15 50.7068 109.94C50.7978 109.73 50.8686 109.5 50.909 109.28C50.9495 109.06 50.9798 108.82 50.9798 108.6C50.9798 107.67 50.5956 106.76 49.9284 106.1C48.5939 104.78 46.2081 104.78 44.8837 106.1C44.2266 106.76 43.8425 107.67 43.8425 108.6C43.8425 108.82 43.8627 109.06 43.9031 109.28C43.9436 109.5 44.0244 109.73 44.1053 109.94C44.1963 110.15 44.2974 110.36 44.4288 110.55H44.449Z" fill="#00CB78"></path>
<path d="M37.342 107.01C38.1407 105.42 37.4836 103.5 35.8863 102.71C27 98.34 21.4802 89.53 21.4802 79.71C21.4802 65.56 33.1163 54.04 47.4314 54.04C48.8972 54.04 50.4035 54.17 51.8997 54.43C52.9511 54.61 54.0228 54.27 54.7608 53.52C60.6041 47.65 68.3985 44.42 76.7085 44.42C93.3386 44.42 106.855 57.29 107.482 73.71C107.522 74.64 107.957 75.51 108.695 76.09C109.433 76.67 110.373 76.91 111.303 76.75C112.223 76.58 113.083 76.5 113.912 76.5C121.959 76.5 128.5 82.98 128.5 90.93C128.5 98.88 121.949 105.36 113.912 105.36H73.3622C64.4153 105.36 57.1466 98.17 57.1466 89.33C57.1466 80.49 64.4254 73.29 73.3622 73.29C81.8239 73.29 88.7894 79.74 89.5072 87.93L88.6276 87.06C87.364 85.81 85.3117 85.81 84.0379 87.06C82.7742 88.31 82.7742 90.34 84.0379 91.6L90.5282 98.02C91.1651 98.65 91.9941 98.96 92.8231 98.96C93.652 98.96 94.481 98.65 95.1179 98.02L101.608 91.6C102.872 90.35 102.872 88.32 101.608 87.06C100.345 85.81 98.2923 85.81 97.0185 87.06L96.0076 88.06C95.3404 76.27 85.4532 66.87 73.3724 66.87C61.2915 66.87 50.6664 76.94 50.6664 89.33C50.6664 101.72 60.8467 111.79 73.3724 111.79H113.922C125.548 111.79 135 102.43 135 90.93C135 79.43 125.548 70.08 113.922 70.08C113.851 70.08 113.77 70.08 113.689 70.08C111.313 51.84 95.684 38 76.7085 38C67.1954 38 58.2485 41.49 51.3336 47.86C50.0295 47.7 48.7153 47.62 47.4314 47.62C29.5476 47.62 15 62.01 15 79.7C15 91.96 21.8947 102.98 33.0051 108.44C34.6125 109.23 36.5535 108.58 37.3521 107L37.342 107.01Z" fill="url(#paint0_linear_2613_44)"></path>
<defs>
<linearGradient id="paint0_linear_2613_44" x1="41.6891" y1="57.32" x2="98.4257" y2="105.238" gradientUnits="userSpaceOnUse">
<stop offset="0.22" stop-color="#00CB78"></stop>
<stop offset="0.83" stop-color="#00C3D0"></stop>
</linearGradient>
</defs>
</svg>