<svg width="150" height="150" viewBox="0 0 150 150" fill="none" xmlns="http://www.w3.org/2000/svg">
<path d="M125.262 27H24.738C19.3732 27 15 31.4269 15 36.8801V114.12C15 119.563 19.3633 124 24.738 124H125.262C130.627 124 135 119.573 135 114.12V36.8801C135 31.437 130.637 27 125.262 27ZM24.738 33.1575H125.262C127.285 33.1575 128.931 34.8276 128.931 36.8801V50.1005H21.0788V36.8801C21.0788 34.8276 22.725 33.1575 24.748 33.1575H24.738ZM125.262 117.832H24.738C22.7151 117.832 21.0689 116.162 21.0689 114.11V56.2479H128.921V114.11C128.921 116.162 127.275 117.832 125.252 117.832H125.262ZM31.8085 40.8543C31.8085 42.5546 30.45 43.933 28.7741 43.933C27.0982 43.933 25.7396 42.5546 25.7396 40.8543C25.7396 39.1539 27.0982 37.7755 28.7741 37.7755C30.45 37.7755 31.8085 39.1539 31.8085 40.8543ZM43.9464 40.8543C43.9464 42.5546 42.5878 43.933 40.9119 43.933C39.236 43.933 37.8775 42.5546 37.8775 40.8543C37.8775 39.1539 39.236 37.7755 40.9119 37.7755C42.5878 37.7755 43.9464 39.1539 43.9464 40.8543ZM56.0842 40.8543C56.0842 42.5546 54.7256 43.933 53.0497 43.933C51.3738 43.933 50.0153 42.5546 50.0153 40.8543C50.0153 39.1539 51.3738 37.7755 53.0497 37.7755C54.7256 37.7755 56.0842 39.1539 56.0842 40.8543ZM88.9873 67.6774C87.6089 66.8021 85.7942 67.2247 84.9314 68.6232L60.0806 99.4104C59.2179 100.809 59.6343 102.65 61.0127 103.525C61.4986 103.837 62.0341 103.978 62.5696 103.978C63.5514 103.978 64.5034 103.485 65.0686 102.58L89.9194 71.7924C90.7822 70.3939 90.3657 68.5527 88.9873 67.6774ZM104.398 67.9088C103.247 66.7417 101.393 66.7417 100.243 67.9088C99.0922 69.0759 99.0922 70.9574 100.243 72.1245L112.866 84.9324L100.243 97.7403C99.0922 98.9074 99.0922 100.789 100.243 101.956C100.818 102.539 101.571 102.831 102.325 102.831C103.079 102.831 103.832 102.539 104.407 101.956L117.031 89.148C118.142 88.0212 118.757 86.522 118.757 84.9324C118.757 83.3427 118.142 81.8436 117.031 80.7167L104.407 67.9088H104.398ZM51.2747 67.8988C50.1244 66.7317 48.27 66.7317 47.1197 67.8988L34.4959 80.7067C32.2052 83.0308 32.2052 86.8138 34.4959 89.1379L47.1197 101.946C47.6948 102.529 48.4485 102.821 49.2021 102.821C49.9558 102.821 50.7094 102.529 51.2846 101.946C52.4349 100.779 52.4349 98.8973 51.2846 97.7302L38.6609 84.9223L51.2846 72.1144C52.4349 70.9473 52.4349 69.0659 51.2846 67.8988H51.2747Z" fill="url(#paint0_linear_2613_5)"></path>
<defs>
<linearGradient id="paint0_linear_2613_5" x1="23.677" y1="41.7296" x2="125.208" y2="106.63" gradientUnits="userSpaceOnUse">
<stop offset="0.22" stop-color="#00CB78"></stop>
<stop offset="0.83" stop-color="#00C3D0"></stop>
</linearGradient>
</defs>
</svg>