<svg width="150" height="150" viewBox="0 0 150 150" fill="none" xmlns="http://www.w3.org/2000/svg">
<path d="M128.83 52.8401C125.45 49.3001 120.88 47.3401 115.98 47.3401C114 47.3401 112.4 48.9501 112.4 50.9301C112.4 52.9101 114.01 54.52 115.98 54.52C118.9 54.52 121.62 55.68 123.64 57.8C125.66 59.91 126.69 62.69 126.56 65.62C126.31 71.02 121.89 75.4501 116.49 75.6901C116.31 75.6901 116.13 75.7001 115.95 75.7001C113.23 75.7001 110.65 74.66 108.67 72.77C106.56 70.75 105.39 68.03 105.39 65.11V45.26C105.39 40.16 101.24 36 96.1301 36H33.75C28.65 36 24.49 40.15 24.49 45.26V67.9501C24.49 90.2501 42.6299 108.39 64.9299 108.39C75.4199 108.39 85.3599 104.39 92.9299 97.13C94.3599 95.76 94.4 93.4901 93.03 92.0601C92.35 91.3501 91.4299 90.9601 90.4399 90.9601C89.5099 90.9601 88.63 91.3101 87.96 91.9601C81.74 97.9301 73.5599 101.22 64.9199 101.22C46.5699 101.22 31.6499 86.2901 31.6499 67.9501V45.26C31.6499 44.11 32.59 43.17 33.74 43.17H96.1201C97.2701 43.17 98.21 44.11 98.21 45.26V65.11C98.21 70.01 100.16 74.5701 103.71 77.9601C107.03 81.1301 111.38 82.88 115.96 82.88C116.24 82.88 116.53 82.88 116.81 82.86C125.87 82.44 133.3 75.0201 133.72 65.9501C133.95 61.0401 132.21 56.39 128.82 52.85L128.83 52.8401ZM96.9099 88.75C97.1699 88.8 97.4199 88.8201 97.6599 88.8201C98.6799 88.8201 99.6801 88.4101 100.39 87.6901C101.11 86.9701 101.53 85.9701 101.53 84.9601C101.53 83.9501 101.12 82.9401 100.39 82.2201C99.6801 81.5001 98.6801 81.0901 97.6401 81.0901C97.3901 81.0901 97.1399 81.11 96.8999 81.16C96.6299 81.21 96.3799 81.31 96.1899 81.38C95.9499 81.47 95.73 81.59 95.51 81.74C95.3 81.88 95.0999 82.0401 94.9199 82.2201C94.1999 82.9301 93.78 83.9301 93.78 84.9601C93.78 85.9901 94.1899 86.9701 94.9199 87.6901C95.0999 87.8701 95.3 88.03 95.51 88.17C95.72 88.31 95.9499 88.43 96.1899 88.53C96.3699 88.6 96.6199 88.7 96.8999 88.75H96.9099ZM110.31 115.4H19.5801C17.6001 115.4 16 117.01 16 118.99C16 120.97 17.6101 122.58 19.5801 122.58H110.31C112.29 122.58 113.9 120.97 113.9 118.99C113.9 117.01 112.29 115.4 110.31 115.4Z" fill="url(#paint0_linear_2613_274)"></path>
<defs>
<linearGradient id="paint0_linear_2613_274" x1="22.82" y1="45.48" x2="113.4" y2="120.73" gradientUnits="userSpaceOnUse">
<stop offset="0.22" stop-color="#00CB78"></stop>
<stop offset="0.83" stop-color="#00C3D0"></stop>
</linearGradient>
</defs>
</svg>