<svg width="150" height="150" viewBox="0 0 150 150" fill="none" xmlns="http://www.w3.org/2000/svg">
<path d="M128.41 26.6675V89.0874C128.41 94.2474 124.21 98.4474 119.05 98.4474H78.48V126.537H100.33C102.05 126.537 103.45 127.937 103.45 129.657C103.45 131.377 102.05 132.777 100.33 132.777H50.4C48.68 132.777 47.28 131.377 47.28 129.647C47.28 127.917 48.68 126.527 50.4 126.527H72.25V98.4374H31.67C26.51 98.4374 22.31 94.2374 22.31 89.0774V32.9075C22.31 31.1875 23.71 29.7875 25.43 29.7875C27.15 29.7875 28.55 31.1875 28.55 32.9075V89.0774C28.55 90.7974 29.95 92.1974 31.67 92.1974H119.05C120.77 92.1974 122.17 90.7974 122.17 89.0774V26.6575C122.17 24.9375 120.77 23.5375 119.05 23.5375H37.91C36.19 23.5375 34.79 22.1375 34.79 20.4175C34.79 18.6975 36.19 17.2975 37.91 17.2975H119.05C124.21 17.2975 128.41 21.4975 128.41 26.6575V26.6675ZM25.43 23.8574C26.33 23.8574 27.22 23.4974 27.85 22.8574C28.48 22.2074 28.86 21.3275 28.86 20.4275C28.86 19.5275 28.49 18.6374 27.85 18.0074C27.05 17.2074 25.86 16.8374 24.75 17.0674C24.53 17.1074 24.31 17.1674 24.11 17.2674C23.91 17.3474 23.7 17.4574 23.52 17.5774C23.33 17.6974 23.17 17.8474 23 18.0074C22.37 18.6374 22 19.5275 22 20.4275C22 21.3275 22.36 22.2174 23 22.8574C23.65 23.4874 24.53 23.8574 25.43 23.8574ZM107.29 41.6775L69.92 79.0574C68.03 80.9474 65.55 81.8874 63.07 81.8874C60.59 81.8874 58.11 80.9474 56.22 79.0574L48.99 71.8174C47.68 70.5074 47.68 68.3874 48.99 67.0774C50.3 65.7674 52.42 65.7774 53.73 67.0774L60.96 74.3174C62.13 75.4774 64.02 75.4774 65.19 74.3174L102.56 36.9374C103.87 35.6274 105.99 35.6274 107.3 36.9374C108.61 38.2474 108.61 40.3675 107.3 41.6775H107.29Z" fill="url(#paint0_linear_2613_152)"></path>
<defs>
<linearGradient id="paint0_linear_2613_152" x1="38.23" y1="31.5374" x2="116.86" y2="103.247" gradientUnits="userSpaceOnUse">
<stop offset="0.22" stop-color="#00CB78"></stop>
<stop offset="0.83" stop-color="#00C3D0"></stop>
</linearGradient>
</defs>
</svg>