<svg width="150" height="150" viewBox="0 0 150 150" fill="none" xmlns="http://www.w3.org/2000/svg">
<path d="M120.65 111.12H118.46V23.36C118.46 19.3 115.17 16 111.1 16H39.39C35.33 16 32.03 19.29 32.03 23.36V111.12H29.84C25.52 111.12 22 114.89 22 119.53V125.73C22 130.37 25.52 134.14 29.84 134.14H38.98C40.66 134.14 42.03 132.78 42.03 131.09C42.03 129.4 40.67 128.04 38.98 128.04H29.84C28.65 128.04 27.68 127 27.68 125.72V119.52C27.68 118.24 28.65 117.2 29.84 117.2H120.64C121.83 117.2 122.8 118.24 122.8 119.52V125.72C122.8 127 121.83 128.04 120.64 128.04H61.75C60.07 128.04 58.7 129.4 58.7 131.09C58.7 132.78 60.06 134.14 61.75 134.14H120.64C124.96 134.14 128.48 130.37 128.48 125.73V119.53C128.48 114.89 124.96 111.12 120.64 111.12H120.65ZM66.37 111V85.96C66.37 84.88 67.25 84 68.33 84H82.4C83.48 84 84.36 84.88 84.36 85.96V111H66.36H66.37ZM112.42 111.12H90.37V85.96C90.37 81.57 86.8 78 82.41 78H68.34C63.95 78 60.38 81.57 60.38 85.96V111.12H38.07V23.36C38.07 22.63 38.66 22.04 39.39 22.04H111.11C111.84 22.04 112.43 22.63 112.43 23.36V111.12H112.42ZM51.9 128.97C52.46 129.53 52.78 130.31 52.78 131.1C52.78 131.29 52.76 131.48 52.73 131.69C52.69 131.87 52.64 132.07 52.56 132.25C52.48 132.46 52.38 132.64 52.29 132.76C52.17 132.95 52.04 133.1 51.9 133.24C51.33 133.8 50.56 134.12 49.77 134.12C48.98 134.12 48.21 133.8 47.64 133.24C47.1 132.7 46.79 131.92 46.79 131.1C46.79 130.28 47.1 129.51 47.64 128.97C47.78 128.83 47.93 128.7 48.1 128.59C48.27 128.48 48.44 128.39 48.6 128.32C48.78 128.24 48.98 128.18 49.16 128.14C49.35 128.1 49.55 128.07 49.77 128.07C50.57 128.07 51.34 128.39 51.91 128.96L51.9 128.97ZM63.74 53.86H53.74C50.43 53.86 47.74 56.55 47.74 59.86V68C47.74 71.31 50.43 74 53.74 74H63.74C67.05 74 69.74 71.31 69.74 68V59.86C69.74 56.55 67.05 53.86 63.74 53.86ZM63.74 68H53.74V59.86H63.74V68ZM96.74 53.86H86.74C83.43 53.86 80.74 56.55 80.74 59.86V68C80.74 71.31 83.43 74 86.74 74H96.74C100.05 74 102.74 71.31 102.74 68V59.86C102.74 56.55 100.05 53.86 96.74 53.86ZM96.74 68H86.74V59.86H96.74V68ZM63.74 28H53.74C50.43 28 47.74 30.69 47.74 34V42.14C47.74 45.45 50.43 48.14 53.74 48.14H63.74C67.05 48.14 69.74 45.45 69.74 42.14V34C69.74 30.69 67.05 28 63.74 28ZM63.74 42.14H53.74V34H63.74V42.14ZM96.74 28H86.74C83.43 28 80.74 30.69 80.74 34V42.14C80.74 45.45 83.43 48.14 86.74 48.14H96.74C100.05 48.14 102.74 45.45 102.74 42.14V34C102.74 30.69 100.05 28 96.74 28ZM96.74 42.14H86.74V34H96.74V42.14Z" fill="url(#paint0_linear_2613_217)"></path>
<defs>
<linearGradient id="paint0_linear_2613_217" x1="18.6" y1="52.06" x2="138.43" y2="105.23" gradientUnits="userSpaceOnUse">
<stop offset="0.22" stop-color="#00CB78"></stop>
<stop offset="0.83" stop-color="#00C3D0"></stop>
</linearGradient>
</defs>
</svg>