<svg width="150" height="150" viewBox="0 0 150 150" fill="none" xmlns="http://www.w3.org/2000/svg">
<path d="M26.4603 67.1375V35.6377C26.4603 31.1534 30.0841 27.51 34.5442 27.51H65.8747C67.4477 27.51 68.7319 28.8012 68.7319 30.3827C68.7319 31.9642 67.4477 33.2554 65.8747 33.2554H34.5442C33.2401 33.2554 32.1848 34.3164 32.1848 35.6277V67.1275C32.1848 68.709 30.9005 70.0003 29.3275 70.0003C27.7545 70.0003 26.4702 68.709 26.4702 67.1275L26.4603 67.1375ZM73.212 110.028C74.0582 110.969 74.1976 112.33 73.5604 113.421L67.6269 123.521C67.0096 124.572 65.8049 125.123 64.6003 124.882L57.7409 123.501C57.1237 123.891 56.4865 124.252 55.8294 124.582L53.6292 131.058C53.231 132.219 52.1458 133 50.9213 133H39.0442C37.8196 133 36.7345 132.219 36.3363 131.058L34.1361 124.582C33.479 124.252 32.8418 123.881 32.2246 123.491L25.3651 124.872C24.1804 125.113 22.9559 124.562 22.3386 123.511L16.4051 113.411C15.7679 112.32 15.8973 110.959 16.7435 110.018L21.4326 104.823V102.931L16.7435 97.7366C15.8973 96.7957 15.7579 95.4344 16.4051 94.3433L22.3386 84.2438C22.9559 83.1928 24.1605 82.6523 25.3651 82.8825L32.2246 84.2638C32.8418 83.8734 33.479 83.5131 34.1361 83.1828L36.3363 76.7066C36.7345 75.5455 37.8196 74.7548 39.0442 74.7548H50.9213C52.1458 74.7548 53.231 75.5355 53.6292 76.7066L55.8294 83.1828C56.4865 83.5131 57.1237 83.8834 57.7409 84.2638L64.6003 82.8825C65.795 82.6422 67.0096 83.1928 67.6269 84.2438L73.5604 94.3433C74.2075 95.4344 74.0682 96.7957 73.212 97.7366L68.5228 102.931V104.823L73.212 110.018V110.028ZM22.4083 112.32L26.2412 118.847L32.2744 117.635C33.0409 117.485 33.8474 117.655 34.4845 118.106C35.4701 118.807 36.5155 119.397 37.6205 119.888C38.3473 120.208 38.9148 120.828 39.1736 121.589L41.105 127.265H48.8903L50.8217 121.589C51.0806 120.828 51.6481 120.208 52.3748 119.888C53.4699 119.407 54.5252 118.807 55.5009 118.106C56.1381 117.655 56.9544 117.485 57.711 117.635L63.7441 118.847L67.5771 112.32L63.565 107.876C63.0871 107.346 62.8183 106.665 62.8183 105.944V101.83C62.8183 101.11 63.0771 100.429 63.565 99.8986L67.5771 95.4544L63.7441 88.9282L57.711 90.1394C56.9444 90.2995 56.1381 90.1193 55.5009 89.6689C54.5252 88.9783 53.4699 88.3777 52.3748 87.8872C51.6481 87.5669 51.0806 86.9463 50.8217 86.1856L48.8903 80.5102H41.105L39.1736 86.1856C38.9148 86.9463 38.3473 87.5669 37.6205 87.8872C36.5254 88.3677 35.4701 88.9682 34.4845 89.6689C33.8474 90.1193 33.0409 90.2895 32.2744 90.1394L26.2412 88.9282L22.4083 95.4544L26.4204 99.8986C26.8983 100.429 27.1571 101.12 27.1571 101.83V105.944C27.1571 106.655 26.8983 107.346 26.4204 107.876L22.4083 112.32ZM43.2554 106.495C43.4147 106.595 43.584 106.695 43.803 106.795C43.9921 106.875 44.1913 106.925 44.3804 106.965C44.5696 107.005 44.7787 107.035 44.9977 107.035C45.2167 107.035 45.4357 107.015 45.605 106.965C45.8041 106.925 46.0032 106.875 46.2023 106.795C46.4114 106.705 46.5807 106.605 46.7399 106.505C46.9092 106.385 47.0685 106.255 47.2078 106.115C47.7853 105.534 48.1138 104.723 48.1138 103.902C48.1138 103.082 47.7853 102.271 47.2078 101.69C46.0331 100.509 43.9722 100.509 42.7875 101.69C42.2001 102.281 41.8716 103.082 41.8716 103.902C41.8716 104.723 42.2101 105.534 42.7875 106.115C42.9269 106.255 43.0862 106.385 43.2554 106.505V106.495ZM133.603 55.6667L127.669 65.7662C127.052 66.8172 125.838 67.3577 124.643 67.1275L117.783 65.7462C117.166 66.1366 116.519 66.5069 115.872 66.8373L113.672 73.3134C113.274 74.4745 112.188 75.2552 110.964 75.2552H99.0867C97.8621 75.2552 96.777 74.4745 96.3788 73.3134L94.1786 66.8373C93.5314 66.5069 92.8843 66.1366 92.2671 65.7462L85.4076 67.1275C84.213 67.3678 82.9984 66.8172 82.3811 65.7662L76.4476 55.6667C75.8004 54.5756 75.9398 53.2143 76.7861 52.2734L81.4751 47.0785V45.1867L76.7861 39.9918C75.9398 39.0509 75.8004 37.6896 76.4476 36.5986L82.3811 26.499C82.9984 25.448 84.213 24.9075 85.4076 25.1377L92.2671 26.519C92.8843 26.1287 93.5215 25.7683 94.1786 25.428L96.3788 18.9519C96.777 17.7907 97.8621 17 99.0867 17H110.964C112.188 17 113.274 17.7807 113.672 18.9519L115.872 25.428C116.519 25.7583 117.166 26.1287 117.783 26.519L124.643 25.1377C125.838 24.8975 127.052 25.448 127.669 26.499L133.603 36.5986C134.24 37.6896 134.101 39.0509 133.254 39.9918L128.565 45.1867V47.0785L133.254 52.2734C134.101 53.2143 134.24 54.5756 133.603 55.6667ZM82.4607 54.5656L86.2937 61.0818L92.3268 59.8706C93.0934 59.7205 93.8998 59.8907 94.537 60.3411C95.5126 61.0318 96.5679 61.6323 97.663 62.1228C98.3898 62.4431 98.9573 63.0637 99.2161 63.8244L101.148 69.4998H108.933L110.864 63.8244C111.123 63.0637 111.691 62.4431 112.417 62.1228C113.512 61.6423 114.568 61.0418 115.543 60.3411C116.181 59.8907 116.987 59.7205 117.754 59.8706L123.777 61.0818L127.61 54.5656L123.597 50.1214C123.12 49.5909 122.861 48.9103 122.861 48.1896V44.0757C122.861 43.365 123.12 42.6743 123.597 42.1438L127.61 37.6996L123.777 31.1734L117.744 32.3846C116.977 32.5447 116.171 32.3646 115.533 31.9141C114.558 31.2235 113.502 30.6229 112.397 30.1325C111.671 29.8121 111.103 29.1916 110.844 28.4308L108.913 22.7555H101.128L99.1962 28.4308C98.9373 29.1916 98.3699 29.8121 97.6431 30.1325C96.538 30.6229 95.4927 31.2235 94.5171 31.9141C93.8799 32.3646 93.0735 32.5347 92.3069 32.3846L86.2738 31.1734L82.4409 37.6996L86.453 42.1438C86.9308 42.6743 87.1996 43.365 87.1996 44.0757V48.1896C87.1996 48.9002 86.9408 49.5909 86.453 50.1214L82.4409 54.5656H82.4607ZM118.092 80.0097C116.519 80.0097 115.235 81.301 115.235 82.8825V114.382C115.235 115.694 114.179 116.755 112.875 116.755H81.5448C79.9719 116.755 78.6876 118.046 78.6876 119.627C78.6876 121.209 79.9719 122.5 81.5448 122.5H112.875C117.335 122.5 120.959 118.857 120.959 114.372V82.8725C120.959 81.291 119.675 79.9997 118.102 79.9997L118.092 80.0097ZM103.298 48.7401C103.447 48.8502 103.626 48.9403 103.836 49.0304C104.035 49.1104 104.234 49.1805 104.423 49.2105C104.632 49.2506 104.831 49.2706 105.03 49.2706C105.229 49.2706 105.438 49.2506 105.638 49.2105C105.817 49.1805 106.016 49.1205 106.225 49.0304C106.414 48.9503 106.593 48.8602 106.763 48.7401C106.932 48.62 107.091 48.4899 107.23 48.3497C107.808 47.7692 108.146 46.9584 108.146 46.1376C108.146 45.3169 107.808 44.4961 107.23 43.9155C106.683 43.355 105.876 43.0347 105.03 43.0347C104.184 43.0347 103.378 43.355 102.82 43.9155C102.243 44.5061 101.914 45.3169 101.914 46.1376C101.914 46.9584 102.243 47.7592 102.83 48.3597C102.989 48.5099 103.149 48.64 103.298 48.7401Z" fill="url(#paint0_linear_2613_8)"></path>
<defs>
<linearGradient id="paint0_linear_2613_8" x1="26.3707" y1="30.0424" x2="113.653" y2="109.879" gradientUnits="userSpaceOnUse">
<stop offset="0.22" stop-color="#00CB78"></stop>
<stop offset="0.83" stop-color="#00C3D0"></stop>
</linearGradient>
</defs>
</svg>