<svg width="150" height="150" viewBox="0 0 150 150" fill="none" xmlns="http://www.w3.org/2000/svg">
<path d="M112.969 22C100.815 22 90.9285 31.7533 90.9285 43.7427C90.9285 50.2815 93.8733 56.391 99.004 60.5439L83.7333 85.2815C80.9605 84.0935 78.0258 83.4946 75 83.4946C71.9742 83.4946 69.0395 84.0935 66.2768 85.2815L51.0365 60.5839C52.595 59.2861 53.9813 57.7986 55.1349 56.1614C55.6004 55.5026 55.7826 54.694 55.6409 53.9053C55.4992 53.1067 55.0439 52.4178 54.376 51.9586C53.8598 51.5993 53.2527 51.4196 52.6253 51.4196C51.6234 51.4196 50.6823 51.8987 50.1055 52.7173C48.8506 54.4843 47.3022 55.9817 45.4908 57.1497C45.4402 57.1697 45.3997 57.1897 45.3592 57.2096C45.2783 57.2596 45.2176 57.3095 45.1468 57.3694L45.0861 57.4193C42.6371 58.8967 39.8541 59.6954 37.0408 59.6954C28.267 59.6954 21.1326 52.6574 21.1326 44.0023C21.1326 35.3471 28.267 28.3092 37.0408 28.3092C42.4347 28.3092 47.2011 30.6751 50.1156 34.7881C50.6924 35.5967 51.6335 36.0859 52.6354 36.0859C53.2628 36.0859 53.87 35.8962 54.3861 35.5468C55.7725 34.5884 56.1166 32.7016 55.1451 31.334C51.0668 25.5739 44.4687 22.2695 37.0408 22.2695C24.887 22.2695 15 32.0228 15 44.0123C15 56.0017 24.887 65.755 37.0408 65.755C40.0768 65.755 43.0419 65.1161 45.8552 63.8483L61.0448 88.4561C55.904 92.6189 52.9592 98.7185 52.9592 105.257C52.9592 117.247 62.8462 127 75 127C87.1538 127 97.0408 117.247 97.0408 105.257C97.0408 98.7185 94.096 92.6089 88.9653 88.4561L104.236 63.7185C107.009 64.9064 109.943 65.5054 112.959 65.5054C125.113 65.5054 135 55.7521 135 43.7627C135 31.7732 125.113 22.02 112.959 22.02L112.969 22ZM90.9285 105.237C90.9285 113.892 83.7941 120.93 75.0203 120.93C66.2464 120.93 59.1121 113.892 59.1121 105.237C59.1121 96.5821 66.2464 89.5442 75.0203 89.5442C83.7941 89.5442 90.9285 96.5821 90.9285 105.237ZM112.969 59.4358C104.195 59.4358 97.0611 52.3979 97.0611 43.7427C97.0611 35.0876 104.195 28.0496 112.969 28.0496C121.743 28.0496 128.878 35.0876 128.878 43.7427C128.878 52.3979 121.743 59.4358 112.969 59.4358ZM53.2729 41.9159C53.1616 42.0955 53.0503 42.2852 52.9693 42.4849C52.8782 42.7145 52.8176 42.9141 52.7771 43.1038C52.7366 43.3135 52.7163 43.5331 52.7163 43.7427C52.7163 44.6113 53.0706 45.4598 53.6879 46.0687C53.87 46.2384 54.032 46.3682 54.204 46.478C54.3963 46.5879 54.5784 46.6977 54.7808 46.7775C54.9427 46.8374 55.1552 46.9173 55.3981 46.9672C55.6207 47.0071 55.8332 47.0271 56.0559 47.0271C56.2785 47.0271 56.491 47.0071 56.7035 46.9672C56.8958 46.9273 57.0982 46.8674 57.331 46.7775C57.5435 46.6977 57.7256 46.5879 57.8976 46.488C58.0899 46.3583 58.2619 46.2285 58.4137 46.0687C59.0411 45.4398 59.3954 44.5913 59.3954 43.7327C59.3954 43.5031 59.3751 43.2835 59.3245 43.0839C59.284 42.8742 59.2133 42.6546 59.1323 42.4649C59.0514 42.2752 58.9501 42.0856 58.8287 41.9059C58.7072 41.7262 58.5655 41.5565 58.4137 41.4067C57.8167 40.8177 56.9565 40.4783 56.0559 40.4783C55.1552 40.4783 54.2951 40.8177 53.698 41.4067C53.5462 41.5565 53.4045 41.7262 53.2831 41.9059L53.2729 41.9159Z" fill="url(#paint0_linear_2613_61)"></path>
<defs>
<linearGradient id="paint0_linear_2613_61" x1="39.9047" y1="22.0399" x2="124.332" y2="106.167" gradientUnits="userSpaceOnUse">
<stop offset="0.22" stop-color="#00CB78"></stop>
<stop offset="0.83" stop-color="#00C3D0"></stop>
</linearGradient>
</defs>
</svg>