<svg width="150" height="150" viewBox="0 0 150 150" fill="none" xmlns="http://www.w3.org/2000/svg">
<path d="M67.43 90.2975C68.72 91.5875 68.72 93.6875 67.43 94.9875L40.93 121.507C40.28 122.157 39.43 122.478 38.59 122.478C37.75 122.478 36.9 122.157 36.25 121.507C34.96 120.217 34.96 118.117 36.25 116.817L62.75 90.2975C64.04 88.9975 66.14 89.0075 67.44 90.2975H67.43ZM30.99 33.9675C29.7 32.6775 27.6 32.6775 26.3 33.9675C25.01 35.2575 25.01 37.3574 26.3 38.6574L119.07 131.427C119.72 132.077 120.56 132.397 121.41 132.397C122.26 132.397 123.11 132.077 123.75 131.427C125.04 130.137 125.04 128.038 123.75 126.738L30.98 33.9675H30.99ZM119.08 33.9675L82.6299 70.4074C81.3399 71.6974 81.3399 73.7975 82.6299 75.0975C83.2799 75.7475 84.12 76.0675 84.97 76.0675C85.82 76.0675 86.67 75.7475 87.31 75.0975L123.76 38.6574C125.05 37.3674 125.05 35.2675 123.76 33.9675C122.47 32.6775 120.37 32.6775 119.07 33.9675H119.08ZM31.22 131.667C31.39 131.487 31.54 131.318 31.67 131.108C31.8 130.918 31.91 130.698 32.01 130.478C32.1 130.268 32.16 130.037 32.21 129.807C32.27 129.567 32.29 129.327 32.29 129.087C32.29 128.127 31.9 127.187 31.22 126.517C29.87 125.157 27.42 125.157 26.07 126.517C25.39 127.187 25 128.127 25 129.087C25 129.327 25.02 129.567 25.07 129.807C25.13 130.037 25.19 130.268 25.28 130.478C25.37 130.698 25.49 130.918 25.62 131.108C25.75 131.318 25.9 131.497 26.07 131.667C26.74 132.337 27.68 132.728 28.64 132.728C29.6 132.728 30.54 132.337 31.21 131.667H31.22Z" fill="url(#paint0_linear_2613_256)"></path>
<defs>
<linearGradient id="paint0_linear_2613_256" x1="38.8" y1="43.3875" x2="106.16" y2="116.917" gradientUnits="userSpaceOnUse">
<stop offset="0.22" stop-color="#00CB78"></stop>
<stop offset="0.83" stop-color="#00C3D0"></stop>
</linearGradient>
</defs>
</svg>