<svg width="150" height="150" viewBox="0 0 150 150" fill="none" xmlns="http://www.w3.org/2000/svg">
<path d="M71.22 87.79C70.73 88.74 70.15 89.66 69.52 90.52C65.71 95.67 59.62 98.74 53.22 98.74C42.05 98.74 32.96 89.65 32.96 78.48C32.96 67.31 42.05 58.22 53.22 58.22C59.61 58.22 65.7 61.2899 69.51 66.4299C70.15 67.2899 70.72 68.2099 71.22 69.1699C71.98 70.6399 71.41 72.44 69.94 73.2C68.47 73.96 66.67 73.3899 65.91 71.9199C65.56 71.2499 65.16 70.6 64.71 69.99C61.98 66.31 57.8 64.2 53.22 64.2C45.35 64.2 38.94 70.61 38.94 78.48C38.94 86.35 45.35 92.76 53.22 92.76C57.8 92.76 61.98 90.65 64.71 86.96C65.16 86.35 65.56 85.7 65.91 85.03C66.67 83.56 68.48 82.99 69.94 83.75C71.41 84.51 71.98 86.31 71.22 87.78V87.79ZM107.03 60.3C105.55 59.57 103.76 60.1799 103.03 61.6599C102.3 63.1399 102.91 64.9299 104.39 65.6599C109.31 68.0899 112.37 73 112.37 78.48C112.37 86.35 105.96 92.76 98.09 92.76C90.22 92.76 83.81 86.35 83.81 78.48V44.8799C83.81 43.2299 82.47 41.8899 80.82 41.8899C79.17 41.8899 77.83 43.2299 77.83 44.8799V78.48C77.83 89.65 86.92 98.74 98.09 98.74C109.26 98.74 118.35 89.65 118.35 78.48C118.35 70.7 114.02 63.74 107.04 60.3H107.03ZM90.1299 63.26C90.2099 63.45 90.31 63.6501 90.43 63.8301C90.55 64.0101 90.69 64.1701 90.84 64.3301C90.99 64.4801 91.16 64.62 91.34 64.74C91.52 64.86 91.71 64.96 91.91 65.04C92.11 65.12 92.32 65.19 92.53 65.23C92.74 65.27 92.96 65.29 93.18 65.29C93.4 65.29 93.61 65.27 93.82 65.23C94.03 65.19 94.24 65.12 94.44 65.04C94.64 64.96 94.8299 64.86 95.0099 64.74C95.1899 64.62 95.3599 64.4801 95.5099 64.3301C95.6599 64.1701 95.8 64.0101 95.92 63.8301C96.04 63.6501 96.14 63.46 96.22 63.26C96.3 63.06 96.37 62.8499 96.41 62.6399C96.45 62.4299 96.47 62.21 96.47 61.99C96.47 61.77 96.45 61.5599 96.41 61.3499C96.37 61.1399 96.3 60.93 96.22 60.73C96.14 60.53 96.04 60.3399 95.92 60.1599C95.8 59.9799 95.6599 59.8099 95.5099 59.6599C95.3599 59.5099 95.1899 59.37 95.0099 59.25C94.8299 59.13 94.64 59.03 94.44 58.95C94.24 58.86 94.03 58.8 93.82 58.76C93.39 58.67 92.96 58.67 92.53 58.76C92.32 58.8 92.11 58.86 91.91 58.95C91.71 59.03 91.52 59.13 91.34 59.25C91.16 59.37 90.99 59.5099 90.84 59.6599C90.69 59.8099 90.55 59.9799 90.43 60.1599C90.31 60.3399 90.2099 60.53 90.1299 60.73C90.0499 60.93 89.98 61.1399 89.94 61.3499C89.9 61.5599 89.8799 61.78 89.8799 61.99C89.8799 62.21 89.9 62.4299 89.94 62.6399C89.98 62.8499 90.0499 63.06 90.1299 63.26ZM134.62 74.8101C134.62 107.79 107.79 134.62 74.81 134.62C41.83 134.62 15 107.79 15 74.8101C15 41.8301 41.83 15 74.81 15C107.79 15 134.62 41.8301 134.62 74.8101ZM128.64 74.8101C128.64 45.1301 104.49 20.98 74.81 20.98C45.13 20.98 20.98 45.1301 20.98 74.8101C20.98 104.49 45.13 128.64 74.81 128.64C104.49 128.64 128.64 104.49 128.64 74.8101Z" fill="url(#paint0_linear_2613_325)"></path>
<defs>
<linearGradient id="paint0_linear_2613_325" x1="31.51" y1="25.37" x2="110.28" y2="115.33" gradientUnits="userSpaceOnUse">
<stop offset="0.22" stop-color="#00CB78"></stop>
<stop offset="0.83" stop-color="#00C3D0"></stop>
</linearGradient>
</defs>
</svg>