<svg width="150" height="150" viewBox="0 0 150 150" fill="none" xmlns="http://www.w3.org/2000/svg">
<path d="M78.79 72.1702V30.24C88.95 31.7 96.79 40.44 96.79 51C96.79 52.66 98.13 54 99.79 54C101.45 54 102.79 52.66 102.79 51C102.79 37.13 92.27 25.6702 78.79 24.1702V18C78.79 16.34 77.45 15 75.79 15C74.13 15 72.79 16.34 72.79 18V24.1702C59.31 25.6702 48.79 37.13 48.79 51C48.79 64.87 59.31 76.3301 72.79 77.8301V119.78C67.55 119.03 62.79 116.35 59.41 112.14C58.37 110.85 56.49 110.64 55.19 111.68C53.9 112.72 53.69 114.61 54.73 115.9C59.25 121.53 65.72 125.05 72.79 125.83V132C72.79 133.66 74.13 135 75.79 135C77.45 135 78.79 133.66 78.79 132V125.83C92.27 124.33 102.79 112.87 102.79 99C102.79 85.13 92.27 73.6702 78.79 72.1702ZM54.79 51C54.79 40.44 62.63 31.7 72.79 30.24V71.76C62.63 70.3 54.79 61.56 54.79 51ZM78.79 119.76V78.24C88.95 79.7 96.79 88.44 96.79 99C96.79 109.56 88.95 118.3 78.79 119.76ZM53.53 102.54C53.58 102.75 53.6 102.97 53.6 103.18C53.6 104.05 53.24 104.9 52.63 105.52C52.01 106.13 51.16 106.48 50.3 106.48C49.44 106.48 48.58 106.13 47.96 105.52C47.35 104.9 47 104.05 47 103.18C47 102.97 47.02 102.75 47.06 102.54C47.1 102.33 47.17 102.12 47.25 101.92C47.33 101.72 47.43 101.53 47.55 101.35C47.67 101.17 47.81 101 47.96 100.85C48.12 100.7 48.28 100.56 48.46 100.44C48.64 100.32 48.84 100.22 49.03 100.14C49.23 100.05 49.44 99.9902 49.65 99.9502C50.72 99.7302 51.87 100.08 52.63 100.85C52.78 101 52.92 101.17 53.04 101.35C53.16 101.53 53.26 101.72 53.34 101.92C53.43 102.12 53.49 102.33 53.53 102.54Z" fill="url(#paint0_linear_2613_283)"></path>
<defs>
<linearGradient id="paint0_linear_2613_283" x1="27.89" y1="34.11" x2="119.16" y2="112.02" gradientUnits="userSpaceOnUse">
<stop offset="0.04" stop-color="#00CB78"></stop>
<stop offset="0.22" stop-color="#00CB78"></stop>
<stop offset="0.83" stop-color="#00C3D0"></stop>
</linearGradient>
</defs>
</svg>