<svg width="150" height="150" viewBox="0 0 150 150" fill="none" xmlns="http://www.w3.org/2000/svg">
<path d="M133.167 50.0487C131.741 45.8767 128.569 42.6296 124.221 40.9106C122.364 40.1767 120.456 39.8048 118.539 39.8048C113.268 39.8048 108.489 42.6497 105.758 47.4048C104.463 49.6566 103.107 51.9286 101.802 54.1201C101.29 54.9746 100.788 55.8191 100.276 56.6736C99.3324 58.272 98.3785 59.8704 97.4348 61.4688C96.5412 62.9767 95.6477 64.4847 94.7542 65.9826L90.0053 60.745L89.8648 60.5942V57.1963L90.0053 57.0455L96.8525 49.4857C97.8063 48.4302 97.9669 46.8921 97.2441 45.6656L88.6901 31.1693C88.1077 30.1841 87.0435 29.581 85.909 29.581C85.6982 29.581 85.4873 29.6011 85.2765 29.6413L75.2466 31.6519L75.0358 31.6921L74.8551 31.5815C73.9114 30.9783 72.9274 30.4254 71.9335 29.9228L71.7427 29.8222L71.6724 29.6212L68.4597 20.1915C68.0079 18.8847 66.783 18 65.3975 18H48.2896C46.904 18 45.6792 18.8847 45.2274 20.1915L42.0146 29.6212L41.9443 29.8222L41.7536 29.9228C40.7496 30.4254 39.7657 30.9783 38.832 31.5815L38.6513 31.6921L38.4404 31.6519L28.4206 29.6413C28.2098 29.6011 27.9989 29.581 27.7881 29.581C26.6536 29.581 25.5793 30.1942 25.007 31.1693L16.453 45.6656C15.7302 46.8921 15.8808 48.4302 16.8446 49.4857L23.6918 57.0455L23.8324 57.1963V60.5942L23.6918 60.745L16.8446 68.3048C15.8808 69.3603 15.7302 70.8984 16.453 72.1249L25.007 86.6212C25.5894 87.6064 26.6536 88.2095 27.7881 88.2095C27.9989 88.2095 28.2098 88.1894 28.4206 88.1492L38.4505 86.1386L38.6613 86.0984L38.842 86.209C39.7858 86.8122 40.7697 87.3651 41.7737 87.8677L41.9644 87.9683L42.0347 88.1693L45.2475 97.5989C45.6893 98.9058 46.9241 99.7905 48.3097 99.7905H65.4176C66.8031 99.7905 68.028 98.9058 68.4798 97.5989L71.6925 88.1693L71.7628 87.9683L71.9536 87.8677C72.9475 87.3651 73.9314 86.8122 74.8852 86.209L75.0659 86.0984L75.2768 86.1386L82.0437 87.4958C81.13 89.0439 80.2064 90.5921 79.2827 92.1402C77.3952 95.327 75.4976 98.5138 73.6202 101.711C72.9475 102.847 72.5459 104.294 72.5259 105.581C72.4656 110.728 72.4656 115.966 72.4656 121.032C72.4656 123.515 72.4656 125.988 72.4656 128.471C72.4656 129.477 72.6263 130.894 74.1122 131.668C74.5339 131.889 74.9656 132 75.4174 132C76.2306 132 76.9535 131.638 77.5458 131.276C79.9554 129.829 82.375 128.391 84.7845 126.953C88.8507 124.531 93.0574 122.017 97.1838 119.524C97.987 119.032 98.74 118.268 99.252 117.423C100.929 114.608 102.806 111.512 104.613 108.526C106.37 105.621 106.692 105.129 108.338 102.364C108.539 102.113 108.69 101.851 108.79 101.59C109.412 99.9915 108.619 98.182 107.023 97.5588C106.661 97.418 106.28 97.3476 105.898 97.3476C104.633 97.3476 103.509 98.1016 103.027 99.2677C101.3 102.173 101.039 102.656 99.2721 105.651C97.6156 108.456 95.9489 111.271 94.3224 114.025L88.2884 110.437L78.7606 104.767L98.3886 71.6825L108.017 55.4572L115.075 59.6492L123.579 64.7058C121.962 67.4503 120.306 70.4058 118.699 73.2809C117.093 76.146 115.426 79.1217 113.82 81.846C113.639 82.0873 113.499 82.3286 113.408 82.5799C113.107 83.354 113.127 84.1984 113.459 84.9625C113.79 85.7265 114.402 86.3095 115.175 86.6111C115.537 86.7519 115.918 86.8222 116.3 86.8222C117.565 86.8222 118.689 86.0683 119.171 84.9021C121.34 81.2429 123.458 77.4429 125.496 73.7635C127.504 70.1445 129.583 66.4048 131.711 62.8159C134.111 58.7646 134.643 54.2408 133.217 50.0587L133.167 50.0487ZM126.561 59.5185L120.547 55.9397L111.089 50.3101C112.856 47.4651 115.647 45.7963 118.679 45.7963C120.326 45.7963 122.002 46.299 123.519 47.2339C125.767 48.6312 127.273 50.7021 127.765 53.0646C128.207 55.2159 127.785 57.4879 126.561 59.5185ZM78.4594 123.686V117.584V111.633L82.0939 113.794L88.5595 117.644L81.7726 121.716L78.4594 123.696V123.686ZM74.3431 79.4233C73.6704 79.4233 73.0278 79.6243 72.4857 80.0164C71.0299 81.0519 69.4537 81.9365 67.8172 82.6603C66.9939 83.0222 66.3513 83.7259 66.0602 84.5804L63.1988 92.9746L63.0783 93.3365H50.5887L50.4682 92.9746L47.6068 84.5804C47.3157 83.7259 46.6731 83.0222 45.8499 82.6603C44.2134 81.9365 42.6471 81.0519 41.1813 80.0164C40.6291 79.6243 39.9866 79.4233 39.3139 79.4233C39.103 79.4233 38.8922 79.4434 38.6814 79.4836L29.7459 81.273L29.3744 81.3434L29.1837 81.0217L23.4007 71.2201L23.1999 70.8884L23.4609 70.5968L29.4246 64.0222C29.9668 63.4291 30.2679 62.655 30.2679 61.8508V55.9497C30.2679 55.1455 29.9668 54.3714 29.4246 53.7783L23.4609 47.2037L23.1999 46.9122L23.4007 46.5804L29.1837 36.7688L29.3744 36.4471L29.7459 36.5175L38.6814 38.3069C38.8922 38.3471 39.103 38.3672 39.3139 38.3672C39.9866 38.3672 40.6291 38.1662 41.1813 37.7741C42.6371 36.7386 44.2134 35.854 45.8499 35.1302C46.6731 34.7683 47.3157 34.0646 47.6068 33.2101L50.4682 24.8159L50.5887 24.454H63.0783L63.1988 24.8159L66.0602 33.2101C66.3513 34.0646 66.9939 34.7683 67.8172 35.1302C69.4537 35.854 71.0299 36.7386 72.4857 37.7741C73.0379 38.1662 73.6805 38.3672 74.3531 38.3672C74.564 38.3672 74.7748 38.3471 74.9857 38.3069L83.9211 36.5175L84.2926 36.4471L84.4834 36.7688L90.2664 46.5804L90.4671 46.9122L90.2061 47.2037L84.2425 53.7783C83.7003 54.3714 83.4091 55.1455 83.4091 55.9497V61.8508C83.4091 62.655 83.7103 63.4291 84.2425 64.0222L90.2061 70.5968L91.1198 71.5519L90.9289 71.8735L85.156 81.6651L84.0114 81.2931H83.9714L83.9312 81.273L74.9956 79.4836C74.7848 79.4434 74.574 79.4233 74.3632 79.4233H74.3431ZM56.8335 55.3265C55.8396 55.3265 54.9059 55.6884 54.2734 56.3318C53.6007 57.0154 53.2292 57.9503 53.2292 58.8952C53.2292 59.8402 53.6107 60.7651 54.2834 61.4487C54.4039 61.5593 54.6047 61.7402 54.8356 61.891C55.0063 62.0116 55.207 62.1222 55.448 62.2127C55.689 62.3132 55.9098 62.3836 56.1207 62.4238C56.3717 62.464 56.6026 62.4942 56.8335 62.4942C57.0644 62.4942 57.3054 62.4741 57.5363 62.4238C57.8074 62.3736 58.0483 62.2831 58.219 62.2127C58.4399 62.1222 58.6407 62.0217 58.8415 61.891C59.0322 61.7603 59.223 61.6095 59.3836 61.4386C60.0563 60.7651 60.4478 59.8302 60.4478 58.8852C60.4478 57.9402 60.0563 56.9952 59.3836 56.3217C58.7511 55.6884 57.8275 55.3164 56.8335 55.3164V55.3265ZM111.109 89.2751C110.276 89.2751 109.503 89.5767 108.961 90.1196C108.398 90.6926 108.077 91.4767 108.077 92.2709C108.077 93.0651 108.398 93.8392 108.961 94.4122C109.061 94.5127 109.232 94.6535 109.422 94.7841C109.563 94.8847 109.734 94.9751 109.935 95.0556C110.135 95.136 110.316 95.1963 110.497 95.2365C110.708 95.2767 110.898 95.2968 111.099 95.2968C111.3 95.2968 111.501 95.2767 111.691 95.2365C111.912 95.1963 112.123 95.1159 112.264 95.0556C112.444 94.9852 112.615 94.8947 112.786 94.7841C112.946 94.6736 113.097 94.5529 113.238 94.4122C113.8 93.8492 114.131 93.0651 114.131 92.2709C114.131 91.4767 113.81 90.6926 113.238 90.1196C112.706 89.5868 111.932 89.2751 111.099 89.2751H111.109Z" fill="url(#paint0_linear_2613_52)"></path>
<defs>
<linearGradient id="paint0_linear_2613_52" x1="15.9711" y1="74.9899" x2="133.95" y2="74.9899" gradientUnits="userSpaceOnUse">
<stop offset="0.22" stop-color="#00CB78"></stop>
<stop offset="0.83" stop-color="#00C3D0"></stop>
</linearGradient>
</defs>
</svg>