<svg width="150" height="150" viewBox="0 0 150 150" fill="none" xmlns="http://www.w3.org/2000/svg">
<path d="M51.8617 85.61C51.0117 85.61 50.1817 85.27 49.5917 84.67C48.9917 84.07 48.6417 83.24 48.6417 82.39C48.6417 81.54 48.9817 80.71 49.5917 80.12C50.7817 78.92 52.9417 78.92 54.1317 80.12C54.7317 80.71 55.0817 81.54 55.0817 82.39C55.0817 83.24 54.7417 84.07 54.1317 84.67C53.9817 84.82 53.8217 84.95 53.6417 85.07C53.4617 85.18 53.2817 85.28 53.0817 85.36C52.8917 85.44 52.6817 85.51 52.4817 85.55C52.2817 85.59 52.0617 85.61 51.8617 85.61ZM125.962 112.2C126.602 114.52 127.102 116.9 127.422 119.34C127.742 121.81 126.982 124.3 125.332 126.18C123.662 128.09 121.242 129.18 118.712 129.18H31.7817C29.2417 129.18 26.8317 128.09 25.1617 126.18C23.5117 124.3 22.7517 121.81 23.0717 119.34C24.5717 107.93 29.9117 97.14 38.1017 88.98C39.2417 87.84 41.0917 87.84 42.2317 88.98C43.3717 90.12 43.3717 91.98 42.2317 93.11C34.9517 100.37 30.2117 109.95 28.8717 120.09C28.7617 120.9 29.0117 121.69 29.5617 122.31C30.1217 122.95 30.9317 123.32 31.7917 123.32H118.722C119.572 123.32 120.382 122.95 120.952 122.31C121.502 121.69 121.742 120.9 121.632 120.09C121.402 118.31 121.052 116.57 120.622 114.86C118.832 115.42 116.922 115.72 114.952 115.72C104.442 115.72 95.9017 107.17 95.9017 96.67C95.9017 92.74 97.1017 89.09 99.1417 86.06C92.1117 81.87 83.9217 79.47 75.2517 79.47C59.1317 79.47 46.0117 66.35 46.0117 50.23C46.0117 34.11 59.1317 21 75.2517 21C91.3717 21 104.492 34.12 104.492 50.24C104.492 61.12 98.5117 70.62 89.6817 75.65C94.5017 77.03 99.0417 79.09 103.212 81.71C106.452 79.16 110.522 77.63 114.952 77.63C125.462 77.63 134.002 86.18 134.002 96.68C134.002 103.08 130.822 108.74 125.962 112.2ZM75.2517 73.62C88.1517 73.62 98.6417 63.13 98.6417 50.23C98.6417 37.33 88.1517 26.84 75.2517 26.84C62.3517 26.84 51.8617 37.33 51.8617 50.23C51.8617 63.13 62.3517 73.62 75.2517 73.62ZM128.422 96.68C128.422 89.24 122.392 83.2 114.942 83.2C107.492 83.2 101.462 89.23 101.462 96.68C101.462 104.13 107.492 110.16 114.942 110.16C122.392 110.16 128.422 104.13 128.422 96.68ZM123.462 91.09C122.462 90.09 120.712 90.09 119.712 91.09L112.552 98.25L110.632 96.33C109.632 95.33 107.882 95.33 106.882 96.33C106.382 96.83 106.102 97.5 106.102 98.21C106.102 98.92 106.372 99.59 106.882 100.09L109.232 102.44C110.122 103.33 111.302 103.82 112.562 103.82C113.822 103.82 115.002 103.33 115.892 102.44L123.472 94.86C124.502 93.83 124.502 92.14 123.472 91.11L123.462 91.09Z" fill="url(#paint0_linear_2613_226)"></path>
<defs>
<linearGradient id="paint0_linear_2613_226" x1="36.0917" y1="66.4" x2="133.182" y2="109.47" gradientUnits="userSpaceOnUse">
<stop offset="0.22" stop-color="#00CB78"></stop>
<stop offset="0.83" stop-color="#00C3D0"></stop>
</linearGradient>
</defs>
</svg>