<svg width="150" height="150" viewBox="0 0 150 150" fill="none" xmlns="http://www.w3.org/2000/svg">
<path d="M19 76.5853C19 48.3929 40.1943 25.0709 67.5086 21.6306L65.1249 19.2504C63.9229 18.0503 63.9229 16.1002 65.1249 14.9001C66.3268 13.7 68.28 13.7 69.4819 14.9001L76.6735 22.0807C76.8137 22.2207 76.944 22.3807 77.0642 22.5507C77.1142 22.6207 77.1443 22.7007 77.1944 22.7807C77.2445 22.8807 77.3046 22.9708 77.3547 23.0808C77.3947 23.1808 77.4248 23.2908 77.4548 23.3908C77.4849 23.4808 77.5149 23.5608 77.5349 23.6508C77.615 24.0509 77.615 24.4609 77.5349 24.8609C77.5149 24.9509 77.4849 25.0309 77.4548 25.1209C77.4248 25.2209 77.4047 25.331 77.3547 25.431C77.3146 25.531 77.2545 25.631 77.1944 25.731C77.1543 25.811 77.1142 25.891 77.0642 25.961C76.954 26.131 76.8238 26.291 76.6735 26.4311L69.4819 33.6117C68.8809 34.2117 68.0896 34.5117 67.2983 34.5117C66.507 34.5117 65.7158 34.2117 65.1148 33.6117C63.9129 32.4116 63.9129 30.4614 65.1148 29.2613L66.3669 28.0112C43.019 31.8915 25.16 52.1932 25.16 76.5853C25.16 103.748 47.2859 125.839 74.49 125.839C101.694 125.839 123.82 103.748 123.82 76.5853C123.82 58.3738 113.824 41.7224 97.7277 33.1216C96.2252 32.3216 95.6643 30.4514 96.4656 28.9513C97.2669 27.4511 99.14 26.8911 100.642 27.6912C118.752 37.362 130 56.0936 130 76.5853C130 107.138 105.1 132 74.5001 132C43.9004 132 19 107.138 19 76.5853ZM84.977 28.5312C85.1573 28.6512 85.3576 28.7612 85.5679 28.8512C85.7582 28.9312 85.9786 28.9913 86.199 29.0313C86.4293 29.0813 86.6397 29.1013 86.8701 29.1013C87.1005 29.1013 87.3108 29.0813 87.5312 29.0313C87.7516 28.9913 87.9618 28.9312 88.1721 28.8512C88.3825 28.7612 88.5729 28.6612 88.7632 28.5312C88.9435 28.4112 89.1238 28.2612 89.274 28.1112C89.9151 27.4811 90.2756 26.6111 90.2756 25.721C90.2756 25.491 90.2555 25.2809 90.2055 25.0509C90.1654 24.8309 90.1054 24.6309 90.0252 24.4209C89.9351 24.2109 89.8349 24.0208 89.7047 23.8408C89.5845 23.6608 89.4343 23.4808 89.284 23.3308C89.1338 23.1708 88.9535 23.0308 88.7732 22.9107C88.5929 22.7907 88.3925 22.6707 88.1822 22.5907C87.9818 22.5107 87.7615 22.4507 87.5411 22.4007C87.1104 22.3207 86.6597 22.3207 86.219 22.4007C85.9987 22.4507 85.7883 22.5107 85.588 22.5907C85.3776 22.6707 85.1874 22.7807 84.9971 22.9107C84.8168 23.0308 84.6365 23.1708 84.4762 23.3308C84.326 23.4808 84.1757 23.6608 84.0555 23.8408C83.9453 24.0208 83.8252 24.2209 83.745 24.4209C83.6649 24.6309 83.6047 24.8309 83.5446 25.0509C83.5046 25.2809 83.4846 25.491 83.4846 25.721C83.4846 26.6111 83.8452 27.4911 84.4662 28.1112C84.6264 28.2612 84.8067 28.4112 84.987 28.5312H84.977Z" fill="url(#paint0_linear_2613_58)"></path>
<defs>
<linearGradient id="paint0_linear_2613_58" x1="43.2393" y1="35.1418" x2="114.225" y2="129.505" gradientUnits="userSpaceOnUse">
<stop offset="0.22" stop-color="#00CB78"></stop>
<stop offset="0.83" stop-color="#00C3D0"></stop>
</linearGradient>
</defs>
</svg>