<svg width="150" height="150" viewBox="0 0 150 150" fill="none" xmlns="http://www.w3.org/2000/svg">
<path d="M129.083 79.11L128.583 78.41L129.073 77.69L129.553 76.99C129.843 76.56 130.083 76.22 130.313 75.86C137.543 64.77 136.143 50.53 126.913 41.23C125.723 40.03 123.863 39.12 122.603 39.11C106.883 39.04 90.2925 39 73.2825 39C58.9225 39 44.1326 39.02 28.0826 39.08C26.6726 39.08 24.5026 39.77 23.3226 40.9C18.2726 45.73 15.4926 51.85 15.0526 59.07C14.6526 65.69 16.5326 71.77 20.8126 77.67L21.3226 78.37L20.8426 79.09L20.5025 79.6C14.4225 88.77 13.8926 100.41 19.1126 109.98C22.1126 115.48 24.1425 117.93 28.2825 117.93C33.6225 117.89 39.3026 117.88 46.6926 117.88H56.7326L66.7625 117.89H92.4125L101.492 117.9C107.032 117.9 114.333 117.9 121.723 117.82C123.113 117.81 124.903 117.45 125.753 116.67C132.843 110.19 135.823 101.97 134.613 92.26C134.063 87.84 132.253 83.54 129.093 79.12L129.083 79.11ZM123.433 107.92C122.603 109.02 120.803 110.17 119.213 110.17C104.543 110.22 89.5425 110.24 74.6325 110.24C59.7225 110.24 45.4025 110.22 30.7625 110.17C29.3025 110.17 27.4325 109.21 26.5025 107.99C21.3925 101.3 21.3025 91.6699 26.2825 84.5699C27.4725 82.8699 28.8925 82.15 31.0125 82.15C33.5525 82.16 36.0925 82.16 38.6225 82.17H40.2725C41.7825 82.17 43.0125 80.94 43.0125 79.43V77.32C43.0125 75.81 41.7825 74.58 40.2725 74.58H38.6525C36.1025 74.58 33.5525 74.58 31.0025 74.6H30.9626C28.8326 74.6 27.4225 73.87 26.2425 72.16C21.2525 64.93 21.3625 55.52 26.5125 48.75C27.4125 47.57 29.1526 46.68 30.5626 46.68C45.2826 46.64 59.9925 46.62 74.2725 46.62C89.4325 46.62 104.563 46.64 119.253 46.69C120.683 46.69 122.533 47.69 123.463 48.95C128.453 55.69 128.523 65.01 123.653 72.13C122.463 73.87 121.053 74.62 118.953 74.62C110.323 74.58 101.763 74.57 95.2725 74.57H85.1126H70.9626C69.4526 74.57 68.2226 75.8 68.2226 77.31V78.51C68.2226 80.55 69.8825 82.2 71.9125 82.2H87.1926H95.4025C101.783 82.2 110.193 82.2 118.713 82.15C120.973 82.15 122.453 82.92 123.693 84.71C128.583 91.84 128.473 101.17 123.423 107.91L123.433 107.92ZM113.863 65.13C116.163 65.13 118.033 63.26 118.033 60.96C118.033 58.66 116.163 56.79 113.863 56.79C111.563 56.79 109.693 58.66 109.693 60.96C109.693 63.26 111.563 65.13 113.863 65.13ZM98.3026 65.13C100.603 65.13 102.473 63.26 102.473 60.96C102.473 58.66 100.603 56.79 98.3026 56.79C96.0026 56.79 94.1325 58.66 94.1325 60.96C94.1325 63.26 96.0026 65.13 98.3026 65.13ZM113.863 91.8101C111.563 91.8101 109.693 93.68 109.693 95.98C109.693 98.28 111.563 100.15 113.863 100.15C116.163 100.15 118.033 98.28 118.033 95.98C118.033 93.68 116.163 91.8101 113.863 91.8101ZM98.3026 91.8101C96.0026 91.8101 94.1325 93.68 94.1325 95.98C94.1325 98.28 96.0026 100.15 98.3026 100.15C100.603 100.15 102.473 98.28 102.473 95.98C102.473 93.68 100.603 91.8101 98.3026 91.8101ZM55.0125 74.34C52.7125 74.34 50.8426 76.21 50.8426 78.51C50.8426 80.81 52.7125 82.6801 55.0125 82.6801C57.3125 82.6801 59.1826 80.81 59.1826 78.51C59.1826 76.21 57.3125 74.34 55.0125 74.34Z" fill="url(#paint0_linear_2613_131)"></path>
<defs>
<linearGradient id="paint0_linear_2613_131" x1="20.7426" y1="49.06" x2="126.133" y2="106.29" gradientUnits="userSpaceOnUse">
<stop offset="0.22" stop-color="#00CB78"></stop>
<stop offset="0.83" stop-color="#00C3D0"></stop>
</linearGradient>
</defs>
</svg>