<svg width="150" height="150" viewBox="0 0 150 150" fill="none" xmlns="http://www.w3.org/2000/svg">
<path d="M55.046 56.34C55.886 56.34 56.706 56 57.296 55.41C57.886 54.82 58.2359 53.99 58.2359 53.15C58.2359 52.31 57.896 51.49 57.296 50.9C56.726 50.33 55.906 50.01 55.046 50.01C54.186 50.01 53.366 50.34 52.796 50.9C52.206 51.48 51.866 52.3 51.866 53.15C51.866 54 52.206 54.82 52.806 55.41C53.396 56 54.216 56.34 55.056 56.34H55.046ZM55.046 56.08C55.816 56.08 56.566 55.77 57.116 55.23C56.576 55.77 55.826 56.08 55.046 56.08C54.656 56.08 54.2761 56 53.9261 55.86C54.2761 56.01 54.656 56.08 55.046 56.08ZM52.9859 55.23C52.7159 54.96 52.496 54.63 52.346 54.28C52.496 54.63 52.7059 54.96 52.9859 55.23ZM53.9261 55.86C54.2761 56.01 54.656 56.08 55.046 56.08C55.816 56.08 56.566 55.77 57.116 55.23C56.576 55.77 55.826 56.08 55.046 56.08C54.656 56.08 54.2761 56 53.9261 55.86ZM52.9859 55.23C52.7159 54.96 52.496 54.63 52.346 54.28C52.496 54.63 52.7059 54.96 52.9859 55.23ZM104.086 109.95H94.9661C97.4361 97.77 108.006 88.07 111.216 85.37C113.406 83.52 113.126 81.21 112.506 79.6L111.266 77.38L111.196 77.25L77.636 17.51C77.576 17.4 77.4961 17.31 77.4161 17.24C77.3861 17.21 77.366 17.19 77.336 17.16L77.296 17.11C77.066 16.82 76.7961 16.59 76.4661 16.4C76.4661 16.4 76.4461 16.37 76.4061 16.35C76.3561 16.32 76.3059 16.31 76.2759 16.3C75.9959 16.17 75.7361 16.08 75.4661 16.04C75.2761 16.01 75.1061 16 74.9561 16C74.8161 16 74.6461 16 74.4661 16.04C74.1961 16.08 73.9261 16.17 73.6461 16.31C73.6261 16.31 73.5759 16.32 73.5259 16.35L73.4959 16.37L73.4461 16.42C72.9461 16.7 72.566 17.06 72.316 17.5L60.0259 39.38C59.2259 40.81 59.7261 42.64 61.1461 43.46C61.6061 43.72 62.1261 43.86 62.6461 43.86C63.7361 43.86 64.7459 43.27 65.2759 42.32L71.6961 30.9V63.03C67.0361 64.68 64.3459 69.36 65.2659 74.24C66.0059 78.13 69.236 81.34 73.126 82.05C73.736 82.16 74.3661 82.22 74.9761 82.22C80.4361 82.22 84.876 77.78 84.876 72.32C84.876 67.94 81.9461 64.08 77.7161 62.85V29.94L105.616 79.59C106.186 80.61 105.996 81.8801 105.136 82.6801C99.916 87.5001 90.876 97.4399 88.836 109.94H61.126C59.086 97.4399 50.046 87.5101 44.826 82.6801C43.966 81.8901 43.766 80.62 44.346 79.59L51.116 67.53C51.916 66.1 51.4159 64.27 49.9959 63.45C49.5359 63.19 49.0159 63.05 48.4959 63.05C47.4059 63.05 46.406 63.64 45.866 64.59L38.6861 77.36L37.4561 79.55C36.8161 81.2 36.5459 83.52 38.7459 85.36C41.9559 88.07 52.5061 97.7601 54.9761 109.93H45.856C41.646 109.93 38.2161 113.36 38.2161 117.57V125.62C38.2161 129.83 41.646 133.26 45.856 133.26H104.086C108.296 133.26 111.726 129.83 111.726 125.62V117.58C111.726 113.37 108.296 109.94 104.086 109.94V109.95ZM78.846 72.34C78.846 74.47 77.1061 76.21 74.9761 76.21C72.8461 76.21 71.106 74.47 71.106 72.34C71.106 70.21 72.8461 68.47 74.9761 68.47C77.1061 68.47 78.846 70.21 78.846 72.34ZM105.126 125.64C105.126 126.21 104.656 126.68 104.086 126.68H45.846C45.276 126.68 44.806 126.21 44.806 125.64V117.59C44.806 117.02 45.276 116.55 45.846 116.55H104.076C104.656 116.55 105.116 117.02 105.116 117.59V125.63L105.126 125.64Z" fill="url(#paint0_linear_2613_143)"></path>
<defs>
<linearGradient id="paint0_linear_2613_143" x1="31.776" y1="51.52" x2="98.576" y2="107.09" gradientUnits="userSpaceOnUse">
<stop offset="0.22" stop-color="#00CB78"></stop>
<stop offset="0.83" stop-color="#00C3D0"></stop>
</linearGradient>
</defs>
</svg>