<svg width="150" height="150" viewBox="0 0 150 150" fill="none" xmlns="http://www.w3.org/2000/svg">
<path d="M128.99 26.9451V91.0885C128.99 96.3894 124.69 100.715 119.397 100.715H77.8481V129.583H100.221C101.986 129.583 103.419 131.021 103.419 132.791C103.419 134.562 101.986 136 100.221 136H49.0894C47.3252 136 45.8918 134.562 45.8918 132.791C45.8918 131.021 47.3252 129.583 49.0894 129.583H71.4628V100.715H29.9137C24.6311 100.715 20.3208 96.3995 20.3208 91.0885V33.3625C20.3208 31.5922 21.7542 30.1538 23.5184 30.1538C25.2826 30.1538 26.7161 31.5922 26.7161 33.3625V91.0885C26.7161 92.8588 28.1495 94.2972 29.9137 94.2972H119.407C121.171 94.2972 122.605 92.8588 122.605 91.0885V26.9451C122.605 25.1748 121.171 23.7364 119.407 23.7364H36.3089C34.5447 23.7364 33.1114 22.2981 33.1114 20.5278C33.1114 18.7575 34.5447 17.3191 36.3089 17.3191H119.407C124.69 17.3191 129 21.6342 129 26.9451H128.99ZM23.5184 24.0583C24.4406 24.0583 25.3528 23.6861 26.0043 23.0323C26.6559 22.3685 27.0368 21.4632 27.0368 20.5278C27.0368 19.5923 26.6559 18.687 26.0043 18.0332C25.1824 17.2084 23.9695 16.8363 22.8268 17.0676C22.6063 17.1078 22.3757 17.1783 22.1652 17.2688C21.9647 17.3593 21.7542 17.4599 21.5538 17.5907C21.3633 17.7214 21.1929 17.8723 21.0225 18.0332C20.3709 18.687 20 19.5923 20 20.5278C20 21.4632 20.3709 22.3685 21.0225 23.0323C21.684 23.6861 22.5862 24.0583 23.5184 24.0583Z" fill="url(#paint0_linear_2613_23)"></path>
<defs>
<linearGradient id="paint0_linear_2613_23" x1="36.6297" y1="31.9643" x2="117.404" y2="105.366" gradientUnits="userSpaceOnUse">
<stop offset="0.22" stop-color="#00CB78"></stop>
<stop offset="0.83" stop-color="#00C3D0"></stop>
</linearGradient>
</defs>
</svg>