<svg width="150" height="150" viewBox="0 0 150 150" fill="none" xmlns="http://www.w3.org/2000/svg">
<path d="M80.8542 26.2912C80.8542 27.1506 80.4984 27.9917 79.8872 28.6134C79.7412 28.7597 79.5679 28.906 79.3946 29.0248C79.2212 29.1437 79.0388 29.2351 78.8381 29.3174C78.6374 29.3997 78.4276 29.4728 78.2178 29.5094C78.0444 29.5459 77.8711 29.5551 77.6978 29.5551C77.6521 29.5551 77.6157 29.5642 77.57 29.5642C77.342 29.5642 77.123 29.5459 76.9132 29.5002C76.7399 29.4636 76.5392 29.3997 76.302 29.3082C76.0374 29.1985 75.8732 29.1071 75.7546 29.0157C75.5631 28.8877 75.3806 28.7323 75.2529 28.6134C74.6417 27.9917 74.295 27.1415 74.295 26.2821C74.295 25.4227 74.6417 24.5633 75.2438 23.9508C75.8094 23.384 76.6578 23.0549 77.57 23.0549C77.6157 23.0549 77.6521 23.064 77.6978 23.064C78.5553 23.0914 79.3398 23.4023 79.8872 23.9508C80.4984 24.5633 80.8542 25.4136 80.8542 26.2821V26.2912ZM73.5378 127.954C73.7112 127.954 73.8845 127.936 74.0487 127.909C74.2585 127.872 74.4683 127.799 74.669 127.717C74.8606 127.643 75.0431 127.543 75.2164 127.424C75.3897 127.305 75.5631 127.168 75.709 127.022C76.3202 126.409 76.6669 125.568 76.6669 124.718C76.6669 123.868 76.3202 123.008 75.709 122.396C75.1708 121.856 74.3862 121.545 73.5378 121.509V121.491H64.5338L64.1506 120.357L60.4195 109.386C60.1276 108.527 59.489 107.823 58.6588 107.466C56.4603 106.497 54.3529 105.309 52.3916 103.919C51.8442 103.526 51.1965 103.325 50.5214 103.325C50.3116 103.325 50.1018 103.343 49.892 103.389L38.215 105.729L37.0473 105.967L36.4452 104.943L28.8825 92.1254L28.253 91.0557L29.0832 90.1415L36.8739 81.5385C37.4122 80.9443 37.7132 80.1672 37.7132 79.3535V71.6374C37.7132 70.8328 37.4122 70.0557 36.8739 69.4523L29.0832 60.8494L28.253 59.9351L28.8825 58.8655L36.4452 46.0387L37.0473 45.0148L38.215 45.2525L49.892 47.5929C50.1018 47.6387 50.3116 47.6569 50.5305 47.6569C51.2056 47.6569 51.8533 47.4558 52.4007 47.0627C54.362 45.6731 56.4694 44.4845 58.6679 43.5155C59.4981 43.1498 60.1367 42.4458 60.4286 41.5956L64.1598 30.6247L64.5429 29.4911H68.3288V29.4545C68.5021 29.4545 68.6755 29.4362 68.8397 29.4088C69.0495 29.3722 69.2593 29.2991 69.46 29.2168C69.6516 29.1437 69.834 29.0431 70.0074 28.9242C70.1807 28.8054 70.354 28.6683 70.5 28.522C71.1112 27.9094 71.4579 27.0683 71.4579 26.2181C71.4579 25.3679 71.1112 24.5085 70.5 23.896C69.9618 23.3566 69.1772 23.0457 68.3288 23.0091L62.2258 23C60.8391 23 59.6076 23.8868 59.1606 25.1942L54.9641 37.5272L54.7452 38.1763L54.134 38.4872C52.8568 39.1271 51.5979 39.8402 50.3937 40.6082L49.8281 40.9647L49.1713 40.8367L36.0712 38.2129C35.8613 38.1672 35.6424 38.1489 35.4326 38.1489C34.2922 38.1489 33.2249 38.7614 32.6502 39.7488L21.4567 58.6918C20.7269 59.926 20.882 61.4619 21.849 62.5224L30.7983 72.4053L31.2362 72.8807V78.0919L30.7983 78.5673L21.849 88.4593C20.8911 89.5198 20.736 91.0649 21.4567 92.2899L32.6319 111.251C33.2158 112.239 34.2831 112.851 35.4234 112.851C35.6333 112.851 35.8522 112.833 36.062 112.787L49.153 110.163L49.8098 110.035L50.3755 110.392C51.5796 111.16 52.8386 111.873 54.1157 112.513L54.727 112.824L54.9459 113.473L59.1423 125.806C59.5893 127.122 60.8209 128 62.2075 128M59.863 61.9099C59.863 60.3923 61.0854 59.1672 62.5998 59.1672H77.9076L88.5172 48.5346C86.2913 46.249 84.9138 43.1223 84.9138 39.6848C84.9138 32.6909 90.5972 26.9952 97.576 26.9952C104.555 26.9952 110.238 32.6909 110.238 39.6848C110.238 46.6787 104.555 52.3744 97.576 52.3744C96.0343 52.3744 94.5564 52.0818 93.188 51.5699C93.115 51.6613 93.0512 51.7527 92.9691 51.835L80.9637 63.8663C80.4254 64.4057 79.7321 64.6709 79.0297 64.6709C78.9567 64.6709 78.8746 64.6526 78.8016 64.6526C78.7925 64.6526 78.7834 64.6526 78.7742 64.6526H62.6089C61.0946 64.6526 59.8721 63.4275 59.8721 61.9099H59.863ZM90.3782 39.6848C90.3782 43.6526 93.6076 46.889 97.5669 46.889C101.526 46.889 104.756 43.6526 104.756 39.6848C104.756 35.717 101.526 32.4806 97.5669 32.4806C93.6076 32.4806 90.3782 35.717 90.3782 39.6848ZM110.238 110.885C110.238 117.879 104.555 123.575 97.576 123.575C90.5972 123.575 84.9138 117.879 84.9138 110.885C84.9138 107.448 86.2913 104.321 88.5172 102.036L77.9076 91.4031H62.5998C61.0854 91.4031 59.863 90.1781 59.863 88.6604C59.863 87.1428 61.0854 85.9177 62.5998 85.9177H78.7651C78.7651 85.9177 78.7834 85.9177 78.7925 85.9177C79.5679 85.8537 80.3616 86.1006 80.9545 86.6948L92.9599 98.7262C93.042 98.8084 93.1059 98.8999 93.1789 98.9913C94.5473 98.4793 96.0251 98.1868 97.576 98.1868C104.555 98.1868 110.238 103.882 110.238 110.876V110.885ZM104.765 110.885C104.765 106.909 101.535 103.681 97.576 103.681C93.6168 103.681 90.3874 106.918 90.3874 110.885C90.3874 114.853 93.6168 118.09 97.576 118.09C101.535 118.09 104.765 114.853 104.765 110.885ZM128 75.2852C128 82.2791 122.317 87.9747 115.338 87.9747C109.381 87.9747 104.391 83.8241 103.04 78.2656H62.0524C60.5381 78.2656 59.3156 77.0405 59.3156 75.5229C59.3156 74.0052 60.5381 72.7801 62.0524 72.7801H102.922C104.09 66.9747 109.207 62.5956 115.338 62.5956C122.317 62.5956 128 68.2913 128 75.2852ZM122.526 75.2852C122.526 71.3082 119.297 68.081 115.338 68.081C111.379 68.081 108.149 71.3174 108.149 75.2852C108.149 79.2529 111.379 82.4893 115.338 82.4893C119.297 82.4893 122.526 79.2529 122.526 75.2852Z" fill="url(#paint0_linear_2613_238)"></path>
<defs>
<linearGradient id="paint0_linear_2613_238" x1="20.6995" y1="34.8851" x2="130.53" y2="115.797" gradientUnits="userSpaceOnUse">
<stop offset="0.22" stop-color="#00CB78"></stop>
<stop offset="0.83" stop-color="#00C3D0"></stop>
</linearGradient>
</defs>
</svg>