<svg width="150" height="150" viewBox="0 0 150 150" fill="none" xmlns="http://www.w3.org/2000/svg">
<path d="M42.88 68.48H55.89V31.9C55.89 30.06 57.38 28.57 59.22 28.57C61.06 28.57 62.55 30.06 62.55 31.9V68.48C62.55 72.15 59.57 75.13 55.9 75.13H42.9L75.8 112.93C75.8 112.93 75.86 113 75.89 113.04C75.92 113 75.95 112.97 75.98 112.93L108.87 75.13H95.81C92.14 75.13 89.16 72.15 89.16 68.48L89.31 18.58C89.31 16.75 90.8 15.26 92.64 15.26C94.48 15.26 95.96 16.76 95.96 18.6L95.81 68.49H108.87C111.45 68.48 113.75 69.92 114.86 72.25C115.98 74.58 115.67 77.27 114.06 79.29C114.03 79.33 114 79.36 113.97 79.4L81.03 117.26C79.76 118.81 77.89 119.69 75.89 119.69C73.89 119.69 72.02 118.8 70.75 117.26L37.79 79.4C37.79 79.4 37.73 79.33 37.7 79.29C36.09 77.27 35.78 74.58 36.9 72.25C38.02 69.92 40.31 68.48 42.89 68.48H42.88ZM122.42 131.66C122.42 129.82 120.93 128.33 119.09 128.33H31.33C29.49 128.33 28 129.82 28 131.66C28 133.5 29.49 134.99 31.33 134.99H119.09C120.93 134.99 122.42 133.5 122.42 131.66ZM59.21 22.25C59.44 22.25 59.69 22.23 59.92 22.18C60.15 22.13 60.39 22.06 60.61 21.97C60.83 21.88 61.04 21.77 61.24 21.64C61.44 21.51 61.63 21.35 61.79 21.19C62.47 20.5 62.87 19.56 62.87 18.6C62.87 17.64 62.47 16.69 61.79 16.02C60.43 14.66 57.98 14.66 56.61 16.02C55.93 16.7 55.55 17.64 55.55 18.6C55.55 19.56 55.94 20.51 56.61 21.19C57.3 21.87 58.24 22.25 59.2 22.25H59.21Z" fill="url(#paint0_linear_2613_87)"></path>
<defs>
<linearGradient id="paint0_linear_2613_87" x1="40.13" y1="37.4" x2="100.25" y2="141.25" gradientUnits="userSpaceOnUse">
<stop offset="0.22" stop-color="#00CB78"></stop>
<stop offset="0.83" stop-color="#00C3D0"></stop>
</linearGradient>
</defs>
</svg>