<svg width="150" height="150" viewBox="0 0 150 150" fill="none" xmlns="http://www.w3.org/2000/svg">
<path d="M78.99 131.15C78.99 132.12 78.6 133.07 77.91 133.75C77.23 134.44 76.28 134.83 75.31 134.83C75.06 134.83 74.83 134.81 74.58 134.75C74.35 134.71 74.12 134.64 73.9 134.55C73.68 134.45 73.46 134.34 73.26 134.2C73.06 134.07 72.87 133.91 72.69 133.74C72.01 133.06 71.62 132.11 71.62 131.14C71.62 130.89 71.64 130.66 71.69 130.41C71.73 130.18 71.81 129.95 71.9 129.73C71.99 129.51 72.11 129.29 72.24 129.09C72.37 128.89 72.53 128.7 72.7 128.52C74.07 127.16 76.54 127.16 77.92 128.52C78.09 128.7 78.24 128.89 78.38 129.09C78.51 129.29 78.63 129.5 78.73 129.73C78.82 129.95 78.89 130.18 78.93 130.41C78.99 130.66 79.01 130.89 79.01 131.14L78.99 131.15ZM48.5 27.7398V80.8898H36.66C33.92 80.8898 31.48 82.5298 30.45 85.0698C29.42 87.6098 30.03 90.4898 31.92 92.3198L58.52 119.77C61.1 122.35 65.33 122.38 68 119.77L94.75 92.3198C96.67 90.3998 97.24 87.5298 96.2 85.0198C95.16 82.5098 92.73 80.8798 90.01 80.8798H78.66V21.1598C78.66 21.1598 78.66 20.9698 78.8 20.8398C78.87 20.7698 79.01 20.6898 79.2 20.7098C107.08 22.7098 128.93 46.1898 128.93 74.1798C128.93 98.2198 112.76 119.48 89.62 125.87C87.84 126.36 86.79 128.21 87.28 129.99C87.69 131.48 89.04 132.45 90.51 132.45C90.8 132.45 91.11 132.41 91.4 132.33C117.44 125.14 135.63 101.23 135.63 74.1798C135.63 42.6898 111.05 16.2698 79.68 14.0198C77.68 13.8698 75.7 14.5798 74.24 15.9298C72.8 17.2798 71.97 19.1798 71.97 21.1498V80.8698C71.97 84.5698 74.98 87.5698 78.67 87.5698L89.98 87.5998L63.3 115.06L36.67 87.5698H48.51C52.13 87.5698 55.19 84.4998 55.19 80.8598L55.21 22.2298C55.21 21.0898 54.63 20.0298 53.68 19.4098C52.72 18.7898 51.52 18.6998 50.48 19.1698C28.93 28.9198 15 50.4997 15 74.1497C15 75.9997 16.5 77.4998 18.35 77.4998C20.2 77.4998 21.7 75.9997 21.7 74.1497C21.7 54.9097 32.07 37.2198 48.51 27.7098L48.5 27.7398Z" fill="url(#paint0_linear_2613_81)"></path>
<defs>
<linearGradient id="paint0_linear_2613_81" x1="38.14" y1="31.2598" x2="127.85" y2="111.85" gradientUnits="userSpaceOnUse">
<stop offset="0.22" stop-color="#00CB78"></stop>
<stop offset="0.83" stop-color="#00C3D0"></stop>
</linearGradient>
</defs>
</svg>