<svg width="150" height="150" viewBox="0 0 150 150" fill="none" xmlns="http://www.w3.org/2000/svg">
<path d="M50.24 60.11C50.32 60.31 50.4401 60.54 50.5801 60.74C50.7201 60.95 50.88 61.1399 51.05 61.3199C51.75 62.0199 52.73 62.4299 53.74 62.4299C53.99 62.4299 54.24 62.41 54.48 62.36C54.7 62.32 54.9302 62.2499 55.1902 62.1399C55.4202 62.0499 55.6401 61.9299 55.8501 61.7899C56.0601 61.6499 56.2502 61.4899 56.4302 61.3199C56.6102 61.1399 56.7701 60.95 56.9001 60.74C57.0401 60.53 57.16 60.31 57.25 60.08C57.35 59.82 57.42 59.59 57.47 59.37C57.52 59.13 57.54 58.8799 57.54 58.6299C57.54 57.6399 57.1402 56.66 56.4402 55.95C55.7502 55.26 54.77 54.87 53.74 54.87C52.71 54.87 51.73 55.2599 51.05 55.9399C50.34 56.6599 49.9302 57.6399 49.9302 58.6299C49.9302 58.8599 49.95 59.09 50.01 59.37C50.06 59.64 50.14 59.89 50.24 60.11ZM109.02 75.0399C109.02 75.0399 108.98 74.9699 108.95 74.9099L77.6902 20.7599C77.0602 19.6699 75.8901 19 74.6301 19C73.3701 19 72.2001 19.6799 71.5701 20.7599L57.1802 45.6799C56.2102 47.3699 56.79 49.53 58.47 50.5C59.01 50.81 59.62 50.97 60.23 50.97C61.49 50.97 62.66 50.29 63.29 49.2L74.6201 29.5699L102.75 78.2999C102.75 78.2999 102.79 78.3699 102.82 78.4299C105.68 83.3699 107.19 89 107.19 94.71C107.19 112.67 92.5801 127.28 74.6201 127.28C56.6601 127.28 42.05 112.67 42.05 94.71C42.05 89 43.5602 83.3599 46.4202 78.4299C46.4502 78.3899 46.47 78.3399 46.49 78.2999L50.4602 71.4299C51.4302 69.7399 50.8502 67.58 49.1702 66.61C48.6302 66.3 48.0202 66.1399 47.4102 66.1399C46.1502 66.1399 44.9801 66.8199 44.3501 67.8999L40.3101 74.8999L40.24 75.0199C36.81 80.9799 35 87.8 35 94.71C35 116.56 52.7801 134.34 74.6301 134.34C96.4801 134.34 114.26 116.56 114.26 94.71C114.26 87.81 112.45 80.9999 109.02 75.0199V75.0399Z" fill="url(#paint0_linear_2613_277)"></path>
<defs>
<linearGradient id="paint0_linear_2613_277" x1="32.23" y1="37.84" x2="104.32" y2="119.52" gradientUnits="userSpaceOnUse">
<stop offset="0.22" stop-color="#00CB78"></stop>
<stop offset="0.83" stop-color="#00C3D0"></stop>
</linearGradient>
</defs>
</svg>