<svg width="150" height="150" viewBox="0 0 150 150" fill="none" xmlns="http://www.w3.org/2000/svg">
<path d="M44.935 85.78C44.085 85.78 43.255 85.44 42.655 84.84C42.045 84.23 41.705 83.4 41.705 82.55C41.705 81.7 42.045 80.87 42.655 80.27C43.845 79.07 46.015 79.07 47.205 80.27C47.815 80.87 48.155 81.7 48.155 82.55C48.155 83.4 47.815 84.23 47.205 84.84C47.055 84.99 46.895 85.12 46.715 85.24C46.535 85.35 46.355 85.45 46.155 85.53C45.955 85.61 45.755 85.68 45.545 85.72C45.335 85.76 45.125 85.78 44.915 85.78H44.935ZM135.175 105.8L131.215 112.49C130.805 113.19 129.995 113.55 129.205 113.39L124.635 112.48C124.225 112.74 123.795 112.98 123.365 113.2L121.905 117.49C121.695 118.11 121.185 118.55 120.565 118.71C120.605 119.01 120.655 119.3 120.695 119.6C121.025 122.07 120.255 124.57 118.605 126.46C116.925 128.37 114.505 129.47 111.965 129.47H24.805C22.265 129.47 19.845 128.37 18.165 126.46C16.515 124.57 15.745 122.07 16.075 119.6C17.575 108.16 22.925 97.35 31.145 89.16C32.295 88.02 34.145 88.02 35.295 89.16C36.435 90.31 36.435 92.16 35.295 93.31C27.995 100.58 23.235 110.19 21.905 120.36C21.795 121.17 22.045 121.96 22.595 122.59C23.155 123.23 23.975 123.6 24.825 123.6H111.985C112.835 123.6 113.655 123.23 114.215 122.59C114.765 121.96 115.005 121.17 114.905 120.36C114.835 119.83 114.745 119.31 114.665 118.78H112.215C111.395 118.78 110.675 118.26 110.415 117.49L108.955 113.2C108.525 112.98 108.095 112.74 107.685 112.48L103.115 113.39C102.325 113.55 101.515 113.19 101.105 112.49L97.155 105.8C96.725 105.08 96.815 104.17 97.385 103.55L100.505 100.11V98.86L97.385 95.42C96.825 94.8 96.725 93.89 97.155 93.17L98.615 90.69C90.395 83.77 79.825 79.63 68.425 79.63C52.265 79.63 39.115 66.48 39.115 50.32C39.115 34.16 52.225 21 68.385 21C84.545 21 97.695 34.15 97.695 50.31C97.695 61.22 91.705 70.74 82.845 75.79C89.855 77.8 96.295 81.23 101.825 85.77C102.205 85.57 102.645 85.49 103.085 85.57L107.655 86.48C108.065 86.22 108.495 85.98 108.925 85.76L110.385 81.47C110.645 80.7 111.375 80.18 112.185 80.18H120.095C120.905 80.18 121.635 80.7 121.895 81.47L123.355 85.76C123.785 85.98 124.215 86.22 124.625 86.48L129.195 85.57C129.985 85.41 130.795 85.77 131.205 86.47L135.165 93.16C135.595 93.88 135.495 94.79 134.935 95.41L131.815 98.85V100.1L134.935 103.54C135.495 104.16 135.595 105.07 135.165 105.79L135.175 105.8ZM68.385 73.76C81.315 73.76 91.835 63.24 91.835 50.31C91.835 37.38 81.315 26.86 68.385 26.86C55.455 26.86 44.935 37.38 44.935 50.31C44.935 63.24 55.455 73.76 68.385 73.76ZM127.155 100.74V98.21C127.155 97.77 127.315 97.35 127.615 97.02L130.095 94.29L127.725 90.28L124.005 91.02C123.535 91.12 123.035 91.01 122.645 90.73C122.045 90.3 121.385 89.94 120.715 89.64C120.265 89.44 119.915 89.06 119.755 88.59L118.565 85.1H113.755L112.565 88.59C112.405 89.06 112.055 89.44 111.605 89.64C110.925 89.94 110.275 90.31 109.675 90.73C109.275 91.01 108.785 91.11 108.315 91.02L104.595 90.28L102.225 94.29L104.705 97.02C105.005 97.35 105.165 97.77 105.165 98.21V100.74C105.165 101.18 105.005 101.6 104.705 101.93L102.225 104.66L104.595 108.67L108.315 107.93C108.785 107.84 109.285 107.94 109.675 108.22C110.275 108.65 110.925 109.01 111.605 109.31C112.055 109.51 112.405 109.89 112.565 110.36L113.755 113.85H118.565L119.755 110.36C119.915 109.89 120.265 109.51 120.715 109.31C121.395 109.01 122.045 108.65 122.645 108.22C123.045 107.94 123.535 107.84 124.015 107.93L127.735 108.67L130.105 104.66L127.625 101.93C127.335 101.6 127.165 101.18 127.165 100.74H127.155ZM113.815 101.73C113.195 101.1 112.845 100.26 112.845 99.4C112.845 98.54 113.195 97.68 113.805 97.06C114.395 96.47 115.245 96.13 116.145 96.13C117.035 96.13 117.885 96.47 118.465 97.06C119.075 97.67 119.435 98.53 119.435 99.4C119.435 100.27 119.085 101.11 118.465 101.73C118.315 101.88 118.145 102.02 117.965 102.14C117.785 102.26 117.595 102.36 117.395 102.44C117.175 102.53 116.965 102.59 116.775 102.63C116.565 102.67 116.345 102.69 116.135 102.69C115.925 102.69 115.715 102.67 115.495 102.63C115.295 102.59 115.085 102.53 114.875 102.44C114.655 102.35 114.465 102.25 114.305 102.14C114.145 102.03 113.975 101.9 113.805 101.74L113.815 101.73Z" fill="url(#paint0_linear_2613_229)"></path>
<defs>
<linearGradient id="paint0_linear_2613_229" x1="25.095" y1="51.78" x2="105.755" y2="125.97" gradientUnits="userSpaceOnUse">
<stop offset="0.22" stop-color="#00CB78"></stop>
<stop offset="0.83" stop-color="#00C3D0"></stop>
</linearGradient>
</defs>
</svg>