<svg width="150" height="150" viewBox="0 0 150 150" fill="none" xmlns="http://www.w3.org/2000/svg">
<path d="M118.377 124H102.396C100.571 124 99.0865 122.523 99.0865 120.708C99.0865 118.893 100.571 117.416 102.396 117.416H117.82C120.363 117.416 121.961 114.669 120.685 112.478L77.3653 37.842C76.0887 35.6504 72.9019 35.6504 71.6347 37.842L28.3058 112.478C27.0291 114.669 28.6273 117.416 31.171 117.416H84.4197C86.2448 117.416 87.7294 118.893 87.7294 120.708C87.7294 122.523 86.2448 124 84.4197 124H30.6226C23.2277 124 18.6035 116.033 22.301 109.665L69.0437 29.1322C70.2541 27.0441 72.3818 26 74.5 26C76.6182 26 78.7459 27.0441 79.9563 29.1322L126.699 109.665C130.396 116.033 125.772 124 118.377 124ZM72.2967 97.2779C72.3723 97.0803 72.4763 96.8828 72.5993 96.7135C72.7222 96.5348 72.8546 96.3655 73.0059 96.215C73.6206 95.6036 74.4716 95.2556 75.3416 95.2556C75.5591 95.2556 75.7766 95.2744 75.9752 95.3214C76.1927 95.3591 76.4007 95.4249 76.5993 95.5001C76.8073 95.5942 76.9965 95.6977 77.1572 95.8011C77.3369 95.9234 77.5071 96.0551 77.6584 96.2056C78.2731 96.817 78.623 97.6635 78.623 98.5194C78.623 99.3754 78.2731 100.222 77.6584 100.843C77.5071 100.993 77.3369 101.134 77.1478 101.257C76.9776 101.36 76.7884 101.473 76.5804 101.548C76.4102 101.614 76.2116 101.68 75.9657 101.736C75.7577 101.774 75.5402 101.793 75.3322 101.793C74.4716 101.793 73.6206 101.445 72.9964 100.833C72.3912 100.222 72.0413 99.3754 72.0413 98.51C72.0413 98.3031 72.0603 98.0774 72.0981 97.8798C72.1359 97.6917 72.1927 97.4942 72.2872 97.2684L72.2967 97.2779ZM72.325 87.4675V70.8755C72.3156 70.076 72.6276 69.3235 73.195 68.7498C73.7624 68.1854 74.5189 67.875 75.3227 67.8656C76.987 67.8656 78.3393 69.2107 78.3393 70.8661V87.4581C78.3487 88.2576 78.0367 89.0101 77.4693 89.5838C76.9019 90.1482 76.1454 90.4586 75.3322 90.468C73.6678 90.468 72.3156 89.1229 72.3156 87.4675H72.325Z" fill="url(#paint0_linear_2613_108)"></path>
<defs>
<linearGradient id="paint0_linear_2613_108" x1="20.996" y1="74.9953" x2="127.995" y2="74.9953" gradientUnits="userSpaceOnUse">
<stop offset="0.22" stop-color="#00CB78"></stop>
<stop offset="0.83" stop-color="#00C3D0"></stop>
</linearGradient>
</defs>
</svg>