<svg width="150" height="150" viewBox="0 0 150 150" fill="none" xmlns="http://www.w3.org/2000/svg">
<path d="M103.637 27.37C103.047 26.77 102.697 25.95 102.697 25.11C102.697 24.91 102.717 24.6899 102.737 24.5499C102.787 24.3199 102.857 24.0999 102.917 23.9399C103.007 23.7299 103.117 23.54 103.237 23.35C103.377 23.15 103.487 23.01 103.637 22.86C104.177 22.31 104.997 22 105.877 22C106.757 22 107.567 22.32 108.157 22.9C108.267 23.01 108.387 23.15 108.517 23.35C108.657 23.56 108.747 23.73 108.817 23.88C108.907 24.09 108.967 24.32 109.007 24.48C109.047 24.69 109.067 24.9 109.067 25.1C109.067 25.94 108.727 26.76 108.127 27.36C107.977 27.5 107.817 27.64 107.647 27.75C107.477 27.86 107.297 27.9599 107.117 28.0299C106.927 28.1099 106.727 28.18 106.537 28.22C106.317 28.26 106.107 28.2799 105.887 28.2799C105.677 28.2799 105.467 28.26 105.257 28.22C105.057 28.18 104.847 28.1099 104.657 28.0299C104.467 27.9499 104.287 27.86 104.127 27.75C103.957 27.63 103.787 27.5 103.647 27.36L103.637 27.37ZM123.027 116.63C123.027 122.81 117.997 127.83 111.827 127.83H38.2071C36.5271 127.83 34.8371 127.44 33.3271 126.71C30.6371 125.41 28.6071 123.13 27.6271 120.31C26.6471 117.48 26.8171 114.44 28.1271 111.75L56.9371 52.23L57.0671 51.97V28.24H45.1371C43.4571 28.24 42.0871 26.8699 42.0871 25.1899C42.0871 23.5099 43.4571 22.14 45.1371 22.14H96.5071C98.1871 22.14 99.5571 23.5099 99.5571 25.1899C99.5571 26.8699 98.1871 28.24 96.5071 28.24H93.0771V51.97L93.2071 52.23L121.927 111.76C122.657 113.27 123.037 114.95 123.037 116.63H123.027ZM46.1571 88.51L47.3071 89.0699C51.1271 90.9299 54.9671 91.87 58.7171 91.87C63.5071 91.87 68.4171 90.3399 73.3071 87.3199C79.1171 83.7299 85.0871 81.9099 91.0271 81.9099C93.6271 81.9099 96.2771 82.26 98.8971 82.96L101.587 83.6799L100.377 81.1699L87.2671 53.99C87.0671 53.58 86.9671 53.1199 86.9671 52.6599V28.23H63.1771V52.6599C63.1771 53.1199 63.0671 53.58 62.8671 53.99L46.7171 87.35L46.1571 88.5V88.51ZM116.917 116.63C116.917 116.06 116.817 115.49 116.627 114.94C116.567 114.76 116.487 114.58 116.407 114.41L114.397 110.25L106.077 93.01L105.907 92.6699L105.697 92.5399L105.587 92.47C104.567 91.86 103.557 91.32 102.537 90.83C101.977 90.56 101.407 90.31 100.847 90.08C97.5371 88.72 94.2471 88.01 91.0171 88.01C86.2271 88.01 81.3371 89.52 76.5071 92.51C75.7771 92.96 75.0371 93.3899 74.2971 93.7899C70.2471 95.9699 66.1471 97.29 62.0471 97.76C60.9271 97.89 59.8171 97.97 58.6971 97.97C56.8171 97.97 54.9271 97.7799 53.0471 97.4099C51.4071 97.0899 49.7671 96.6399 48.1371 96.0499C46.9671 95.6199 45.7971 95.1299 44.6371 94.5599L43.4871 94L43.2071 94.58L42.9271 95.1599L33.6071 114.41C33.4571 114.72 33.3471 115.03 33.2571 115.35C33.0071 116.32 33.0471 117.34 33.3771 118.3C33.5971 118.94 33.9471 119.52 34.3771 120.02C34.8071 120.52 35.3571 120.92 35.9671 121.22C36.6571 121.55 37.4271 121.73 38.1871 121.73H111.807C113.207 121.73 114.487 121.16 115.407 120.24C115.447 120.2 115.477 120.15 115.517 120.11C115.927 119.68 116.267 119.18 116.497 118.62C116.757 118.01 116.897 117.34 116.897 116.64L116.917 116.63Z" fill="url(#paint0_linear_2613_161)"></path>
<defs>
<linearGradient id="paint0_linear_2613_161" x1="35.0371" y1="42.85" x2="106.287" y2="107.24" gradientUnits="userSpaceOnUse">
<stop offset="0.22" stop-color="#00CB78"></stop>
<stop offset="0.83" stop-color="#00C3D0"></stop>
</linearGradient>
</defs>
</svg>