<svg width="150" height="150" viewBox="0 0 150 150" fill="none" xmlns="http://www.w3.org/2000/svg">
<path d="M75.3455 90.1867V81.3568H68.4055C66.7355 81.3568 65.3855 80.0068 65.3855 78.3368C65.3855 76.6668 66.7355 75.3168 68.4055 75.3168H75.3455V54.1967C75.3455 49.2067 79.4155 45.1469 84.4055 45.1469C86.0755 45.1469 87.4255 46.4969 87.4255 48.1669C87.4255 49.8369 86.0755 51.1867 84.4055 51.1867C82.7355 51.1867 81.3855 52.5367 81.3855 54.2067V75.3268H90.2955C91.9655 75.3268 93.3155 76.6768 93.3155 78.3468C93.3155 80.0168 91.9655 81.3668 90.2955 81.3668H81.3855V90.1967V125.847C81.3855 126.747 81.7855 127.597 82.4755 128.187C82.8655 128.517 83.7055 129.047 84.8755 128.837C110.836 124.247 129.675 101.757 129.675 75.3468C129.675 60.3668 123.706 46.4068 112.866 36.0568C102.036 25.7068 87.8055 20.3968 72.7855 21.0868C45.0755 22.3568 22.3655 45.0667 21.0955 72.7767C19.8255 100.497 39.4555 124.657 66.7755 128.997C68.4255 129.257 69.5455 130.807 69.2855 132.447C69.0455 133.937 67.7655 134.997 66.3055 134.997C66.1455 134.997 65.9855 134.987 65.8255 134.957C35.4655 130.147 13.6455 103.297 15.0655 72.5067C16.4855 41.7167 41.7155 16.4768 72.5055 15.0668C89.1855 14.2968 104.995 20.2067 117.035 31.7067C129.075 43.2067 135.716 58.7068 135.716 75.3568C135.716 104.697 114.776 129.687 85.9355 134.787C83.3255 135.247 80.6555 134.537 78.6055 132.817C76.5455 131.087 75.3555 128.547 75.3555 125.857V90.2067L75.3455 90.1867ZM93.7255 50.0167C93.8455 50.1967 93.9855 50.3667 94.1355 50.5167C94.2855 50.6667 94.4555 50.8069 94.6355 50.9269C94.8155 51.0469 95.0055 51.1467 95.2055 51.2267C95.4055 51.3067 95.6155 51.3769 95.8255 51.4169C96.0355 51.4569 96.2555 51.4767 96.4655 51.4767C96.6755 51.4767 96.9055 51.4569 97.1155 51.4169C97.3255 51.3769 97.5355 51.3067 97.7355 51.2267C97.9355 51.1467 98.1255 51.0469 98.3055 50.9269C98.4855 50.8069 98.6555 50.6667 98.8055 50.5167C98.9555 50.3667 99.0955 50.1967 99.2155 50.0167C99.3355 49.8367 99.4355 49.6467 99.5155 49.4467C99.6055 49.2467 99.6655 49.0368 99.7055 48.8268C99.7455 48.6168 99.7755 48.3969 99.7755 48.1769C99.7755 47.9569 99.7455 47.7468 99.7055 47.5368C99.6655 47.3268 99.6055 47.1169 99.5155 46.9169C99.4355 46.7169 99.3355 46.5268 99.2155 46.3468C99.0955 46.1668 98.9555 45.9968 98.8055 45.8468C98.0355 45.0768 96.8855 44.7167 95.8055 44.9367C95.5955 44.9767 95.3855 45.0368 95.1855 45.1268C94.9855 45.2068 94.7955 45.3069 94.6155 45.4269C94.4355 45.5469 94.2655 45.6868 94.1155 45.8368C93.9655 45.9868 93.8255 46.1568 93.7055 46.3368C93.5855 46.5168 93.4855 46.7069 93.4055 46.9069C93.3255 47.1069 93.2555 47.3167 93.2155 47.5267C93.1755 47.7367 93.1555 47.9569 93.1555 48.1669C93.1555 48.3769 93.1755 48.6068 93.2155 48.8168C93.2555 49.0268 93.3255 49.2367 93.4055 49.4367C93.4855 49.6367 93.5855 49.8267 93.7055 50.0067L93.7255 50.0167Z" fill="url(#paint0_linear_2613_316)"></path>
<defs>
<linearGradient id="paint0_linear_2613_316" x1="27.8755" y1="25.3268" x2="110.485" y2="112.367" gradientUnits="userSpaceOnUse">
<stop offset="0.22" stop-color="#00CB78"></stop>
<stop offset="0.83" stop-color="#00C3D0"></stop>
</linearGradient>
</defs>
</svg>