<svg width="150" height="150" viewBox="0 0 150 150" fill="none" xmlns="http://www.w3.org/2000/svg">
<path d="M70.33 102.98C70.43 103.2 70.4899 103.43 70.5399 103.66C70.5899 103.89 70.62 104.13 70.62 104.36C70.62 105.31 70.2399 106.24 69.5599 106.91C68.8899 107.58 67.9699 107.96 67.0199 107.96C66.7799 107.96 66.5499 107.94 66.3099 107.89C66.0799 107.85 65.8499 107.77 65.6399 107.68C65.4199 107.59 65.1999 107.48 65.0199 107.35C64.8099 107.22 64.64 107.07 64.46 106.9C63.79 106.22 63.4099 105.3 63.4099 104.35C63.4099 103.4 63.79 102.48 64.46 101.81C65.8 100.47 68.2099 100.47 69.5499 101.81C69.7099 101.97 69.87 102.16 70 102.36C70.13 102.56 70.24 102.76 70.33 102.98ZM128.64 65.66C128.64 80.25 117.32 92.2201 103.01 93.3101V124C103.01 129.41 98.6099 133.82 93.1899 133.82H83.37C81.56 133.82 80.1 132.35 80.1 130.55C80.1 128.75 81.57 127.28 83.37 127.28H93.1899C94.9899 127.28 96.46 125.81 96.46 124.01V93.05C83.25 90.93 73.11 79.48 73.11 65.67C73.11 51.86 83.25 40.41 96.46 38.29V25.8301C96.46 24.0301 94.9899 22.5601 93.1899 22.5601H40.8199V22.55C39.9499 22.55 39.1199 22.89 38.5099 23.51C37.8899 24.13 37.5499 24.9501 37.5499 25.8201V124.01C37.5499 125.81 39.0199 127.28 40.8199 127.28H63.73V117.46C63.73 115.65 65.2 114.19 67 114.19C68.8 114.19 70.2699 115.66 70.2699 117.46V127.28C70.2699 130.89 67.33 133.82 63.73 133.82H40.8199C35.4099 133.82 31 129.42 31 124V25.8101C31 23.1901 32.02 20.72 33.88 18.87C35.73 17.02 38.1999 16 40.8199 16H93.1899C98.5999 16.01 103 20.4201 103 25.8301V38.01C117.31 39.11 128.63 51.08 128.63 65.67L128.64 65.66ZM121.96 65.66C121.96 54.75 113.63 45.75 103 44.67C102.3 44.6 101.59 44.5601 100.87 44.5601C99.36 44.5601 97.88 44.73 96.46 45.03C86.94 47.07 79.7799 55.54 79.7799 65.65C79.7799 75.76 86.94 84.23 96.46 86.27C97.88 86.57 99.36 86.74 100.87 86.74C101.59 86.74 102.3 86.7 103 86.63C113.63 85.56 121.96 76.56 121.96 65.65V65.66ZM106.97 65.03C106.38 64.55 105.74 64.17 105.03 63.89C104.32 63.61 103.61 63.3801 102.89 63.1901C102.09 62.9801 101.33 62.78 100.63 62.59C99.93 62.4 99.3599 62.16 98.9299 61.87C98.4999 61.58 98.2899 61.15 98.2899 60.59C98.2899 60.35 98.35 60.11 98.47 59.89C98.59 59.66 98.75 59.46 98.95 59.29C99.15 59.12 99.3799 58.98 99.6499 58.89C99.9199 58.8 100.21 58.75 100.53 58.75C101.09 58.75 101.54 58.8101 101.89 58.9301C102.24 59.0501 102.54 59.2 102.79 59.39C103.04 59.58 103.29 59.78 103.53 59.99C103.98 60.29 104.4 60.47 104.79 60.55C105.18 60.63 105.56 60.57 105.93 60.35C106.3 60.13 106.66 59.76 107.01 59.23C107.54 58.48 107.78 57.9 107.73 57.49C107.68 57.08 107.33 56.59 106.69 56.03C106.13 55.55 105.56 55.1501 104.99 54.8301C104.42 54.5101 103.76 54.3001 103.01 54.1901V52.11C103.01 51.65 102.97 51.2301 102.89 50.8301C102.81 50.4301 102.61 50.1 102.29 49.85C101.97 49.6 101.46 49.47 100.77 49.47C100.08 49.47 99.57 49.6 99.25 49.85C98.93 50.1 98.7399 50.4301 98.6699 50.8101C98.5999 51.2001 98.5699 51.6201 98.5699 52.0701V54.23C97.7399 54.42 97 54.69 96.35 55.05C95.7 55.41 95.1399 55.86 94.6699 56.39C94.1999 56.92 93.84 57.54 93.59 58.23C93.34 58.92 93.21 59.7 93.21 60.55C93.21 61.46 93.34 62.25 93.59 62.91C93.84 63.58 94.18 64.15 94.59 64.63C95 65.11 95.4799 65.52 96.0099 65.87C96.5399 66.22 97.0999 66.51 97.6899 66.75C98.6199 67.18 99.5599 67.51 100.51 67.75C101.46 67.99 102.24 68.26 102.87 68.55C103.5 68.84 103.81 69.3 103.81 69.91C103.81 70.42 103.7 70.8501 103.47 71.2101C103.24 71.5701 102.9 71.84 102.43 72.01C101.96 72.18 101.38 72.27 100.69 72.27C100.08 72.27 99.5199 72.14 99.0299 71.87C98.5399 71.6 98.0799 71.19 97.6499 70.63C97.3299 70.2 96.9699 69.87 96.5699 69.63C96.1699 69.39 95.76 69.2901 95.33 69.3301C94.9 69.3701 94.45 69.59 93.97 69.99C93.25 70.66 92.87 71.25 92.83 71.75C92.79 72.26 93.0199 72.87 93.5299 73.59C93.8999 74.1 94.35 74.56 94.87 74.99C95.39 75.42 95.96 75.7801 96.59 76.0701C97.22 76.3601 97.8799 76.5801 98.5699 76.7101V79.15C98.5699 79.61 98.5999 80.0301 98.6699 80.4301C98.7399 80.8301 98.93 81.1601 99.25 81.4301C99.57 81.7001 100.08 81.8301 100.77 81.8301C101.46 81.8301 101.97 81.7001 102.29 81.4501C102.61 81.2001 102.81 80.87 102.89 80.47C102.97 80.07 103.01 79.6401 103.01 79.1901V76.75C103.92 76.56 104.73 76.28 105.45 75.89C106.17 75.5 106.79 75.0201 107.31 74.4301C107.83 73.8401 108.23 73.16 108.51 72.39C108.79 71.61 108.93 70.7601 108.93 69.8301C108.93 68.6601 108.75 67.68 108.39 66.91C108.03 66.14 107.56 65.51 106.97 65.03Z" fill="url(#paint0_linear_2613_181)"></path>
<defs>
<linearGradient id="paint0_linear_2613_181" x1="31" y1="74.9" x2="128.64" y2="74.9" gradientUnits="userSpaceOnUse">
<stop offset="0.22" stop-color="#00CB78"></stop>
<stop offset="0.83" stop-color="#00C3D0"></stop>
</linearGradient>
</defs>
</svg>