<svg width="150" height="150" viewBox="0 0 150 150" fill="none" xmlns="http://www.w3.org/2000/svg">
<path d="M125.856 22.0332C125.79 22.0332 125.713 22.0441 125.646 22.0772L96.0047 34.3912C95.7397 34.5016 95.6845 34.7335 95.6735 34.8219C95.6624 34.9102 95.6624 35.1532 95.8833 35.3299L105.513 42.7072L106.143 43.1932L105.734 43.8779C105.624 44.0657 105.48 44.2644 105.282 44.4963C99.1522 51.4097 93.045 58.3453 86.9378 65.2809L80.9851 72.0397C80.5102 72.5809 80.0243 73.1109 79.5494 73.641L78.9089 74.3478L78.3125 75.0104L77.6388 74.414L72.0838 69.4332C67.5227 65.347 62.9947 61.283 58.4557 57.2299C57.4065 56.2912 56.4126 55.8162 55.518 55.8162C54.4578 55.8162 53.4087 56.4568 52.2933 57.76C49.8194 60.6755 47.3235 63.569 44.8055 66.4404C41.5144 70.1843 36.8871 75.132 32.4143 79.9029C28.1072 84.5082 24.0431 88.8484 21.0833 92.1947L20.9177 92.3824L20.741 92.5812L20.6637 92.6695L20.5643 92.802C20.0562 93.5199 19.7912 94.3482 19.7912 95.1986C19.7912 97.4847 21.6576 99.3511 23.9437 99.3511C25.2468 99.3511 26.4506 98.7437 27.2568 97.6724L27.8532 96.8883L27.9195 96.9435C32.0499 92.2278 36.7546 86.6837 41.3046 81.3164C46.0976 75.662 51.0563 69.8198 55.3523 64.9385L55.9488 64.2648L56.6224 64.8612L56.9648 65.1593L57.6053 65.7225L62.9505 70.5376C67.3018 74.4582 71.6531 78.3787 76.0375 82.2662C77.0204 83.1386 77.937 83.5694 78.7653 83.5694C79.7151 83.5694 80.6648 83.0172 81.6588 81.8797C84.6075 78.5334 87.5341 75.165 90.4717 71.8077C92.6143 69.356 94.7458 66.9043 96.8993 64.4526L98.8872 62.1775C102.752 57.76 106.629 53.3425 110.55 48.9691L110.925 48.5494L111.278 48.1519L111.831 47.5334L112.493 48.0413L121.35 54.8223C121.45 54.8996 121.56 54.9327 121.682 54.9327C121.925 54.9327 122.19 54.7671 122.234 54.4579L125.503 29.3773L125.525 29.2006L126.386 22.6185C126.408 22.4197 126.331 22.2761 126.254 22.1878C126.143 22.0663 126 22 125.845 22L125.856 22.0332Z" fill="url(#paint0_linear_2613_164)"></path>
<path d="M23.9658 99.3732C25.2689 99.3732 26.4727 98.7658 27.2789 97.6945L27.8753 96.9103L27.9415 96.9656C32.0719 92.2499 36.7767 86.7058 41.3267 81.3385C46.1198 75.6841 51.0784 69.8419 55.3745 64.9606L55.9708 64.2869L56.6445 64.8832L56.9869 65.1814L57.6274 65.7446L62.9726 70.5597C67.3239 74.4803 71.6751 78.4008 76.0596 82.2883C77.0425 83.1607 77.9591 83.5915 78.7874 83.5915C79.7372 83.5915 80.6869 83.0393 81.6809 81.9018C84.6296 78.5555 87.5562 75.1871 90.4939 71.8298C92.6364 69.3781 94.7679 66.9263 96.9214 64.4746L98.9093 62.1996C102.775 57.7821 106.651 53.3646 110.572 48.9912L110.947 48.5715L111.3 48.1738L111.853 47.5554L112.515 48.0634L121.372 54.8444C121.472 54.9217 121.582 54.9548 121.704 54.9548C121.947 54.9548 122.212 54.7892 122.256 54.48L125.525 29.3993L125.547 29.2227L126.408 22.6405C126.431 22.4417 126.353 22.2982 126.276 22.2099C126.165 22.0884 126.022 22.0221 125.867 22.0221C125.801 22.0221 125.724 22.0332 125.657 22.0663L96.0158 34.3801C95.7507 34.4905 95.6956 34.7225 95.6845 34.8108C95.6735 34.8992 95.6734 35.1422 95.8943 35.3189L105.525 42.6961L106.154 43.1821L105.745 43.8668C105.635 44.0546 105.491 44.2533 105.293 44.4852C99.1633 51.3987 93.0561 58.3343 86.9488 65.2698L80.9962 72.0286C80.5213 72.5698 80.0353 73.0998 79.5604 73.6299L78.9199 74.3368L78.3236 74.9994L77.6499 74.403L72.0948 69.4223C67.5337 65.3361 63.0057 61.2719 58.4667 57.2188C57.4176 56.2801 56.4236 55.8052 55.5291 55.8052C54.4689 55.8052 53.4197 56.4457 52.3043 57.7489C49.8305 60.6645 47.3345 63.5579 44.8165 66.4293C41.5255 70.1732 36.8981 75.1209 32.4254 79.8918C28.1183 84.4971 24.0542 88.8374 21.0944 92.1836L20.9287 92.3713L20.752 92.5702L20.6747 92.6585L20.5753 92.791C20.0673 93.5088 19.8022 94.3372 19.8022 95.1875C19.8022 97.4736 21.6686 99.34 23.9547 99.34L23.9658 99.3732Z" fill="url(#paint1_linear_2613_164)"></path>
<path d="M126.342 120.467H41.6911C39.6701 120.467 38.0246 122.112 38.0246 124.133C38.0246 126.154 39.6701 127.8 41.6911 127.8H126.342C128.363 127.8 130.009 126.154 130.009 124.133C130.009 122.112 128.363 120.467 126.342 120.467Z" fill="url(#paint2_linear_2613_164)"></path>
<path d="M21.8122 127.182C22.011 127.314 22.2208 127.425 22.4307 127.513C22.6515 127.601 22.8945 127.69 23.1264 127.734C23.3694 127.778 23.6124 127.8 23.8554 127.8C24.1094 127.8 24.3523 127.778 24.6174 127.734C24.8383 127.69 25.0591 127.601 25.291 127.513C25.5009 127.425 25.7107 127.314 25.9095 127.193C26.1083 127.06 26.296 126.905 26.4727 126.74C27.1685 126.044 27.555 125.094 27.555 124.122C27.555 123.879 27.5329 123.637 27.4888 123.394C27.4446 123.206 27.3673 122.941 27.2679 122.698C27.2016 122.521 27.0801 122.311 26.9255 122.079C26.7709 121.847 26.6384 121.682 26.5058 121.56C25.8322 120.887 24.8824 120.511 23.8664 120.511C22.8504 120.511 21.9006 120.875 21.2711 121.516C21.0944 121.682 20.9619 121.847 20.8072 122.079C20.6637 122.289 20.5422 122.521 20.4317 122.764C20.3655 122.952 20.2882 123.206 20.2219 123.471C20.1888 123.636 20.1667 123.89 20.1667 124.122C20.1667 125.094 20.5642 126.055 21.249 126.74C21.4146 126.905 21.6024 127.06 21.8122 127.193V127.182Z" fill="url(#paint3_linear_2613_164)"></path>
<defs>
<linearGradient id="paint0_linear_2613_164" x1="34.7777" y1="36.357" x2="125.591" y2="92.1615" gradientUnits="userSpaceOnUse">
<stop stop-color="#1EDD8E"></stop>
<stop offset="1" stop-color="#53C0D2"></stop>
</linearGradient>
<linearGradient id="paint1_linear_2613_164" x1="19.8133" y1="60.7087" x2="126.408" y2="60.7087" gradientUnits="userSpaceOnUse">
<stop stop-color="#1EDD8E"></stop>
<stop offset="1" stop-color="#53C0D2"></stop>
</linearGradient>
<linearGradient id="paint2_linear_2613_164" x1="37.2736" y1="124.133" x2="130.76" y2="124.133" gradientUnits="userSpaceOnUse">
<stop stop-color="#1EDD8E"></stop>
<stop offset="1" stop-color="#53C0D2"></stop>
</linearGradient>
<linearGradient id="paint3_linear_2613_164" x1="-1.58969" y1="98.2904" x2="76.635" y2="177.652" gradientUnits="userSpaceOnUse">
<stop stop-color="#00CB78"></stop>
<stop offset="1" stop-color="#53C0D2"></stop>
</linearGradient>
</defs>
</svg>