<svg width="150" height="150" viewBox="0 0 150 150" fill="none" xmlns="http://www.w3.org/2000/svg">
<path d="M133.373 55.1699C131.903 38.3299 118.633 24.8799 101.833 23.1899C100.603 23.0699 99.3635 23 98.1435 23C89.6735 23 81.7535 25.9099 75.2235 31.4199C68.8435 25.9899 60.7335 23 52.3335 23C51.6335 23 50.9235 23.0199 50.2235 23.0599C32.3835 24.0999 18.1335 38.3399 17.0635 56.1699C16.4535 66.3799 20.2635 76.34 27.5235 83.49L69.1135 125.13C70.7635 126.78 72.9535 127.69 75.3035 127.69C77.6135 127.69 79.7935 126.8 81.4235 125.2L94.0435 112.81C94.6635 112.2 95.0135 111.39 95.0135 110.52C95.0135 109.65 94.6935 108.83 94.0835 108.21C93.4635 107.58 92.6435 107.24 91.7635 107.24C90.8835 107.24 90.1035 107.57 89.4835 108.17L76.8635 120.56C76.4435 120.97 75.8835 121.2 75.2935 121.2C74.7035 121.2 74.1235 120.97 73.7035 120.54L32.0935 78.8799C26.1635 73.0299 23.0435 64.8999 23.5435 56.5599C24.4135 42.0099 36.0435 30.3999 50.5935 29.5499C51.1735 29.5199 51.7535 29.5 52.3335 29.5C59.3035 29.5 66.0235 32.02 71.2735 36.6C72.3935 37.57 73.8035 38.11 75.2535 38.11C76.7035 38.11 78.1235 37.57 79.2335 36.6C84.5535 31.96 91.1035 29.5 98.1535 29.5C99.1535 29.5 100.173 29.5499 101.173 29.6499C114.873 31.0299 125.693 42 126.893 55.73C127.463 62.3 125.883 68.65 122.323 74.1C121.843 74.83 121.683 75.6899 121.863 76.5399C122.043 77.3899 122.543 78.12 123.263 78.59C123.793 78.94 124.403 79.12 125.043 79.12C126.143 79.12 127.163 78.5699 127.763 77.6499C132.133 70.9699 134.073 63.1899 133.373 55.1599V55.1699ZM102.503 99.9299C103.163 100.58 103.543 101.49 103.543 102.42C103.543 103.35 103.163 104.26 102.513 104.91C101.863 105.57 100.953 105.95 100.023 105.95C99.0935 105.95 98.1835 105.57 97.5335 104.92C96.8735 104.27 96.4935 103.36 96.4935 102.43C96.4935 101.5 96.8735 100.59 97.5235 99.9399C98.1535 99.3099 99.0535 98.95 100.013 98.95C100.973 98.95 101.873 99.3099 102.503 99.9399V99.9299ZM120.993 86.25H115.993V81.25C115.993 79.46 114.533 78 112.743 78C110.953 78 109.493 79.46 109.493 81.25V86.25H104.493C102.703 86.25 101.243 87.71 101.243 89.5C101.243 91.29 102.703 92.75 104.493 92.75H109.493V97.75C109.493 99.54 110.953 101 112.743 101C114.533 101 115.993 99.54 115.993 97.75V92.75H120.993C122.783 92.75 124.243 91.29 124.243 89.5C124.243 87.71 122.783 86.25 120.993 86.25Z" fill="url(#paint0_linear_2613_204)"></path>
<defs>
<linearGradient id="paint0_linear_2613_204" x1="24.7835" y1="16.58" x2="112.373" y2="93.43" gradientUnits="userSpaceOnUse">
<stop offset="0.22" stop-color="#00CB78"></stop>
<stop offset="0.83" stop-color="#00C3D0"></stop>
</linearGradient>
</defs>
</svg>