<svg width="150" height="150" viewBox="0 0 150 150" fill="none" xmlns="http://www.w3.org/2000/svg">
<path d="M104.056 104.604C104.106 104.814 104.126 105.014 104.126 105.224C104.126 105.434 104.106 105.634 104.056 105.834C104.016 106.034 103.956 106.234 103.876 106.424C103.796 106.614 103.706 106.794 103.586 106.964C103.476 107.134 103.336 107.294 103.196 107.444C103.056 107.594 102.886 107.724 102.716 107.834C102.546 107.944 102.366 108.044 102.176 108.134C101.986 108.214 101.786 108.264 101.586 108.304C101.386 108.354 101.176 108.374 100.976 108.374C100.776 108.374 100.566 108.354 100.356 108.304C100.156 108.264 99.9557 108.204 99.7757 108.134C99.5857 108.044 99.3957 107.954 99.2357 107.834C99.0557 107.724 98.9057 107.594 98.7457 107.444C98.1657 106.864 97.8258 106.054 97.8258 105.224C97.8258 104.394 98.1557 103.584 98.7457 103.004C99.9157 101.834 102.026 101.834 103.206 103.004C103.346 103.144 103.486 103.314 103.596 103.484C103.706 103.654 103.806 103.834 103.886 104.024C103.976 104.214 104.026 104.404 104.066 104.604H104.056ZM135.206 56.1537C135.206 56.1537 135.206 56.0836 135.206 56.0436C133.696 38.7536 120.066 24.9438 102.806 23.1938C92.6558 22.1738 82.8456 25.2738 75.1256 31.9338C67.9256 25.6538 58.6856 22.5036 49.1156 23.0636C30.7956 24.1336 16.1558 38.7537 15.0658 57.0737C14.4358 67.5637 18.3558 77.7937 25.8058 85.1337L69.1356 128.514C70.8056 130.184 73.0057 131.024 75.2157 131.024C77.4257 131.024 79.5657 130.214 81.2357 128.574L94.3856 115.664C95.5156 114.554 95.5356 112.744 94.4256 111.614C93.3156 110.484 91.5056 110.464 90.3756 111.574L77.2257 124.474C76.1057 125.574 74.2956 125.564 73.1956 124.454L29.8458 81.0536C23.5558 74.8636 20.2557 66.2437 20.7857 57.4037C21.7057 41.9837 34.0357 29.6736 49.4557 28.7736C57.5257 28.3036 65.3056 30.9536 71.3656 36.2436C73.5756 38.1636 76.7757 38.1636 78.9757 36.2436C85.4057 30.6336 93.6657 28.0237 102.226 28.8837C116.736 30.3437 128.186 41.9438 129.486 56.4738L129.536 57.5436C130.066 66.3836 126.766 75.0038 120.466 81.2138L107.526 94.1637C106.406 95.2837 106.406 97.0938 107.526 98.2138C108.646 99.3338 110.456 99.3338 111.576 98.2138L124.496 85.2736C131.956 77.9136 135.876 67.6838 135.256 57.2338L135.206 56.1437V56.1537Z" fill="url(#paint0_linear_2613_340)"></path>
<defs>
<linearGradient id="paint0_linear_2613_340" x1="34.5858" y1="18.2137" x2="119.166" y2="103.804" gradientUnits="userSpaceOnUse">
<stop offset="0.22" stop-color="#00CB78"></stop>
<stop offset="0.83" stop-color="#00C3D0"></stop>
</linearGradient>
</defs>
</svg>