<svg width="150" height="150" viewBox="0 0 150 150" fill="none" xmlns="http://www.w3.org/2000/svg">
<path d="M90.9938 84.9892C90.9938 88.833 87.8669 91.9588 84.0219 91.9588H65.5782C61.7332 91.9588 58.6066 88.833 58.6066 84.9892V66.5514C58.6066 62.7076 61.7332 59.5817 65.5782 59.5817H84.0219C87.8669 59.5817 90.9938 62.7076 90.9938 66.5514C90.9938 68.3466 89.536 69.7933 87.7402 69.7933C85.9444 69.7933 84.4868 68.3361 84.4868 66.5514C84.4868 66.2874 84.2754 66.0761 84.0113 66.0761H65.5677C65.3036 66.0761 65.0924 66.2874 65.0924 66.5514V84.9892C65.0924 85.2532 65.3036 85.4643 65.5677 85.4643H84.0113C84.2754 85.4643 84.4868 85.2532 84.4868 84.9892C84.4868 83.194 85.9444 81.7472 87.7402 81.7472C89.536 81.7472 90.9938 83.2045 90.9938 84.9892ZM112.902 80.0155V93.4266H131.557C133.353 93.4266 134.8 94.8839 134.8 96.6791C134.8 98.4743 133.342 99.9211 131.557 99.9211H112.902V106.891C112.902 110.735 109.775 113.86 105.93 113.86H98.9586V133.512C98.9586 135.308 97.5008 136.765 95.705 136.765C93.9092 136.765 92.462 135.308 92.462 133.512V113.86H79.0465V133.512C79.0465 135.308 77.5887 136.765 75.8035 136.765C74.0183 136.765 72.5502 135.308 72.5502 133.512V113.86H59.1347V133.512C59.1347 135.308 57.6769 136.765 55.8811 136.765C54.0854 136.765 52.6275 135.308 52.6275 133.512V113.86H43.6698C39.8248 113.86 36.6982 110.735 36.6982 106.891V99.9211H18.0431C16.2473 99.9211 14.8 98.4637 14.8 96.6791C14.8 94.8944 16.2579 93.4266 18.0431 93.4266H36.6982V80.0155H18.0431C16.2473 80.0155 14.8 78.5581 14.8 76.7629C14.8 74.9677 16.2579 73.5104 18.0431 73.5104H36.6982V60.0991H18.0431C16.2473 60.0991 14.8 58.6419 14.8 56.8467C14.8 55.0515 16.2579 53.5942 18.0431 53.5942H36.6982V44.6394C36.6982 40.7955 39.8248 37.6696 43.6698 37.6696H52.6275V18.0175C52.6275 16.2223 54.0854 14.765 55.8811 14.765C57.6769 14.765 59.1347 16.2223 59.1347 18.0175V37.6696H72.5502V18.0175C72.5502 16.2223 74.0077 14.765 75.8035 14.765C77.5993 14.765 79.0465 16.2223 79.0465 18.0175V37.6696H92.462V18.0175C92.462 16.2223 93.9198 14.765 95.705 14.765C97.4902 14.765 98.9586 16.2223 98.9586 18.0175V37.6696H105.93C109.775 37.6696 112.902 40.7955 112.902 44.6394V53.5942H131.557C133.353 53.5942 134.8 55.0515 134.8 56.8467C134.8 58.6419 133.342 60.0991 131.557 60.0991H112.902V73.5104H131.557C133.353 73.5104 134.8 74.9677 134.8 76.7629C134.8 78.5581 133.342 80.0155 131.557 80.0155H112.902ZM106.406 44.6498C106.406 44.3858 106.194 44.1747 105.93 44.1747H43.6698C43.4057 44.1747 43.1945 44.3858 43.1945 44.6498V106.891C43.1945 107.155 43.4057 107.366 43.6698 107.366H105.93C106.194 107.366 106.406 107.155 106.406 106.891V44.6498ZM90.9198 74.4397C90.8458 74.2602 90.7401 74.0489 90.6028 73.8483C90.4655 73.6477 90.3177 73.4681 90.1487 73.2992C89.5043 72.655 88.5748 72.2854 87.6136 72.2854C86.6523 72.2854 85.7225 72.655 85.0676 73.3097C84.4021 73.9856 84.0219 74.9149 84.0219 75.8442C84.0219 76.7734 84.4021 77.7133 85.057 78.3786C85.2261 78.537 85.4057 78.7059 85.6381 78.8537C85.7754 78.9488 85.9973 79.0756 86.2403 79.1706C86.4515 79.2551 86.6838 79.3289 86.9056 79.3712C87.1486 79.4134 87.3706 79.4346 87.603 79.4346C88.5537 79.4346 89.4726 79.0544 90.1381 78.3892C90.8036 77.7239 91.1944 76.7946 91.1944 75.8442C91.1944 75.5802 91.1629 75.3373 91.1101 75.105C91.0784 74.9044 90.9937 74.6615 90.8986 74.4397H90.9198Z" fill="url(#paint0_linear_2613_198)"></path>
<defs>
<linearGradient id="paint0_linear_2613_198" x1="20.8423" y1="35.6527" x2="117.74" y2="106.434" gradientUnits="userSpaceOnUse">
<stop offset="0.22" stop-color="#00CB78"></stop>
<stop offset="0.83" stop-color="#00C3D0"></stop>
</linearGradient>
</defs>
</svg>