<svg width="150" height="150" viewBox="0 0 150 150" fill="none" xmlns="http://www.w3.org/2000/svg">
<path d="M24.335 59.7925C23.435 57.0225 24.385 54.1426 26.745 52.4326L77.685 15.6225C78.835 14.7925 80.385 14.7925 81.535 15.6225L132.535 52.4326C134.895 54.1326 135.835 57.0225 134.945 59.7925C134.055 62.5625 131.595 64.3525 128.685 64.3525H125.705L125.675 126.862C125.675 130.492 122.725 133.443 119.095 133.443H99.365C97.605 133.443 95.955 132.753 94.705 131.513C93.455 130.273 92.775 128.612 92.785 126.852L92.815 107.122C92.815 105.302 94.295 103.833 96.105 103.833C97.925 103.833 99.395 105.312 99.395 107.122L99.365 126.852H119.095L119.125 64.3425C119.125 60.7125 122.075 57.7625 125.705 57.7625H128.685L79.615 22.3425L30.595 57.7625H33.615C35.375 57.7625 37.025 58.4426 38.265 59.6926C39.505 60.9326 40.195 62.5925 40.195 64.3525L40.165 126.852H59.875L59.895 84.0826C59.895 80.4526 62.845 77.5025 66.475 77.5025H96.085C97.905 77.5025 99.375 78.9725 99.375 80.7925C99.375 82.6125 97.905 84.0826 96.085 84.0826H66.475L66.455 126.852C66.455 130.482 63.505 133.433 59.875 133.433H40.165C38.405 133.433 36.755 132.753 35.515 131.503C34.275 130.263 33.585 128.602 33.585 126.852L33.615 64.3525H30.595C27.685 64.3525 25.225 62.5626 24.335 59.8026V59.7925ZM96.095 97.5726C97.045 97.5726 97.985 97.1925 98.645 96.5225C99.325 95.8425 99.705 94.9126 99.705 93.9526C99.705 93.7226 99.685 93.4825 99.625 93.2525C99.585 93.0225 99.515 92.7926 99.415 92.5726C99.325 92.3526 99.215 92.1426 99.085 91.9526C98.955 91.7626 98.805 91.5725 98.635 91.4025C97.285 90.0525 94.865 90.0525 93.515 91.4025C93.355 91.5625 93.195 91.7526 93.065 91.9526C92.935 92.1526 92.825 92.3626 92.735 92.5726C92.645 92.7926 92.575 93.0225 92.525 93.2525C92.475 93.4825 92.455 93.7226 92.455 93.9526C92.455 94.9026 92.835 95.8425 93.505 96.5225C94.185 97.1925 95.115 97.5726 96.075 97.5726H96.095Z" fill="url(#paint0_linear_2613_250)"></path>
<defs>
<linearGradient id="paint0_linear_2613_250" x1="35.095" y1="41.8425" x2="117.875" y2="126.543" gradientUnits="userSpaceOnUse">
<stop offset="0.22" stop-color="#00CB78"></stop>
<stop offset="0.83" stop-color="#00C3D0"></stop>
</linearGradient>
</defs>
</svg>