<svg width="150" height="150" viewBox="0 0 150 150" fill="none" xmlns="http://www.w3.org/2000/svg">
<path d="M94.39 61.89V71.7001C94.39 73.3801 92.89 74.74 91.05 74.74C89.21 74.74 87.71 73.3801 87.71 71.7001V61.89C87.71 60.22 89.21 58.8501 91.05 58.8501C92.89 58.8501 94.39 60.21 94.39 61.89ZM84.7 22.01C84.04 21.37 83.12 21 82.18 21C81.95 21 81.71 21.0201 81.49 21.0701C81.24 21.1201 81.02 21.18 80.83 21.27C80.59 21.37 80.38 21.4701 80.21 21.5901C80.01 21.7201 79.83 21.88 79.67 22.02C79.02 22.65 78.64 23.5401 78.64 24.4501C78.64 25.3601 79.02 26.25 79.67 26.89C80.34 27.53 81.26 27.89 82.2 27.89C83.14 27.89 84.06 27.52 84.71 26.89C85.37 26.24 85.75 25.3501 85.75 24.4501C85.75 23.5501 85.37 22.66 84.71 22.02L84.7 22.01ZM94.29 92.67C94.51 91.92 94.4 91.1301 93.99 90.4501C93.4 89.4801 92.28 88.87 91.06 88.87C90.5 88.87 89.94 89 89.44 89.25C85.17 91.4 80.42 92.54 75.7 92.54C70.48 92.54 65.27 91.16 60.64 88.55C60.11 88.25 59.5 88.0901 58.88 88.0901C57.71 88.0901 56.64 88.63 56.03 89.54C55.58 90.21 55.43 91 55.62 91.77C55.81 92.58 56.35 93.2701 57.13 93.7101C62.93 96.9701 69.18 98.63 75.71 98.63C81.63 98.63 87.34 97.2601 92.7 94.5601C93.51 94.1501 94.08 93.48 94.31 92.67H94.29ZM126.07 25.55C122.76 22.62 118.4 21 113.79 21H95.09C93.25 21 91.75 22.36 91.75 24.04C91.75 25.72 93.25 27.0801 95.09 27.0801H113.79C116.65 27.0801 119.35 28.08 121.4 29.9C123.56 31.81 124.74 34.38 124.74 37.13V53.9601C124.74 55.6401 126.24 57 128.08 57C129.92 57 131.42 55.6401 131.42 53.9601V37.13C131.42 32.73 129.52 28.6201 126.06 25.5601L126.07 25.55ZM91.9 129.79C91.9 131.47 93.4 132.83 95.24 132.83H113.63C118.45 132.83 122.95 131.09 126.31 127.92C129.51 124.9 131.27 120.92 131.27 116.71V99.6001C131.27 97.9301 129.77 96.5601 127.93 96.5601C126.09 96.5601 124.59 97.9201 124.59 99.6001V116.71C124.59 119.34 123.49 121.82 121.5 123.7C119.41 125.67 116.62 126.75 113.63 126.75H95.24C93.4 126.75 91.9 128.11 91.9 129.79ZM24.12 25.91C20.92 28.93 19.16 32.91 19.16 37.12V54.2301C19.16 55.9001 20.66 57.27 22.5 57.27C24.34 57.27 25.84 55.9101 25.84 54.2301V37.12C25.84 34.49 26.94 32.01 28.93 30.13C31.02 28.16 33.81 27.0801 36.8 27.0801H55.19C57.03 27.0801 58.53 25.72 58.53 24.04C58.53 22.36 57.03 21 55.19 21H36.8C31.98 21 27.48 22.74 24.12 25.91ZM22.34 96.8501C20.5 96.8501 19 98.21 19 99.89V116.72C19 121.12 20.9 125.23 24.36 128.29C27.67 131.22 32.04 132.83 36.64 132.83H55.34C57.18 132.83 58.68 131.47 58.68 129.79C58.68 128.11 57.18 126.75 55.34 126.75H36.64C33.78 126.75 31.08 125.75 29.03 123.93C26.87 122.02 25.69 119.45 25.69 116.7V99.87C25.69 98.2 24.19 96.8301 22.35 96.8301L22.34 96.8501ZM55.52 61.89V71.7001C55.52 73.3801 57.02 74.74 58.86 74.74C60.7 74.74 62.2 73.3801 62.2 71.7001V61.89C62.2 60.22 60.7 58.8501 58.86 58.8501C57.02 58.8501 55.52 60.21 55.52 61.89Z" fill="url(#paint0_linear_2613_155)"></path>
<defs>
<linearGradient id="paint0_linear_2613_155" x1="20.49" y1="35.99" x2="110.52" y2="103.32" gradientUnits="userSpaceOnUse">
<stop offset="0.22" stop-color="#00CB78"></stop>
<stop offset="0.83" stop-color="#00C3D0"></stop>
</linearGradient>
</defs>
</svg>