<svg width="150" height="150" viewBox="0 0 150 150" fill="none" xmlns="http://www.w3.org/2000/svg">
<path d="M124.982 61.8714H119.98C118.309 61.8714 116.962 63.2401 116.962 64.914C116.962 66.588 118.32 67.9567 119.98 67.9567H124.982C126.653 67.9567 128 66.588 128 64.914C128 63.2401 126.642 61.8714 124.982 61.8714ZM75.0052 25.1282C76.676 25.1282 78.0229 23.7596 78.0229 22.0856V17.0426C78.0229 15.3581 76.6656 14 75.0052 14C73.3449 14 71.9874 15.3687 71.9874 17.0426V22.0856C71.9874 23.7701 73.3449 25.1282 75.0052 25.1282ZM62.5057 116.081C63.3724 116.081 64.2183 115.723 64.8135 115.112C65.4192 114.512 65.7741 113.659 65.7741 112.785C65.7741 111.912 65.4192 111.059 64.8135 110.448C64.2287 109.859 63.3828 109.522 62.5057 109.522C61.6285 109.522 60.7827 109.859 60.198 110.448C59.5923 111.048 59.2372 111.901 59.2372 112.775C59.2372 113.649 59.5923 114.502 60.198 115.112C60.7932 115.723 61.639 116.081 62.5057 116.081ZM64.0303 115.091C63.5813 115.396 63.0487 115.554 62.5057 115.554C61.9627 115.554 61.4302 115.386 60.9811 115.091C60.8349 114.986 60.6887 114.87 60.5634 114.744C60.6887 114.87 60.8245 114.986 60.9811 115.091C61.4302 115.396 61.9627 115.554 62.5057 115.554C63.0487 115.554 63.5813 115.386 64.0303 115.091C64.1765 114.986 64.3226 114.87 64.4479 114.744C64.3226 114.87 64.187 114.986 64.0303 115.091ZM64.4479 110.827C63.8214 110.196 62.8816 109.953 62.0254 110.101C62.182 110.08 62.349 110.059 62.5057 110.059C63.2262 110.059 63.9363 110.322 64.4479 110.838V110.827ZM60.9811 110.49C61.2422 110.322 61.545 110.206 61.8583 110.132C61.545 110.206 61.2526 110.311 60.9811 110.49ZM109.621 98.0356C109.047 97.4565 108.295 97.1407 107.481 97.1407C106.666 97.1407 105.914 97.4565 105.34 98.0356C104.766 98.6146 104.453 99.3726 104.453 100.194C104.453 101.015 104.766 101.773 105.34 102.352L110.342 107.395C110.916 107.974 111.668 108.29 112.483 108.29C113.297 108.29 114.049 107.974 114.623 107.395C115.198 106.816 115.511 106.058 115.511 105.237C115.511 104.416 115.198 103.658 114.623 103.079L109.621 98.0356ZM42.5191 97.1407C41.715 97.1407 40.9528 97.4565 40.3785 98.0356L35.3765 103.079C34.8022 103.658 34.489 104.416 34.489 105.237C34.489 106.058 34.8022 106.816 35.3765 107.395C35.9509 107.974 36.7028 108.29 37.5173 108.29C38.3318 108.29 39.0835 107.974 39.6579 107.395L44.6598 102.352C45.2341 101.773 45.5474 101.015 45.5474 100.194C45.5474 99.3726 45.2341 98.6146 44.6598 98.0356C44.0855 97.4565 43.3336 97.1407 42.5191 97.1407ZM100.86 39.3518C93.8117 32.7506 84.6434 29.1184 75.0469 29.1184C74.0758 29.1184 73.0838 29.1605 72.1127 29.2237C53.7551 30.5923 38.7182 45.5739 37.1414 64.0613C36.0554 76.8003 41.2661 89.1919 51.0818 97.2143C53.2538 98.9831 54.9664 101.289 56.0419 103.889C56.5118 105.026 57.6082 105.763 58.83 105.763C59.2268 105.763 59.6237 105.679 59.9996 105.521C60.741 105.205 61.3257 104.616 61.6286 103.868C61.9314 103.11 61.9314 102.289 61.6286 101.541C60.1666 98.025 57.8485 94.8982 54.9038 92.4872C46.6543 85.7387 42.2684 75.3053 43.1769 64.5877C44.5031 49.0481 57.1383 36.467 72.5721 35.3089C73.3866 35.2458 74.222 35.2142 75.0365 35.2142C83.1188 35.2142 90.8357 38.2674 96.767 43.8157C103.262 49.9009 106.99 58.5024 106.99 67.4408C106.99 77.2636 102.636 86.423 95.0335 92.582C91.5353 95.4141 88.977 99.2779 87.63 103.752C87.5569 104.005 87.5151 104.258 87.5047 104.521L86.9825 118.302C86.7632 119.197 85.9801 119.818 85.0612 119.818H65.0328C61.994 119.818 59.5087 122.313 59.5087 125.388V130.431C59.5087 133.494 61.9836 136 65.0328 136H87.5256C89.1963 136 90.5434 134.631 90.5434 132.957C90.5434 131.283 89.1859 129.915 87.5256 129.915H65.5549V125.925H85.0612C88.9979 125.925 92.329 123.082 92.9764 119.166C92.9973 119.039 93.0078 118.913 93.0182 118.787L93.5299 105.184C94.5532 102.036 96.3806 99.3305 98.8241 97.3512C107.857 90.0341 113.047 79.1376 113.047 67.4619C113.047 56.839 108.619 46.6056 100.892 39.3728L100.86 39.3518ZM112.483 26.5916C111.679 26.5916 110.916 26.9075 110.342 27.4865L105.34 32.5295C104.766 33.1086 104.453 33.8666 104.453 34.6878C104.453 35.509 104.766 36.267 105.34 36.8461C105.914 37.4251 106.666 37.741 107.481 37.741C108.295 37.741 109.047 37.4251 109.621 36.8461L114.623 31.8031C115.198 31.224 115.511 30.466 115.511 29.6448C115.511 28.8236 115.198 28.0656 114.623 27.4865C114.049 26.9075 113.297 26.5916 112.483 26.5916ZM30.0196 59.3447H25.0178C23.3471 59.3447 22 60.7133 22 62.3873C22 64.0613 23.3575 65.4299 25.0178 65.4299H30.0196C31.6904 65.4299 33.0375 64.0613 33.0375 62.3873C33.0375 60.7133 31.68 59.3447 30.0196 59.3447ZM40.3785 36.8355C40.9528 37.4146 41.7046 37.7304 42.5191 37.7304C43.3336 37.7304 44.0855 37.4146 44.6598 36.8355C45.2341 36.2565 45.5474 35.4985 45.5474 34.6773C45.5474 33.8561 45.2341 33.098 44.6598 32.519L39.6579 27.476C39.0835 26.897 38.3318 26.5811 37.5173 26.5811C36.7028 26.5811 35.9509 26.897 35.3765 27.476C34.8022 28.0551 34.489 28.8131 34.489 29.6343C34.489 30.4555 34.8022 31.2135 35.3765 31.7925L40.3785 36.8355Z" fill="url(#paint0_linear_2613_99)"></path>
<defs>
<linearGradient id="paint0_linear_2613_99" x1="27.5866" y1="34.572" x2="112.363" y2="98.7245" gradientUnits="userSpaceOnUse">
<stop offset="0.22" stop-color="#00CB78"></stop>
<stop offset="0.83" stop-color="#00C3D0"></stop>
</linearGradient>
</defs>
</svg>