<svg width="150" height="150" viewBox="0 0 150 150" fill="none" xmlns="http://www.w3.org/2000/svg">
<path d="M92.96 41.99H56.97C48.7 41.99 41.98 48.72 41.98 56.98V92.97C41.98 101.24 48.71 107.96 56.97 107.96H92.96C101.23 107.96 107.95 101.23 107.95 92.97V56.98C107.95 48.71 101.22 41.99 92.96 41.99ZM101.96 92.97C101.96 97.93 97.92 101.97 92.96 101.97H56.97C52.01 101.97 47.97 97.93 47.97 92.97V56.98C47.97 52.02 52.01 47.98 56.97 47.98H92.96C97.92 47.98 101.96 52.02 101.96 56.98V92.97ZM95.29 54.6501C95.9 55.2601 96.25 56.11 96.25 56.98C96.25 57.85 95.9 58.7001 95.29 59.3101C94.67 59.9301 93.82 60.28 92.95 60.28C92.08 60.28 91.23 59.9301 90.62 59.3101C90.01 58.7001 89.65 57.85 89.65 56.98C89.65 56.11 90.01 55.2601 90.62 54.6501C91.85 53.4201 94.06 53.4201 95.29 54.6501ZM74.97 56.98C65.05 56.98 56.97 65.05 56.97 74.98C56.97 84.91 65.04 92.98 74.97 92.98C84.9 92.98 92.97 84.91 92.97 74.98C92.97 65.05 84.9 56.98 74.97 56.98ZM74.97 86.98C68.35 86.98 62.97 81.6 62.97 74.98C62.97 68.36 68.35 62.98 74.97 62.98C81.59 62.98 86.97 68.36 86.97 74.98C86.97 81.6 81.59 86.98 74.97 86.98ZM74.97 15C41.9 15 15 41.9 15 74.97C15 108.04 41.9 134.94 74.97 134.94C108.04 134.94 134.94 108.04 134.94 74.97C134.94 41.9 108.04 15 74.97 15ZM74.97 128.96C45.21 128.96 20.99 104.75 20.99 74.98C20.99 45.21 45.2 21 74.97 21C104.74 21 128.95 45.21 128.95 74.98C128.95 104.75 104.74 128.96 74.97 128.96Z" fill="url(#paint0_linear_2613_313)"></path>
<defs>
<linearGradient id="paint0_linear_2613_313" x1="31.18" y1="17.98" x2="104.22" y2="113.06" gradientUnits="userSpaceOnUse">
<stop offset="0.22" stop-color="#00CB78"></stop>
<stop offset="0.83" stop-color="#00C3D0"></stop>
</linearGradient>
</defs>
</svg>