<svg width="150" height="150" viewBox="0 0 150 150" fill="none" xmlns="http://www.w3.org/2000/svg">
<path d="M71.8323 108.998C72.6623 109.908 72.7923 111.238 72.1623 112.298L66.3623 122.098C65.7623 123.118 64.5823 123.648 63.4123 123.418L56.7122 122.078C56.1122 122.458 55.4822 122.808 54.8522 123.128L52.7023 129.408C52.3123 130.538 51.2523 131.298 50.0623 131.298H38.4722C37.2822 131.288 36.2223 130.528 35.8323 129.398L33.6923 123.108C33.0523 122.788 32.4323 122.428 31.8323 122.048L25.1323 123.378C23.9723 123.608 22.7823 123.078 22.1823 122.058L16.3923 112.238C15.7623 111.178 15.9023 109.858 16.7323 108.948L21.3123 103.908V102.068L16.7423 97.0179C15.9123 96.1079 15.7823 94.7779 16.4123 93.7179L22.2123 83.9179C22.8123 82.8979 23.9923 82.3679 25.1623 82.5979L31.8623 83.938C32.4623 83.558 33.0922 83.2079 33.7222 82.8879L35.8723 76.6079C36.2623 75.4779 37.3223 74.7179 38.5123 74.7179H50.1022C51.2922 74.7279 52.3623 75.4879 52.7423 76.6179L54.8823 82.908C55.5223 83.228 56.1423 83.5879 56.7423 83.9679L63.4422 82.6379C64.6022 82.4079 65.7923 82.9379 66.3923 83.9579L72.1823 93.7679C72.8123 94.8279 72.6723 96.1479 71.8423 97.0579L67.2622 102.098V103.938L71.8323 108.988V108.998ZM22.2422 111.178L25.9823 117.508L31.8723 116.338C32.6223 116.188 33.4023 116.358 34.0323 116.798C34.9923 117.478 36.0223 118.058 37.0923 118.528C37.8023 118.838 38.3623 119.448 38.6123 120.178L40.4923 125.688H48.0923L49.9823 120.188C50.2323 119.448 50.7823 118.848 51.5023 118.538C52.5723 118.068 53.6023 117.488 54.5623 116.818C55.1823 116.378 55.9723 116.218 56.7223 116.358L62.6022 117.538L66.3522 111.208L62.4422 106.888C61.9722 106.378 61.7223 105.708 61.7223 105.008V101.018C61.7223 100.318 61.9823 99.6579 62.4523 99.1379L66.3722 94.8279L62.6323 88.4979L56.7423 89.6679C55.9923 89.8179 55.2123 89.6479 54.5823 89.2079C53.6323 88.5279 52.6022 87.948 51.5322 87.478C50.8222 87.168 50.2622 86.5579 50.0122 85.8179L48.1323 80.3079H40.5323L38.6423 85.8179C38.3923 86.5579 37.8323 87.1579 37.1223 87.4679C36.0523 87.9379 35.0223 88.518 34.0623 89.188C33.4423 89.628 32.6623 89.7979 31.9023 89.6379L26.0223 88.4579L22.2723 94.7879L26.1923 99.1079C26.6623 99.6279 26.9123 100.288 26.9123 100.988V104.978C26.9123 105.668 26.6523 106.338 26.1823 106.858L22.2623 111.168L22.2422 111.178ZM42.5923 105.538C42.7423 105.638 42.9123 105.728 43.1223 105.828C43.3023 105.898 43.5023 105.958 43.6823 105.988C43.8723 106.028 44.0723 106.058 44.2823 106.058C44.4923 106.058 44.7022 106.038 44.8822 105.998C45.0822 105.958 45.2722 105.908 45.4622 105.828C45.6622 105.738 45.8323 105.648 45.9823 105.548C46.1523 105.438 46.3023 105.308 46.4423 105.168C47.0023 104.608 47.3323 103.818 47.3323 103.018C47.3323 102.218 47.0123 101.428 46.4523 100.868C45.3023 99.718 43.2923 99.718 42.1423 100.868C41.5723 101.438 41.2423 102.218 41.2423 103.018C41.2423 103.818 41.5722 104.598 42.1322 105.168C42.2722 105.308 42.4223 105.438 42.5923 105.548V105.538ZM130.832 56.2779L125.032 66.0779C124.432 67.0979 123.242 67.6279 122.082 67.3979L115.392 66.0579C114.792 66.4379 114.162 66.7879 113.532 67.1079L111.382 73.3879C110.992 74.5179 109.932 75.2779 108.742 75.2779H97.1523C95.9623 75.2679 94.8923 74.5079 94.5123 73.3779L92.3723 67.0879C91.7323 66.7679 91.1123 66.4079 90.5123 66.0279L83.8122 67.3579C82.6522 67.5879 81.4623 67.0579 80.8623 66.0379L75.0723 56.2279C74.4423 55.1679 74.5823 53.8479 75.4123 52.9279L79.9923 47.8879V46.0479L75.4222 40.9979C74.5922 40.0879 74.4623 38.7579 75.0923 37.6979L80.8923 27.8979C81.4923 26.8779 82.6822 26.3479 83.8422 26.5879L90.5322 27.9279C91.1322 27.5479 91.7623 27.1979 92.3923 26.8779L94.5423 20.5979C94.9323 19.4679 95.9923 18.7079 97.1823 18.7079H108.772C109.962 18.7179 111.022 19.4779 111.412 20.6079L113.552 26.8979C114.192 27.2179 114.812 27.5779 115.412 27.9579L122.112 26.6279C123.272 26.3979 124.462 26.9279 125.062 27.9479L130.852 37.7579C131.472 38.8179 131.342 40.1379 130.512 41.0479L125.932 46.0879V47.9279L130.502 52.9779C131.332 53.8879 131.462 55.2179 130.832 56.2779ZM80.9023 55.1679L84.6423 61.4979L90.5322 60.3279C91.2822 60.1779 92.0623 60.3479 92.6923 60.7879C93.6423 61.4579 94.6722 62.0379 95.7422 62.5179C96.4522 62.8279 97.0123 63.4379 97.2523 64.1779L99.1322 69.6879H106.732L108.622 64.1879C108.872 63.4479 109.422 62.8479 110.142 62.5379C111.212 62.0679 112.242 61.4879 113.202 60.8179C113.822 60.3779 114.612 60.2179 115.362 60.3679L121.242 61.5479L124.992 55.2179L121.072 50.8979C120.602 50.3879 120.352 49.7179 120.352 49.0179V45.0279C120.352 44.3379 120.612 43.6679 121.082 43.1479L125.002 38.8379L121.262 32.5079L115.372 33.6779C114.622 33.8279 113.842 33.6579 113.212 33.2179C112.252 32.5479 111.232 31.9579 110.152 31.4879C109.442 31.1779 108.882 30.5679 108.642 29.8379L106.762 24.3279H99.1623L97.2722 29.8279C97.0222 30.5679 96.4723 31.1679 95.7523 31.4779C94.6823 31.9479 93.6523 32.5279 92.6923 33.2079C92.0623 33.6479 91.2822 33.8179 90.5322 33.6579L84.6523 32.4779L80.9023 38.8079L84.8223 43.1279C85.2923 43.6479 85.5423 44.3079 85.5423 45.0079V48.9979C85.5423 49.6879 85.2822 50.3579 84.8122 50.8679L80.8923 55.1779L80.9023 55.1679ZM101.252 49.5279C101.402 49.6279 101.582 49.7279 101.782 49.8079C101.972 49.8879 102.162 49.9479 102.352 49.9879C102.552 50.0279 102.752 50.0479 102.952 50.0479C103.152 50.0479 103.352 50.0279 103.542 49.9879C103.722 49.9579 103.902 49.8979 104.112 49.8179C104.302 49.7479 104.472 49.6479 104.642 49.5379C104.812 49.4279 104.962 49.2979 105.102 49.1579C105.672 48.5879 106.002 47.8079 106.002 47.0079C106.002 46.2079 105.672 45.4179 105.112 44.8479C104.572 44.3079 103.792 43.9879 102.962 43.9879C102.132 43.9879 101.342 44.2979 100.802 44.8379C100.242 45.4079 99.9123 46.1979 99.9123 46.9979C99.9123 47.7979 100.232 48.5779 100.802 49.1579C100.962 49.3079 101.112 49.4279 101.262 49.5279H101.252ZM76.5522 21.4679C76.5322 21.3979 76.4922 21.3379 76.4622 21.2679C76.4222 21.1879 76.3922 21.1079 76.3522 21.0379C76.3022 20.9579 76.2522 20.8879 76.1922 20.8179C76.1522 20.7579 76.1123 20.6979 76.0623 20.6479C75.9523 20.5279 75.8323 20.4179 75.7023 20.3179L69.2223 15.4879C68.1423 14.6779 66.6023 14.8979 65.7923 15.9879C64.9823 17.0679 65.2023 18.6079 66.2923 19.4179L67.7723 20.5179C40.5323 23.4379 19.2323 46.5479 19.2123 74.5679C19.2123 76.1779 20.5123 77.4879 22.1223 77.4879C23.7323 77.4879 25.0423 76.1879 25.0423 74.5779C25.0623 49.6479 43.9523 29.0779 68.1523 26.3479L67.4422 27.3079C66.6322 28.3879 66.8522 29.9279 67.9422 30.7379C68.4822 31.1379 69.1422 31.2879 69.7622 31.1979C70.3822 31.1079 70.9722 30.7779 71.3722 30.2379L76.2023 23.7579C76.3023 23.6279 76.3823 23.4879 76.4523 23.3379C76.4823 23.2779 76.5023 23.2079 76.5223 23.1379C76.5523 23.0579 76.5923 22.9679 76.6123 22.8879C76.6323 22.8079 76.6423 22.7179 76.6523 22.6279C76.6623 22.5579 76.6823 22.4879 76.6823 22.4079C76.7023 22.0879 76.6523 21.7579 76.5423 21.4579L76.5522 21.4679ZM76.6323 128.398C76.6523 128.468 76.6923 128.528 76.7223 128.598C76.7623 128.678 76.7923 128.758 76.8323 128.828C76.8823 128.908 76.9323 128.978 76.9923 129.048C77.0323 129.108 77.0722 129.168 77.1222 129.218C77.2322 129.338 77.3523 129.448 77.4823 129.548L83.9622 134.378C85.0422 135.188 86.5823 134.968 87.3923 133.878C88.2023 132.798 87.9823 131.258 86.8923 130.448L85.4123 129.348C112.652 126.418 133.952 103.308 133.982 75.2979C133.982 73.6879 132.682 72.3779 131.072 72.3779C129.462 72.3779 128.152 73.6779 128.152 75.2879C128.132 100.218 109.242 120.788 85.0423 123.518L85.7523 122.558C86.5623 121.478 86.3423 119.938 85.2523 119.128C84.7123 118.728 84.0523 118.578 83.4323 118.668C82.8123 118.758 82.2223 119.088 81.8223 119.628L76.9923 126.108C76.8923 126.238 76.8123 126.378 76.7423 126.528C76.7123 126.588 76.6922 126.658 76.6722 126.728C76.6422 126.808 76.6023 126.898 76.5823 126.978C76.5623 127.058 76.5523 127.148 76.5423 127.238C76.5323 127.308 76.5122 127.378 76.5122 127.458C76.4922 127.778 76.5423 128.108 76.6523 128.408L76.6323 128.398Z" fill="url(#paint0_linear_2613_111)"></path>
<defs>
<linearGradient id="paint0_linear_2613_111" x1="32.2723" y1="36.9779" x2="110.052" y2="108.508" gradientUnits="userSpaceOnUse">
<stop offset="0.22" stop-color="#00CB78"></stop>
<stop offset="0.83" stop-color="#00C3D0"></stop>
</linearGradient>
</defs>
</svg>