<svg width="150" height="150" viewBox="0 0 150 150" fill="none" xmlns="http://www.w3.org/2000/svg">
<path d="M38.9061 69.204C39.5015 69.9435 40.3895 70.3631 41.3481 70.3631C42.0545 70.3631 42.7407 70.1233 43.2957 69.6837L61.8526 54.9748C63.1947 53.9056 63.4168 51.9671 62.3371 50.6381C61.7417 49.8987 60.8537 49.479 59.895 49.479C59.1887 49.479 58.5025 49.7188 57.9475 50.1585L39.3904 64.8573C38.0484 65.9265 37.8264 67.865 38.9061 69.194V69.204ZM59.895 50.6581C59.895 50.6581 59.9555 50.6581 59.9858 50.6681C59.9354 50.6681 59.895 50.6681 59.8445 50.6681C59.8647 50.6681 59.8749 50.6681 59.895 50.6681V50.6581ZM26.4844 41.6849C27.3724 41.6849 28.2402 41.3252 28.8658 40.7057C29.5015 40.0662 29.8547 39.2068 29.8547 38.3375C29.8547 37.4681 29.4914 36.5988 28.8658 35.9793C28.2402 35.3597 27.3724 35 26.4743 35C26.2523 35 26.0302 35.02 25.8082 35.0699C25.5862 35.1099 25.3541 35.1799 25.1523 35.2698C24.9707 35.3497 24.7689 35.4497 24.6075 35.5596C24.4057 35.6895 24.2543 35.8294 24.1232 35.9493C23.4673 36.5988 23.1141 37.4581 23.1141 38.3375C23.1141 39.2168 23.4672 40.0761 24.0929 40.6957C24.7387 41.3252 25.6065 41.6749 26.4945 41.6749L26.4844 41.6849ZM25.6468 36.349C25.7779 36.289 25.9192 36.2491 26.0605 36.2291C26.2018 36.1991 26.3431 36.1891 26.4844 36.1891C26.5046 36.1891 26.5247 36.1891 26.5449 36.1891C26.3834 36.1891 26.222 36.1891 26.0504 36.2291C25.9091 36.259 25.768 36.299 25.6368 36.349C25.5157 36.3989 25.3743 36.4689 25.2633 36.5488C25.3844 36.4689 25.5157 36.4089 25.6368 36.349H25.6468ZM47.5237 45.3122C46.8173 45.3122 46.1311 45.552 45.5761 45.9917L36.7367 52.9963C35.3946 54.0655 35.1725 56.004 36.2522 57.333C36.8476 58.0725 37.7356 58.4922 38.6942 58.4922C39.4006 58.4922 40.0868 58.2523 40.6418 57.8127L49.4813 50.808C50.8233 49.7388 51.0454 47.8003 49.9657 46.4713C49.3704 45.7318 48.4823 45.3122 47.5237 45.3122ZM47.5237 46.4813C47.5237 46.4813 47.5842 46.4813 47.6145 46.4913C47.564 46.4913 47.5236 46.4913 47.4732 46.4913C47.4934 46.4913 47.5035 46.4913 47.5237 46.4913V46.4813ZM134.819 97.1928H129.784V42.2845C129.784 38.3774 126.575 35.1998 122.63 35.1998H37.4127C35.6569 35.1998 34.234 36.6088 34.234 38.3475C34.234 40.0861 35.6569 41.4951 37.4127 41.4951H122.63C123.074 41.4951 123.427 41.8548 123.427 42.2845V97.1928H29.663V50.1385C29.663 48.3998 28.2402 46.9909 26.4844 46.9909C24.7286 46.9909 23.3057 48.3998 23.3057 50.1385V97.1928H16V109.194C16 111.842 18.1796 114 20.8536 114H131.146C133.82 114 136 111.842 136 109.194V97.1928H134.809H134.819ZM129.764 107.825H22.2361V103.378H129.764V107.825Z" fill="url(#paint0_linear_2613_17)"></path>
<defs>
<linearGradient id="paint0_linear_2613_17" x1="33.558" y1="46.2614" x2="119.122" y2="110.406" gradientUnits="userSpaceOnUse">
<stop offset="0.22" stop-color="#00CB78"></stop>
<stop offset="0.83" stop-color="#00C3D0"></stop>
</linearGradient>
</defs>
</svg>