<svg width="150" height="150" viewBox="0 0 150 150" fill="none" xmlns="http://www.w3.org/2000/svg">
<path d="M133.55 75.4399C133.55 73.4299 131.91 71.7899 129.9 71.7899H123.54L114.64 38.48C114.59 38.28 114.5 38.1299 114.45 38.0499L114.41 37.96C114.37 37.86 114.32 37.73 114.25 37.59C113.71 36.17 112.36 35.22 110.86 35.22H36.71C35.22 35.22 33.87 36.1599 33.33 37.5599C33.25 37.7099 33.19 37.85 33.15 37.96L33.11 38.0499C33.05 38.1399 32.97 38.29 32.91 38.49L24.01 71.7999H17.65C15.64 71.7999 14 73.44 14 75.45C14 75.6 14.02 75.74 14.05 75.84C14.03 75.94 14 76.08 14 76.23C14 88.18 23.72 97.8899 35.66 97.8899C47.6 97.8899 57.3199 88.17 57.3199 76.23C57.3199 76.08 57.3 75.94 57.27 75.84C57.29 75.74 57.3199 75.6 57.3199 75.45C57.3199 73.44 55.68 71.7999 53.67 71.7999H48.4L40.99 42.5199H69.13V120.07H50.92C48.91 120.07 47.27 121.71 47.27 123.72C47.27 125.73 48.91 127.37 50.92 127.37H94.65C96.66 127.37 98.3 125.73 98.3 123.72C98.3 121.71 96.66 120.07 94.65 120.07H76.4399V42.5199H106.57L99.16 71.7999H93.89C91.88 71.7999 90.24 73.44 90.24 75.45C90.24 75.6 90.26 75.74 90.29 75.84C90.27 75.94 90.24 76.08 90.24 76.23C90.24 88.18 99.96 97.8899 111.9 97.8899C123.84 97.8899 133.56 88.17 133.56 76.23C133.56 76.08 133.54 75.94 133.51 75.84C133.53 75.74 133.56 75.6 133.56 75.45L133.55 75.4399ZM36.34 53.9299L40.86 71.7899H31.5699L36.34 53.9299ZM49.71 79.09C48.37 85.72 42.51 90.58 35.65 90.58C28.79 90.58 22.94 85.71 21.59 79.09H49.71ZM111.2 53.9299L115.97 71.7899H106.68L111.2 53.9299ZM111.88 90.58C105.02 90.58 99.1699 85.71 97.8199 79.09H125.94C124.6 85.72 118.74 90.58 111.88 90.58ZM70.75 27.63C70.93 27.76 71.15 27.87 71.39 27.97C71.61 28.06 71.8399 28.1299 72.0599 28.1799C72.3099 28.2199 72.54 28.25 72.77 28.25C73.73 28.25 74.67 27.8599 75.35 27.1899C76.03 26.5099 76.42 25.57 76.42 24.6C76.42 24.34 76.39 24.09 76.34 23.86C76.3 23.64 76.22 23.3999 76.13 23.1799C76.06 22.9899 75.9399 22.78 75.8099 22.58C75.6799 22.38 75.52 22.1899 75.35 22.0299C74.69 21.3699 73.75 21 72.77 21C71.79 21 70.8399 21.3799 70.1899 22.0299C69.5099 22.7199 69.13 23.66 69.13 24.61C69.13 25.56 69.5199 26.5099 70.1899 27.1899C70.3599 27.3499 70.54 27.5099 70.76 27.6499L70.75 27.63Z" fill="url(#paint0_linear_2613_178)"></path>
<defs>
<linearGradient id="paint0_linear_2613_178" x1="24.19" y1="35.67" x2="117.33" y2="110.63" gradientUnits="userSpaceOnUse">
<stop offset="0.22" stop-color="#00CB78"></stop>
<stop offset="0.83" stop-color="#00C3D0"></stop>
</linearGradient>
</defs>
</svg>