<svg width="150" height="150" viewBox="0 0 150 150" fill="none" xmlns="http://www.w3.org/2000/svg">
<path d="M129.72 25.8811V89.6511C129.72 94.9211 125.43 99.2211 120.15 99.2211H78.7V127.921H101.02C102.78 127.921 104.21 129.351 104.21 131.111C104.21 132.871 102.78 134.301 101.02 134.301H50.01C48.25 134.301 46.82 132.871 46.82 131.111C46.82 129.351 48.25 127.921 50.01 127.921H72.33V99.2211H30.88C25.61 99.2211 21.31 94.9311 21.31 89.6511V32.2611C21.31 30.5011 22.74 29.0711 24.5 29.0711C26.26 29.0711 27.69 30.5011 27.69 32.2611V89.6511C27.69 91.4111 29.12 92.8411 30.88 92.8411H120.16C121.92 92.8411 123.35 91.4111 123.35 89.6511V25.8811C123.35 24.1211 121.92 22.6911 120.16 22.6911H37.26C35.5 22.6911 34.07 21.2611 34.07 19.5011C34.07 17.7411 35.5 16.3111 37.26 16.3111H120.16C125.43 16.3111 129.73 20.6011 129.73 25.8811H129.72ZM24.51 23.0111C25.43 23.0111 26.34 22.6411 26.99 21.9911C27.64 21.3311 28.02 20.4311 28.02 19.5011C28.02 18.5711 27.64 17.6711 26.99 17.0211C26.17 16.2111 24.95 15.8311 23.82 16.0711C23.6 16.1111 23.37 16.1811 23.16 16.2711C22.96 16.3611 22.75 16.4611 22.55 16.5911C22.36 16.7211 22.19 16.8711 22.02 17.0311C21.37 17.6711 21 18.5811 21 19.5011C21 20.4211 21.37 21.3311 22.02 21.9911C22.68 22.6411 23.58 23.0111 24.51 23.0111ZM105.85 67.3311C106.58 66.1011 106.42 64.5611 105.46 63.5011L100.79 58.3611L100.66 58.2211L100.57 58.1211V56.3011L100.66 56.2011L100.79 56.0611L105.46 50.9111C106.42 49.8511 106.58 48.3111 105.85 47.0811L99.58 36.4711C99 35.4911 97.93 34.8811 96.77 34.8811C96.56 34.8811 96.35 34.9011 96.15 34.9411L89.32 36.3011L89.13 36.3411L89 36.3711L88.88 36.3011L88.71 36.2011C88.29 35.9411 87.85 35.7011 87.41 35.4711L87.23 35.3811L87.11 35.3211L87.07 35.1911L87.01 35.0011L84.83 28.6111C84.38 27.3011 83.15 26.4211 81.76 26.4211H69.22C67.83 26.4211 66.6 27.3011 66.15 28.6211L63.97 35.0111L63.91 35.2011L63.87 35.3311L63.75 35.3911L63.57 35.4811C63.13 35.7111 62.7 35.9611 62.27 36.2111L62.1 36.3111L61.98 36.3811L61.85 36.3511L61.66 36.3111L54.83 34.9511C54.64 34.9111 54.44 34.8911 54.24 34.8911C53.08 34.8911 51.97 35.5111 51.4 36.4811L45.13 47.0911C44.4 48.3211 44.56 49.8611 45.52 50.9211L50.19 56.0611L50.32 56.2011L50.41 56.3011V58.1211L50.32 58.2211L50.19 58.3611L45.52 63.5111C44.56 64.5711 44.4 66.1111 45.13 67.3411L51.4 77.9511C51.98 78.9311 53.05 79.5411 54.2 79.5411C54.41 79.5411 54.62 79.5211 54.83 79.4811L61.66 78.1211L61.85 78.0811L61.98 78.0511L62.1 78.1211L62.27 78.2211C62.69 78.4811 63.13 78.7211 63.57 78.9611L63.75 79.0511L63.87 79.1111L63.91 79.2411L63.97 79.4311L66.15 85.8211C66.6 87.1311 67.83 88.0211 69.22 88.0211H81.76C83.15 88.0211 84.38 87.1411 84.83 85.8211L87.01 79.4311L87.07 79.2411L87.11 79.1111L87.23 79.0511L87.41 78.9611C87.85 78.7211 88.29 78.4811 88.71 78.2211L88.88 78.1211L89 78.0511L89.13 78.0811L89.32 78.1211L96.15 79.4811C96.35 79.5211 96.55 79.5411 96.75 79.5411C97.9 79.5411 99.01 78.9211 99.58 77.9511L105.85 67.3411V67.3311ZM94.92 61.5411L98.63 65.6211L98.88 65.8911L99.05 66.0811L98.92 66.3011L98.73 66.6211L95.48 72.1311L95.3 72.4411L95.17 72.6511L94.93 72.6011L94.58 72.5311L88.97 71.4111C88.76 71.3711 88.55 71.3511 88.33 71.3511C87.66 71.3511 87 71.5611 86.46 71.9411C85.43 72.6711 84.33 73.2911 83.19 73.7911C82.36 74.1611 81.72 74.8611 81.43 75.7111L79.64 80.9411L79.52 81.2811L79.44 81.5211H71.55L71.47 81.2811L71.35 80.9411L69.56 75.7011C69.27 74.8411 68.63 74.1411 67.8 73.7811C66.66 73.2811 65.56 72.6511 64.53 71.9311C63.98 71.5411 63.33 71.3411 62.66 71.3411C62.45 71.3411 62.23 71.3611 62.02 71.4011L56.41 72.5211L56.06 72.5911L55.82 72.6411L55.69 72.4311L55.51 72.1211L52.25 66.6111L52.06 66.2911L51.93 66.0711L52.1 65.8811L52.35 65.6111L56.06 61.5311C56.6 60.9311 56.9 60.1611 56.9 59.3511V55.0311C56.9 54.2211 56.6 53.4511 56.06 52.8511L52.35 48.7711L52.1 48.5011L51.93 48.3111L52.06 48.0911L52.25 47.7711L55.51 42.2611L55.69 41.9611L55.82 41.7511L56.06 41.8011L56.41 41.8711L62.03 42.9911C62.24 43.0311 62.45 43.0511 62.66 43.0511C63.33 43.0511 63.99 42.8411 64.53 42.4611C65.55 41.7411 66.65 41.1211 67.8 40.6111C68.63 40.2511 69.27 39.5511 69.56 38.6911L71.35 33.4611L71.46 33.1211L71.54 32.8811H79.43L79.51 33.1211L79.63 33.4611L81.42 38.7011C81.71 39.5511 82.36 40.2511 83.18 40.6211C84.33 41.1311 85.43 41.7511 86.45 42.4711C86.99 42.8511 87.66 43.0611 88.33 43.0611C88.54 43.0611 88.75 43.0411 88.95 43.0011L94.58 41.8811L94.93 41.8111L95.17 41.7611L95.3 41.9711L95.48 42.2811L98.73 47.7911L98.92 48.1111L99.05 48.3311L98.88 48.5211L98.63 48.7911L94.92 52.8711C94.38 53.4711 94.08 54.2411 94.08 55.0511V59.3711C94.08 60.1811 94.38 60.9511 94.92 61.5511V61.5411ZM78.23 59.9411C78.95 59.2211 79.37 58.2211 79.37 57.2111C79.37 56.2011 78.96 55.1911 78.24 54.4711C77.58 53.8111 76.59 53.4311 75.5 53.4311C74.41 53.4311 73.42 53.8111 72.76 54.4711C72.05 55.2011 71.64 56.1911 71.64 57.2111C71.64 58.2311 72.07 59.2311 72.84 60.0211C72.9 60.0711 73.1 60.2611 73.35 60.4211C73.55 60.5611 73.78 60.6811 74.02 60.7811C74.27 60.8911 74.51 60.9611 74.75 61.0111C75.01 61.0611 75.25 61.0811 75.5 61.0811C75.75 61.0811 76 61.0611 76.24 61.0111C76.47 60.9711 76.71 60.8911 76.97 60.7911C77.21 60.6911 77.43 60.5811 77.64 60.4411C77.85 60.3011 78.05 60.1411 78.23 59.9611V59.9411Z" fill="url(#paint0_linear_2613_213)"></path>
<defs>
<linearGradient id="paint0_linear_2613_213" x1="37.59" y1="30.8611" x2="117.92" y2="104.121" gradientUnits="userSpaceOnUse">
<stop offset="0.22" stop-color="#00CB78"></stop>
<stop offset="0.83" stop-color="#00C3D0"></stop>
</linearGradient>
</defs>
</svg>