<svg width="150" height="150" viewBox="0 0 150 150" fill="none" xmlns="http://www.w3.org/2000/svg">
<path d="M124.98 57.6608H99.0801C100.75 54.2508 101.65 50.4908 101.65 46.6308C101.65 39.7708 98.9201 33.3607 93.9601 28.5907C92.6301 27.3107 90.52 27.3508 89.25 28.6808C87.97 30.0108 88.0101 32.1208 89.3401 33.3908C92.9801 36.8908 94.99 41.6008 94.99 46.6308C94.99 50.6208 93.68 54.4808 91.29 57.6608H88.3201C86.4801 57.6608 84.99 59.1509 84.99 60.9909C84.99 62.8309 86.4801 64.3207 88.3201 64.3207H124.99C126.35 64.3207 127.18 65.0809 127.56 65.5309C127.93 65.9809 128.52 66.9409 128.26 68.2909L118.32 121.611C118.02 123.181 116.64 124.321 115.05 124.321H51.66C49.82 124.321 48.3301 122.821 48.3301 120.991V67.6608C48.3301 65.8208 49.82 64.3307 51.66 64.3307H57.04C71.54 64.3307 81.66 54.7309 81.66 41.0009C81.66 39.1609 80.1701 37.6708 78.3301 37.6708C76.4901 37.6708 75 39.1609 75 41.0009C75 50.9709 67.78 57.6708 57.04 57.6708H51.66C47.05 57.6708 43.18 60.811 42.02 65.051C40.88 64.591 39.6301 64.3307 38.3301 64.3307H25C19.49 64.3307 15 68.8207 15 74.3307V114.331C15 119.841 19.49 124.331 25 124.331H38.3301C39.6401 124.331 40.88 124.071 42.02 123.611C43.18 127.861 47.05 130.991 51.66 130.991H115.05C119.84 130.991 123.98 127.571 124.88 122.851L134.82 69.5309C135.38 66.5909 134.61 63.5909 132.7 61.2809C130.79 58.9809 127.99 57.6608 125 57.6608H124.98ZM38.3201 117.661H24.99C23.15 117.661 21.66 116.161 21.66 114.331V74.3307C21.66 72.4907 23.16 71.0009 24.99 71.0009H38.3201C40.1601 71.0009 41.65 72.5007 41.65 74.3307V114.331C41.65 116.171 40.1501 117.661 38.3201 117.661ZM75.7301 30.2609C75.0401 29.5709 74.65 28.6308 74.65 27.6608C74.65 27.4308 74.6701 27.1809 74.7201 26.9509C74.7801 26.7209 74.8401 26.4809 74.9301 26.2609C75.0201 26.0409 75.14 25.8308 75.26 25.6308C75.4 25.4308 75.5501 25.2407 75.7301 25.0707C76.5701 24.2107 77.84 23.8307 79.03 24.0707C79.26 24.1107 79.5001 24.1809 79.7201 24.2809C79.9401 24.3709 80.1501 24.4808 80.3501 24.6108C80.5501 24.7408 80.74 24.9007 80.91 25.0707C81.08 25.2407 81.23 25.4308 81.37 25.6308C81.5 25.8308 81.6101 26.0409 81.7101 26.2609C81.8001 26.4809 81.87 26.7209 81.91 26.9509C81.97 27.1809 81.99 27.4308 81.99 27.6608C81.99 27.8908 81.97 28.1508 81.91 28.3808C81.87 28.6108 81.8001 28.8507 81.7101 29.0707C81.6101 29.2807 81.5 29.5008 81.37 29.6908C81.24 29.9008 81.08 30.0809 80.91 30.2609C80.23 30.9409 79.2901 31.3307 78.3201 31.3307C78.0801 31.3307 77.8401 31.3109 77.6001 31.2609C77.3701 31.2209 77.14 31.141 76.92 31.051C76.7 30.961 76.49 30.8509 76.29 30.7209C76.09 30.5909 75.9001 30.4309 75.7301 30.2609Z" fill="url(#paint0_linear_2613_337)"></path>
<defs>
<linearGradient id="paint0_linear_2613_337" x1="35.07" y1="48.5208" x2="108.35" y2="126.491" gradientUnits="userSpaceOnUse">
<stop offset="0.22" stop-color="#00CB78"></stop>
<stop offset="0.83" stop-color="#00C3D0"></stop>
</linearGradient>
</defs>
</svg>