<svg width="150" height="150" viewBox="0 0 150 150" fill="none" xmlns="http://www.w3.org/2000/svg">
<path d="M15 76C15 109.078 41.9117 136 75 136C108.088 136 135 109.088 135 76C135 42.9117 108.088 16 75 16C41.9117 16 15 42.9117 15 76ZM75 22.0029C104.77 22.0029 128.997 46.2297 128.997 76C128.997 105.77 104.77 129.997 75 129.997C45.2297 129.997 21.0031 105.77 21.0031 76C21.0031 46.2297 45.2297 22.0029 75 22.0029ZM59.9923 103.004V80.5022C59.9923 66.444 71.4268 55.0096 85.4849 55.0096C99.5431 55.0096 110.978 66.444 110.978 80.5022V103.004C110.978 104.657 109.63 106.005 107.976 106.005C106.322 106.005 104.975 104.657 104.975 103.004V80.5022C104.975 69.7518 96.2251 61.0024 85.4747 61.0024C74.7243 61.0024 65.975 69.7518 65.975 80.5022V103.004C65.975 104.657 64.6274 106.005 62.9735 106.005C61.3196 106.005 59.9719 104.657 59.9719 103.004H59.9923ZM44.9949 58.0111V103.004C44.9949 104.657 43.6473 106.005 41.9934 106.005C40.3395 106.005 38.9918 104.657 38.9918 103.004V58.0111C38.9918 56.3572 40.3395 55.0096 41.9934 55.0096C43.6473 55.0096 44.9949 56.3572 44.9949 58.0111ZM39.6656 48.343C39.0531 47.7304 38.706 46.883 38.706 46.0152C38.706 45.1474 39.0531 44.2898 39.6656 43.6772C39.829 43.5241 39.9923 43.3915 40.1761 43.269C40.3497 43.1465 40.5436 43.0443 40.7478 42.9729C40.9418 42.8912 41.146 42.8198 41.3604 42.7789C42.4426 42.5543 43.5758 42.9218 44.3415 43.6772C44.9643 44.3 45.3114 45.1474 45.3114 46.0152C45.3114 46.883 44.9643 47.7202 44.3415 48.343C43.7188 48.9657 42.8816 49.3026 42.0138 49.3026C41.7892 49.3026 41.585 49.2823 41.3604 49.2415C41.146 49.2007 40.952 49.129 40.7478 49.0473C40.5436 48.9657 40.3599 48.8635 40.1761 48.7512C39.9923 48.6287 39.829 48.4961 39.6656 48.343Z" fill="url(#paint0_linear_2613_319)"></path>
<defs>
<linearGradient id="paint0_linear_2613_319" x1="37.8892" y1="9.66003" x2="96.4497" y2="114.367" gradientUnits="userSpaceOnUse">
<stop offset="0.22" stop-color="#00CB78"></stop>
<stop offset="0.83" stop-color="#00C3D0"></stop>
</linearGradient>
</defs>
</svg>