<svg width="150" height="150" viewBox="0 0 150 150" fill="none" xmlns="http://www.w3.org/2000/svg">
<path d="M61.7453 39.7C61.4153 39.81 61.0753 39.87 60.7353 39.87C59.3553 39.87 58.1352 38.99 57.6952 37.68L52.8752 23.23C52.3152 21.55 53.2252 19.73 54.9052 19.17C55.2352 19.06 55.5752 19 55.9252 19C57.3052 19 58.5252 19.88 58.9652 21.19L63.7853 35.64C64.3453 37.32 63.4353 39.14 61.7553 39.7H61.7453ZM122.585 48.05C122.585 42.69 120.495 37.65 116.705 33.86C112.915 30.07 107.875 27.98 102.515 27.98C97.1553 27.98 92.1151 30.07 88.3251 33.86L69.5951 52.59C68.3451 53.84 68.3451 55.88 69.5951 57.13C70.2051 57.74 71.0051 58.07 71.8651 58.07C72.7251 58.07 73.5252 57.74 74.1352 57.13L92.8652 38.4C95.4452 35.82 98.8653 34.4 102.515 34.4C106.165 34.4 109.585 35.82 112.165 38.4C117.485 43.72 117.485 52.38 112.165 57.7L100.365 69.5C99.7552 70.11 99.4252 70.91 99.4252 71.77C99.4252 72.63 99.7552 73.43 100.365 74.04C100.975 74.65 101.775 74.98 102.635 74.98C103.495 74.98 104.295 74.65 104.905 74.04L116.705 62.24C120.495 58.45 122.585 53.41 122.585 48.05ZM33.8451 116.71C37.6351 120.5 42.6753 122.59 48.0353 122.59C53.3953 122.59 58.4353 120.5 62.2253 116.71L80.9552 97.98C81.5652 97.37 81.8952 96.57 81.8952 95.71C81.8952 94.85 81.5652 94.05 80.9552 93.44C80.3452 92.83 79.5452 92.5 78.6852 92.5C77.8252 92.5 77.0252 92.83 76.4152 93.44L57.6852 112.17C55.1052 114.75 51.6853 116.17 48.0353 116.17C44.3853 116.17 40.9652 114.75 38.3852 112.17C35.8052 109.59 34.3852 106.17 34.3852 102.52C34.3852 98.87 35.8052 95.45 38.3852 92.87L57.1151 74.14C58.3651 72.89 58.3651 70.85 57.1151 69.6C56.5051 68.99 55.7051 68.66 54.8451 68.66C53.9851 68.66 53.1851 68.99 52.5751 69.6L33.8451 88.33C30.0551 92.12 27.9652 97.16 27.9652 102.52C27.9652 107.88 30.0551 112.92 33.8451 116.71ZM46.2853 49.5C47.1453 49.5 47.9451 49.17 48.5551 48.56C49.1651 47.95 49.4953 47.15 49.4953 46.29C49.4953 45.43 49.1651 44.63 48.5551 44.02L34.1051 29.57C33.4951 28.96 32.6951 28.63 31.8351 28.63C30.9751 28.63 30.1751 28.96 29.5651 29.57C28.3151 30.82 28.3151 32.86 29.5651 34.11L44.0153 48.56C44.6253 49.17 45.4253 49.5 46.2853 49.5ZM101.805 106.35L116.255 120.8C116.865 121.41 117.665 121.74 118.525 121.74C119.385 121.74 120.185 121.41 120.795 120.8C122.045 119.55 122.045 117.51 120.795 116.26L106.345 101.81C105.735 101.2 104.935 100.87 104.075 100.87C103.215 100.87 102.415 101.2 101.805 101.81C100.555 103.06 100.555 105.1 101.805 106.35ZM91.3952 129.17C91.8352 130.48 93.0552 131.36 94.4352 131.36C94.7752 131.36 95.1152 131.3 95.4552 131.19C96.2652 130.92 96.9251 130.35 97.3051 129.58C97.6851 128.81 97.7453 127.94 97.4753 127.13L92.6552 112.68C92.2152 111.37 90.9952 110.49 89.6152 110.49C89.2752 110.49 88.9351 110.55 88.6051 110.66C86.9251 111.22 86.0151 113.04 86.5751 114.72L91.3952 129.17ZM37.6652 57.7L23.2152 52.88C22.8852 52.77 22.5452 52.71 22.2052 52.71C20.8252 52.71 19.6052 53.59 19.1652 54.9C18.6052 56.58 19.5152 58.4 21.1952 58.96L35.6452 63.78C35.9752 63.89 36.3152 63.95 36.6552 63.95C38.0352 63.95 39.2552 63.07 39.6952 61.76C40.2552 60.08 39.3452 58.26 37.6652 57.7ZM129.165 91.41L114.715 86.59C114.385 86.48 114.045 86.42 113.705 86.42C112.325 86.42 111.095 87.3 110.665 88.61C110.105 90.29 111.015 92.11 112.695 92.67L127.145 97.49C127.475 97.6 127.815 97.66 128.165 97.66C129.545 97.66 130.765 96.78 131.205 95.47C131.765 93.79 130.855 91.97 129.175 91.41H129.165ZM92.1852 82.18C92.7452 82.73 93.0651 83.5 93.0651 84.29C93.0651 85.08 92.7452 85.85 92.1852 86.4C91.6352 86.96 90.8651 87.28 90.0751 87.28C89.8751 87.28 89.6853 87.26 89.4853 87.22C89.2953 87.18 89.1152 87.13 88.9352 87.06C88.7552 86.98 88.5852 86.89 88.4152 86.78C88.2552 86.67 88.0952 86.55 87.9552 86.41C87.4052 85.86 87.0851 85.09 87.0851 84.3C87.0851 83.51 87.4052 82.74 87.9552 82.19C88.1052 82.05 88.2552 81.93 88.4152 81.82C88.5752 81.71 88.7452 81.61 88.9352 81.54C89.1152 81.47 89.2953 81.41 89.4853 81.37C90.4653 81.18 91.4952 81.5 92.1852 82.19V82.18Z" fill="url(#paint0_linear_2613_105)"></path>
<defs>
<linearGradient id="paint0_linear_2613_105" x1="18.9952" y1="75.19" x2="131.355" y2="75.19" gradientUnits="userSpaceOnUse">
<stop offset="0.22" stop-color="#00CB78"></stop>
<stop offset="0.83" stop-color="#00C3D0"></stop>
</linearGradient>
</defs>
</svg>