<svg width="150" height="150" viewBox="0 0 150 150" fill="none" xmlns="http://www.w3.org/2000/svg">
<path d="M109.51 32.33C100.27 23.09 87.98 18 74.91 18C61.84 18 49.5501 23.09 40.3101 32.33C31.0701 41.57 26 53.8499 26 66.9299C26 80.0099 31.0801 92.2999 40.3101 101.53L62.66 123.88C63.29 124.51 64.13 124.86 65.03 124.86C65.93 124.86 66.77 124.51 67.4 123.88C68.03 123.25 68.38 122.41 68.38 121.51C68.38 120.61 68.03 119.77 67.4 119.14L45.05 96.7899C28.58 80.3199 28.58 53.5299 45.05 37.0599C53.03 29.0799 63.63 24.6899 74.92 24.6899C86.21 24.6899 96.81 29.0799 104.78 37.0599C121.25 53.5299 121.25 80.3199 104.78 96.7899L82.4301 119.14C81.1201 120.45 81.1201 122.57 82.4301 123.88C83.0601 124.51 83.9 124.86 84.8 124.86C85.7 124.86 86.54 124.51 87.17 123.88L109.52 101.53C118.75 92.2999 123.83 80.0099 123.83 66.9299C123.83 53.8499 118.75 41.56 109.52 32.33H109.51ZM78.27 129.96C78.19 129.76 78.08 129.54 77.94 129.35C77.81 129.15 77.6501 128.96 77.4901 128.8C76.8201 128.13 75.88 127.74 74.91 127.74C74.67 127.74 74.44 127.76 74.2 127.81C73.94 127.86 73.71 127.93 73.51 128.03C73.29 128.12 73.07 128.23 72.9 128.36C72.7 128.49 72.52 128.64 72.36 128.79C72.18 128.97 72.03 129.16 71.9 129.35C71.77 129.55 71.66 129.76 71.57 129.98C71.47 130.23 71.4 130.45 71.36 130.66C71.32 130.89 71.29 131.13 71.29 131.36C71.29 132.31 71.67 133.25 72.35 133.93C73.04 134.61 73.9801 135 74.9301 135C75.8801 135 76.82 134.61 77.5 133.93C78.18 133.25 78.57 132.31 78.57 131.35C78.57 131.09 78.5401 130.85 78.4901 130.63C78.4501 130.4 78.37 130.16 78.28 129.95L78.27 129.96ZM101.07 66.9399C101.07 52.5299 89.3401 40.7999 74.9301 40.7999C60.5201 40.7999 48.79 52.5299 48.79 66.9399C48.79 81.3499 60.5201 93.08 74.9301 93.08C89.3401 93.08 101.07 81.3499 101.07 66.9399ZM74.92 47.5C85.64 47.5 94.36 56.2199 94.36 66.9399C94.36 77.6599 85.64 86.38 74.92 86.38C64.2 86.38 55.48 77.6599 55.48 66.9399C55.48 56.2199 64.2 47.5 74.92 47.5Z" fill="url(#paint0_linear_2613_253)"></path>
<defs>
<linearGradient id="paint0_linear_2613_253" x1="31.4" y1="32.75" x2="106.18" y2="95.9" gradientUnits="userSpaceOnUse">
<stop offset="0.22" stop-color="#00CB78"></stop>
<stop offset="0.83" stop-color="#00C3D0"></stop>
</linearGradient>
</defs>
</svg>