<svg width="150" height="150" viewBox="0 0 150 150" fill="none" xmlns="http://www.w3.org/2000/svg">
<path d="M17.97 41.7606C17.35 41.1255 17 40.2584 17 39.3813C17 39.1595 17.0201 38.9276 17.0601 38.7159C17.1001 38.5042 17.17 38.2824 17.25 38.0807C17.33 37.8791 17.43 37.6775 17.55 37.496C17.67 37.3145 17.81 37.133 17.97 36.9818C18.75 36.2055 19.91 35.8425 20.99 36.0643C21.2 36.1046 21.4201 36.1752 21.6201 36.2559C21.8201 36.3365 22.02 36.4373 22.2 36.5583C22.38 36.6793 22.56 36.8205 22.71 36.9818C22.86 37.133 23.0001 37.3044 23.1301 37.496C23.2501 37.6775 23.3502 37.8791 23.4302 38.0807C23.5202 38.2824 23.5801 38.5042 23.6201 38.7159C23.6701 38.9276 23.6899 39.1595 23.6899 39.3813C23.6899 40.2584 23.32 41.1255 22.71 41.7606C22.09 42.3857 21.2301 42.7386 20.3501 42.7386C19.4701 42.7386 18.6 42.3756 17.98 41.7606H17.97ZM130.29 38.9881C130.29 38.9881 130.25 38.9578 130.24 38.9478C128.59 37.3145 126.33 36.2962 123.84 36.2962H32.52C30.84 36.2962 29.48 37.6673 29.48 39.3611C29.48 41.0549 30.84 42.4261 32.52 42.4261H122.59L77.29 88.1378C76.72 88.7226 75.9501 89.0351 75.1401 89.0351C74.3301 89.0351 73.56 88.7125 72.99 88.1378L31.6401 46.4488C30.4501 45.249 28.5201 45.249 27.3401 46.4488C26.1501 47.6485 26.1501 49.5944 27.3401 50.784L68.6899 92.4731C70.4099 94.2173 72.7101 95.165 75.1501 95.165C77.5901 95.165 79.8801 94.2072 81.6101 92.463L126.9 46.7512V103.795C126.9 105.489 125.53 106.86 123.86 106.86H26.45C24.77 106.86 23.4102 105.479 23.4102 103.795V51.6208C23.4102 49.9271 22.0501 48.5559 20.3701 48.5559C18.6901 48.5559 17.3301 49.9271 17.3301 51.6208V103.795C17.3301 108.866 21.43 113 26.46 113H123.87C128.9 113 133 108.866 133 103.795V45.4809C133 42.9705 131.99 40.692 130.37 39.0284C130.35 39.0083 130.34 38.9881 130.32 38.9679L130.29 38.9881Z" fill="url(#paint0_linear_2613_70)"></path>
<defs>
<linearGradient id="paint0_linear_2613_70" x1="27.73" y1="37.5665" x2="119.891" y2="108.53" gradientUnits="userSpaceOnUse">
<stop offset="0.22" stop-color="#00CB78"></stop>
<stop offset="0.83" stop-color="#00C3D0"></stop>
</linearGradient>
</defs>
</svg>