<svg width="150" height="150" viewBox="0 0 150 150" fill="none" xmlns="http://www.w3.org/2000/svg">
<path d="M65.66 42.1902C65.45 42.2302 65.25 42.2901 65.07 42.3701C64.87 42.4501 64.69 42.5501 64.54 42.6501C64.37 42.7601 64.22 42.89 64.08 43.02C63.93 43.17 63.79 43.33 63.68 43.5C63.57 43.67 63.47 43.85 63.39 44.04C63.3 44.25 63.25 44.4401 63.21 44.6201C63.17 44.8101 63.15 45.0202 63.15 45.2202C63.15 46.0402 63.48 46.8402 64.05 47.4202C64.2 47.5602 64.35 47.7001 64.54 47.8201C64.67 47.9101 64.85 48.0101 65.06 48.1001C65.28 48.1901 65.47 48.25 65.65 48.28C65.86 48.32 66.06 48.3401 66.26 48.3401C67.08 48.3401 67.88 48.0102 68.46 47.4302C69.04 46.8402 69.37 46.0402 69.37 45.2202C69.37 44.4002 69.04 43.61 68.46 43.03C67.88 42.45 67.08 42.1201 66.25 42.1201C66.05 42.1201 65.84 42.1402 65.64 42.1802L65.66 42.1902ZM114.66 75.27C114.66 73.46 113.19 71.99 111.38 71.99C109.57 71.99 108.1 73.46 108.1 75.27C108.1 93.35 93.4 108.05 75.33 108.05C57.26 108.05 42.56 93.34 42.56 75.27C42.56 73.46 41.09 71.99 39.28 71.99C37.47 71.99 36 73.46 36 75.27C36 95.66 51.8 112.78 72.05 114.46V127.46H53.19C51.38 127.46 49.91 128.93 49.91 130.74C49.91 132.55 51.38 134.02 53.19 134.02H97.56C99.37 134.02 100.84 132.55 100.84 130.74C100.84 128.93 99.37 127.46 97.56 127.46H78.62V114.46C98.86 112.78 114.66 95.65 114.66 75.27ZM52 48.7202H57.07C58.77 48.7102 60.15 47.26 60.15 45.48C60.15 43.71 58.76 42.26 57.07 42.26H52.53C54.05 30.36 63.77 21.4502 75.33 21.4502C88.02 21.4502 98.34 32.24 98.34 45.49V72.75C98.34 86.01 88.02 96.79 75.33 96.79C63.76 96.79 54.05 87.8802 52.53 75.9702H67.5C68.32 75.9702 69.1 75.63 69.68 75.02C70.26 74.41 70.58 73.6 70.58 72.74C70.58 70.96 69.2 69.52 67.5 69.52H51.99C50.37 69.52 48.83 70.25 47.75 71.51C46.67 72.77 46.15 74.4601 46.33 76.1401C47.97 91.5901 60.43 103.24 75.33 103.24C91.42 103.24 104.51 89.56 104.51 72.75V45.49C104.51 28.68 91.42 15 75.33 15C60.43 15 47.97 26.6501 46.33 42.1001C46.15 43.7801 46.67 45.47 47.75 46.73C48.83 47.99 50.38 48.7102 52 48.7102V48.7202ZM51.84 67L67.5 67.02C69.2 67.02 70.59 65.7101 70.59 64.1001C70.59 63.3201 70.27 62.58 69.69 62.03C69.11 61.48 68.33 61.1702 67.51 61.1702L52.32 61.1501V57.0901L67.5 57.1101C69.2 57.1101 70.59 55.8002 70.59 54.1902C70.59 52.5802 69.21 51.26 67.51 51.26L51.85 51.24C48.71 51.24 46.16 53.6601 46.16 56.6401V61.6101C46.16 64.5901 48.71 67.01 51.85 67.01L51.84 67Z" fill="url(#paint0_linear_2613_280)"></path>
<defs>
<linearGradient id="paint0_linear_2613_280" x1="35.99" y1="48.99" x2="97.86" y2="97.48" gradientUnits="userSpaceOnUse">
<stop offset="0.22" stop-color="#00CB78"></stop>
<stop offset="0.83" stop-color="#00C3D0"></stop>
</linearGradient>
</defs>
</svg>