<svg width="150" height="150" viewBox="0 0 150 150" fill="none" xmlns="http://www.w3.org/2000/svg">
<path d="M38 126.078V26.9117C38 24.2619 39.0398 21.7716 40.9195 19.8988C42.7993 18.026 45.299 17 47.9586 17H101.051C106.541 17.01 111 21.4627 111 26.9316V126.088C111 131.557 106.531 136 101.051 136H91.1028C89.273 136 87.7832 134.516 87.7832 132.693C87.7832 130.87 89.273 129.386 91.1028 129.386H101.051C102.881 129.386 104.371 127.901 104.371 126.078V26.9216C104.371 25.0987 102.881 23.6144 101.051 23.6144H47.9686V23.6045C47.0787 23.6045 46.2489 23.9531 45.619 24.5707C44.989 25.1983 44.649 26.0251 44.649 26.9117V126.078C44.649 127.901 46.1389 129.386 47.9686 129.386H71.1854V119.474C71.1854 117.651 72.6752 116.167 74.5049 116.167C76.3347 116.167 77.8246 117.651 77.8246 119.474V129.386C77.8246 133.031 74.845 136 71.1854 136H47.9686C42.4794 136 38.0199 131.547 38.0199 126.088L38 126.078ZM77.5446 104.223C77.4146 104.024 77.2547 103.834 77.0947 103.675C75.7349 102.32 73.2952 102.32 71.9353 103.675C71.2654 104.362 70.8756 105.299 70.8756 106.245C70.8756 107.191 71.2654 108.138 71.9353 108.825C72.1153 108.994 72.2854 109.144 72.4953 109.273C72.6853 109.403 72.9053 109.512 73.1252 109.602C73.3352 109.692 73.5651 109.771 73.7951 109.811C74.035 109.851 74.275 109.881 74.515 109.881C75.4748 109.881 76.4148 109.492 77.0947 108.825C77.7746 108.158 78.1645 107.201 78.1645 106.245C78.1645 106.016 78.1445 105.767 78.0845 105.538C78.0445 105.309 77.9746 105.08 77.8746 104.85C77.7846 104.631 77.6746 104.422 77.5446 104.223Z" fill="url(#paint0_linear_2613_26)"></path>
<defs>
<linearGradient id="paint0_linear_2613_26" x1="43.8692" y1="33.038" x2="112.168" y2="130.671" gradientUnits="userSpaceOnUse">
<stop offset="0.22" stop-color="#00CB78"></stop>
<stop offset="0.83" stop-color="#00C3D0"></stop>
</linearGradient>
</defs>
</svg>