<svg width="150" height="150" viewBox="0 0 150 150" fill="none" xmlns="http://www.w3.org/2000/svg">
<path d="M67.48 108.54V95.53H30.9C29.06 95.53 27.57 94.04 27.57 92.2C27.57 90.36 29.06 88.87 30.9 88.87H67.48C71.15 88.87 74.13 91.85 74.13 95.52V108.52L111.93 75.62C111.93 75.62 112 75.56 112.04 75.53C112 75.5 111.97 75.47 111.93 75.44L74.13 42.55V55.61C74.13 59.28 71.15 62.26 67.48 62.26L17.58 62.11C15.75 62.11 14.26 60.62 14.26 58.78C14.26 56.93 15.76 55.45 17.6 55.45L67.49 55.6V42.54C67.48 39.96 68.92 37.66 71.25 36.55C73.58 35.43 76.27 35.74 78.29 37.35C78.33 37.38 78.3599 37.41 78.3999 37.44L116.26 70.38C117.81 71.65 118.69 73.52 118.69 75.52C118.69 77.53 117.8 79.4 116.26 80.66L78.3999 113.62C78.3999 113.62 78.33 113.68 78.29 113.71C76.27 115.32 73.58 115.63 71.25 114.51C68.92 113.39 67.48 111.1 67.48 108.52V108.54ZM130.66 29C128.82 29 127.33 30.49 127.33 32.33V120.09C127.33 121.93 128.82 123.42 130.66 123.42C132.5 123.42 133.99 121.93 133.99 120.09V32.33C133.99 30.49 132.5 29 130.66 29ZM21.25 92.2C21.25 91.97 21.23 91.72 21.18 91.49C21.13 91.26 21.06 91.02 20.97 90.8C20.88 90.58 20.77 90.37 20.64 90.17C20.51 89.97 20.35 89.78 20.19 89.62C19.5 88.94 18.56 88.54 17.6 88.54C16.64 88.54 15.69 88.94 15.02 89.62C13.66 90.98 13.66 93.43 15.02 94.8C15.7 95.48 16.64 95.86 17.6 95.86C18.56 95.86 19.51 95.47 20.19 94.8C20.87 94.11 21.25 93.17 21.25 92.21V92.2Z" fill="url(#paint0_linear_2613_90)"></path>
<defs>
<linearGradient id="paint0_linear_2613_90" x1="36.4" y1="111.28" x2="140.25" y2="51.16" gradientUnits="userSpaceOnUse">
<stop offset="0.22" stop-color="#00CB78"></stop>
<stop offset="0.83" stop-color="#00C3D0"></stop>
</linearGradient>
</defs>
</svg>