<svg width="150" height="150" viewBox="0 0 150 150" fill="none" xmlns="http://www.w3.org/2000/svg">
<path d="M121.43 64.12C121.29 63.91 121.12 63.7 120.94 63.52C120.79 63.36 120.59 63.2 120.34 63.03C120.1 62.87 119.87 62.74 119.65 62.66C119.44 62.58 119.22 62.5101 118.94 62.4401C118.67 62.3901 118.41 62.36 118.16 62.36C117.1 62.36 116.08 62.78 115.34 63.52C115.16 63.7 114.99 63.9 114.85 64.12C114.71 64.34 114.59 64.5601 114.49 64.8101C114.4 65.0301 114.33 65.26 114.27 65.51C114.21 65.81 114.19 66.0601 114.19 66.3101C114.19 67.3501 114.61 68.37 115.34 69.1C115.52 69.28 115.71 69.4301 115.95 69.5901C116.15 69.7201 116.36 69.8401 116.61 69.9501C116.85 70.0501 117.08 70.1201 117.34 70.1801C117.64 70.2401 117.89 70.26 118.14 70.26C119.19 70.26 120.21 69.8301 120.94 69.0901C121.67 68.3701 122.1 67.35 122.1 66.3C122.1 66.02 122.07 65.76 122.01 65.5C121.97 65.28 121.9 65.04 121.8 64.79C121.68 64.51 121.56 64.3 121.43 64.1V64.12ZM80.27 85.9601H36.5C35.31 85.9601 34.3298 84.99 34.3298 83.79V48.8101C34.3298 47.6201 35.3 46.64 36.5 46.64H80.1499C82.1699 46.64 83.8198 45.0001 83.8198 42.9701C83.8198 40.9401 82.1799 39.3 80.1499 39.3H36.5C31.26 39.3 27 43.56 27 48.8V83.78C27 89.02 31.26 93.28 36.5 93.28H44.5V124.61C44.5 129.85 48.76 134.11 54 134.11H59.8298C65.0698 134.11 69.3298 129.85 69.3298 124.61V93.28H80.28C82.3 93.28 83.95 91.64 83.95 89.61C83.95 87.58 82.31 85.9401 80.28 85.9401L80.27 85.9601ZM51.8298 93.29H61.99V124.62C61.99 125.81 61.0198 126.79 59.8198 126.79H53.99C52.8 126.79 51.8198 125.82 51.8198 124.62V93.29H51.8298ZM118.14 76.3C116.12 76.3 114.47 77.9401 114.47 79.9701V94.3401C109.56 89.0101 102.93 86 96 86H95.5598V46.6801H95.97C102.92 46.6801 109.56 43.6601 114.47 38.3201V52.65C114.47 54.67 116.11 56.3201 118.14 56.3201C120.17 56.3201 121.81 54.68 121.81 52.65V19.67C121.81 17.65 120.17 16 118.14 16C116.11 16 114.47 17.64 114.47 19.67C114.47 30.16 105.84 39.36 96 39.36H94.8599C93.0699 39.36 91.4099 40.03 90.1699 41.26C88.9199 42.5 88.22 44.1601 88.22 45.9301V86.74C88.22 90.34 91.15 93.2901 94.75 93.3201H95.96C105.82 93.3201 114.46 102.5 114.46 112.96C114.46 114.98 116.1 116.63 118.13 116.63C120.16 116.63 121.8 114.99 121.8 112.96V79.9701C121.8 77.9501 120.16 76.3 118.13 76.3H118.14Z" fill="url(#paint0_linear_2613_271)"></path>
<defs>
<linearGradient id="paint0_linear_2613_271" x1="35.56" y1="37.26" x2="111.15" y2="94.9499" gradientUnits="userSpaceOnUse">
<stop offset="0.22" stop-color="#00CB78"></stop>
<stop offset="0.83" stop-color="#00C3D0"></stop>
</linearGradient>
</defs>
</svg>