<svg width="150" height="150" viewBox="0 0 150 150" fill="none" xmlns="http://www.w3.org/2000/svg">
<path d="M48.6801 78.2375C48.6801 91.8475 59.75 102.918 73.36 102.918C86.97 102.918 98.04 91.8475 98.04 78.2375C98.04 76.1475 97.78 74.0675 97.26 72.0675C96.77 70.1775 97.91 68.2575 99.8 67.7775C101.69 67.2975 103.61 68.4275 104.09 70.3175C104.75 72.8975 105.09 75.5675 105.09 78.2475C105.09 95.7475 90.85 109.978 73.36 109.978C55.87 109.978 41.63 95.7375 41.63 78.2475C41.63 60.7575 55.87 46.5175 73.36 46.5175C74.69 46.5175 76.03 46.5975 77.34 46.7675C78.67 46.9375 79.99 47.1875 81.29 47.5175C83.18 47.9975 84.3101 49.9275 83.8301 51.8075C83.3501 53.6975 81.43 54.8275 79.54 54.3475C78.54 54.0875 77.5 53.8975 76.47 53.7675C75.45 53.6375 74.41 53.5775 73.36 53.5775C59.75 53.5775 48.6801 64.6475 48.6801 78.2575V78.2375ZM114.32 57.3175C112.52 58.0675 111.68 60.1375 112.43 61.9275C114.59 67.0975 115.68 72.5775 115.68 78.2275C115.68 101.558 96.7 120.537 73.37 120.537C50.04 120.537 31.0601 101.558 31.0601 78.2275C31.0601 54.8975 50.04 35.9175 73.37 35.9175C79.01 35.9175 84.49 37.0075 89.64 39.1575C91.44 39.9075 93.5 39.0575 94.25 37.2575C95 35.4575 94.15 33.3975 92.35 32.6475C86.33 30.1375 79.94 28.8675 73.36 28.8675C46.14 28.8675 24 51.0175 24 78.2375C24 105.458 46.15 127.597 73.37 127.597C100.59 127.597 122.73 105.448 122.73 78.2275C122.73 71.6375 121.45 65.2375 118.93 59.2075C118.18 57.4075 116.11 56.5675 114.32 57.3175ZM114.64 36.9575C113.26 35.5775 111.03 35.5775 109.65 36.9575L73.36 73.2475V63.2375C73.36 61.2875 71.7801 59.7075 69.8301 59.7075C67.8801 59.7075 66.3 61.2875 66.3 63.2375V81.7675C66.3 81.9975 66.32 82.2275 66.37 82.4575C66.39 82.5575 66.4301 82.6575 66.4601 82.7575C66.5001 82.8775 66.5201 82.9975 66.5701 83.1175C66.6201 83.2375 66.69 83.3475 66.75 83.4575C66.8 83.5475 66.84 83.6375 66.89 83.7175C67.15 84.1075 67.48 84.4375 67.87 84.6975C67.96 84.7575 68.05 84.7975 68.14 84.8475C68.25 84.9075 68.36 84.9775 68.48 85.0275C68.6 85.0775 68.72 85.1075 68.84 85.1375C68.94 85.1675 69.04 85.2075 69.14 85.2275C69.37 85.2775 69.6001 85.2975 69.8301 85.2975H88.4C90.35 85.2975 91.9301 83.7175 91.9301 81.7675C91.9301 79.8175 90.35 78.2375 88.4 78.2375H78.35L114.64 41.9475C116.02 40.5675 116.02 38.3375 114.64 36.9575ZM124.88 25.6475C124.67 25.5075 124.45 25.3775 124.21 25.2875C123.97 25.1975 123.73 25.1275 123.48 25.0675C122.99 24.9775 122.47 24.9775 121.96 25.0675C121.71 25.1275 121.48 25.1975 121.24 25.2875C121.01 25.3775 120.78 25.5075 120.57 25.6475C120.36 25.7875 120.16 25.9375 119.98 26.1275C119.79 26.3075 119.64 26.5075 119.5 26.7175C119.36 26.9275 119.23 27.1575 119.14 27.3875C119.05 27.6175 118.98 27.8575 118.92 28.1075C118.87 28.3675 118.85 28.6175 118.85 28.8675C118.85 29.1175 118.87 29.3775 118.92 29.6175C118.98 29.8675 119.05 30.1075 119.14 30.3475C119.23 30.5775 119.36 30.8075 119.5 31.0175C119.64 31.2275 119.79 31.4275 119.98 31.6075C120.16 31.7875 120.36 31.9475 120.57 32.0875C120.78 32.2275 121.01 32.3475 121.24 32.4475C121.48 32.5375 121.71 32.6075 121.96 32.6575C122.22 32.7175 122.47 32.7375 122.72 32.7375C122.97 32.7375 123.23 32.7175 123.47 32.6575C123.72 32.6075 123.96 32.5375 124.2 32.4475C124.44 32.3375 124.66 32.2275 124.87 32.0875C125.08 31.9475 125.28 31.7775 125.46 31.6075C126.19 30.8875 126.6 29.8875 126.6 28.8675C126.6 27.8475 126.19 26.8475 125.46 26.1275C125.28 25.9375 125.08 25.7875 124.87 25.6475H124.88Z" fill="url(#paint0_linear_2613_93)"></path>
<defs>
<linearGradient id="paint0_linear_2613_93" x1="48.1" y1="25.0275" x2="109.84" y2="106.977" gradientUnits="userSpaceOnUse">
<stop offset="0.22" stop-color="#00CB78"></stop>
<stop offset="0.83" stop-color="#00C3D0"></stop>
</linearGradient>
</defs>
</svg>