<svg width="150" height="150" viewBox="0 0 150 150" fill="none" xmlns="http://www.w3.org/2000/svg">
<path d="M87.3454 28.5507C87.0909 28.4871 86.8362 28.4553 86.571 28.4553C85.0542 28.4553 83.7389 29.484 83.3888 30.9686C82.9645 32.7291 84.0465 34.5001 85.8073 34.9243C107.382 40.1313 122.445 59.2944 122.445 81.5224C122.445 107.95 100.933 129.457 74.4999 129.457C48.0667 129.457 26.5552 107.95 26.5552 81.5224C26.5552 59.2838 41.6387 40.1207 63.235 34.9137C64.0836 34.7122 64.805 34.1819 65.2611 33.4396C65.7172 32.6973 65.8551 31.817 65.6535 30.958C65.2929 29.484 63.9882 28.4447 62.4713 28.4447C62.2168 28.4447 61.9516 28.4765 61.697 28.5401C37.1413 34.4471 20 56.2402 20 81.5118C20 111.556 44.4496 136 74.4999 136C104.55 136 129 111.556 129 81.5118C129 56.2508 111.869 34.4683 87.3454 28.5401V28.5507ZM74.5106 85.0857C75.4546 85.0857 76.3774 84.7039 77.0351 84.0358C77.7033 83.3783 78.0852 82.4556 78.0852 81.5118C78.0852 80.568 77.7033 79.6453 77.0351 78.9878C76.3987 78.3515 75.4758 77.9804 74.4999 77.9804C73.5241 77.9804 72.6014 78.3515 71.9649 78.9878C71.3073 79.6453 70.9253 80.568 70.9253 81.5118C70.9253 82.4556 71.3073 83.3783 71.9649 84.0358C72.6332 84.7039 73.5559 85.0857 74.4999 85.0857H74.5106ZM74.9986 84.7887C75.3168 84.7357 75.635 84.6403 75.932 84.5024C75.635 84.6403 75.3274 84.7357 74.9986 84.7887ZM75.7623 78.4788C75.4016 78.3409 75.0197 78.2773 74.6378 78.2561C75.0197 78.2667 75.4122 78.3409 75.7623 78.4788ZM74.4999 72.7415C76.3032 72.7415 77.7777 71.2674 77.7777 69.4646V24.2769C77.7777 22.4741 76.3032 21 74.4999 21C72.6967 21 71.2223 22.4741 71.2223 24.2769V69.4646C71.2223 71.2674 72.6967 72.7415 74.4999 72.7415ZM76.632 22.1453C76.091 21.6045 75.3379 21.2651 74.4999 21.2651C75.3273 21.2651 76.0804 21.6045 76.632 22.1453ZM76.632 71.5962C76.091 72.137 75.3379 72.4764 74.4999 72.4764C75.3273 72.4764 76.0804 72.137 76.632 71.5962Z" fill="url(#paint0_linear_2613_20)"></path>
<defs>
<linearGradient id="paint0_linear_2613_20" x1="34.1819" y1="47.6926" x2="117.752" y2="117.714" gradientUnits="userSpaceOnUse">
<stop offset="0.22" stop-color="#00CB78"></stop>
<stop offset="0.83" stop-color="#00C3D0"></stop>
</linearGradient>
</defs>
</svg>