<svg width="150" height="150" viewBox="0 0 150 150" fill="none" xmlns="http://www.w3.org/2000/svg">
<path d="M103.27 112.86C102.4 112.86 101.58 113.19 101.01 113.76C100.41 114.35 100.07 115.17 100.07 116.02C100.07 116.87 100.41 117.71 101.01 118.29C101.6 118.88 102.43 119.22 103.27 119.22C104.11 119.22 104.94 118.88 105.53 118.29C106.13 117.69 106.47 116.86 106.47 116.02C106.47 115.18 106.13 114.34 105.53 113.75C104.96 113.18 104.13 112.85 103.26 112.85L103.27 112.86ZM103.28 29.76C98.18 29.76 93.39 31.7398 89.8 35.3398C89.24 35.8898 88.94 36.6299 88.94 37.4199C88.94 38.2099 89.25 38.94 89.8 39.5C90.35 40.06 91.09 40.3599 91.88 40.3599C92.67 40.3599 93.4 40.05 93.96 39.5C96.45 37.01 99.76 35.6399 103.29 35.6399C106.82 35.6399 110.13 37.01 112.62 39.5C113.18 40.05 113.91 40.3599 114.7 40.3599C115.49 40.3599 116.22 40.05 116.78 39.5C117.93 38.35 117.93 36.4898 116.78 35.3398C113.18 31.7398 108.4 29.76 103.3 29.76H103.28ZM124.37 27.74C118.74 22.1 111.24 19 103.26 19C102.1 19 100.92 19.07 99.75 19.2C86.86 20.68 76.24 30.6499 73.94 43.4299C73.24 47.3099 73.29 51.21 74.11 55.02L60.27 68.8599L54.29 62.8799C54.29 62.8799 54.22 62.81 54.2 62.79L38.15 46.74C37.6 46.18 36.86 45.8799 36.07 45.8799C35.28 45.8799 34.55 46.19 33.99 46.74C33.44 47.29 33.13 48.0298 33.13 48.8198C33.13 49.6098 33.44 50.3399 33.99 50.8999L45.9 62.8098C29.12 66.3398 17 81.3 17 98.55C17 118.7 33.39 135.09 53.54 135.09C70.79 135.09 85.75 122.96 89.28 106.19L93.13 110.04C93.68 110.6 94.42 110.9 95.21 110.9C96 110.9 96.73 110.59 97.29 110.04C98.44 108.89 98.44 107.03 97.29 105.88L83.24 91.8298L97.08 77.99C99.12 78.42 101.2 78.6399 103.27 78.6399C105.06 78.6399 106.87 78.4799 108.66 78.1499C121.43 75.8499 131.4 65.2499 132.89 52.3699C133.95 43.1999 130.85 34.22 124.37 27.74ZM66.6 96.7L55.39 85.49C54.44 84.54 54.44 82.99 55.39 82.04L60.26 77.1699L74.92 91.8298L70.05 96.7C69.59 97.16 68.98 97.4099 68.33 97.4099C67.68 97.4099 67.07 97.16 66.61 96.7H66.6ZM53.54 129.22C36.63 129.22 22.87 115.46 22.87 98.55C22.87 81.64 34.99 69.25 51.08 67.99L56.1 73.01L51.23 77.8799C49.66 79.4499 48.8 81.54 48.8 83.76C48.8 85.98 49.66 88.0699 51.23 89.6399L62.44 100.85C64.01 102.42 66.1 103.28 68.32 103.28C70.54 103.28 72.63 102.42 74.2 100.85L79.07 95.98L84.09 101C82.83 117.09 69.71 129.21 53.53 129.21L53.54 129.22ZM107.62 72.3699C106.17 72.6299 104.71 72.76 103.27 72.76C101.14 72.76 99.01 72.4699 96.94 71.9099C96.69 71.8399 96.43 71.8098 96.16 71.8098C95.37 71.8098 94.64 72.1199 94.08 72.6699L79.07 87.6799L64.41 73.02L79.42 58.01C80.16 57.27 80.45 56.1699 80.18 55.1599C79.23 51.6699 79.07 48.08 79.72 44.48C81.57 34.23 90.08 26.24 100.42 25.05C101.36 24.94 102.31 24.8899 103.25 24.8899C109.67 24.8899 115.69 27.3799 120.21 31.9099C125.41 37.1199 127.9 44.33 127.05 51.71C125.85 62.04 117.86 70.5499 107.61 72.3899L107.62 72.3699Z" fill="url(#paint0_linear_2613_286)"></path>
<defs>
<linearGradient id="paint0_linear_2613_286" x1="34.12" y1="33.05" x2="119.92" y2="121.07" gradientUnits="userSpaceOnUse">
<stop offset="0.04" stop-color="#00CB78"></stop>
<stop offset="0.22" stop-color="#00CB78"></stop>
<stop offset="0.83" stop-color="#00C3D0"></stop>
</linearGradient>
</defs>
</svg>