<svg width="150" height="150" viewBox="0 0 150 150" fill="none" xmlns="http://www.w3.org/2000/svg">
<path d="M124 58.8848L123.96 114.245C123.96 119.628 119.564 124 114.165 124H35.795C30.3957 124 26 119.618 26 114.235V36.1025C26 30.7196 30.3957 26.3373 35.795 26.3373H78.2868V26.3272C80.0932 26.3272 81.5484 27.788 81.5484 29.579C81.5484 31.38 80.0832 32.8308 78.2868 32.8308H35.795C33.9885 32.8408 32.5333 34.3016 32.5333 36.1025V114.235C32.5333 116.026 33.9986 117.486 35.795 117.486H114.165C115.961 117.486 117.426 116.026 117.426 114.235L117.467 58.8748C117.467 57.0739 118.932 55.6231 120.728 55.6231C122.535 55.6231 123.99 57.0839 123.99 58.8848H124ZM89.3563 32.5606C89.5469 32.6807 89.7577 32.8007 89.9785 32.8908C90.1993 32.9808 90.4201 33.0509 90.6509 33.1009C90.8818 33.1509 91.1226 33.1709 91.3433 33.1709C91.5842 33.1709 91.8151 33.1509 92.056 33.1009C92.2868 33.0609 92.5175 32.9808 92.7182 32.8908C92.939 32.8007 93.1397 32.6807 93.3405 32.5606C93.5412 32.4305 93.7219 32.2805 93.8925 32.1204C94.5548 31.45 94.9363 30.5295 94.9363 29.579C94.9363 28.6285 94.5548 27.708 93.8925 27.0476C93.0495 26.2072 91.8151 25.837 90.6509 26.0671C90.4201 26.1071 90.1892 26.1772 89.9785 26.2672C89.7577 26.3673 89.557 26.4773 89.3563 26.6074C89.1555 26.7375 88.975 26.8875 88.8144 27.0476C88.142 27.708 87.7606 28.6285 87.7606 29.579C87.7606 30.5295 88.142 31.45 88.8144 32.1204C88.975 32.2805 89.1656 32.4305 89.3563 32.5606ZM122.986 27.3478C121.712 26.0771 119.644 26.0771 118.37 27.3478L77.3233 68.2599C76.7111 68.8702 75.8882 69.2104 75.0151 69.2104C74.142 69.2104 73.319 68.8702 72.7068 68.2599L64.3369 59.9054C63.0624 58.6347 60.995 58.6347 59.7205 59.9054C58.4459 61.1761 58.4459 63.2372 59.7205 64.5079L68.0903 72.8624C69.9369 74.7034 72.3957 75.7239 75.0151 75.7239C77.6344 75.7239 80.0932 74.7134 81.9398 72.8624L122.986 31.9503C124.261 30.6796 124.261 28.6185 122.986 27.3478Z" fill="url(#paint0_linear_2613_14)"></path>
<defs>
<linearGradient id="paint0_linear_2613_14" x1="37.4208" y1="38.3337" x2="111.135" y2="107.504" gradientUnits="userSpaceOnUse">
<stop offset="0.22" stop-color="#00CB78"></stop>
<stop offset="0.83" stop-color="#00C3D0"></stop>
</linearGradient>
</defs>
</svg>