<svg width="150" height="150" viewBox="0 0 150 150" fill="none" xmlns="http://www.w3.org/2000/svg">
<path d="M79.6574 114.34C79.4774 114.22 79.2674 114.1 79.0274 114C78.7874 113.9 78.5475 113.84 78.3075 113.79C78.0775 113.74 77.8275 113.72 77.5875 113.72C76.5975 113.72 75.6274 114.12 74.9474 114.82C74.2474 115.5 73.8474 116.47 73.8474 117.46C73.8474 118.45 74.2474 119.41 74.9474 120.11C75.6474 120.81 76.5975 121.2 77.5875 121.2C77.8275 121.2 78.0775 121.18 78.3075 121.13C78.5975 121.06 78.8074 121 79.0074 120.92C79.2374 120.83 79.4475 120.71 79.6375 120.59C79.8475 120.44 80.0474 120.29 80.2174 120.11C80.9174 119.41 81.3174 118.44 81.3174 117.46C81.3174 116.48 80.9174 115.5 80.2174 114.82C80.0474 114.65 79.8574 114.49 79.6574 114.36V114.34ZM135.927 122.17C133.297 111.94 125.937 103.61 116.137 99.75C120.037 96.29 122.247 91.3899 122.247 86.1799C122.247 76.9099 115.377 69.2099 106.217 68.1399C103.387 58.4199 96.1374 50.49 86.6874 46.75C90.5874 43.29 92.8075 38.3899 92.8075 33.1699C92.8075 23.1499 84.6574 15 74.6374 15C64.6174 15 56.4674 23.1499 56.4674 33.1699C56.4674 38.3899 58.6875 43.29 62.5875 46.75C53.1475 50.47 45.9075 58.3999 43.0575 68.1499C33.8875 69.2199 27.0074 76.92 27.0074 86.2C27.0074 91.41 29.2275 96.3099 33.1175 99.7699C23.3075 103.63 15.9275 111.95 13.2975 122.18C12.5775 124.98 13.1774 127.91 14.9574 130.2C16.7474 132.5 19.4374 133.82 22.3474 133.82H126.867C129.777 133.82 132.467 132.5 134.257 130.2C136.037 127.91 136.637 124.99 135.927 122.19V122.17ZM115.357 86.1799C115.357 92.3999 110.297 97.46 104.077 97.46C97.8575 97.46 92.7975 92.3999 92.7975 86.1799C92.7975 79.9599 97.8575 74.8999 104.077 74.8999C110.297 74.8999 115.357 79.9599 115.357 86.1799ZM74.6374 21.87C80.8574 21.87 85.9174 26.9299 85.9174 33.1499C85.9174 39.3699 80.8574 44.4299 74.6374 44.4299C68.4174 44.4299 63.3574 39.3699 63.3574 33.1499C63.3574 26.9299 68.4174 21.87 74.6374 21.87ZM45.1775 74.8899C51.3975 74.8899 56.4575 79.9499 56.4575 86.1699C56.4575 92.3899 51.3975 97.45 45.1775 97.45C38.9575 97.45 33.8975 92.3899 33.8975 86.1699C33.8975 79.9499 38.9575 74.8899 45.1775 74.8899ZM128.817 125.96C128.347 126.57 127.637 126.91 126.867 126.91H22.3474C21.5774 126.91 20.8674 126.56 20.3974 125.95C19.9374 125.35 19.7774 124.6 19.9674 123.87C22.9274 112.37 33.2975 104.34 45.1775 104.34C55.1975 104.34 63.3474 96.1899 63.3474 86.1699C63.3474 78.0099 57.9274 70.91 50.1074 68.7C53.7674 58.28 63.5675 51.3199 74.6475 51.3199C85.7275 51.3199 95.4775 58.2799 99.1475 68.6899C91.3175 70.8899 85.8975 77.9999 85.8975 86.1699C85.8975 91.3899 88.1175 96.29 92.0175 99.75C88.3675 101.19 85.0475 103.24 82.1175 105.85C81.4275 106.46 81.0274 107.31 80.9774 108.23C80.9274 109.15 81.2374 110.03 81.8474 110.72C82.4974 111.45 83.4374 111.87 84.4174 111.87C85.2674 111.87 86.0774 111.56 86.7174 110.99C91.5074 106.7 97.6674 104.34 104.067 104.34C115.937 104.34 126.297 112.37 129.247 123.87C129.437 124.59 129.277 125.35 128.807 125.95L128.817 125.96Z" fill="url(#paint0_linear_2613_247)"></path>
<defs>
<linearGradient id="paint0_linear_2613_247" x1="18.2175" y1="52.21" x2="119.557" y2="123.22" gradientUnits="userSpaceOnUse">
<stop offset="0.22" stop-color="#00CB78"></stop>
<stop offset="0.83" stop-color="#00C3D0"></stop>
</linearGradient>
</defs>
</svg>