<svg width="150" height="150" viewBox="0 0 150 150" fill="none" xmlns="http://www.w3.org/2000/svg">
<path d="M20.6841 28.0424C21.5274 26.27 23.6547 25.505 25.4351 26.3353L125.844 73.3877C129.639 75.1695 132 78.8635 132 83.0426C132 87.2218 129.639 90.9158 125.844 92.6975L35.6213 134.974C34.1595 135.655 32.6038 136 31.0482 136C29.0522 136 27.0658 135.44 25.3134 134.33C22.2023 132.362 20.3375 128.994 20.3375 125.319V58.0052C20.3375 56.0462 21.9399 54.4511 23.9078 54.4511C25.8757 54.4511 27.4779 56.0462 27.4779 58.0052V125.319C27.4779 126.56 28.0776 127.66 29.1365 128.323C30.1861 128.985 31.4419 129.069 32.5664 128.537L122.798 86.2609C124.7 85.3654 124.85 83.5744 124.85 83.0426C124.85 82.5109 124.7 80.7199 122.798 79.8243L22.3896 32.7719C20.6091 31.9323 19.8407 29.8148 20.6747 28.0424H20.6841ZM21.7431 47.035C21.9586 47.1749 22.1835 47.2962 22.4177 47.3895C22.652 47.4828 22.8957 47.5667 23.1487 47.6134C23.4111 47.66 23.6642 47.688 23.9265 47.688C24.1889 47.688 24.4418 47.66 24.6854 47.6134C24.929 47.5667 25.1821 47.4828 25.4257 47.3895C25.6694 47.2962 25.8943 47.1749 26.1004 47.035C26.3066 46.8951 26.5129 46.7272 26.7003 46.5499C27.4406 45.813 27.8529 44.8055 27.8529 43.7794C27.8529 42.7533 27.4406 41.7551 26.7003 41.0182C25.2384 39.5629 22.6051 39.5629 21.1526 41.0182C20.4123 41.7365 20 42.7626 20 43.7794C20 44.7962 20.4123 45.813 21.1526 46.5499C21.3306 46.7272 21.5369 46.8951 21.7525 47.035H21.7431Z" fill="url(#paint0_linear_2613_35)"></path>
<defs>
<linearGradient id="paint0_linear_2613_35" x1="26.4003" y1="30.5424" x2="87.7038" y2="122.05" gradientUnits="userSpaceOnUse">
<stop offset="0.22" stop-color="#00CB78"></stop>
<stop offset="0.83" stop-color="#00C3D0"></stop>
</linearGradient>
</defs>
</svg>