<svg width="150" height="150" viewBox="0 0 150 150" fill="none" xmlns="http://www.w3.org/2000/svg">
<path d="M49.6901 99.43C51.5501 101.29 54.03 102.31 56.66 102.31C59.29 102.31 61.77 101.29 63.63 99.43L99.67 63.39C101.13 61.93 101.13 59.55 99.67 58.09C98.96 57.38 98.02 56.99 97.02 56.99C96.02 56.99 95.08 57.38 94.37 58.09L58.3301 94.1301C57.8801 94.5801 57.29 94.82 56.65 94.82C56.01 94.82 55.42 94.5701 54.98 94.1301L48.01 87.15C47.3 86.44 46.36 86.05 45.36 86.05C44.36 86.05 43.4201 86.44 42.7101 87.14C41.2501 88.6 41.2501 90.98 42.7101 92.44L49.6801 99.43H49.6901ZM32.74 127.53C32.65 127.31 32.53 127.08 32.36 126.83C32.19 126.57 32.03 126.38 31.85 126.21C31.15 125.5 30.11 125.09 29.02 125.09C27.93 125.09 26.8901 125.5 26.1801 126.22C25.9601 126.42 25.7901 126.67 25.6801 126.83C25.5501 127.03 25.4301 127.25 25.3101 127.51C25.2201 127.74 25.1401 127.98 25.0801 128.26C25.0301 128.53 25 128.8 25 129.06C25 130.12 25.4301 131.16 26.1801 131.91C26.3601 132.09 26.57 132.26 26.79 132.41C27.01 132.56 27.24 132.68 27.49 132.78C27.77 132.89 28.02 132.97 28.24 133.01C28.49 133.06 28.76 133.08 29.02 133.08C29.28 133.08 29.54 133.06 29.8 133.01C30.08 132.96 30.34 132.86 30.55 132.78C30.8 132.68 31.03 132.56 31.25 132.41C31.47 132.26 31.68 132.09 31.86 131.91C32.61 131.16 33.04 130.12 33.04 129.06C33.04 128.8 33.01 128.53 32.97 128.28C32.9 127.97 32.83 127.74 32.74 127.53ZM105.51 17.01H57.7101C52.1501 17.01 47.63 21.53 47.63 27.09V36.13H35.4C29.84 36.13 25.3201 40.65 25.3201 46.21V116.33C25.3201 118.37 26.98 120.03 29.02 120.03C31.06 120.03 32.72 118.37 32.72 116.33V46.21C32.72 44.74 33.92 43.54 35.39 43.54H48.14C51.94 43.54 55.03 40.45 55.03 36.65V27.09C55.03 25.62 56.2301 24.42 57.7001 24.42H105.5C106.97 24.42 108.17 25.62 108.17 27.09V122.7C108.17 124.17 106.97 125.37 105.5 125.37H41.77C39.73 125.37 38.0701 127.03 38.0701 129.07C38.0701 131.11 39.73 132.77 41.77 132.77H105.5C111.06 132.77 115.58 128.25 115.58 122.69V27.08C115.58 21.52 111.06 17 105.5 17L105.51 17.01Z" fill="url(#paint0_linear_2613_134)"></path>
<defs>
<linearGradient id="paint0_linear_2613_134" x1="35.41" y1="33.69" x2="92.22" y2="104.24" gradientUnits="userSpaceOnUse">
<stop offset="0.22" stop-color="#00CB78"></stop>
<stop offset="0.83" stop-color="#00C3D0"></stop>
</linearGradient>
</defs>
</svg>