<svg width="150" height="150" viewBox="0 0 150 150" fill="none" xmlns="http://www.w3.org/2000/svg">
<path d="M119.38 22H31.4601C26.8001 22 23 25.7901 23 30.4601V45.15C23 49.81 26.7901 53.61 31.4601 53.61H114.13V123.18C114.13 124.9 112.98 126.29 111.56 126.29H39.28C37.86 126.29 36.7101 124.9 36.7101 123.18V75.73C36.7101 73.98 35.3 72.5701 33.55 72.5701C31.8 72.5701 30.39 73.98 30.39 75.73V123.18C30.39 128.38 34.38 132.61 39.28 132.61H111.56C116.46 132.61 120.45 128.38 120.45 123.18V53.5C124.6 52.97 127.83 49.45 127.83 45.15V30.4601C127.83 25.8001 124.04 22 119.37 22H119.38ZM121.51 45.15C121.51 46.33 120.55 47.29 119.37 47.29H31.4501C30.2701 47.29 29.3101 46.33 29.3101 45.15V30.4601C29.3101 29.2801 30.2701 28.3201 31.4501 28.3201H119.37C120.55 28.3201 121.51 29.2801 121.51 30.4601V45.15ZM61.9601 78.88C60.2101 78.88 58.8 77.47 58.8 75.72C58.8 73.97 60.2101 72.5601 61.9601 72.5601H88.87C90.62 72.5601 92.03 73.97 92.03 75.72C92.03 77.47 90.62 78.88 88.87 78.88H61.9601ZM31.54 66.53C31.73 66.65 31.92 66.7601 32.13 66.8401C32.34 66.9201 32.54 66.99 32.76 67.04C32.99 67.08 33.2001 67.1 33.4301 67.1C33.6601 67.1 33.87 67.08 34.09 67.04C34.31 67 34.52 66.9301 34.73 66.8401C34.94 66.7501 35.1301 66.65 35.3201 66.53C35.5101 66.41 35.68 66.26 35.84 66.11C36.48 65.47 36.84 64.5901 36.84 63.6901C36.84 62.7901 36.48 61.92 35.84 61.28C34.57 60.01 32.29 60.01 31.02 61.28C30.38 61.91 30.02 62.8001 30.02 63.6901C30.02 64.5801 30.38 65.47 31.02 66.11C31.17 66.26 31.35 66.41 31.54 66.53Z" fill="url(#paint0_linear_2613_172)"></path>
<defs>
<linearGradient id="paint0_linear_2613_172" x1="44.31" y1="49.99" x2="128.3" y2="115.51" gradientUnits="userSpaceOnUse">
<stop offset="0.22" stop-color="#00CB78"></stop>
<stop offset="0.83" stop-color="#00C3D0"></stop>
</linearGradient>
</defs>
</svg>