<svg width="150" height="150" viewBox="0 0 150 150" fill="none" xmlns="http://www.w3.org/2000/svg">
<path d="M126.17 27H24.8198C19.4078 27 15 31.4353 15 36.8808V114.119C15 119.565 19.4078 124 24.8198 124H126.18C131.592 124 136 119.565 136 114.119V36.8808C136 31.4353 131.592 27 126.18 27H126.17ZM24.8198 33.1629H126.18C128.218 33.1629 129.875 34.8299 129.875 36.8808V50.0957H21.1248V36.8808C21.1248 34.8299 22.7815 33.1629 24.8198 33.1629ZM126.17 117.837H24.8198C22.7815 117.837 21.1248 116.17 21.1248 114.119V56.2586H129.875V114.119C129.875 116.17 128.218 117.837 126.18 117.837H126.17ZM31.9486 40.8615C31.9486 42.5588 30.5831 43.9429 28.8862 43.9429C27.1894 43.9429 25.8238 42.5689 25.8238 40.8615C25.8238 39.154 27.1894 37.78 28.8862 37.78C30.5831 37.78 31.9486 39.154 31.9486 40.8615ZM44.1882 40.8615C44.1882 42.5588 42.8227 43.9429 41.1258 43.9429C39.4289 43.9429 38.0634 42.5689 38.0634 40.8615C38.0634 39.154 39.4289 37.78 41.1258 37.78C42.8227 37.78 44.1882 39.154 44.1882 40.8615ZM56.4278 40.8615C56.4278 42.5588 55.0622 43.9429 53.3654 43.9429C51.6685 43.9429 50.303 42.5689 50.303 40.8615C50.303 39.154 51.6685 37.78 53.3654 37.78C55.0622 37.78 56.4278 39.154 56.4278 40.8615ZM56.4278 87.0428C56.4278 88.7401 55.0622 90.1243 53.3654 90.1243C51.6685 90.1243 50.303 88.7502 50.303 87.0428C50.303 85.3354 51.6685 83.9614 53.3654 83.9614C55.0622 83.9614 56.4278 85.3354 56.4278 87.0428ZM113.338 70.7667L79.3907 104.925C77.6738 106.653 75.4247 107.512 73.1655 107.512C70.9064 107.512 68.6573 106.653 66.9403 104.925L60.3737 98.3078C59.1889 97.1156 59.1889 95.1758 60.3737 93.9837C61.5585 92.7915 63.4863 92.7915 64.6711 93.9837L71.2377 100.601C72.292 101.662 74.019 101.662 75.0833 100.601L109.031 66.4426C110.216 65.2504 112.143 65.2504 113.328 66.4426C114.513 67.6347 114.513 69.5745 113.328 70.7667H113.338Z" fill="url(#paint0_linear_2613_2)"></path>
<defs>
<linearGradient id="paint0_linear_2613_2" x1="23.7454" y1="41.7303" x2="125.628" y2="107.4" gradientUnits="userSpaceOnUse">
<stop offset="0.22" stop-color="#00CB78"></stop>
<stop offset="0.83" stop-color="#00C3D0"></stop>
</linearGradient>
</defs>
</svg>