<svg width="150" height="150" viewBox="0 0 150 150" fill="none" xmlns="http://www.w3.org/2000/svg">
<path d="M96.9903 40.86H96.6303C89.1603 40.86 84.1004 47.18 84.0804 53.09C84.0604 56.71 85.3603 60.02 87.7403 62.41C90.0903 64.77 93.2804 66.0701 96.7204 66.0701C100.03 66.0701 103.42 64.6101 105.8 62.1801C108.08 59.8501 109.31 56.81 109.26 53.62C109.32 46.66 103.94 41.05 97.0003 40.86H96.9903ZM96.6203 60.8C92.4803 60.8 89.1203 57.44 89.1203 53.3C89.1203 49.16 92.4803 45.8 96.6203 45.8C100.76 45.8 104.12 49.16 104.12 53.3C104.12 57.44 100.76 60.8 96.6203 60.8ZM36.9804 114.83C37.0104 115.01 37.0303 115.2 37.0303 115.39C37.0303 116.15 36.7203 116.89 36.1803 117.43C36.0503 117.56 35.9003 117.68 35.7403 117.79C35.5803 117.89 35.4203 117.98 35.2503 118.05C35.0903 118.11 34.9203 118.18 34.7203 118.22C34.5203 118.26 34.3403 118.27 34.1503 118.27C33.9603 118.27 33.7703 118.25 33.5903 118.22C33.3803 118.18 33.1803 118.11 33.0503 118.05C32.8803 117.98 32.7103 117.89 32.5603 117.79C32.4003 117.69 32.2603 117.57 32.1203 117.43C31.5803 116.89 31.2703 116.15 31.2703 115.39C31.2703 115.22 31.2904 115.03 31.3204 114.84C31.3704 114.63 31.4204 114.46 31.4804 114.3C31.5704 114.11 31.6603 113.94 31.7503 113.8C31.8803 113.61 31.9904 113.48 32.1104 113.36C32.6104 112.85 33.3504 112.56 34.1404 112.56C34.9304 112.56 35.6604 112.85 36.1704 113.37C36.2904 113.48 36.4003 113.61 36.5203 113.8C36.6403 113.98 36.7304 114.14 36.7904 114.29C36.8504 114.44 36.9003 114.61 36.9603 114.83H36.9804ZM128.83 18.04C128.63 18.04 128.42 18.0401 128.18 18.0601C124.55 18.2801 121 18.51 117.44 18.98C109.03 20.1 100.56 23.07 91.5403 28.05C81.2503 33.73 71.6403 41.61 62.1603 52.16C61.7903 52.57 60.9204 52.94 60.2204 52.97C58.9404 53.03 57.5504 53.0601 55.8204 53.0601C54.9104 53.0601 53.9904 53.06 53.0804 53.05C52.1104 53.05 51.1804 53.03 50.2604 53.03C49.2704 53.03 48.3203 53.03 47.3703 53.03C46.4103 53.03 45.4603 53.03 44.5203 53.03C42.8603 53.03 41.5004 53.02 40.2604 52.99H40.1004C38.3504 52.99 37.0503 53.69 36.0903 55.13C35.2603 56.38 34.3904 57.64 33.5404 58.86C32.9204 59.76 32.2903 60.6501 31.6803 61.5601C30.3903 63.4701 29.1003 65.38 27.8103 67.29C25.6303 70.53 23.3804 73.88 21.1404 77.14C20.1604 78.57 19.1203 80.01 18.1203 81.4L18.0804 81.4501C16.9504 83.0101 15.7804 84.63 14.6704 86.27C14.0604 87.17 13.6303 89.03 14.4603 90.03C15.1503 90.87 16.4604 91.26 17.3904 91.26C17.5804 91.26 17.7704 91.24 17.9504 91.21C22.0104 90.51 26.1304 89.77 30.1104 89.05H30.1704C34.2104 88.31 38.3903 87.56 42.5003 86.85C42.5403 86.85 42.5903 86.84 42.6503 86.84C43.0803 86.84 43.5403 87.03 43.6803 87.16C45.0403 88.42 46.3703 89.7601 47.6703 91.0601C48.7903 92.1801 49.9204 93.32 51.0704 94.41C51.1804 94.51 51.2603 94.6 51.3103 94.66C51.2803 94.69 51.2303 94.73 51.1803 94.77C50.8403 95.04 50.5603 95.35 50.3103 95.61C50.1803 95.75 50.0903 95.85 49.9803 95.96L44.6004 101.32L42.1203 103.79L39.1004 106.8C36.8404 109.05 38.0503 110.77 38.6803 111.41C39.2903 112.03 40.0003 112.35 40.7403 112.35C41.8703 112.35 42.7603 111.6 43.4003 110.95L44.0404 110.31C45.2604 109.08 45.6603 108.67 47.1903 107.14C49.8103 104.51 52.5203 101.79 55.1903 99.08C55.3303 98.94 55.4303 98.85 55.5003 98.8C55.5503 98.84 55.6204 98.9 55.7004 98.99C56.8604 100.2 58.0504 101.39 59.2004 102.54C60.4904 103.82 61.8204 105.15 63.0804 106.49C63.2304 106.65 63.3704 107.15 63.3404 107.37C62.6604 111.28 61.9504 115.21 61.2604 119.01C60.5404 122.97 59.7303 127.45 58.9903 131.75C58.7903 132.9 59.0904 134.61 60.0304 135.52C60.3704 135.85 60.8404 136.02 61.3804 136.02C61.9204 136.02 62.5204 135.85 63.0804 135.68C63.3104 135.61 63.5103 135.55 63.6903 135.51C64.1903 135.4 64.5303 135.11 64.7503 134.93C64.8003 134.89 64.8403 134.86 64.8703 134.83L71.8304 130C79.4104 124.74 87.2504 119.31 95.0304 113.95C96.5704 112.89 97.2804 111.54 97.2704 109.7C97.2704 107.76 97.2904 105.79 97.3204 103.88C97.3704 100.19 97.4303 96.39 97.2303 92.64C97.0503 89.13 98.3803 87.58 100.42 85.63C100.69 85.37 100.97 85.13 101.25 84.89C101.68 84.52 102.12 84.1401 102.52 83.7001C102.77 83.4301 102.99 83.1801 103.23 82.9501C114.88 71.3001 122.81 59.47 127.47 46.76C130.65 38.09 132.15 29.9 132.06 21.71C132.04 19.78 131.63 18 128.84 18L128.83 18.04ZM17.3904 89.89C17.3904 89.89 17.4003 89.89 17.4103 89.89C17.4103 89.89 17.3704 89.89 17.3504 89.89C17.3704 89.89 17.3903 89.89 17.4103 89.89C17.4103 89.89 17.4004 89.89 17.3904 89.89ZM40.7304 110.98C40.7304 110.98 40.6403 110.97 40.5903 110.96C40.5303 110.96 40.4804 110.96 40.4204 110.94C40.5304 110.97 40.6304 110.98 40.7304 110.98ZM61.3703 134.67C61.3703 134.67 61.2903 134.67 61.2503 134.66C61.2403 134.66 61.2304 134.66 61.2204 134.66C61.2704 134.66 61.3203 134.68 61.3703 134.68V134.67ZM42.5203 80.1C42.3903 80.33 41.9003 80.7 41.5503 80.77C35.6103 81.98 29.7403 83.1001 23.2703 84.3201L23.5404 83.92L23.7503 83.62C24.9903 81.82 26.1804 80.11 27.3604 78.4L30.3304 74.09C33.5204 69.47 36.8203 64.6901 40.0503 59.9501C40.5403 59.2301 40.9403 59.01 41.7403 59.01H41.8103C43.7903 59.04 45.9603 59.05 48.6103 59.05C50.0103 59.05 51.4103 59.05 52.8103 59.05H52.9604C54.1304 59.05 55.3004 59.05 56.4704 59.05C51.1904 65.87 46.5004 72.95 42.5104 80.12L42.5203 80.1ZM58.4004 87.51L58.3304 87.58C57.4504 88.45 56.5503 89.35 55.6803 90.29C55.6103 90.37 55.5503 90.43 55.5003 90.47C55.4603 90.43 55.4004 90.3801 55.3404 90.3201C53.2904 88.1901 51.0204 85.96 48.4004 83.48C47.8104 82.92 47.8603 82.78 48.1703 82.27C49.3103 80.43 50.4203 78.54 51.6003 76.54L52.2704 75.4L59.0904 82.51C59.1604 82.59 59.2303 82.66 59.3103 82.74C59.4403 82.88 59.5703 83.01 59.6903 83.14C60.2603 83.71 60.8903 84.36 61.1003 84.66C60.8903 84.98 60.2304 85.65 59.6404 86.25C59.2304 86.67 58.8104 87.08 58.4004 87.5V87.51ZM62.9903 97.9401C61.9103 96.8501 60.7903 95.73 59.6703 94.64C60.3403 93.99 61.0003 93.32 61.6703 92.66C62.9003 91.44 64.1404 90.2 65.4004 89.03C65.4304 89.03 65.4603 89.02 65.4903 89.01C68.3003 91.73 71.0903 94.54 73.8003 97.26L74.5304 98L74.0904 98.26C71.9204 99.54 69.6703 100.87 67.4203 102.08C67.3103 102.08 67.1803 102.04 67.1203 102.01C65.7203 100.67 64.3303 99.2801 62.9903 97.9301V97.9401ZM91.1404 109.11C91.1304 109.2 91.0103 109.43 90.9303 109.5C82.8703 115.12 74.6403 120.8 66.6703 126.29L66.0204 126.74C66.1604 125.83 66.3003 125 66.4403 124.15L66.9504 121.24C67.6404 117.23 68.3603 113.08 69.1703 109.01C69.2803 108.44 69.7503 107.77 70.0603 107.6C78.0403 103.12 84.9403 98.55 91.1103 93.62V95.03C91.1403 99.66 91.1704 104.42 91.1404 109.1V109.11ZM120.75 47.41C117.89 54.55 113.84 61.4 108.38 68.34C101.22 77.44 92.2603 85.71 80.1603 94.35C79.8303 94.59 79.6804 94.62 79.6504 94.63C79.6504 94.63 79.5104 94.56 79.2204 94.27C76.3104 91.26 73.2703 88.23 69.9403 85C69.7803 84.84 69.6904 84.73 69.6404 84.66C69.6904 84.59 69.7803 84.49 69.9303 84.33C73.6103 80.73 77.2804 77.04 80.8204 73.47L80.8904 73.4C81.9404 72.34 82.3503 70.91 81.9203 69.76C81.5803 68.84 80.7603 68.24 79.7403 68.15C79.6703 68.15 79.5904 68.15 79.5104 68.15C78.3004 68.15 77.1303 68.87 76.4903 69.49C74.2803 71.63 72.0804 73.83 69.9604 75.97L69.9004 76.03C68.6404 77.29 67.3904 78.55 66.1304 79.8C65.9704 79.96 65.7003 80.22 65.4903 80.42C65.2603 80.22 64.9704 79.93 64.7804 79.74C63.3704 78.36 61.9804 76.97 60.5904 75.59C59.0004 74.01 57.3703 72.38 55.7303 70.78C55.5903 70.64 55.5303 70.57 55.5003 70.53C55.5203 70.48 55.5703 70.35 55.7503 70.09C63.1803 59.4 71.1104 50.61 80.0104 43.21C87.1704 37.26 94.3904 32.8001 102.08 29.5701C102.41 29.4301 102.74 29.3 103.12 29.15C103.19 29.2 103.24 29.24 103.29 29.29L104.98 30.97C110.16 36.12 115.52 41.44 120.74 46.75C120.78 46.91 120.8 47.27 120.74 47.41H120.75ZM79.4704 69.54C79.4704 69.54 79.5404 69.54 79.5804 69.54C79.6004 69.54 79.6103 69.54 79.6303 69.54C79.5803 69.54 79.5204 69.54 79.4704 69.54ZM123.2 40.74L109.32 26.92C109.69 26.83 110.05 26.73 110.42 26.64C112.55 26.09 114.75 25.52 116.92 25.13C119.1 24.74 121.37 24.51 123.57 24.29C124.42 24.21 125.28 24.12 126.13 24.03C125.84 29.64 124.86 35.26 123.2 40.75V40.74Z" fill="url(#paint0_linear_2613_158)"></path>
<defs>
<linearGradient id="paint0_linear_2613_158" x1="25.6603" y1="18.73" x2="114.2" y2="96.83" gradientUnits="userSpaceOnUse">
<stop offset="0.22" stop-color="#00CB78"></stop>
<stop offset="0.83" stop-color="#00C3D0"></stop>
</linearGradient>
</defs>
</svg>