<svg width="150" height="150" viewBox="0 0 150 150" fill="none" xmlns="http://www.w3.org/2000/svg">
<path d="M49.8715 98.28C49.2915 97.7 48.9715 96.92 48.9715 96.1C48.9715 95.28 49.2915 94.5 49.8715 93.92L100.832 42.95L101.472 42.31H95.2015C93.5015 42.31 92.1216 40.93 92.1216 39.23C92.1216 37.53 93.5015 36.15 95.2015 36.15H108.912C109.102 36.15 109.292 36.17 109.512 36.21C109.592 36.22 109.652 36.25 109.762 36.28L109.852 36.3C109.932 36.32 110.022 36.35 110.092 36.38C110.162 36.41 110.242 36.45 110.332 36.5L110.442 36.56C110.502 36.59 110.562 36.62 110.622 36.66C110.942 36.88 111.222 37.15 111.452 37.48L111.482 37.52C111.522 37.58 111.542 37.63 111.582 37.71L111.632 37.8C111.672 37.88 111.722 37.95 111.752 38.04C111.782 38.12 111.812 38.21 111.832 38.29L111.862 38.41C111.882 38.48 111.902 38.55 111.922 38.61C111.962 38.82 111.982 39.02 111.982 39.22V52.9C111.982 54.6 110.602 55.98 108.902 55.98C107.202 55.98 105.822 54.6 105.822 52.9V46.65L54.2215 98.25C53.6415 98.83 52.8615 99.15 52.0415 99.15C51.2215 99.15 50.4515 98.83 49.8615 98.25L49.8715 98.28ZM68.2115 107.24C68.2115 106.18 68.1915 105.12 68.1815 104.06C68.1715 102.45 66.8915 101.2 65.2115 101.15H65.1215C63.4815 101.15 62.2215 102.33 62.0615 104.03C62.0315 104.4 62.0315 104.77 62.0315 105.04V110.49C62.0315 114.38 62.0415 117.89 62.0315 121.44C62.0215 124.33 60.5015 125.87 57.6415 125.87C47.8915 125.89 37.7415 125.89 26.6015 125.87C23.7215 125.87 22.1915 124.35 22.1915 121.48C22.1815 111.4 22.1815 101.01 22.1915 90.6C22.1915 87.62 23.6915 86.1 26.6515 86.1C28.5215 86.1 30.3915 86.1 32.2515 86.1H43.4215C43.7415 86.11 44.0015 86.11 44.2215 86.1C45.9715 85.94 47.2315 84.7 47.2815 83.09C47.3315 81.39 46.0915 80.07 44.2615 79.86C44.0715 79.84 43.8915 79.84 43.6715 79.84H38.1515C36.8215 79.84 35.4815 79.84 34.1515 79.84C31.6015 79.84 29.0615 79.84 26.5115 79.86C20.3515 79.89 16.0415 84.19 16.0115 90.34C15.9915 93.92 16.0015 97.5499 16.0115 101.07V105.95C16.0115 107.62 16.0115 109.3 16.0115 110.98V111.34C16.0115 114.89 15.9915 118.56 16.0415 122.2C16.1115 127.62 20.3915 132.07 25.5915 132.12C30.6215 132.17 35.8315 132.19 41.5115 132.19C47.1915 132.19 52.7915 132.17 58.5715 132.12C63.5415 132.08 67.9115 128.01 68.1115 123.24C68.3215 118.22 68.2715 113.12 68.2215 108.2V107.27L68.2115 107.24ZM118.322 17C100.892 17 83.4615 17 66.0315 17C57.2315 17 50.8515 23.4 50.8515 32.22V76.46C50.8515 78.18 51.2015 79.3599 51.9215 80.0699C52.4215 80.5599 53.1215 80.8101 54.0015 80.8101H54.0615C56.7315 80.7401 57.0415 78.29 57.0415 76.45V32.85C57.0415 29.78 57.8715 27.39 59.5215 25.74C61.1815 24.08 63.6215 23.24 66.7515 23.24C74.1215 23.24 81.4616 23.25 88.7616 23.25C98.9916 23.25 108.802 23.25 117.942 23.23C120.882 23.23 123.302 24.1 124.952 25.74C126.582 27.36 127.442 29.73 127.442 32.59C127.442 49.75 127.442 66.9099 127.442 84.0699C127.442 90.1199 123.982 93.6 117.962 93.6C109.072 93.6 100.182 93.6 91.3016 93.6H74.2715C74.1315 93.6 73.9915 93.6 73.8515 93.6C73.6815 93.6 73.5415 93.6 73.3915 93.6C73.0615 93.6 72.8115 93.62 72.5615 93.67C70.9015 93.99 69.9515 95.02 69.8815 96.59C69.8115 98.23 70.8615 99.51 72.5015 99.77C73.0415 99.86 73.6215 99.86 74.1215 99.86H99.6616C105.762 99.86 111.862 99.86 117.952 99.86H118.022C127.342 99.86 133.592 93.58 133.592 84.23V47.73C133.592 42.58 133.592 37.42 133.592 32.27C133.572 23.29 127.292 17.01 118.302 17.01L118.322 17ZM39.7215 104.95C37.3615 104.95 35.4315 106.87 35.4315 109.24C35.4315 111.61 37.3515 113.53 39.7215 113.53C42.0915 113.53 44.0115 111.61 44.0115 109.24C44.0115 106.87 42.0915 104.95 39.7215 104.95Z" fill="url(#paint0_linear_2613_114)"></path>
<defs>
<linearGradient id="paint0_linear_2613_114" x1="18.5515" y1="36.33" x2="117.012" y2="105.21" gradientUnits="userSpaceOnUse">
<stop offset="0.22" stop-color="#00CB78"></stop>
<stop offset="0.83" stop-color="#00C3D0"></stop>
</linearGradient>
</defs>
</svg>