<svg width="150" height="150" viewBox="0 0 150 150" fill="none" xmlns="http://www.w3.org/2000/svg">
<path d="M101.091 76.8251C101.091 62.1836 89.2307 50.2706 74.6544 50.2706C60.078 50.2706 48.2179 62.1836 48.2179 76.8251C48.2179 91.4666 60.078 103.37 74.6544 103.37C79.5098 103.37 84.0567 102.04 87.967 99.7417L99.8867 115.393C100.533 116.242 101.509 116.692 102.494 116.692C103.19 116.692 103.887 116.472 104.484 116.012C105.926 114.903 106.195 112.834 105.1 111.395L93.1806 95.7341C98.056 90.9169 101.091 84.2208 101.091 76.8251ZM54.7945 76.8251C54.7945 65.8215 63.7097 56.8667 74.6643 56.8667C85.619 56.8667 94.5339 65.8215 94.5339 76.8251C94.5339 87.8287 85.619 96.7835 74.6643 96.7835C63.7097 96.7835 54.7945 87.8287 54.7945 76.8251ZM28.3384 120.06V46.9225C28.3384 41.4258 32.7958 36.9484 38.2682 36.9484H51.5014V26.9742C51.5014 21.4774 55.9588 17 61.4312 17H111.07C116.543 17 121 21.4774 121 26.9742V126.696C121 132.193 116.543 136.67 111.07 136.67H44.8946C43.0639 136.67 41.5815 135.181 41.5815 133.342C41.5815 131.503 43.0639 130.014 44.8946 130.014H111.07C112.891 130.014 114.384 128.525 114.384 126.686V26.9842C114.384 25.1552 112.901 23.6561 111.08 23.6561H61.4411C59.6203 23.6561 58.1278 25.1452 58.1278 26.9842V36.9584C58.1278 40.6262 55.1629 43.6045 51.5113 43.6045H38.2781C36.4573 43.6045 34.9648 45.0936 34.9648 46.9325V120.07C34.9648 121.909 33.4822 123.398 31.6515 123.398C29.8207 123.398 28.3384 121.909 28.3384 120.07V120.06ZM29.0746 135.941C28.3881 135.251 28 134.312 28 133.352C28 133.122 28.02 132.872 28.0697 132.643C28.1294 132.413 28.1891 132.173 28.2786 131.953C28.3781 131.733 28.4877 131.523 28.617 131.323C28.7463 131.123 28.8955 130.934 29.0647 130.774C30.4079 129.414 32.8555 129.414 34.2086 130.774C34.3877 130.944 34.527 131.133 34.6563 131.323C34.7857 131.523 34.9051 131.733 34.9947 131.953C35.0842 132.173 35.1538 132.403 35.2036 132.643C35.2434 132.872 35.2733 133.122 35.2733 133.352C35.2733 134.312 34.8852 135.261 34.1987 135.941C34.0295 136.111 33.8504 136.26 33.6514 136.39C33.4524 136.52 33.2436 136.63 33.0247 136.72C32.8058 136.81 32.5869 136.89 32.3481 136.93C32.1094 136.97 31.8706 137 31.6318 137C31.393 137 31.154 136.98 30.9252 136.93C30.6963 136.88 30.4576 136.81 30.2387 136.72C30.0198 136.63 29.811 136.52 29.612 136.39C29.413 136.26 29.2239 136.101 29.0647 135.941H29.0746Z" fill="url(#paint0_linear_2613_32)"></path>
<defs>
<linearGradient id="paint0_linear_2613_32" x1="42.2977" y1="40.4863" x2="119.502" y2="132.044" gradientUnits="userSpaceOnUse">
<stop offset="0.22" stop-color="#00CB78"></stop>
<stop offset="0.83" stop-color="#00C3D0"></stop>
</linearGradient>
</defs>
</svg>