<svg width="150" height="150" viewBox="0 0 150 150" fill="none" xmlns="http://www.w3.org/2000/svg">
<path d="M118.861 122.499L103.025 104.198L101.921 102.924L101.62 102.575L101.951 102.247L103.155 101.062C112.248 92.1905 117.255 80.3619 117.255 67.7567C117.255 41.9688 96.11 21 70.1276 21C44.1452 21 23 41.9788 23 67.7567C23 93.5346 44.1452 114.513 70.1276 114.513C78.4572 114.513 86.6665 112.303 93.8621 108.121L95.1666 107.365L95.528 107.155L95.7989 107.474L96.7824 108.609L112.699 126.999C113.502 128.035 114.606 128.592 115.82 128.592C116.663 128.592 117.466 128.323 118.138 127.816C119.814 126.541 120.135 124.161 118.851 122.499H118.861ZM70.1175 106.926C48.3401 106.926 30.6272 89.3528 30.6272 67.7467C30.6272 46.1407 48.3401 28.5671 70.1175 28.5671C91.895 28.5671 109.608 46.1407 109.608 67.7467C109.608 89.3528 91.895 106.926 70.1175 106.926ZM127 132.575C127 133.481 126.629 134.367 125.986 135.004C125.826 135.154 125.655 135.303 125.465 135.432C125.284 135.552 125.093 135.652 124.892 135.731C124.672 135.821 124.461 135.9 124.27 135.93C124.019 135.98 123.788 136 123.548 136C123.307 136 123.086 135.98 122.865 135.94C122.634 135.9 122.394 135.811 122.213 135.731C122.012 135.652 121.821 135.552 121.641 135.432C121.45 135.303 121.28 135.164 121.119 135.004C120.477 134.367 120.105 133.481 120.105 132.575C120.105 132.326 120.136 132.097 120.146 131.997C120.216 131.709 120.286 131.46 120.336 131.34C120.457 131.081 120.567 130.872 120.688 130.683C120.838 130.454 120.958 130.315 121.119 130.155C121.701 129.568 122.584 129.239 123.537 129.239C124.491 129.239 125.384 129.578 126.017 130.215C126.127 130.325 126.247 130.464 126.388 130.683C126.538 130.912 126.639 131.091 126.709 131.251C126.789 131.44 126.859 131.669 126.92 131.898C126.96 132.117 126.98 132.346 126.98 132.575H127Z" fill="url(#paint0_linear_2613_29)"></path>
<defs>
<linearGradient id="paint0_linear_2613_29" x1="34.9224" y1="35.8952" x2="111.034" y2="105.892" gradientUnits="userSpaceOnUse">
<stop offset="0.22" stop-color="#00CB78"></stop>
<stop offset="0.83" stop-color="#00C3D0"></stop>
</linearGradient>
</defs>
</svg>