<svg width="150" height="150" viewBox="0 0 150 150" fill="none" xmlns="http://www.w3.org/2000/svg">
<path d="M113.47 63.14H107.83V54.5801C107.83 45.8801 104.45 37.7 98.3 31.54C92.15 25.39 83.97 22 75.27 22C66.57 22 58.39 25.39 52.24 31.54C46.09 37.69 42.7 45.8701 42.7 54.5801V63.39C42.7 66.77 45.45 69.52 48.83 69.52H84.09C85.85 69.52 87.28 68.0901 87.28 66.3301C87.28 64.5701 85.85 63.14 84.09 63.14H49.08V54.5801C49.08 47.5801 51.8 41 56.75 36.05C61.7 31.1 68.28 28.38 75.27 28.38C82.26 28.38 88.85 31.1101 93.79 36.0601C98.74 41.0101 101.46 47.59 101.46 54.59V66.34C101.46 67.19 101.79 67.99 102.39 68.6C102.99 69.2 103.79 69.53 104.64 69.53H113.47C114.95 69.53 116.16 70.74 116.16 72.22V119.24C116.16 120.72 114.95 121.93 113.47 121.93H37.07C35.59 121.93 34.38 120.72 34.38 119.24V69.28C34.38 67.52 32.95 66.09 31.19 66.09C29.43 66.09 28 67.52 28 69.28V119.24C28 124.24 32.07 128.31 37.07 128.31H113.47C118.47 128.31 122.54 124.24 122.54 119.24V72.22C122.54 67.22 118.47 63.15 113.47 63.15V63.14ZM71.84 109.74C71.8 109.96 71.78 110.19 71.78 110.41C71.78 111.32 72.15 112.22 72.79 112.88C73.45 113.53 74.35 113.9 75.26 113.9C75.48 113.9 75.72 113.88 75.93 113.84C76.2 113.78 76.4 113.71 76.58 113.64C76.8 113.55 76.99 113.44 77.18 113.33C77.38 113.2 77.55 113.05 77.72 112.89C78.37 112.23 78.74 111.33 78.74 110.42C78.74 109.51 78.37 108.61 77.72 107.96C77.56 107.8 77.38 107.65 77.19 107.53C77.01 107.41 76.82 107.31 76.6 107.21C76.38 107.12 76.16 107.06 75.94 107.02C75.72 106.98 75.49 106.95 75.27 106.95C74.35 106.95 73.45 107.32 72.8 107.97C72.64 108.13 72.49 108.31 72.37 108.5C72.24 108.69 72.14 108.89 72.05 109.1C71.95 109.34 71.89 109.56 71.85 109.75L71.84 109.74ZM75.26 101.85C76.11 101.85 76.91 101.52 77.52 100.91C78.12 100.31 78.45 99.51 78.45 98.65V81.01C78.44 79.25 77.01 77.8201 75.25 77.8201C74.4 77.8201 73.6 78.15 73 78.76C72.4 79.36 72.07 80.16 72.07 81.02V98.66C72.08 100.42 73.51 101.85 75.27 101.85H75.26Z" fill="url(#paint0_linear_2613_241)"></path>
<defs>
<linearGradient id="paint0_linear_2613_241" x1="27.92" y1="53.12" x2="105.72" y2="106.81" gradientUnits="userSpaceOnUse">
<stop offset="0.22" stop-color="#00CB78"></stop>
<stop offset="0.83" stop-color="#00C3D0"></stop>
</linearGradient>
</defs>
</svg>