<svg width="150" height="150" viewBox="0 0 150 150" fill="none" xmlns="http://www.w3.org/2000/svg">
<path d="M115.241 72.611V71.9863L115.66 71.5229L124.194 62.0123C125.112 60.9947 125.261 59.5137 124.563 58.3249L113.895 40.0895C113.336 39.1424 112.319 38.5581 111.233 38.5581C111.033 38.5581 110.824 38.5783 110.624 38.6186L98.1315 41.1473L97.5033 41.2783L96.9649 40.9357C95.8084 40.2003 94.6119 39.5152 93.3955 38.9006L92.8073 38.6085L92.5979 37.9838L88.5897 26.1157C88.161 24.8463 86.9845 24 85.6584 24H64.3316C63.0055 24 61.829 24.8463 61.4103 26.1157L57.4021 37.9838L57.1927 38.6085L56.6045 38.9006C55.3881 39.5152 54.1817 40.2003 53.0351 40.9357L52.4967 41.2783L51.8685 41.1473L39.3755 38.6186C39.1761 38.5783 38.9667 38.5581 38.7673 38.5581C37.6805 38.5581 36.6636 39.1424 36.1052 40.0895L25.4368 58.3249C24.7389 59.5137 24.8884 60.9947 25.8057 62.0123L34.3404 71.5229L34.7592 71.9863V77.0036L34.3404 77.467L25.8057 86.9777C24.8884 87.9952 24.7389 89.4762 25.4368 90.665L36.1052 108.911C36.6636 109.858 37.6805 110.442 38.7673 110.442C38.9667 110.442 39.1761 110.422 39.3755 110.381L51.8685 107.853L52.4967 107.722L53.0351 108.064C54.1817 108.8 55.3881 109.485 56.6045 110.099L57.1927 110.392L57.4021 111.016L61.4103 122.884C61.839 124.154 63.0155 125 64.3316 125H85.6584C86.9845 125 88.161 124.154 88.5897 122.884L92.5979 111.016L92.8073 110.392L93.3955 110.099C94.6119 109.485 95.8084 108.8 96.9649 108.064L97.5033 107.722L98.1315 107.853L110.624 110.381C110.824 110.422 111.033 110.442 111.233 110.442C112.319 110.442 113.346 109.858 113.895 108.911L124.563 90.6751C125.261 89.4863 125.112 88.0053 124.194 86.9877L115.66 77.4771L115.241 77.0137V72.621V72.611ZM109.867 80.3081L117.295 88.5796L118.082 89.4661L117.484 90.4938L110.275 102.825L109.697 103.813L108.581 103.591L97.4435 101.344C97.2441 101.304 97.0347 101.284 96.8353 101.284C96.1972 101.284 95.5791 101.485 95.0506 101.858C93.1762 103.188 91.1721 104.337 89.0683 105.274C88.2807 105.626 87.6625 106.301 87.3833 107.127L83.8239 117.686L83.455 118.784H66.545L66.1761 117.696L62.6167 107.137C62.3375 106.311 61.7293 105.636 60.9317 105.284C58.8379 104.357 56.8238 103.208 54.9494 101.868C54.4209 101.495 53.8128 101.294 53.1647 101.294C52.9653 101.294 52.7559 101.314 52.5565 101.354L41.4095 103.611L40.2928 103.833L39.7145 102.845L32.4959 90.5139L31.8977 89.4863L32.6854 88.5997L40.1133 80.3283C40.6318 79.754 40.911 79.0085 40.911 78.2327V70.8076C40.911 70.0318 40.6218 69.2863 40.1133 68.712L32.6854 60.4406L31.8977 59.5641L32.4959 58.5364L39.7145 46.1948L40.2928 45.2075L41.4095 45.4291L52.5465 47.6758C52.7459 47.7161 52.9453 47.7362 53.1547 47.7362C53.7928 47.7362 54.411 47.5348 54.9394 47.162C56.8138 45.8321 58.8279 44.6836 60.9217 43.7466C61.7093 43.394 62.3275 42.719 62.6067 41.8929L66.1662 31.3344L66.5351 30.2464H83.445L83.8139 31.3445L87.3734 41.9029C87.6525 42.7291 88.2607 43.4041 89.0584 43.7567C91.1621 44.6937 93.1662 45.8422 95.0406 47.1721C95.5691 47.5448 96.1773 47.7463 96.8253 47.7463C97.0247 47.7463 97.2342 47.7262 97.4336 47.6859L108.571 45.4392L109.687 45.2175L110.266 46.2049L117.474 58.5465L118.072 59.5742L117.285 60.4507L109.857 68.7221C109.338 69.2964 109.059 70.0419 109.059 70.8176V78.2428C109.059 79.0185 109.348 79.7641 109.857 80.3384L109.867 80.3081ZM72.4974 77.054C71.8394 76.3689 71.4505 75.442 71.4505 74.505C71.4505 73.5681 71.8294 72.621 72.4875 71.946C73.1056 71.3214 74.0229 70.9587 75.0099 70.9587C75.997 70.9587 76.9044 71.3113 77.5225 71.946C78.1905 72.621 78.5694 73.5479 78.5694 74.505C78.5694 75.4621 78.1905 76.3689 77.5225 77.0439C77.363 77.2051 77.1736 77.3562 76.9841 77.4872C76.7947 77.6181 76.5953 77.7189 76.3859 77.8096C76.1665 77.9002 75.9372 77.9808 75.7079 78.0211C75.4786 78.0614 75.2393 78.0917 75.0099 78.0917C74.7607 78.0917 74.5314 78.0715 74.2921 78.0211C74.1027 77.9808 73.8833 77.9103 73.634 77.8096C73.3449 77.6887 73.1654 77.5879 73.0358 77.4973C72.8264 77.3562 72.627 77.1849 72.4875 77.064L72.4974 77.054Z" fill="url(#paint0_linear_2613_49)"></path>
<defs>
<linearGradient id="paint0_linear_2613_49" x1="31.0402" y1="41.6914" x2="112.071" y2="100.901" gradientUnits="userSpaceOnUse">
<stop offset="0.22" stop-color="#00CB78"></stop>
<stop offset="0.83" stop-color="#00C3D0"></stop>
</linearGradient>
</defs>
</svg>