<svg width="150" height="150" viewBox="0 0 150 150" fill="none" xmlns="http://www.w3.org/2000/svg">
<path d="M122.858 38.1364C122.898 38.3264 122.918 38.4964 122.918 38.6864C122.918 38.8764 122.898 39.0462 122.858 39.2262C122.828 39.4062 122.778 39.5862 122.698 39.7462C122.628 39.9162 122.548 40.0762 122.448 40.2262C122.348 40.3762 122.228 40.5264 122.098 40.6464C121.968 40.7864 121.828 40.8962 121.678 40.9962C121.528 41.0962 121.368 41.1862 121.198 41.2562C121.028 41.3262 120.848 41.3764 120.678 41.4064C120.498 41.4464 120.317 41.4662 120.137 41.4662C119.957 41.4662 119.778 41.4464 119.588 41.4064C119.408 41.3764 119.228 41.3262 119.068 41.2562C118.898 41.1762 118.728 41.0962 118.588 40.9962C118.428 40.8962 118.287 40.7864 118.157 40.6464C117.637 40.1264 117.348 39.4164 117.348 38.6764C117.348 37.9364 117.647 37.2262 118.157 36.7062C119.197 35.6662 121.068 35.6662 122.108 36.7062C122.238 36.8362 122.358 36.9764 122.458 37.1264C122.558 37.2764 122.648 37.4363 122.708 37.6063C122.788 37.7763 122.837 37.9464 122.867 38.1264L122.858 38.1364ZM105.978 95.9662C98.6076 94.5862 91.7675 97.1564 87.1675 101.916L66.9075 85.1464C67.8575 82.7764 68.3875 80.1962 68.3875 77.4962C68.3875 74.7962 67.8776 72.3763 66.9876 70.0763L87.9676 53.8463C91.6576 57.2763 96.5876 59.3864 102.018 59.3864C108.458 59.3864 114.198 56.4263 117.998 51.7963C119.318 50.1863 118.078 47.7462 115.988 47.7462C115.108 47.7462 114.318 48.1763 113.738 48.8363C110.178 52.9563 104.497 55.1963 98.3975 53.8063C92.6675 52.5063 88.0777 47.8363 86.8577 42.0863C84.7177 32.0563 92.3476 23.1764 102.018 23.1764C106.678 23.1764 110.858 25.2463 113.698 28.5163C114.298 29.2063 115.128 29.6464 116.038 29.6464C118.118 29.6464 119.318 27.2163 117.998 25.5963C113.608 20.2363 106.598 17.1062 98.9375 18.2262C89.9875 19.5262 82.7676 26.8163 81.5276 35.7763C80.7976 41.0063 82.0675 45.9064 84.6375 49.8864L64.4976 65.4662C60.0176 59.2362 52.1975 55.5664 43.6575 57.1964C35.5475 58.7464 28.9875 65.2463 27.4075 73.3463C24.8175 86.5663 34.9275 98.1964 47.6975 98.1964C54.5275 98.1964 60.5677 94.8562 64.3377 89.7462L84.0576 106.066C81.5676 110.416 80.5875 115.746 81.9375 121.336C83.7975 129.066 90.2076 135.136 98.0176 136.616C112.558 139.366 125.128 126.776 122.338 112.226C120.768 104.066 114.168 97.5062 105.998 95.9762L105.978 95.9662ZM51.2476 92.6163C39.9476 95.1363 30.0476 85.2364 32.5676 73.9364C33.8376 68.2364 38.4375 63.6363 44.1375 62.3663C55.4375 59.8463 65.3376 69.7463 62.8176 81.0463C61.5476 86.7463 56.9476 91.3463 51.2476 92.6163ZM105.578 131.416C94.2777 133.936 84.3775 124.036 86.8975 112.736C88.1675 107.036 92.7676 102.436 98.4676 101.166C109.768 98.6464 119.667 108.546 117.147 119.846C115.877 125.546 111.278 130.146 105.578 131.416Z" fill="url(#paint0_linear_2613_343)"></path>
<defs>
<linearGradient id="paint0_linear_2613_343" x1="53.2975" y1="36.2762" x2="137.988" y2="121.986" gradientUnits="userSpaceOnUse">
<stop offset="0.22" stop-color="#00CB78"></stop>
<stop offset="0.83" stop-color="#00C3D0"></stop>
</linearGradient>
</defs>
</svg>