<svg width="150" height="150" viewBox="0 0 150 150" fill="none" xmlns="http://www.w3.org/2000/svg">
<path d="M109.566 30.2868H40.4438C38.7123 30.2868 37.2992 31.7016 37.2992 33.4352V99.4915C37.2992 100.647 37.9361 101.713 38.9511 102.261L73.562 120.345C74.4776 120.823 75.5623 120.823 76.4678 120.345L111.079 102.241C112.064 101.713 112.701 100.647 112.701 99.4915L112.721 80.6111C112.721 78.8775 111.308 77.4727 109.576 77.4727H88.5289C86.7974 77.4727 85.3843 76.0679 85.3843 74.3243C85.3843 72.5808 86.7874 71.176 88.5289 71.176H109.576C114.771 71.176 119 75.4103 119 80.6111L118.98 99.4915C118.98 102.969 117.079 106.147 114.024 107.801L79.3736 125.924C78.0103 126.641 76.5077 127 75.005 127C73.5024 127 72.0096 126.641 70.6463 125.934L35.9956 107.831C32.9007 106.167 31 102.979 31 99.5014V33.4352C31 28.2344 35.2294 24 40.424 24H109.546C114.741 24 118.97 28.2344 118.97 33.4352L118.99 56.0019C118.99 57.7355 117.587 59.1503 115.855 59.1503C114.124 59.1503 112.711 57.7455 112.711 56.0119L112.691 33.4352C112.691 31.7016 111.278 30.2868 109.546 30.2868H109.566ZM77.9108 72.4014C77.7814 72.2121 77.6421 72.0328 77.4829 71.8734C77.3237 71.714 77.1445 71.5645 76.9554 71.445C76.7664 71.3154 76.5674 71.2158 76.3584 71.1261C76.1494 71.0365 75.9304 70.9667 75.7115 70.9269C74.587 70.6977 73.3929 71.0664 72.5868 71.8734C72.4276 72.0328 72.2783 72.2121 72.1589 72.4014C72.0395 72.5907 71.93 72.79 71.8405 72.9992C71.7609 73.2085 71.6812 73.4276 71.6414 73.6468C71.6016 73.866 71.5817 74.0952 71.5817 74.3144C71.5817 74.5336 71.6016 74.7727 71.6414 74.9919C71.6812 75.2111 71.7609 75.4303 71.8405 75.6395C71.9201 75.8487 72.0295 76.048 72.1589 76.2373C72.2882 76.4266 72.4276 76.6059 72.5868 76.7653C72.756 76.9247 72.9351 77.0742 73.1242 77.1937C73.3133 77.3233 73.5123 77.4229 73.7212 77.5126C73.9302 77.5923 74.1392 77.672 74.3581 77.7118C74.587 77.7517 74.806 77.7716 75.0348 77.7716C75.2637 77.7716 75.4826 77.7517 75.7016 77.7118C75.9205 77.672 76.1394 77.5923 76.3484 77.5126C76.5574 77.4329 76.7564 77.3233 76.9455 77.1937C77.1346 77.0642 77.3137 76.9247 77.4729 76.7653C77.6322 76.6059 77.7814 76.4266 77.9008 76.2373C78.0302 76.048 78.1297 75.8487 78.2193 75.6395C78.3088 75.4303 78.3785 75.2111 78.4183 74.9919C78.4681 74.7727 78.488 74.5435 78.488 74.3144C78.488 74.0852 78.4681 73.866 78.4183 73.6468C78.3785 73.4276 78.3088 73.2085 78.2193 72.9992C78.1397 72.79 78.0302 72.5907 77.9008 72.4014H77.9108Z" fill="url(#paint0_linear_2613_11)"></path>
<defs>
<linearGradient id="paint0_linear_2613_11" x1="42.3247" y1="31.592" x2="110.179" y2="103.815" gradientUnits="userSpaceOnUse">
<stop offset="0.22" stop-color="#00CB78"></stop>
<stop offset="0.83" stop-color="#00C3D0"></stop>
</linearGradient>
</defs>
</svg>