<svg width="150" height="150" viewBox="0 0 150 150" fill="none" xmlns="http://www.w3.org/2000/svg">
<path d="M121.808 99.15H47.5779C39.6879 98.42 39.4379 87.53 47.3079 86.51C70.7179 86.41 94.1679 86.7 117.558 86.36C118.858 85.94 119.678 84.71 119.788 83.37L127.248 38.6C126.918 36.66 125.838 35.77 123.898 35.62H108.788C106.998 35.62 105.558 37.07 105.558 38.85C105.558 40.63 107.008 42.08 108.788 42.08H120.248L113.798 79.97L50.5379 80.03L45.0379 42.08H84.0379C85.8279 42.08 87.2679 40.63 87.2679 38.85C87.2679 37.07 85.8179 35.62 84.0379 35.62H44.0779L42.5179 25.15C42.1179 24.05 41.2079 23.3 40.0879 23.04L24.9879 23C21.0479 23.42 21.0079 28.87 24.8479 29.43L36.6279 29.46L44.2079 80.66C40.0279 81.82 36.4679 85.4 35.4479 89.64C33.6179 97.25 38.6179 104.5 46.3379 105.48H54.0879C51.1579 107.64 49.2479 111.09 49.2479 115.01C49.2479 121.54 54.5479 126.84 61.0779 126.84C67.6079 126.84 72.9079 121.54 72.9079 115.01C72.9079 111.11 71.0079 107.66 68.0979 105.51L96.0379 105.56C93.1679 107.72 91.3079 111.14 91.3079 115.01C91.3079 121.54 96.6079 126.84 103.138 126.84C109.668 126.84 114.968 121.54 114.968 115.01C114.968 111.16 113.118 107.75 110.268 105.59H110.338H117.698C118.168 105.59 118.628 105.59 119.098 105.59H120.228L121.088 105.57C125.828 105.4 125.488 99.48 121.808 99.15ZM61.0879 120.71C57.9379 120.71 55.3879 118.16 55.3879 115.01C55.3879 111.86 57.9379 109.31 61.0879 109.31C64.2379 109.31 66.7879 111.86 66.7879 115.01C66.7879 118.16 64.2379 120.71 61.0879 120.71ZM103.148 120.71C99.9979 120.71 97.4479 118.16 97.4479 115.01C97.4479 111.86 99.9979 109.31 103.148 109.31C106.298 109.31 108.848 111.86 108.848 115.01C108.848 118.16 106.298 120.71 103.148 120.71ZM93.8779 41.18C93.3179 40.62 92.9879 39.8 92.9879 38.95C92.9879 38.1 93.3079 37.29 93.8779 36.73C94.0179 36.59 94.1879 36.45 94.3579 36.34C94.5279 36.22 94.7179 36.13 94.8879 36.06C95.0779 35.98 95.2779 35.91 95.4779 35.88C95.6779 35.83 95.8879 35.81 96.1079 35.81C96.9379 35.81 97.7479 36.15 98.3379 36.73C98.9179 37.31 99.2579 38.12 99.2579 38.95C99.2579 39.15 99.2379 39.35 99.1979 39.56C99.1579 39.75 99.0979 39.95 99.0179 40.14C98.9279 40.36 98.8279 40.55 98.7379 40.68C98.6179 40.88 98.4779 41.03 98.3379 41.18C97.7479 41.76 96.9379 42.09 96.1079 42.09C95.2779 42.09 94.4779 41.76 93.8879 41.17L93.8779 41.18Z" fill="url(#paint0_linear_2613_220)"></path>
<defs>
<linearGradient id="paint0_linear_2613_220" x1="12.7879" y1="46.26" x2="127.258" y2="97.05" gradientUnits="userSpaceOnUse">
<stop offset="0.22" stop-color="#00CB78"></stop>
<stop offset="0.83" stop-color="#00C3D0"></stop>
</linearGradient>
</defs>
</svg>