<svg width="150" height="150" viewBox="0 0 150 150" fill="none" xmlns="http://www.w3.org/2000/svg">
<path d="M137.094 57.9088C120.295 41.1436 97.8594 31.915 73.9157 31.915C52.4049 31.915 31.6757 39.6056 15.5481 53.5692C13.5335 55.316 12.3226 57.8428 12.2345 60.5015C12.1354 63.1602 13.1703 65.764 15.0528 67.6427L31.1914 83.7487C33.0078 85.5614 35.4076 86.5503 37.9726 86.5503C40.2074 86.5503 42.4091 85.7592 44.1594 84.331C52.581 77.4645 63.1714 73.6852 73.9818 73.6852C86.5647 73.6852 98.4319 78.607 107.393 87.5499C108.141 88.297 109.132 88.7035 110.178 88.7035C111.224 88.7035 112.226 88.297 112.963 87.5499C113.712 86.8028 114.119 85.814 114.119 84.7703C114.119 83.7266 113.712 82.727 112.963 81.9909C102.505 71.5539 88.6563 65.808 73.9708 65.808C61.355 65.808 49.0033 70.2245 39.1616 78.2335C38.8204 78.5082 38.3909 78.673 37.9616 78.673C37.4992 78.673 37.0699 78.4971 36.7507 78.1785L20.6122 62.0726C20.2709 61.7321 20.0837 61.2706 20.1057 60.7762C20.1277 60.2818 20.3369 59.8423 20.7112 59.5127C35.4077 46.7905 54.2984 39.7813 73.9047 39.7813C95.7347 39.7813 116.189 48.1969 131.502 63.4789C132.25 64.226 133.241 64.6324 134.287 64.6324C135.333 64.6324 136.334 64.226 137.072 63.4789C137.821 62.7319 138.228 61.7431 138.228 60.6993C138.228 59.6556 137.821 58.6559 137.072 57.9198L137.094 57.9088ZM75.2918 114.521C74.1469 114.521 73.0571 114.961 72.2975 115.719C71.5159 116.488 71.0535 117.576 71.0535 118.696C71.0535 119.817 71.5049 120.905 72.2975 121.685C73.0681 122.465 74.1579 122.915 75.2808 122.915C76.4037 122.915 77.4936 122.465 78.2752 121.674C79.0568 120.905 79.5082 119.817 79.5082 118.696C79.5082 117.576 79.0568 116.488 78.2642 115.708C77.5156 114.961 76.4257 114.521 75.2808 114.521H75.2918ZM74.5652 94.2187C69.5673 94.2187 64.7676 95.7677 60.6834 98.7011C59.0871 99.8437 58.0744 101.634 57.9093 103.601C57.7442 105.6 58.4596 107.556 59.8798 108.962L63.2485 112.313C63.997 113.06 64.9877 113.467 66.0335 113.467C67.0793 113.467 68.0812 113.06 68.8187 112.313C70.3599 110.775 70.3599 108.281 68.8187 106.743L66.3749 104.359C68.8518 102.876 71.659 102.085 74.5543 102.085C78.8036 102.085 82.8108 103.755 85.8381 106.776C86.5867 107.523 87.5774 107.93 88.6232 107.93C89.669 107.93 90.6708 107.523 91.4084 106.776C92.9496 105.238 92.9496 102.744 91.4084 101.206C86.8839 96.6906 80.8952 94.2077 74.5433 94.2077L74.5652 94.2187Z" fill="url(#paint0_linear_2613_262)"></path>
<defs>
<linearGradient id="paint0_linear_2613_262" x1="23.5514" y1="40.3086" x2="131.883" y2="104.562" gradientUnits="userSpaceOnUse">
<stop offset="0.22" stop-color="#00CB78"></stop>
<stop offset="0.83" stop-color="#00C3D0"></stop>
</linearGradient>
</defs>
</svg>