<svg width="150" height="150" viewBox="0 0 150 150" fill="none" xmlns="http://www.w3.org/2000/svg">
<path d="M87.98 35.42V29.44H94.63C96.4 29.44 97.85 28 97.85 26.22C97.85 24.44 96.41 23 94.63 23H74.89C73.12 23 71.67 24.44 71.67 26.22C71.67 28 73.11 29.44 74.89 29.44H81.54V35.42C65.77 36.55 51.66 45.89 44.47 59.98H23.08C21.3 59.98 19.84 61.44 19.84 63.22C19.84 65 21.29 66.46 23.08 66.46H46.35C46.35 66.46 46.44 66.46 46.51 66.46C47.77 66.46 48.93 65.71 49.45 64.56C55.71 50.72 69.56 41.77 84.74 41.77C106.08 41.77 123.45 59.14 123.45 80.48C123.45 101.82 106.08 119.19 84.74 119.19C70.57 119.19 57.55 111.46 50.75 99.03C50.26 97.82 49.06 97 47.75 97H23.0701C21.2901 97 19.83 98.46 19.83 100.24C19.83 102.02 21.2801 103.48 23.0701 103.48H45.83C53.93 117.18 68.8 125.67 84.73 125.67C109.64 125.67 129.91 105.4 129.91 80.49C129.91 55.58 111.54 37.09 87.95 35.42H87.98ZM104.5 103.45C105.36 103.45 106.17 103.12 106.78 102.51C107.39 101.9 107.72 101.09 107.72 100.24C107.72 99.39 107.39 98.57 106.78 97.97L94.45 85.64C93.84 85.03 93.0301 84.7 92.1801 84.7C91.3301 84.7 90.51 85.03 89.9 85.64C89.29 86.25 88.96 87.06 88.96 87.91C88.96 88.76 89.29 89.58 89.9 90.18L102.23 102.51C102.84 103.12 103.65 103.45 104.5 103.45ZM46.7 87.91C46.7 86.14 45.26 84.69 43.48 84.69H18.15C16.38 84.69 14.9301 86.14 14.9301 87.91C14.9301 89.68 16.37 91.13 18.15 91.13H43.48C45.25 91.13 46.7 89.68 46.7 87.91ZM46.33 75.57C46.33 73.8 44.89 72.35 43.11 72.35H13.22C11.45 72.35 10 73.8 10 75.57C10 77.34 11.44 78.79 13.22 78.79H43.11C44.88 78.79 46.33 77.34 46.33 75.57ZM83.42 83.67C83.66 83.77 83.87 83.83 84.09 83.87C84.29 83.92 84.52 83.94 84.76 83.94C85.68 83.94 86.57 83.57 87.21 82.92C87.85 82.29 88.22 81.4 88.22 80.48C88.22 79.56 87.85 78.67 87.2 78.03C86.59 77.41 85.69 77.05 84.76 77.05C83.82 77.05 82.9301 77.41 82.3101 78.03C81.6701 78.67 81.3 79.56 81.3 80.48C81.3 81.4 81.6701 82.28 82.3101 82.93C82.5001 83.11 82.67 83.25 82.84 83.36C83.01 83.47 83.2 83.58 83.42 83.67Z" fill="url(#paint0_linear_2613_96)"></path>
<defs>
<linearGradient id="paint0_linear_2613_96" x1="29.93" y1="44.15" x2="130.03" y2="110.22" gradientUnits="userSpaceOnUse">
<stop offset="0.22" stop-color="#00CB78"></stop>
<stop offset="0.83" stop-color="#00C3D0"></stop>
</linearGradient>
</defs>
</svg>