<svg width="150" height="150" viewBox="0 0 150 150" fill="none" xmlns="http://www.w3.org/2000/svg">
<path d="M63.2838 76.4403C64.8613 76.4403 66.1442 77.7184 66.1442 79.2901C66.1442 80.8618 64.8613 82.1399 63.2838 82.1399H39.0417C37.4642 82.1399 36.1813 80.8618 36.1813 79.2901C36.1813 77.7184 37.4642 76.4403 39.0417 76.4403H63.2838ZM110.646 62.1722C110.646 60.6005 109.364 59.3224 107.786 59.3224H39.0512C37.4737 59.3224 36.1908 60.6005 36.1908 62.1722C36.1908 63.7439 37.4737 65.022 39.0512 65.022H107.786C109.364 65.022 110.646 63.7439 110.646 62.1722ZM59.0454 26.3268C59.1215 26.5162 59.2165 26.6961 59.3305 26.8665C59.4446 27.0369 59.5776 27.1979 59.7202 27.3399C59.8722 27.4914 60.0338 27.6145 60.2048 27.7281C60.3664 27.8417 60.5564 27.9364 60.7465 28.0216C60.927 28.0973 61.1266 28.1541 61.3262 28.2015C61.5352 28.2393 61.7348 28.2583 61.9439 28.2583C62.7706 28.2583 63.5879 27.9269 64.1675 27.3399C64.7567 26.7624 65.0893 25.9481 65.0893 25.1244C65.0893 24.9256 65.0703 24.7173 65.0228 24.5185C64.9848 24.3196 64.9278 24.1208 64.8423 23.9315C64.7662 23.7421 64.6712 23.5622 64.5572 23.3918C64.4431 23.2214 64.3101 23.0604 64.1675 22.9184C64.025 22.7764 63.8634 22.6438 63.6924 22.5302C63.5213 22.4166 63.3408 22.3219 63.1507 22.2367C62.9607 22.161 62.7611 22.1042 62.5615 22.0568C61.5447 21.858 60.4519 22.1894 59.7202 22.9184C59.5776 23.0604 59.4446 23.2214 59.3305 23.3918C59.2165 23.5622 59.1215 23.7421 59.0454 23.9315C58.9694 24.1208 58.9029 24.3196 58.8649 24.5185C58.8269 24.7173 58.8079 24.9256 58.8079 25.1244C58.8079 25.3327 58.8269 25.5315 58.8649 25.7398C58.9029 25.9387 58.9694 26.128 59.0454 26.3174V26.3268ZM107.777 42.195H39.0512C37.4737 42.195 36.1908 43.4731 36.1908 45.0448C36.1908 46.6165 37.4737 47.8946 39.0512 47.8946H107.786C109.364 47.8946 110.646 46.6165 110.646 45.0448C110.646 43.4731 109.364 42.195 107.786 42.195H107.777ZM132.266 105.847C133.092 106.756 133.235 108.101 132.608 109.161L126.203 119.974C125.595 121.006 124.397 121.536 123.228 121.299L115.721 119.803C114.999 120.258 114.258 120.674 113.497 121.062L111.093 128.097C110.704 129.233 109.63 130 108.423 130H95.6033C94.3964 130 93.3226 129.233 92.933 128.097L90.5287 121.062C89.7685 120.684 89.0178 120.258 88.305 119.803L80.7977 121.299C79.6193 121.536 78.4315 121.006 77.8233 119.974L71.4183 109.161C70.7911 108.101 70.9241 106.756 71.7604 105.847L75.153 102.117H38.5571C37.7968 102.117 37.0746 102.411 36.533 102.95L28.7785 110.676C27.6762 111.774 26.2222 112.352 24.7303 112.352C23.9891 112.352 23.2478 112.21 22.5351 111.916C20.3874 111.026 19 108.962 19 106.643V30.7957C19 28.5044 19.8933 26.3552 21.5183 24.7362C23.1433 23.1267 25.3005 22.2367 27.5907 22.2367H27.6097L50.5118 22.2746C52.0893 22.2746 53.3722 23.5527 53.3722 25.1339C53.3722 26.7055 52.0893 27.9837 50.5118 27.9837L27.6097 27.9458C26.8494 27.9458 26.1272 28.2393 25.5855 28.779C25.0439 29.3187 24.7493 30.0382 24.7493 30.7957V106.643L32.5037 98.917C34.1287 97.298 36.2859 96.408 38.5761 96.408H75.4571L71.7509 92.3463C70.9241 91.4374 70.7816 90.0929 71.4088 89.0325L77.8138 78.2202C78.422 77.1882 79.6193 76.658 80.7882 76.8947L88.2955 78.3906C89.0178 77.9362 89.759 77.5196 90.5192 77.1314L92.9235 70.0968C93.3131 68.9607 94.3869 68.1938 95.5938 68.1938H108.413C109.62 68.1938 110.694 68.9607 111.084 70.0968L113.488 77.1314C114.248 77.5101 114.999 77.9362 115.712 78.3906L122.098 77.122V30.7862C122.098 29.2145 120.815 27.9364 119.237 27.9364H73.4139C71.8364 27.9364 70.5535 26.6582 70.5535 25.0865C70.5535 23.5149 71.8364 22.2367 73.4139 22.2367H119.237C123.979 22.2367 127.828 26.0807 127.828 30.7957V80.9754L132.608 89.042C133.235 90.1024 133.102 91.4468 132.266 92.3558L127.134 97.9891V100.224L132.266 105.857V105.847ZM121.499 101.293V96.8909C121.499 96.1902 121.755 95.518 122.231 95.0068L126.697 90.1024L122.364 82.7932L115.674 84.1282C114.913 84.2797 114.125 84.1092 113.497 83.6642C112.424 82.9163 111.274 82.263 110.067 81.7328C109.345 81.4204 108.793 80.8144 108.537 80.0665L106.399 73.8082H97.6179L95.4798 80.0665C95.2232 80.805 94.672 81.4109 93.9498 81.7328C92.7524 82.263 91.5931 82.9068 90.5192 83.6642C89.8825 84.1092 89.1033 84.2702 88.3431 84.1282L81.653 82.7932L77.3196 90.1024L81.786 95.0068C82.2612 95.5275 82.5177 96.1997 82.5177 96.8909V101.293C82.5177 101.994 82.2612 102.666 81.786 103.178L77.3196 108.082L81.653 115.391L88.3431 114.056C89.1033 113.905 89.892 114.075 90.5192 114.511C91.5931 115.268 92.7429 115.912 93.9403 116.442C94.6625 116.754 95.2137 117.36 95.4703 118.108L97.6084 124.367H106.389L108.527 118.108C108.784 117.36 109.335 116.764 110.057 116.442C111.255 115.912 112.414 115.268 113.488 114.511C114.115 114.066 114.904 113.905 115.664 114.056L122.354 115.391L126.687 108.082L122.221 103.178C121.746 102.657 121.489 101.985 121.489 101.293H121.499ZM104.84 97.9039C104.755 97.7146 104.66 97.5347 104.546 97.3737C104.432 97.2033 104.308 97.0423 104.156 96.9098C102.997 95.7547 100.925 95.7547 99.7656 96.9098C99.6231 97.0518 99.4995 97.2128 99.3855 97.3737C99.2715 97.5441 99.1764 97.724 99.0909 97.9039C99.0149 98.0933 98.9579 98.2921 98.9103 98.4815C98.8723 98.6803 98.8533 98.8886 98.8533 99.0779C98.8533 99.2673 98.8723 99.4851 98.9103 99.6839C98.9579 99.8827 99.0149 100.082 99.0909 100.261C99.1764 100.451 99.2715 100.631 99.3855 100.792C99.4995 100.962 99.6231 101.123 99.7656 101.256C100.345 101.824 101.144 102.155 101.961 102.155C102.778 102.155 103.576 101.824 104.146 101.256C104.299 101.114 104.422 100.953 104.536 100.792C104.65 100.621 104.745 100.441 104.831 100.261C104.907 100.072 104.964 99.8732 105.002 99.6839C105.049 99.4851 105.068 99.2768 105.068 99.0779C105.068 98.8791 105.049 98.6708 105.002 98.4815C104.964 98.2826 104.907 98.0838 104.831 97.9039H104.84Z" fill="url(#paint0_linear_2613_235)"></path>
<defs>
<linearGradient id="paint0_linear_2613_235" x1="36.2384" y1="19.0839" x2="125.334" y2="137.768" gradientUnits="userSpaceOnUse">
<stop offset="0.22" stop-color="#00CB78"></stop>
<stop offset="0.83" stop-color="#00C3D0"></stop>
</linearGradient>
</defs>
</svg>