<svg width="150" height="150" viewBox="0 0 150 150" fill="none" xmlns="http://www.w3.org/2000/svg">
<path d="M77.75 22.1225C78.43 21.4525 78.81 20.5125 78.81 19.5725C78.81 18.6325 78.43 17.6825 77.75 17.0125C76.41 15.6625 73.98 15.6625 72.64 17.0125C71.96 17.6925 71.58 18.6225 71.58 19.5725C71.58 20.5225 71.96 21.4625 72.64 22.1225C73.31 22.7925 74.24 23.1825 75.19 23.1825C76.14 23.1825 77.08 22.7925 77.74 22.1225H77.75Z" fill="#00CB78"></path>
<path d="M61.16 24.7425C62.91 24.2625 63.94 22.4525 63.46 20.6925C62.98 18.9425 61.17 17.9125 59.41 18.3925C33.85 25.4425 16 48.9125 16 75.4525C16 106.353 40.12 132.292 70.91 134.492C71.08 134.502 71.25 134.513 71.41 134.513C73.2 134.513 74.94 133.832 76.25 132.612C77.67 131.292 78.48 129.422 78.48 127.492V68.7425C78.48 65.1125 75.53 62.1625 71.9 62.1625L60.79 62.1425L86.99 35.3225L113.12 62.1525H101.52C98.08 62.1525 94.94 65.2725 94.94 68.7025L94.92 126.412C94.92 127.532 95.49 128.572 96.43 129.172C97.37 129.782 98.55 129.862 99.57 129.402C120.72 119.832 134.39 98.6525 134.39 75.4425C134.39 73.6225 132.92 72.1525 131.1 72.1525C129.28 72.1525 127.81 73.6225 127.81 75.4425C127.81 94.3225 117.64 111.682 101.5 121.022L101.52 68.8425C101.52 68.8425 101.6 68.7525 101.64 68.7225H113.12C115.81 68.7225 118.2 67.1125 119.22 64.6125C120.23 62.1225 119.64 59.2925 117.77 57.4925L91.67 30.6925C89.14 28.1525 84.99 28.1325 82.37 30.6925L56.11 57.5025C54.22 59.3925 53.66 62.2025 54.68 64.6725C55.7 67.1425 58.09 68.7325 60.76 68.7325H71.89V127.482C71.89 127.482 71.89 127.672 71.75 127.792C71.68 127.862 71.55 127.942 71.36 127.922C43.99 125.962 22.56 102.913 22.56 75.4425C22.56 51.8425 38.43 30.9925 61.14 24.7225L61.16 24.7425Z" fill="url(#paint0_linear_2613_76)"></path>
<defs>
<linearGradient id="paint0_linear_2613_76" x1="23.53" y1="44.3625" x2="115.75" y2="115.122" gradientUnits="userSpaceOnUse">
<stop offset="0.22" stop-color="#00CB78"></stop>
<stop offset="0.83" stop-color="#00C3D0"></stop>
</linearGradient>
</defs>
</svg>