<svg width="150" height="150" viewBox="0 0 150 150" fill="none" xmlns="http://www.w3.org/2000/svg">
<path d="M106.88 81.95H93.98V118.23C93.98 120.05 92.5 121.53 90.68 121.53C88.86 121.53 87.38 120.05 87.38 118.23V81.95C87.38 78.31 90.34 75.35 93.98 75.35H106.87L74.24 37.87C74.24 37.87 74.18 37.8 74.15 37.77C74.12 37.81 74.09 37.84 74.06 37.87L41.45 75.35H54.4C58.04 75.35 61 78.31 61 81.94L60.85 131.42C60.85 133.24 59.37 134.71 57.55 134.71C55.73 134.71 54.26 133.22 54.26 131.4L54.41 81.93H41.46C38.9 81.94 36.62 80.51 35.52 78.21C34.41 75.9 34.72 73.23 36.31 71.23C36.34 71.19 36.37 71.16 36.4 71.12L69.06 33.58C70.32 32.05 72.17 31.17 74.16 31.17C76.15 31.17 78 32.05 79.26 33.58L111.94 71.12C111.94 71.12 112 71.19 112.03 71.22C113.63 73.22 113.93 75.89 112.82 78.2C111.71 80.51 109.43 81.94 106.88 81.94V81.95ZM28 19.3C28 21.12 29.48 22.6 31.3 22.6H118.33C120.15 22.6 121.63 21.12 121.63 19.3C121.63 17.48 120.15 16 118.33 16H31.3C29.48 16 28 17.48 28 19.3ZM90.68 127.8C90.45 127.8 90.21 127.82 89.98 127.87C89.75 127.92 89.52 127.99 89.3 128.08C89.08 128.17 88.87 128.28 88.67 128.41C88.47 128.54 88.29 128.7 88.12 128.86C87.45 129.54 87.05 130.48 87.05 131.43C87.05 132.38 87.45 133.32 88.12 133.99C89.47 135.34 91.9 135.34 93.25 133.99C93.92 133.32 94.31 132.39 94.31 131.43C94.31 130.47 93.93 129.54 93.25 128.86C92.57 128.19 91.63 127.8 90.68 127.8Z" fill="url(#paint0_linear_2613_84)"></path>
<defs>
<linearGradient id="paint0_linear_2613_84" x1="46.91" y1="17.95" x2="116.09" y2="114.77" gradientUnits="userSpaceOnUse">
<stop offset="0.22" stop-color="#00CB78"></stop>
<stop offset="0.83" stop-color="#00C3D0"></stop>
</linearGradient>
</defs>
</svg>