<svg width="150" height="150" viewBox="0 0 150 150" fill="none" xmlns="http://www.w3.org/2000/svg">
<path d="M111.91 46.24C109.93 46.24 108.31 47.85 108.31 49.84V106.78C108.31 108.76 109.92 110.38 111.91 110.38C113.9 110.38 115.51 108.77 115.51 106.78V49.84C115.51 47.86 113.9 46.24 111.91 46.24ZM37.89 53.71C38.91 53.71 39.91 53.3 40.63 52.58C41.36 51.84 41.77 50.84 41.77 49.83C41.77 48.82 41.35 47.81 40.63 47.09C39.93 46.39 38.93 46 37.88 46C36.83 46 35.83 46.4 35.13 47.1C34.41 47.82 34 48.82 34 49.84C34 50.86 34.41 51.86 35.13 52.59C35.87 53.31 36.87 53.73 37.89 53.73V53.71ZM94.83 46.24C92.85 46.24 91.23 47.85 91.23 49.84V78.31C91.23 92.03 80.07 103.18 66.36 103.18C52.65 103.18 41.51 92.04 41.49 78.34L41.46 61.21C41.46 59.23 39.84 57.62 37.86 57.62C36.89 57.62 35.99 58 35.31 58.68C34.63 59.36 34.26 60.26 34.26 61.23L34.29 78.36C34.32 96.02 48.7 110.38 66.36 110.38C84.02 110.38 98.43 95.99 98.43 78.31V49.84C98.43 47.86 96.82 46.24 94.83 46.24Z" fill="url(#paint0_linear_2613_128)"></path>
<defs>
<linearGradient id="paint0_linear_2613_128" x1="42.71" y1="44.42" x2="117.43" y2="105.65" gradientUnits="userSpaceOnUse">
<stop offset="0.22" stop-color="#00CB78"></stop>
<stop offset="0.83" stop-color="#00C3D0"></stop>
</linearGradient>
</defs>
</svg>