<svg width="150" height="150" viewBox="0 0 150 150" fill="none" xmlns="http://www.w3.org/2000/svg">
<path d="M17.67 52.86C17.88 53 18.1 53.11 18.33 53.21C18.53 53.3 18.77 53.37 19.03 53.42C19.24 53.46 19.49 53.5 19.77 53.5C19.98 53.5 20.22 53.47 20.5 53.42C20.77 53.37 21.01 53.29 21.23 53.19C21.43 53.11 21.65 52.99 21.86 52.86C22.07 52.72 22.26 52.57 22.43 52.39C23.13 51.7 23.54 50.73 23.54 49.73C23.54 48.73 23.14 47.76 22.43 47.06C21.76 46.39 20.79 46 19.77 46C18.75 46 17.78 46.39 17.11 47.06C16.41 47.76 16 48.74 16 49.73C16 50.72 16.41 51.7 17.11 52.4C17.28 52.57 17.47 52.73 17.68 52.86H17.67ZM107.05 77.18L132.03 52.2C132.69 51.54 133.05 50.66 133.05 49.73C133.05 48.8 132.69 47.9199 132.03 47.2599C131.37 46.5999 130.49 46.24 129.56 46.24C128.63 46.24 127.75 46.5999 127.09 47.2599L102.11 72.24L77.13 47.2599C76.47 46.5999 75.59 46.24 74.66 46.24C74.2 46.24 73.75 46.3299 73.32 46.5099C72.01 47.0499 71.16 48.32 71.16 49.74V77.19C71.16 90.4 60.41 101.14 47.21 101.14C34.01 101.14 23.28 90.41 23.26 77.22L23.23 60.71C23.23 58.79 21.66 57.22 19.74 57.22C18.8 57.22 17.92 57.59 17.27 58.25C16.61 58.91 16.25 59.79 16.25 60.72L16.28 77.23C16.31 94.27 30.19 108.13 47.22 108.13C64.25 108.13 78.16 94.25 78.16 77.19V58.18L97.17 77.19L72.18 102.18C71.52 102.84 71.16 103.72 71.16 104.65C71.16 105.58 71.52 106.46 72.18 107.12C72.84 107.78 73.72 108.14 74.65 108.14C75.58 108.14 76.46 107.78 77.12 107.12L102.11 82.1299L127.09 107.11C127.75 107.77 128.63 108.13 129.56 108.13C130.49 108.13 131.37 107.77 132.03 107.11C132.69 106.45 133.05 105.57 133.05 104.64C133.05 103.71 132.69 102.83 132.03 102.17L107.05 77.19V77.18Z" fill="url(#paint0_linear_2613_125)"></path>
<defs>
<linearGradient id="paint0_linear_2613_125" x1="26.41" y1="45.53" x2="129.37" y2="101.23" gradientUnits="userSpaceOnUse">
<stop offset="0.22" stop-color="#00CB78"></stop>
<stop offset="0.83" stop-color="#00C3D0"></stop>
</linearGradient>
</defs>
</svg>