<svg width="150" height="150" viewBox="0 0 150 150" fill="none" xmlns="http://www.w3.org/2000/svg">
<path d="M67.34 102.83C67.44 103.04 67.5 103.27 67.54 103.49C67.59 103.71 67.61 103.95 67.61 104.17C67.61 105.1 67.24 106 66.58 106.66C65.93 107.31 65.03 107.68 64.1 107.68C63.87 107.68 63.64 107.66 63.41 107.62C63.19 107.58 62.96 107.5 62.76 107.42C62.55 107.33 62.33 107.23 62.15 107.1C61.95 106.97 61.78 106.82 61.61 106.66C60.96 106 60.59 105.1 60.59 104.17C60.59 103.24 60.96 102.35 61.61 101.69C62.92 100.38 65.27 100.38 66.58 101.69C66.74 101.85 66.89 102.03 67.02 102.22C67.15 102.41 67.25 102.61 67.34 102.83ZM133.12 106.88L104.72 123.28C104.22 123.57 103.66 123.72 103.08 123.72C102.14 123.72 101.24 123.31 100.62 122.61C100.19 122.13 99.71 121.61 99.2 121.09V123.32C99.2 128.6 94.91 132.89 89.63 132.89H80.06C78.3 132.89 76.87 131.46 76.87 129.7C76.87 127.94 78.3 126.51 80.06 126.51H89.63C91.39 126.51 92.82 125.08 92.82 123.32V115.54C92.67 115.42 92.52 115.3 92.36 115.19C88.92 112.61 84.8 109.95 80.11 107.26C79.13 106.7 78.16 106.16 77.21 105.64C73.23 103.47 70.52 99.19 70.47 95C70.45 93.14 70.95 91.3899 71.93 89.9299V89.89L72.23 89.5C72.72 88.85 73.37 88.2299 74.13 87.6799C74.83 87.1099 75.54 86.67 76.23 86.36L61.26 62.03C60.08 60 59.65 57.77 60.02 55.73C60.44 53.44 61.82 51.51 63.89 50.31C65.32 49.48 70.34 47.29 74.97 53.59L85.02 67.72C85.67 66.96 86.45 66.3 87.32 65.8C88.96 64.85 90.91 64.47 92.82 64.72V27.58C92.82 25.82 91.39 24.39 89.63 24.39H38.57V24.38C37.72 24.38 36.92 24.71 36.31 25.31C35.71 25.91 35.38 26.71 35.38 27.57V123.32C35.38 125.08 36.81 126.51 38.57 126.51H60.9V116.94C60.9 115.18 62.33 113.75 64.09 113.75C65.85 113.75 67.28 115.18 67.28 116.94V126.51C67.28 130.03 64.42 132.89 60.9 132.89H38.57C33.29 132.89 29 128.6 29 123.32V27.57C29 25.01 30 22.61 31.8 20.8C33.61 18.99 36.01 18 38.57 18H89.63C94.91 18.01 99.2 22.31 99.2 27.58V62.2C100.99 61.46 102.91 61.33 104.78 61.83C105.96 62.15 107.07 62.71 108.02 63.48C108.37 63.17 108.76 62.89 109.16 62.66C112.56 60.69 117.27 61.96 119.24 65.36L128.12 80.74C131.55 86.68 132.03 90.53 132.49 94.25C132.8 96.76 133.12 99.35 134.52 102.83C135.12 104.33 134.52 106.08 133.12 106.89V106.88ZM127.48 102.58C126.56 99.66 126.28 97.34 126 95.1C125.6 91.87 125.22 88.83 122.45 84.03L113.57 68.65C113.51 68.55 113.32 68.4 113.05 68.33C112.78 68.26 112.54 68.29 112.44 68.35C112.29 68.44 112.15 68.64 112.09 68.87C112.03 69.09 112.05 69.33 112.14 69.48C113.04 71.05 112.5 73.05 110.94 73.96C109.38 74.86 107.37 74.32 106.47 72.77L104.42 69.22C104.13 68.71 103.66 68.35 103.09 68.2C102.53 68.05 101.94 68.12 101.43 68.42C100.92 68.71 100.56 69.18 100.41 69.75C100.26 70.32 100.33 70.91 100.63 71.41C101.48 72.88 101.04 74.78 99.64 75.74C99.56 75.8 99.5 75.85 99.43 75.88C97.96 76.73 96.08 76.3 95.11 74.93L95.02 74.81L93.58 72.32C93.34 71.91 92.98 71.59 92.52 71.4C91.88 71.14 91.17 71.17 90.58 71.51C90.08 71.8 89.71 72.27 89.56 72.84C89.41 73.41 89.49 74 89.78 74.5C90.66 76.02 90.19 77.95 88.72 78.89C87.24 79.83 85.29 79.46 84.28 78.04L69.65 57.47C68.16 55.44 67.48 55.83 67.16 56.02C66.75 56.26 66.52 56.55 66.45 56.94C66.36 57.44 66.51 58.09 66.87 58.72L85.73 89.36C86.19 90.1 86.33 90.98 86.13 91.83C85.93 92.68 85.41 93.4 84.66 93.86C83.12 94.81 81.1 94.32 80.15 92.79L79.71 92.0699C79.34 92.2099 78.96 92.39 78.59 92.59C78.47 92.68 78.34 92.77 78.2 92.85C77.37 93.33 76.99 93.99 77.01 94.95C77.03 96.76 78.46 98.8999 80.33 99.9199C81.32 100.46 82.33 101.02 83.35 101.61C86.94 103.66 90.27 105.75 93.24 107.8C95.6 109.43 97.77 111.08 99.68 112.68C101.16 113.92 102.51 115.15 103.69 116.34L127.47 102.61L127.48 102.58Z" fill="url(#paint0_linear_2613_117)"></path>
<defs>
<linearGradient id="paint0_linear_2613_117" x1="16.78" y1="40.79" x2="110.2" y2="109.23" gradientUnits="userSpaceOnUse">
<stop offset="0.22" stop-color="#00CB78"></stop>
<stop offset="0.83" stop-color="#00C3D0"></stop>
</linearGradient>
</defs>
</svg>