<svg width="150" height="150" viewBox="0 0 150 150" fill="none" xmlns="http://www.w3.org/2000/svg">
<path d="M28.4692 134.4H122.009C124.739 134.4 127.329 133.22 129.129 131.17C130.909 129.15 131.719 126.46 131.369 123.81C128.379 101.08 111.959 82.8801 90.7492 76.8101C100.259 71.3901 106.689 61.17 106.689 49.46C106.689 32.11 92.5792 18 75.2292 18C57.8792 18 43.7692 32.11 43.7692 49.46C43.7692 66.81 57.8792 80.92 75.2292 80.92C100.399 80.92 121.859 99.71 125.129 124.63C125.239 125.5 124.979 126.35 124.389 127.02C123.779 127.71 122.909 128.11 121.989 128.11H28.4692C27.5492 128.11 26.6792 127.71 26.0692 127.02C25.4792 126.35 25.2192 125.5 25.3292 124.63C26.7592 113.72 31.8692 103.41 39.6992 95.6C40.9292 94.37 40.9292 92.38 39.6992 91.15C38.4692 89.92 36.4792 89.92 35.2492 91.15C26.4392 99.93 20.6892 111.53 19.0792 123.82C18.7292 126.47 19.5492 129.16 21.3292 131.18C23.1292 133.23 25.7292 134.41 28.4492 134.41L28.4692 134.4ZM50.0792 49.46C50.0792 35.58 61.3692 24.29 75.2492 24.29C89.1292 24.29 100.419 35.58 100.419 49.46C100.419 63.34 89.1292 74.63 75.2492 74.63C61.3692 74.63 50.0792 63.34 50.0792 49.46ZM50.0792 87.52C49.1692 87.52 48.2792 87.15 47.6392 86.51C46.9992 85.87 46.6192 84.9701 46.6192 84.0601C46.6192 83.1501 46.9892 82.26 47.6392 81.62C48.9192 80.33 51.2492 80.33 52.5292 81.62C53.1792 82.26 53.5492 83.1501 53.5492 84.0601C53.5492 84.9701 53.1792 85.86 52.5292 86.51C52.3692 86.67 52.1892 86.8101 52.0092 86.9401C51.8192 87.0601 51.6192 87.17 51.4092 87.25C51.1992 87.33 50.9792 87.4101 50.7592 87.4501C50.5392 87.4901 50.3092 87.51 50.0892 87.51L50.0792 87.52Z" fill="url(#paint0_linear_2613_244)"></path>
<defs>
<linearGradient id="paint0_linear_2613_244" x1="29.0592" y1="44.4" x2="105.649" y2="132.05" gradientUnits="userSpaceOnUse">
<stop offset="0.22" stop-color="#00CB78"></stop>
<stop offset="0.83" stop-color="#00C3D0"></stop>
</linearGradient>
</defs>
</svg>