<svg width="150" height="150" viewBox="0 0 150 150" fill="none" xmlns="http://www.w3.org/2000/svg">
<path d="M75.74 102.57C75.61 102.38 75.47 102.2 75.31 102.04C74.01 100.74 71.68 100.74 70.38 102.04C69.74 102.69 69.37 103.59 69.37 104.5C69.37 105.41 69.74 106.32 70.38 106.97C70.55 107.13 70.72 107.28 70.92 107.4C71.1 107.53 71.31 107.63 71.52 107.72C71.72 107.8 71.94 107.88 72.16 107.92C72.39 107.96 72.61 107.98 72.85 107.98C73.77 107.98 74.66 107.61 75.31 106.97C75.96 106.32 76.33 105.42 76.33 104.5C76.33 104.28 76.31 104.05 76.26 103.82C76.22 103.6 76.15 103.38 76.06 103.17C75.98 102.96 75.87 102.76 75.74 102.57Z" fill="url(#paint0_linear_2613_120)"></path>
<path d="M113.45 40.65C112.12 40.67 110.29 41.24 109.17 41.97L107.66 43.22V28.51C107.66 23.27 103.4 19.01 98.16 19.01H47.49V19C44.95 19 42.57 19.99 40.78 21.78C38.99 23.57 38 25.96 38 28.5V123.5C38 128.74 42.26 133 47.5 133H69.66C73.15 133 75.99 130.16 75.99 126.67V117.17C75.99 115.42 74.57 114 72.82 114C71.07 114 69.65 115.42 69.65 117.17V126.67H47.49C45.74 126.67 44.32 125.25 44.32 123.5V28.5C44.32 27.65 44.65 26.86 45.25 26.26C45.85 25.66 46.64 25.33 47.49 25.33H98.16C99.91 25.34 101.33 26.76 101.33 28.51V48.44L77.38 68.17C74.2 72.16 72.54 77.3 70.1 81.78C69.44 84.25 71.08 85.88 73.58 85.48C76.53 85.02 81.45 83.6901 84.34 82.7701C86.34 82.1301 87.97 81.21 89.65 79.96C93.62 77.01 97.49 73.78 101.33 70.51V123.5C101.33 125.25 99.91 126.67 98.16 126.67H88.66C86.91 126.67 85.49 128.09 85.49 129.84C85.49 131.59 86.91 133.01 88.66 133.01H98.16C103.4 133.01 107.66 128.75 107.66 123.51V65.1201C111.7 61.6401 115.74 58.1701 119.85 54.9301C125.02 49.3801 121.08 40.52 113.45 40.66V40.65ZM115.48 51.33L107.66 57.73L101.33 62.91L84.61 76.59C82.53 77.62 80.19 78.01 77.93 78.51L81.01 72.57C87.7 66.86 94.49 61.24 101.33 55.67C103.43 53.95 105.55 52.25 107.66 50.56C109.35 49.2 111.03 47.81 112.73 46.47C115.82 45.52 117.91 49.11 115.47 51.34L115.48 51.33Z" fill="url(#paint1_linear_2613_120)"></path>
<defs>
<linearGradient id="paint0_linear_2613_120" x1="30.1999" y1="43.7794" x2="95.7106" y2="137.08" gradientUnits="userSpaceOnUse">
<stop offset="0.22" stop-color="#00CB78"></stop>
<stop offset="0.83" stop-color="#00C3D0"></stop>
</linearGradient>
<linearGradient id="paint1_linear_2613_120" x1="39.75" y1="28.9" x2="106.41" y2="123.84" gradientUnits="userSpaceOnUse">
<stop offset="0.22" stop-color="#00CB78"></stop>
<stop offset="0.83" stop-color="#00C3D0"></stop>
</linearGradient>
</defs>
</svg>