<svg width="150" height="150" viewBox="0 0 150 150" fill="none" xmlns="http://www.w3.org/2000/svg">
<path d="M134.102 70.5803C123.239 48.3604 100.045 34 75 34C49.955 34 26.7606 48.3604 15.8977 70.5803C14.7008 73.0358 14.7008 75.9642 15.8977 78.4197C26.7606 100.64 49.955 115 75 115C100.045 115 123.239 100.64 134.102 78.4197C135.299 75.9642 135.299 73.0358 134.102 70.5803ZM75 108.741C52.3287 108.741 31.3271 95.7589 21.5103 75.6724C21.1482 74.9378 21.1482 74.0622 21.5103 73.3276C31.3271 53.2411 52.3287 40.2594 75 40.2594C97.6713 40.2594 118.673 53.2411 128.49 73.3276C128.852 74.0622 128.852 74.9378 128.49 75.6724C118.673 95.7589 97.6713 108.741 75 108.741ZM93.3362 83.3809C92.8131 83.0187 92.1996 82.8274 91.5558 82.8274C90.5299 82.8274 89.5645 83.3306 88.9811 84.1759C85.8027 88.7648 80.5823 91.502 75.0101 91.502C65.6458 91.502 58.0218 83.874 58.0218 74.505C58.0218 65.136 65.6458 57.508 75.0101 57.508C80.5622 57.508 85.7725 60.2352 88.9509 64.7939C89.5343 65.6292 90.4896 66.1323 91.5156 66.1323C92.1593 66.1323 92.7729 65.9411 93.2959 65.5688C93.9799 65.0958 94.4426 64.3712 94.5834 63.5561C94.7343 62.7309 94.5431 61.9057 94.0704 61.2214C89.7252 54.9821 82.594 51.2587 75 51.2587C62.1858 51.2587 51.7656 61.6843 51.7656 74.505C51.7656 87.3258 62.1858 97.7514 75 97.7514C82.6141 97.7514 89.7555 94.0078 94.1107 87.7384C95.0964 86.3194 94.7443 84.3671 93.3261 83.391L93.3362 83.3809ZM95.1266 71.1237C94.2012 71.1237 93.3262 71.476 92.7127 72.0798C92.5518 72.2408 92.4108 72.4119 92.2901 72.593C92.1694 72.7842 92.0589 72.9754 91.9785 73.1867C91.898 73.3679 91.8274 73.5893 91.7872 73.8308C91.7369 74.022 91.7169 74.2534 91.7169 74.495C91.7169 74.7365 91.7369 74.9679 91.7872 75.1793C91.8274 75.4007 91.898 75.6221 91.9885 75.8233C92.079 76.0447 92.1794 76.2359 92.3001 76.407C92.4208 76.5881 92.5618 76.7693 92.7228 76.9202C93.3564 77.5542 94.2314 77.9165 95.1366 77.9165C95.3579 77.9165 95.5791 77.8964 95.8004 77.8561C96.0016 77.8159 96.2129 77.7555 96.4342 77.6549C96.6555 77.5643 96.8567 77.4637 97.0277 77.3429C97.2188 77.2222 97.3896 77.0712 97.5405 76.9303C97.7014 76.7693 97.8424 76.5881 97.9731 76.407C98.0838 76.2359 98.1844 76.0447 98.285 75.8233C98.3856 75.5818 98.4459 75.3705 98.4861 75.1793C98.5263 74.9679 98.5463 74.7365 98.5463 74.505C98.5463 73.6094 98.1842 72.7238 97.5505 72.0898C96.947 71.486 96.062 71.1338 95.1366 71.1338L95.1266 71.1237Z" fill="url(#paint0_linear_2613_73)"></path>
<defs>
<linearGradient id="paint0_linear_2613_73" x1="18.362" y1="43.3287" x2="123.536" y2="101.158" gradientUnits="userSpaceOnUse">
<stop offset="0.22" stop-color="#00CB78"></stop>
<stop offset="0.83" stop-color="#00C3D0"></stop>
</linearGradient>
</defs>
</svg>