<svg width="150" height="150" viewBox="0 0 150 150" fill="none" xmlns="http://www.w3.org/2000/svg">
<path d="M131.58 84.49C129.96 84.13 128.36 85.16 128 86.78C127.52 88.95 126.91 91.0701 126.18 93.1301H98.08C98.77 87.3801 99.13 81.3301 99.13 75.1301C99.13 68.9301 98.7701 62.8301 98.0701 57.0601H126.15C126.89 59.1301 127.51 61.27 127.99 63.45C128.35 65.07 129.95 66.09 131.57 65.74C133.19 65.38 134.22 63.7799 133.86 62.1599C127.85 34.8299 103.15 15 75.13 15C41.98 15 15 41.9701 15 75.1301C15 108.29 41.97 135.26 75.13 135.26C103.16 135.26 127.86 115.42 133.86 88.0801C134.22 86.4601 133.19 84.85 131.57 84.5L131.58 84.49ZM93.24 75.1201C93.24 81.5501 92.85 87.5801 92.16 93.1201H58.12C57.43 87.5801 57.04 81.5501 57.04 75.1201C57.04 68.6901 57.44 62.61 58.13 57.05H92.16C92.85 62.61 93.25 68.6601 93.25 75.1201H93.24ZM76.02 129.22C75.73 129.22 75.43 129.24 75.14 129.24C74.85 129.24 74.54 129.22 74.24 129.22C68.31 128.16 62.09 116.77 59.01 99.1401H91.27C88.19 116.78 81.96 128.18 76.02 129.22ZM21.03 75.1201C21.03 68.7801 22.13 62.7 24.14 57.05H52.21C51.52 62.82 51.15 68.9001 51.15 75.1201C51.15 81.3401 51.5101 87.3801 52.2001 93.1201H24.12C22.13 87.4801 21.03 81.4301 21.03 75.1201ZM74.24 21.03C74.54 21.03 74.84 21.01 75.14 21.01C75.44 21.01 75.73 21.02 76.02 21.03C81.95 22.07 88.17 33.44 91.26 51.04H59.02C62.1 33.45 68.32 22.09 74.24 21.03ZM123.58 51.04H97.21C96.15 44.68 94.66 38.82 92.78 33.72C91.08 29.1 89.1101 25.2901 86.9301 22.3401C102.77 25.9301 116.32 36.57 123.58 51.05V51.04ZM63.36 22.3201C61.18 25.2801 59.2 29.09 57.5 33.72C55.62 38.82 54.1301 44.69 53.0701 51.04H26.7001C33.8801 36.65 47.28 25.9001 63.36 22.3201ZM26.67 99.1401H53.0601C54.1201 105.52 55.61 111.41 57.5 116.53C59.2 121.15 61.18 124.97 63.36 127.93C47.26 124.34 33.84 113.56 26.67 99.1401ZM86.9401 127.92C89.1101 124.96 91.09 121.15 92.79 116.54C94.68 111.42 96.17 105.53 97.23 99.1501H123.62C116.37 113.66 102.81 124.33 86.9401 127.92ZM135.5 74.48C135.55 74.69 135.57 74.9101 135.57 75.1301C135.57 75.3501 135.55 75.56 135.5 75.77C135.46 75.98 135.4 76.1901 135.31 76.3901C135.23 76.5901 135.13 76.78 135.01 76.96C134.89 77.14 134.75 77.31 134.6 77.46C133.99 78.07 133.14 78.4299 132.26 78.4299C132.04 78.4299 131.83 78.4001 131.61 78.3601C131.4 78.3201 131.19 78.2499 131 78.1699C130.8 78.0899 130.6 77.9901 130.43 77.8701C130.24 77.7501 130.08 77.61 129.92 77.46C129.77 77.31 129.63 77.14 129.51 76.96C129.39 76.78 129.29 76.5901 129.21 76.3901C129.13 76.1901 129.06 75.98 129.02 75.77C128.98 75.56 128.96 75.3401 128.96 75.1301C128.96 74.9101 128.98 74.69 129.02 74.48C129.06 74.27 129.13 74.0601 129.21 73.8601C129.29 73.6601 129.39 73.47 129.51 73.29C129.63 73.11 129.77 72.94 129.92 72.79C131.15 71.56 133.37 71.56 134.6 72.79C134.75 72.94 134.89 73.11 135.01 73.29C135.13 73.47 135.23 73.6601 135.31 73.8601C135.4 74.0601 135.46 74.27 135.5 74.48Z" fill="url(#paint0_linear_2613_328)"></path>
<defs>
<linearGradient id="paint0_linear_2613_328" x1="31.1" y1="17.72" x2="104.21" y2="113.06" gradientUnits="userSpaceOnUse">
<stop offset="0.22" stop-color="#00CB78"></stop>
<stop offset="0.83" stop-color="#00C3D0"></stop>
</linearGradient>
</defs>
</svg>