<svg width="150" height="150" viewBox="0 0 150 150" fill="none" xmlns="http://www.w3.org/2000/svg">
<path d="M57.9911 56.96C57.3211 55.68 56.1911 54.7401 54.8011 54.3101C53.4211 53.8801 51.9511 54.0202 50.6711 54.6902C48.8311 55.6602 47.7211 57.5501 47.7811 59.6301C47.7911 59.7401 47.8011 59.85 47.8011 59.97C48.3111 80.68 65.5911 97.52 86.3111 97.52C89.5811 97.52 92.8312 97.11 95.9712 96.29C98.3112 95.66 99.9612 93.5101 99.9612 91.0601C99.9612 88.0701 97.5311 85.6401 94.5411 85.6401C91.5511 85.6401 89.1211 88.0701 89.1211 91.0601C89.1211 92.7101 87.7811 94.04 86.1411 94.04C84.5011 94.04 83.1611 92.7001 83.1611 91.0601C83.1611 84.7801 88.2711 79.6802 94.5411 79.6802C100.811 79.6802 105.921 84.7901 105.921 91.0601C105.921 96.2101 102.451 100.73 97.4911 102.05C93.8411 103 90.0811 103.47 86.3111 103.47C74.6211 103.47 63.5812 98.9701 55.2212 90.8101C46.8812 82.6601 42.1211 71.7501 41.8311 60.1101V59.9001C41.8311 59.9001 41.8211 59.82 41.8211 59.79C41.7011 55.42 44.0311 51.4402 47.9011 49.4102C50.5911 48.0002 53.6711 47.7101 56.5711 48.6101C59.4711 49.5101 61.8511 51.4902 63.2711 54.1802C66.1911 59.7302 64.0511 66.63 58.4911 69.55C57.0311 70.32 55.2312 69.76 54.4612 68.3C53.6912 66.84 54.2512 65.04 55.7112 64.27C58.3512 62.88 59.3712 59.6 57.9812 56.96H57.9911ZM130.641 85.96C129.031 85.61 127.441 86.62 127.091 88.23C121.731 112.64 99.6811 130.35 74.6511 130.35C64.3411 130.35 54.3211 127.42 45.6911 121.87C44.9211 121.38 43.9711 121.26 43.1111 121.56L22.7811 128.53L29.7511 108.2C30.0511 107.34 29.9311 106.39 29.4411 105.62C23.9011 96.9801 20.9712 86.9702 20.9712 76.6602C20.9712 47.0602 45.0511 22.97 74.6611 22.97C99.6811 22.97 121.731 40.6801 127.091 65.0701C127.441 66.6801 129.041 67.6901 130.641 67.3401C132.251 66.9901 133.271 65.4 132.911 63.79C126.951 36.68 102.451 17 74.6511 17C41.7611 17 15.0011 43.7601 15.0011 76.6501C15.0011 87.6201 17.9911 98.2901 23.6511 107.6L15.1611 132.35C14.7911 133.43 15.0711 134.62 15.8711 135.43C16.4411 136 17.2012 136.3 17.9812 136.3C18.3012 136.3 18.6311 136.25 18.9511 136.14L43.7011 127.65C53.0111 133.31 63.6811 136.3 74.6511 136.3C102.461 136.3 126.961 116.61 132.921 89.49C133.271 87.88 132.251 86.2902 130.651 85.9402L130.641 85.96ZM134.341 75.4202C134.261 75.2202 134.161 75.0301 134.041 74.8501C133.921 74.6701 133.781 74.5001 133.631 74.3501C132.861 73.5801 131.741 73.24 130.671 73.46C130.461 73.5 130.251 73.5701 130.051 73.6501C129.851 73.7301 129.661 73.8302 129.481 73.9502C129.301 74.0702 129.141 74.2101 128.981 74.3601C128.831 74.5101 128.691 74.6801 128.571 74.8601C128.451 75.0401 128.351 75.2302 128.271 75.4302C128.191 75.6302 128.121 75.84 128.081 76.05C128.041 76.26 128.021 76.4802 128.021 76.7002C128.021 76.9202 128.041 77.1301 128.081 77.3401C128.121 77.5501 128.191 77.76 128.271 77.96C128.351 78.16 128.451 78.35 128.571 78.53C128.691 78.71 128.831 78.88 128.981 79.03C129.141 79.18 129.301 79.3202 129.481 79.4402C129.661 79.5602 129.851 79.66 130.051 79.74C130.251 79.82 130.461 79.8902 130.671 79.9302C130.881 79.9702 131.101 80 131.321 80C131.541 80 131.751 79.9702 131.961 79.9302C132.171 79.8902 132.381 79.82 132.581 79.74C132.781 79.66 132.971 79.5602 133.151 79.4402C133.331 79.3202 133.501 79.18 133.651 79.03C133.801 78.88 133.941 78.71 134.061 78.53C134.181 78.35 134.281 78.16 134.361 77.96C134.451 77.76 134.511 77.5501 134.551 77.3401C134.591 77.1301 134.621 76.9102 134.621 76.7002C134.621 76.4802 134.591 76.26 134.551 76.05C134.511 75.84 134.451 75.6302 134.361 75.4302L134.341 75.4202Z" fill="url(#paint0_linear_2613_331)"></path>
<defs>
<linearGradient id="paint0_linear_2613_331" x1="28.3411" y1="27.63" x2="94.9211" y2="126.5" gradientUnits="userSpaceOnUse">
<stop offset="0.22" stop-color="#00CB78"></stop>
<stop offset="0.83" stop-color="#00C3D0"></stop>
</linearGradient>
</defs>
</svg>