<svg width="150" height="150" viewBox="0 0 150 150" fill="none" xmlns="http://www.w3.org/2000/svg">
<path d="M134.605 109.35C133.965 104.59 131.885 100.52 128.415 97.26C124.235 93.33 119.445 91.33 114.185 91.33C112.325 91.33 110.385 91.58 108.415 92.08C100.375 94.12 94.2846 101.02 93.1146 109.33C92.6946 109.33 92.2846 109.33 91.8846 109.33C91.5546 109.33 91.2146 109.33 90.8846 109.33C90.8946 107.37 90.9047 105.29 90.8947 102.81C90.8947 102.36 90.8746 101.82 90.7646 101.28C90.2646 98.93 88.2747 97.35 85.8147 97.35H76.5946H65.6747H56.5146H51.9147H47.3147C45.5247 97.35 43.7346 97.35 41.9546 97.35C39.2646 97.35 37.0946 99.4 37.0046 102.02C36.9446 103.74 36.9446 105.49 36.9546 107.18C36.9546 107.85 36.9546 108.52 36.9546 109.18C36.6646 109.15 36.3846 109.11 36.1146 109.06C29.1546 107.81 23.7946 102.07 23.0846 95.1C22.6046 90.46 23.8846 86.36 26.8946 82.91C30.0146 79.33 33.9747 77.47 38.6547 77.39C40.2847 77.36 42.0146 77.35 44.2346 77.35C45.3146 77.35 46.3946 77.35 47.4746 77.35C48.5546 77.35 49.6346 77.35 50.7146 77.35H50.9447V79.4399C50.9447 81.0899 50.9447 82.73 50.9447 84.38C50.9547 86.95 52.8747 89.06 55.4047 89.3C55.7847 89.34 56.1747 89.35 56.6947 89.35C56.9247 89.35 57.1446 89.35 57.3746 89.35C57.5946 89.35 57.8147 89.35 58.0247 89.35H87.1647H96.2947H97.4546H98.6547C99.0447 89.35 99.4247 89.35 99.8147 89.35C102.705 89.33 104.835 87.23 104.875 84.34C104.885 83.51 104.875 82.68 104.875 81.85V80.77V77.87V77.34H105.265H107.325H109.385C110.715 77.34 112.045 77.34 113.375 77.33C117.225 77.3 120.775 76.29 123.925 74.34C131.945 69.37 135.555 62.1 134.645 52.75C134.155 47.67 131.895 43.19 127.925 39.45C124.275 36.01 119.875 34.02 114.835 33.54V33.02C114.845 30.82 114.865 28.55 114.815 26.31C114.755 23.43 112.685 21.42 109.775 21.42H96.1246C86.0546 21.42 75.9847 21.42 65.9147 21.42C65.3947 21.42 64.8747 21.49 64.4147 21.62C62.3047 22.23 60.9347 24.13 60.9047 26.47C60.9047 27.18 60.9047 27.9 60.9047 28.61C60.9047 28.99 60.9047 29.38 60.9047 29.76V30.26C60.9047 31.31 60.9047 32.35 60.9047 33.4C60.5347 33.4 60.1647 33.4 59.7947 33.4H59.7546V32.71C59.7246 31.56 58.9746 30.55 57.8846 30.18L53.8446 28.84C53.7046 28.6 53.5647 28.36 53.4147 28.13L54.1847 24.08C54.4047 22.94 53.8646 21.79 52.8646 21.22L46.1046 17.38C45.6946 17.15 45.2346 17.03 44.7646 17.03C44.1046 17.03 43.4646 17.27 42.9646 17.71L39.8846 20.44C39.7346 20.44 39.5947 20.44 39.4447 20.44C39.3147 20.44 39.1847 20.44 39.0547 20.44L35.8446 17.66C35.3546 17.23 34.7246 17 34.0746 17C33.6046 17 33.1346 17.12 32.7246 17.36L26.0946 21.16C25.0546 21.75 24.5347 22.94 24.7947 24.1L25.7246 28.24L25.4347 28.75L21.4047 30.08C20.2647 30.45 19.5247 31.51 19.5447 32.7L19.6747 40.34C19.6947 41.49 20.4447 42.51 21.5347 42.87L25.5746 44.2C25.7146 44.44 25.8546 44.68 26.0046 44.91L25.2346 48.96C25.0146 50.1 25.5547 51.25 26.5547 51.82L33.3147 55.66C33.7247 55.89 34.1847 56.01 34.6547 56.01C35.3147 56.01 35.9546 55.77 36.4546 55.33L39.5347 52.6C39.6847 52.6 39.8246 52.6 39.9746 52.6C40.1046 52.6 40.2346 52.6 40.3646 52.6L43.5746 55.38C44.0646 55.81 44.6946 56.04 45.3446 56.04C45.8146 56.04 46.2847 55.92 46.6947 55.68L53.3246 51.88C54.3646 51.29 54.8846 50.1 54.6246 48.94L53.6947 44.8L53.9846 44.29L58.0146 42.96C59.1546 42.59 59.8946 41.53 59.8746 40.34L59.8546 39.38H60.9147C60.9147 40 60.9147 40.61 60.9147 41.23C60.9147 42.79 60.9146 44.39 60.8946 45.97C60.8646 47.51 61.3846 48.91 62.3546 49.89C63.3046 50.85 64.6147 51.38 66.0647 51.38C66.1447 51.38 66.2346 51.38 66.3246 51.38C67.2446 51.34 68.2347 51.32 69.4447 51.32C70.2547 51.32 71.0646 51.32 71.8746 51.34C72.6846 51.34 73.5047 51.36 74.3147 51.36H75.8546H109.915C112.595 51.36 114.745 49.29 114.805 46.64C114.845 44.95 114.845 43.24 114.855 41.59C114.855 40.9 114.855 40.21 114.855 39.52C119.135 40.11 122.645 42.07 125.275 45.36C128.425 49.28 129.495 53.79 128.455 58.74C127.565 62.96 125.215 66.34 121.475 68.78C119.005 70.39 116.365 71.24 113.615 71.3C111.605 71.35 109.555 71.35 107.565 71.35C106.655 71.35 105.755 71.35 104.845 71.35C104.845 69.01 104.865 66.6 104.845 64.22C104.825 61.7 102.915 59.62 100.405 59.38C99.9847 59.34 99.5846 59.33 99.2446 59.33H98.8646H98.4946H80.1346H60.1446C59.5446 59.33 58.9446 59.33 58.3546 59.32C57.7446 59.32 57.1347 59.31 56.5247 59.31H56.1046C53.1146 59.32 50.9447 61.5 50.9347 64.47C50.9347 66.75 50.9347 69.04 50.9347 71.32H49.1747H47.8346H46.4946C43.9346 71.32 40.9447 71.32 38.0347 71.36C36.9047 71.37 35.7046 71.52 34.3746 71.81C29.9646 72.75 26.1846 74.86 23.1446 78.08C18.2146 83.3 16.2346 89.5599 17.2646 96.6899C17.9846 101.64 20.2946 105.93 24.1246 109.46C27.2746 112.36 31.0247 114.19 35.2747 114.91C35.8247 115 36.3847 115.07 36.9247 115.14V116.48C36.9247 118.05 36.9247 119.62 36.9247 121.2C36.9247 121.86 36.9346 122.61 37.0946 123.35C37.6246 125.76 39.6147 127.26 42.2847 127.26H62.4646C70.1946 127.26 77.9247 127.26 85.6547 127.26C87.1747 127.26 88.4847 126.75 89.4447 125.78C90.3947 124.82 90.9147 123.45 90.9047 121.93C90.8947 120.61 90.9047 119.29 90.9047 117.97C90.9047 117.07 90.9047 116.17 90.9047 115.26C91.1647 115.26 91.4147 115.26 91.6747 115.26C92.1547 115.26 92.6346 115.26 93.1146 115.26C93.1646 115.6 93.2247 115.94 93.2847 116.26C94.1047 120.51 96.0347 124.16 99.0347 127.09C103.215 131.18 108.135 133.25 113.665 133.25C114.855 133.25 116.085 133.15 117.325 132.96C121.955 132.24 125.935 130.11 129.155 126.63C133.675 121.74 135.515 115.91 134.625 109.31L134.605 109.35ZM113.965 127.3H113.875C109.845 127.3 106.045 125.71 103.195 122.82C100.375 119.97 98.8446 116.24 98.8846 112.32C98.8446 108.44 100.415 104.61 103.215 101.78C106.055 98.91 109.835 97.3199 113.865 97.3199H113.975C122.145 97.3799 128.815 104.11 128.845 112.33C128.875 120.39 122.055 127.24 113.965 127.29V127.3ZM42.9447 103.53V103.31H51.3446H67.1947C73.0947 103.31 78.9846 103.31 84.8846 103.31C84.8746 107.57 84.8646 111.83 84.8646 116.09V118.93V121.31H78.1346C66.4046 121.31 54.6746 121.31 42.9546 121.31C42.9546 116.53 42.9546 111.79 42.9546 107.04V103.52L42.9447 103.53ZM56.9347 83.3199V65.4H98.8546V83.3199H56.9347ZM108.855 27.43V31.27L108.835 45.39H77.4946H77.0247H70.3546H66.8946L66.8246 36.38L66.7546 27.42H108.855V27.43ZM51.2947 39.49C50.6547 39.7 50.1147 40.14 49.7847 40.73L48.4646 43.06C48.1346 43.65 48.0247 44.33 48.1747 44.99L48.8946 48.2L45.6647 50.05L43.0746 47.8C42.5846 47.37 41.9547 47.14 41.3047 47.14C41.2147 47.14 41.1247 47.14 41.0347 47.15C40.6847 47.18 40.3246 47.2 39.9646 47.2C39.6046 47.2 39.2146 47.18 38.8446 47.14C38.7546 47.14 38.6647 47.13 38.5647 47.13C37.9047 47.13 37.2646 47.37 36.7646 47.81L34.2947 50.01L30.9047 48.08L31.5247 44.83C31.6647 44.09 31.4847 43.31 31.0347 42.71C30.5947 42.12 30.2247 41.49 29.9147 40.83C29.5947 40.16 29.0147 39.64 28.3147 39.41L25.0547 38.33L24.9946 34.61L28.1246 33.58C28.7646 33.37 29.3046 32.93 29.6346 32.34L30.9546 30.01C31.2846 29.42 31.3946 28.74 31.2446 28.08L30.5247 24.87L33.7546 23.02L36.3446 25.27C36.8346 25.7 37.4646 25.93 38.1146 25.93C38.2046 25.93 38.2946 25.93 38.3746 25.92C38.7246 25.89 39.0847 25.87 39.4447 25.87C39.8047 25.87 40.1947 25.89 40.5647 25.93C40.6547 25.93 40.7446 25.94 40.8346 25.94C41.4946 25.94 42.1346 25.7 42.6346 25.26L45.1146 23.06L48.5046 24.99L47.8846 28.24C47.7446 28.98 47.9246 29.76 48.3746 30.36C48.8146 30.95 49.1946 31.58 49.4946 32.24C49.8146 32.91 50.3946 33.43 51.0946 33.66L54.3546 34.74L54.4147 38.46L51.2847 39.49H51.2947ZM123.675 105.98C123.385 105.12 122.675 104.47 121.775 104.25C121.545 104.19 121.305 104.17 121.085 104.17C120.515 104.17 119.675 104.36 118.935 105.25L116.535 108.13L114.525 110.53L112.315 113.19L111.865 113.73L111.325 113.19C110.395 112.25 109.425 111.28 108.445 110.34C107.945 109.86 107.285 109.59 106.605 109.59C105.545 109.59 104.575 110.23 104.135 111.21C103.645 112.31 103.885 113.43 104.815 114.38C106.505 116.09 108.205 117.79 109.915 119.48C110.595 120.16 111.315 120.5 112.055 120.5C112.875 120.5 113.645 120.08 114.335 119.25L117.765 115.14L120.365 112.01C120.665 111.65 120.965 111.29 121.265 110.93C121.895 110.18 122.525 109.42 123.155 108.66C123.785 107.89 123.975 106.88 123.665 105.98H123.675ZM39.6547 33.67C39.4047 33.67 39.1647 33.7 38.9347 33.77C38.1947 33.98 37.5647 34.47 37.1947 35.13C36.8247 35.78 36.7247 36.58 36.9147 37.31C36.9847 37.53 37.0446 37.7 37.1246 37.85C37.1946 37.99 37.3047 38.17 37.4347 38.33C37.5447 38.47 37.6747 38.61 37.8147 38.73C37.9647 38.86 38.1147 38.96 38.2747 39.05C38.4347 39.14 38.6047 39.22 38.7847 39.28C38.9547 39.34 39.1246 39.38 39.3346 39.4C39.4546 39.42 39.5846 39.43 39.7046 39.43C39.7746 39.43 39.8347 39.43 39.9047 39.43C40.0847 39.42 40.2746 39.38 40.4546 39.33C41.1846 39.13 41.8247 38.64 42.1947 37.98C42.5747 37.32 42.6646 36.52 42.4646 35.79C42.1346 34.57 40.9446 33.68 39.6446 33.68L39.6547 33.67ZM75.6547 33.67C75.4047 33.67 75.1647 33.7 74.9347 33.77C74.1947 33.98 73.5647 34.47 73.1947 35.13C72.8247 35.78 72.7247 36.58 72.9147 37.31C72.9847 37.53 73.0446 37.7 73.1246 37.85C73.1946 37.99 73.3047 38.17 73.4347 38.33C73.5447 38.47 73.6747 38.61 73.8147 38.73C73.9647 38.86 74.1147 38.96 74.2747 39.05C74.4347 39.14 74.6047 39.22 74.7847 39.28C74.9547 39.34 75.1246 39.38 75.3346 39.4C75.4546 39.42 75.5846 39.43 75.7046 39.43C75.7746 39.43 75.8347 39.43 75.9047 39.43C76.0847 39.42 76.2746 39.38 76.4546 39.33C77.1846 39.13 77.8247 38.64 78.1947 37.98C78.5747 37.32 78.6646 36.52 78.4646 35.79C78.1346 34.57 76.9446 33.68 75.6446 33.68L75.6547 33.67ZM87.6547 33.67C87.4047 33.67 87.1647 33.7 86.9347 33.77C86.1947 33.98 85.5647 34.47 85.1947 35.13C84.8247 35.78 84.7247 36.58 84.9147 37.31C84.9847 37.53 85.0446 37.7 85.1246 37.85C85.1946 37.99 85.3047 38.17 85.4347 38.33C85.5447 38.47 85.6747 38.61 85.8147 38.73C85.9647 38.86 86.1147 38.96 86.2747 39.05C86.4347 39.14 86.6047 39.22 86.7847 39.28C86.9547 39.34 87.1246 39.38 87.3346 39.4C87.4546 39.42 87.5846 39.43 87.7046 39.43C87.7746 39.43 87.8347 39.43 87.9047 39.43C88.0847 39.42 88.2746 39.38 88.4546 39.33C89.1846 39.13 89.8247 38.64 90.1947 37.98C90.5747 37.32 90.6646 36.52 90.4646 35.79C90.1346 34.57 88.9447 33.68 87.6447 33.68L87.6547 33.67ZM99.6547 33.67C99.4047 33.67 99.1647 33.7 98.9347 33.77C98.1947 33.98 97.5647 34.47 97.1947 35.13C96.8247 35.78 96.7247 36.58 96.9147 37.31C96.9847 37.53 97.0446 37.7 97.1246 37.85C97.1946 37.99 97.3047 38.17 97.4347 38.33C97.5447 38.47 97.6747 38.61 97.8147 38.73C97.9647 38.86 98.1147 38.96 98.2747 39.05C98.4347 39.14 98.6047 39.22 98.7847 39.28C98.9547 39.34 99.1246 39.38 99.3346 39.4C99.4546 39.42 99.5846 39.43 99.7046 39.43C99.7746 39.43 99.8347 39.43 99.9047 39.43C100.085 39.42 100.275 39.38 100.455 39.33C101.185 39.13 101.825 38.64 102.195 37.98C102.575 37.32 102.665 36.52 102.465 35.79C102.135 34.57 100.945 33.68 99.6447 33.68L99.6547 33.67ZM65.6547 71.67C65.4047 71.67 65.1647 71.7 64.9347 71.77C64.1947 71.98 63.5647 72.47 63.1947 73.13C62.8247 73.78 62.7247 74.58 62.9147 75.31C62.9847 75.53 63.0446 75.7 63.1246 75.85C63.1946 75.99 63.3047 76.17 63.4347 76.33C63.5447 76.47 63.6747 76.61 63.8147 76.73C63.9647 76.86 64.1147 76.96 64.2747 77.05C64.4347 77.14 64.6047 77.22 64.7847 77.28C64.9547 77.34 65.1246 77.38 65.3346 77.4C65.4546 77.42 65.5846 77.43 65.7046 77.43C65.7746 77.43 65.8347 77.43 65.9047 77.43C66.0847 77.42 66.2746 77.38 66.4546 77.33C67.1846 77.13 67.8247 76.64 68.1947 75.98C68.5747 75.32 68.6646 74.52 68.4646 73.79C68.1346 72.57 66.9446 71.68 65.6446 71.68L65.6547 71.67ZM77.6547 71.67C77.4047 71.67 77.1647 71.7 76.9347 71.77C76.1947 71.98 75.5647 72.47 75.1947 73.13C74.8247 73.78 74.7247 74.58 74.9147 75.31C74.9847 75.53 75.0446 75.7 75.1246 75.85C75.1946 75.99 75.3047 76.17 75.4347 76.33C75.5447 76.47 75.6747 76.61 75.8147 76.73C75.9647 76.86 76.1147 76.96 76.2747 77.05C76.4347 77.14 76.6047 77.22 76.7847 77.28C76.9547 77.34 77.1246 77.38 77.3346 77.4C77.4546 77.42 77.5846 77.43 77.7046 77.43C77.7746 77.43 77.8347 77.43 77.9047 77.43C78.0847 77.42 78.2746 77.38 78.4546 77.33C79.1846 77.13 79.8247 76.64 80.1947 75.98C80.5747 75.32 80.6646 74.52 80.4646 73.79C80.1346 72.57 78.9446 71.68 77.6446 71.68L77.6547 71.67ZM89.6547 71.67C89.4047 71.67 89.1647 71.7 88.9347 71.77C88.1947 71.98 87.5647 72.47 87.1947 73.13C86.8247 73.78 86.7247 74.58 86.9147 75.31C86.9847 75.53 87.0446 75.7 87.1246 75.85C87.1946 75.99 87.3047 76.17 87.4347 76.33C87.5447 76.47 87.6747 76.61 87.8147 76.73C87.9647 76.86 88.1147 76.96 88.2747 77.05C88.4347 77.14 88.6047 77.22 88.7847 77.28C88.9547 77.34 89.1246 77.38 89.3346 77.4C89.4546 77.42 89.5846 77.43 89.7046 77.43C89.7746 77.43 89.8347 77.43 89.9047 77.43C90.0847 77.42 90.2746 77.38 90.4546 77.33C91.1846 77.13 91.8247 76.64 92.1947 75.98C92.5747 75.32 92.6646 74.52 92.4646 73.79C92.1346 72.57 90.9447 71.68 89.6447 71.68L89.6547 71.67ZM51.6547 109.67C51.4047 109.67 51.1647 109.7 50.9347 109.77C50.1947 109.98 49.5647 110.47 49.1947 111.13C48.8247 111.78 48.7247 112.58 48.9147 113.31C48.9847 113.53 49.0446 113.7 49.1246 113.85C49.1946 113.99 49.3047 114.17 49.4347 114.33C49.5447 114.47 49.6747 114.61 49.8147 114.73C49.9647 114.86 50.1147 114.96 50.2747 115.05C50.4347 115.14 50.6047 115.22 50.7847 115.28C50.9547 115.34 51.1246 115.38 51.3346 115.4C51.4546 115.42 51.5846 115.43 51.7046 115.43C51.7746 115.43 51.8347 115.43 51.9047 115.43C52.0847 115.42 52.2746 115.38 52.4546 115.33C53.1846 115.13 53.8247 114.64 54.1947 113.98C54.5747 113.32 54.6646 112.52 54.4646 111.79C54.1346 110.57 52.9446 109.68 51.6446 109.68L51.6547 109.67ZM63.6547 109.67C63.4047 109.67 63.1647 109.7 62.9347 109.77C62.1947 109.98 61.5647 110.47 61.1947 111.13C60.8247 111.78 60.7247 112.58 60.9147 113.31C60.9847 113.53 61.0446 113.7 61.1246 113.85C61.1946 113.99 61.3047 114.17 61.4347 114.33C61.5447 114.47 61.6747 114.61 61.8147 114.73C61.9647 114.86 62.1147 114.96 62.2747 115.05C62.4347 115.14 62.6047 115.22 62.7847 115.28C62.9547 115.34 63.1246 115.38 63.3346 115.4C63.4546 115.42 63.5846 115.43 63.7046 115.43C63.7746 115.43 63.8347 115.43 63.9047 115.43C64.0847 115.42 64.2746 115.38 64.4546 115.33C65.1846 115.13 65.8247 114.64 66.1947 113.98C66.5747 113.32 66.6646 112.52 66.4646 111.79C66.1346 110.57 64.9446 109.68 63.6446 109.68L63.6547 109.67ZM75.6547 109.67C75.4047 109.67 75.1647 109.7 74.9347 109.77C74.1947 109.98 73.5647 110.47 73.1947 111.13C72.8247 111.78 72.7247 112.58 72.9147 113.31C72.9847 113.53 73.0446 113.7 73.1246 113.85C73.1946 113.99 73.3047 114.17 73.4347 114.33C73.5447 114.47 73.6747 114.61 73.8147 114.73C73.9647 114.86 74.1147 114.96 74.2747 115.05C74.4347 115.14 74.6047 115.22 74.7847 115.28C74.9547 115.34 75.1246 115.38 75.3346 115.4C75.4546 115.42 75.5846 115.43 75.7046 115.43C75.7746 115.43 75.8347 115.43 75.9047 115.43C76.0847 115.42 76.2746 115.38 76.4546 115.33C77.1846 115.13 77.8247 114.64 78.1947 113.98C78.5747 113.32 78.6646 112.52 78.4646 111.79C78.1346 110.57 76.9446 109.68 75.6446 109.68L75.6547 109.67Z" fill="url(#paint0_linear_2613_140)"></path>
<defs>
<linearGradient id="paint0_linear_2613_140" x1="22.1846" y1="30.91" x2="113.835" y2="104.99" gradientUnits="userSpaceOnUse">
<stop offset="0.22" stop-color="#00CB78"></stop>
<stop offset="0.83" stop-color="#00C3D0"></stop>
</linearGradient>
</defs>
</svg>