<svg width="150" height="150" viewBox="0 0 150 150" fill="none" xmlns="http://www.w3.org/2000/svg">
<path d="M101.27 97.9099L82.15 70.6499L92.59 57.5801C93.3 56.7701 93.47 55.6299 93.02 54.6299C92.57 53.6299 91.6 53.01 90.5 53.01C89.71 53.01 88.95 53.35 88.42 53.95L78.86 65.98L64.5 45.51C63.98 44.77 63.14 44.3301 62.24 44.3301H49.19C48.16 44.3301 47.22 44.9001 46.74 45.8201C46.26 46.7401 46.34 47.8299 46.93 48.6799L67.87 78.53L47.73 101.46C47.16 102.11 46.91 103 47.06 103.85C47.2 104.66 47.69 105.35 48.39 105.74C48.81 105.97 49.29 106.1 49.76 106.1C50.55 106.1 51.31 105.76 51.84 105.16L71.14 83.1899L86.39 104.93C86.91 105.67 87.75 106.11 88.65 106.11H97.01C98.96 106.11 100.73 105.04 101.63 103.31C102.53 101.58 102.39 99.5199 101.27 97.9199V97.9099ZM49.77 105.33C49.77 105.33 49.7 105.3 49.66 105.3C49.74 105.3 49.82 105.3 49.91 105.3C49.86 105.3 49.82 105.33 49.77 105.33ZM95.99 100.43C95.86 100.69 95.61 100.84 95.32 100.84H90.52L54.08 49.8H59.51C60.03 49.8 60.52 50.05 60.83 50.48L95.93 99.6499C96.1 99.8799 96.12 100.18 95.99 100.43ZM95.01 48.27C95.09 48.45 95.18 48.63 95.28 48.79C95.38 48.94 95.5 49.08 95.63 49.22C95.78 49.37 95.93 49.5001 96.09 49.6001C96.25 49.7101 96.43 49.7999 96.61 49.8699C96.79 49.9399 96.97 50 97.16 50.04C97.35 50.07 97.54 50.0901 97.73 50.0901C97.92 50.0901 98.11 50.07 98.29 50.04C98.48 50 98.66 49.9399 98.84 49.8699C99.02 49.7999 99.19 49.7101 99.36 49.6001C99.52 49.4901 99.67 49.37 99.81 49.23C99.96 49.08 100.07 48.94 100.18 48.78C100.29 48.62 100.38 48.45 100.45 48.27C100.52 48.09 100.58 47.91 100.62 47.72C100.66 47.53 100.67 47.3399 100.67 47.1499C100.67 46.9599 100.65 46.7701 100.62 46.5801C100.58 46.3901 100.52 46.21 100.45 46.03C100.38 45.85 100.29 45.68 100.18 45.51C100.07 45.35 99.95 45.2001 99.81 45.0601C99.67 44.9301 99.52 44.7999 99.36 44.6899C99.2 44.5799 99.02 44.4899 98.84 44.4199C98.69 44.3499 98.5 44.29 98.29 44.25C98.11 44.21 97.92 44.1899 97.72 44.1899C97.52 44.1899 97.33 44.21 97.14 44.25C96.95 44.29 96.75 44.3499 96.57 44.4299C96.42 44.4899 96.24 44.5799 96.08 44.6899C95.92 44.7999 95.77 44.92 95.64 45.05C95.51 45.18 95.38 45.34 95.27 45.5C95.16 45.66 95.07 45.84 95 46.02C94.93 46.2 94.87 46.3801 94.83 46.5701C94.79 46.7501 94.78 46.9499 94.78 47.1399C94.78 47.3299 94.8 47.53 94.83 47.71C94.87 47.89 94.93 48.08 95 48.26L95.01 48.27ZM75.33 16C42.06 16 15 43.0601 15 76.3301C15 109.6 42.06 136.66 75.33 136.66C108.6 136.66 135.66 109.6 135.66 76.3301C135.66 43.0601 108.6 16 75.33 16ZM75.33 130.62C45.39 130.62 21.03 106.26 21.03 76.3201C21.03 46.3801 45.39 22.02 75.33 22.02C105.27 22.02 129.63 46.3801 129.63 76.3201C129.63 106.26 105.27 130.62 75.33 130.62Z" fill="url(#paint0_linear_2613_322)"></path>
<defs>
<linearGradient id="paint0_linear_2613_322" x1="29.87" y1="25.6" x2="110.35" y2="115.42" gradientUnits="userSpaceOnUse">
<stop offset="0.22" stop-color="#00CB78"></stop>
<stop offset="0.83" stop-color="#00C3D0"></stop>
</linearGradient>
</defs>
</svg>