<svg width="150" height="150" viewBox="0 0 150 150" fill="none" xmlns="http://www.w3.org/2000/svg">
<path d="M121.752 20H29.2484C24.1484 20 20 24.1484 20 29.2484V121.752C20 126.852 24.1484 131 29.2484 131H121.752C126.852 131 131 126.852 131 121.752V29.2484C131 24.1484 126.852 20 121.752 20ZM124.834 121.752C124.834 123.455 123.455 124.834 121.752 124.834H29.2484C27.5452 124.834 26.1656 123.455 26.1656 121.752V29.2484C26.1656 27.5452 27.5452 26.1656 29.2484 26.1656H121.752C123.455 26.1656 124.834 27.5452 124.834 29.2484V121.752ZM105.253 75.5001C105.253 77.9169 103.892 80.0481 101.713 81.0757L59.6198 100.886C58.7824 101.285 57.8785 101.475 56.9937 101.475C55.8424 101.475 54.7006 101.152 53.692 100.515C51.9032 99.3729 50.8281 97.4316 50.8281 95.3098V75.4715C50.8281 73.7684 52.2077 72.3887 53.9109 72.3887C55.614 72.3887 56.9937 73.7684 56.9937 75.4715V95.3098L99.0872 75.5001L52.5978 53.616C51.0564 52.8929 50.3998 51.0564 51.123 49.515C51.8461 47.9736 53.6825 47.3171 55.2239 48.0402L101.713 69.9243C103.892 70.9519 105.253 73.0929 105.253 75.5001ZM51.0945 65.0528C50.9708 64.8721 50.8661 64.6721 50.7804 64.4628C50.6948 64.2535 50.6378 64.0442 50.5997 63.8254C50.5521 63.6066 50.5236 63.3878 50.5236 63.1689C50.5236 62.2745 50.8851 61.3991 51.5226 60.7616C51.6749 60.6094 51.8557 60.4665 52.0365 60.3428C52.2172 60.2191 52.4171 60.1146 52.6264 60.0385C52.8357 59.9529 53.045 59.8863 53.2638 59.8387C53.692 59.7531 54.1487 59.7531 54.5864 59.8387C54.8052 59.8768 55.0051 59.9529 55.2144 60.0385C55.4237 60.1241 55.6235 60.2191 55.8043 60.3428C55.9851 60.4665 56.1659 60.6094 56.3277 60.7616C56.9556 61.3991 57.3171 62.2745 57.3171 63.1689C57.3171 63.3878 57.2982 63.6066 57.2601 63.8254C57.2125 64.0442 57.146 64.2535 57.0603 64.4628C56.9747 64.6721 56.8604 64.8625 56.7558 65.0528C56.6321 65.2336 56.4894 65.4142 56.3372 65.5665C55.6997 66.1944 54.8243 66.556 53.9299 66.556C53.7111 66.556 53.4922 66.5372 53.2733 66.4991C53.0545 66.4611 52.8452 66.3847 52.6359 66.2991C52.4266 66.2135 52.2363 66.1185 52.046 65.9948C51.8652 65.8711 51.6844 65.7282 51.5321 65.576C51.3799 65.4237 51.2372 65.2432 51.1136 65.0624L51.0945 65.0528Z" fill="url(#paint0_linear_2613_334)"></path>
<defs>
<linearGradient id="paint0_linear_2613_334" x1="30.6281" y1="32.3978" x2="110.676" y2="109.297" gradientUnits="userSpaceOnUse">
<stop offset="0.22" stop-color="#00CB78"></stop>
<stop offset="0.83" stop-color="#00C3D0"></stop>
</linearGradient>
</defs>
</svg>