<svg width="553" height="70" viewBox="0 0 553 70" fill="none" xmlns="http://www.w3.org/2000/svg">
<path d="M104.941 50.3931L86.9775 15.9847V54.0935H77V2.29677H90.8225L105.089 30.119L119.355 2.29677H133.191V54.0935H123.024V16.0583L104.941 50.3931Z" fill="white"></path>
<path d="M153.012 54.7609C148.848 54.7609 145.461 53.6609 142.845 51.4655C140.271 49.3805 138.815 46.2232 138.908 42.9186C138.908 39.2688 140.317 36.4106 143.141 34.3349C145.964 32.2591 149.851 31.2236 154.81 31.2282C158.012 31.2282 161.196 31.7253 164.246 32.7102V29.9487C164.246 27.7257 163.553 26.0458 162.162 24.9135C160.771 23.7813 158.742 23.2152 156.071 23.2152C154.273 23.2382 152.485 23.5006 150.752 23.993C148.529 24.6282 146.357 25.4336 144.254 26.4001L140.557 18.9257C143.376 17.6139 146.32 16.5738 149.338 15.819C152.097 15.1424 154.925 14.7972 157.767 14.788C162.966 14.788 167.015 16.0353 169.912 18.5252C172.81 21.0152 174.256 24.5315 174.261 29.0696V54.0935H164.232V51.4286C162.657 52.5332 160.914 53.3847 159.07 53.9462C157.102 54.5123 155.059 54.7885 153.012 54.7609ZM148.626 42.6977C148.598 44.129 149.333 45.4684 150.558 46.214C151.847 47.0747 153.557 47.5073 155.688 47.5073C157.25 47.5211 158.807 47.3094 160.309 46.8767C161.695 46.4717 163.012 45.8642 164.214 45.068V39.2918C162.957 38.7947 161.645 38.4357 160.309 38.2194C158.895 37.9939 157.467 37.8834 156.039 37.888C153.71 37.888 151.889 38.3207 150.576 39.1813C149.343 39.9223 148.598 41.2617 148.626 42.6977Z" fill="white"></path>
<path d="M181.475 54.0935V2.29675L191.642 0.0737305V31.8311L208.357 15.5474H219.878L201.744 33.2349L220.997 54.0935H208.001L191.656 36.4842V54.0935H181.475Z" fill="white"></path>
<path d="M228.506 11.6169C225.285 11.6353 222.66 9.05325 222.637 5.84529C222.619 2.63734 225.211 0.0231104 228.432 9.78403e-05C231.653 -0.0183122 234.278 2.5637 234.301 5.77165C234.311 7.3227 233.696 8.81392 232.596 9.91392C231.529 11.0185 230.045 11.6353 228.506 11.6169ZM233.636 15.5382V54.0935H223.469V15.5382H233.636Z" fill="white"></path>
<path d="M241.122 54.0935V15.5382H251.289V18.5759C252.754 17.3516 254.427 16.3989 256.23 15.7637C258.134 15.101 260.135 14.7696 262.15 14.788C266.609 14.788 270.279 16.2194 273.148 19.0775C276.018 21.9357 277.456 25.6177 277.456 30.1236V54.0935H267.289V31.5964C267.289 29.1801 266.558 27.2332 265.093 25.7512C263.628 24.2692 261.683 23.5282 259.252 23.5328C257.672 23.5098 256.105 23.8504 254.682 24.5315C253.337 25.1851 252.172 26.1654 251.303 27.3805V54.0751L241.122 54.0935Z" fill="white"></path>
<path d="M301.963 54.3144C299.319 54.3328 296.699 53.8035 294.273 52.7634C286.989 49.6383 282.29 42.4767 282.345 34.5788C282.331 31.9462 282.863 29.3366 283.907 26.9156C284.905 24.5822 286.342 22.4604 288.14 20.6654C289.947 18.8704 292.096 17.4483 294.458 16.4817C296.93 15.4646 299.583 14.9491 302.258 14.9675C304.139 14.9583 306.006 15.2344 307.804 15.7821C309.546 16.3206 311.21 17.0939 312.744 18.0834V15.5658H322.773V54.0935C322.773 59.1747 321.127 63.096 317.832 65.8575C314.537 68.619 309.796 69.9998 303.603 69.9998C300.719 70.009 297.84 69.7098 295.021 69.1115C292.41 68.5638 289.873 67.6939 287.479 66.5203L291.047 58.604C293.043 59.5889 295.137 60.3713 297.29 60.9328C299.278 61.4483 301.325 61.7107 303.381 61.7107C306.404 61.7107 308.696 61.0571 310.253 59.75C311.811 58.4429 312.592 56.5328 312.596 54.0153V50.8349C311.076 51.9579 309.384 52.8324 307.582 53.4215C305.771 54.0153 303.871 54.319 301.963 54.3144ZM292.378 34.5788C292.322 37.5474 293.492 40.4102 295.613 42.4952C297.679 44.6307 300.548 45.809 303.525 45.7491C305.253 45.7721 306.972 45.4592 308.58 44.8286C310.068 44.2441 311.432 43.3742 312.592 42.2788V27.0905C311.45 25.9721 310.082 25.0976 308.58 24.5361C306.991 23.9194 305.304 23.611 303.599 23.6156C300.627 23.5604 297.757 24.7064 295.65 26.796C293.51 28.8165 292.322 31.6424 292.378 34.5788Z" fill="white"></path>
<path d="M343.721 45.878L349.891 38.1826C352.488 40.5299 355.432 42.4629 358.62 43.9173C361.421 45.1278 364.443 45.7445 367.498 45.7307C370.719 45.7307 373.298 45.137 375.225 43.9541C377.152 42.7713 378.118 41.1926 378.122 39.2181C378.196 37.5981 377.457 36.047 376.154 35.0759C374.841 34.0909 372.651 33.3499 369.577 32.8575L359.253 31.0809C354.794 30.3399 351.402 28.7842 349.086 26.4185C346.771 24.0528 345.616 20.9922 345.63 17.2411C345.63 12.4085 347.478 8.58379 351.175 5.77165C354.872 2.95951 359.863 1.55114 366.148 1.55574C370.03 1.57415 373.885 2.22311 377.554 3.4796C381.2 4.65784 384.611 6.45742 387.633 8.80471L381.819 16.7993C379.342 14.8432 376.588 13.2599 373.649 12.1001C371.015 11.0968 368.219 10.5813 365.4 10.5813C362.525 10.5813 360.215 11.1106 358.468 12.1738C356.73 13.2323 355.866 14.6545 355.866 16.4265C355.806 17.8579 356.439 19.2294 357.576 20.1085C358.713 20.9968 360.621 21.6365 363.297 22.0323L373.104 23.6616C378.256 24.4993 382.134 26.1378 384.731 28.5817C387.328 31.0257 388.627 34.2474 388.631 38.247C388.631 43.2822 386.64 47.3048 382.651 50.3102C378.663 53.3157 373.367 54.8253 366.754 54.8299C362.544 54.8207 358.371 54.0152 354.461 52.4596C350.51 50.9362 346.868 48.7039 343.721 45.878Z" fill="white"></path>
<path d="M428.416 49.3069C424.054 53.0073 418.471 54.9726 412.741 54.8299C409.926 54.8483 407.14 54.3236 404.529 53.2742C402.075 52.3031 399.829 50.8717 397.916 49.0583C396.044 47.2633 394.556 45.1094 393.535 42.7299C392.458 40.2445 391.912 37.5566 391.936 34.8504C391.917 32.1671 392.435 29.5068 393.461 27.0261C396.525 19.616 403.808 14.8018 411.858 14.8754C414.483 14.8524 417.08 15.3955 419.474 16.4633C421.776 17.4897 423.846 18.9625 425.565 20.7943C427.321 22.6951 428.685 24.9181 429.581 27.3437C430.565 29.9855 431.055 32.7792 431.028 35.596V38.2608H402.2C402.842 40.6035 404.251 42.6654 406.211 44.1106C408.226 45.6018 410.684 46.3797 413.194 46.329C414.816 46.3382 416.424 46.0667 417.949 45.5144C419.359 45.0173 420.648 44.2349 421.739 43.2131L428.416 49.3069ZM411.627 23.2612C409.437 23.2152 407.302 23.9654 405.619 25.3692C403.891 26.8466 402.671 28.8257 402.13 31.0303H421.078C420.491 28.8579 419.262 26.9064 417.547 25.4428C415.916 24.0068 413.804 23.2198 411.627 23.2382V23.2612Z" fill="white"></path>
<path d="M436.351 54.0935V15.5382H446.518V18.5759C447.983 17.3516 449.656 16.4035 451.459 15.7637C453.358 15.1102 455.359 14.7834 457.369 14.8018C461.824 14.8018 465.489 16.2332 468.363 19.0913C471.238 21.9495 472.675 25.6315 472.675 30.1374V54.0935H462.508V31.5964C462.508 29.1801 461.778 27.2332 460.318 25.7512C458.853 24.2738 456.912 23.5328 454.481 23.5328C452.9 23.5098 451.338 23.8503 449.915 24.5315C448.566 25.1851 447.406 26.1654 446.532 27.3805V54.0751L436.351 54.0935Z" fill="white"></path>
<path d="M476.737 49.5048L481.788 42.7713C483.808 44.1198 485.98 45.2244 488.258 46.0667C490.213 46.7663 492.274 47.1299 494.349 47.1391C496.628 47.1391 498.448 46.7709 499.812 46.0299C501.175 45.2889 501.854 44.3039 501.854 43.0659C501.882 42.1361 501.452 41.2525 500.704 40.7002C499.932 40.1064 498.698 39.6876 497.007 39.4437L489.575 38.3345C485.763 37.7407 482.856 36.5165 480.846 34.6525C478.835 32.7884 477.833 30.2985 477.837 27.178C477.74 23.68 479.376 20.357 482.218 18.2951C485.144 16.0767 489.058 14.9675 493.961 14.9675C496.757 14.9629 499.534 15.3725 502.206 16.1871C504.914 17.0156 507.492 18.2261 509.859 19.7771L504.969 26.2943C503.042 25.1575 501.004 24.2324 498.878 23.5328C496.983 22.9252 495.001 22.6123 493.009 22.6123C491.161 22.6123 489.686 22.9575 488.587 23.6478C487.556 24.1863 486.914 25.2495 486.914 26.4093C486.877 27.3667 487.343 28.278 488.143 28.8119C488.956 29.3826 490.306 29.7876 492.191 30.0361L499.622 31.1453C503.384 31.6884 506.295 32.9173 508.352 34.8273C510.39 36.7144 511.513 39.3792 511.434 42.15C511.444 43.9219 511 45.6663 510.136 47.2127C509.253 48.7868 508.052 50.1583 506.605 51.2445C504.997 52.4412 503.181 53.3433 501.254 53.9094C499.063 54.5675 496.78 54.8897 494.493 54.8713C491.151 54.8943 487.819 54.4295 484.612 53.4906C481.751 52.6805 479.08 51.3274 476.737 49.5048Z" fill="white"></path>
<path d="M550.397 49.3069C546.035 53.0073 540.452 54.9726 534.721 54.8299C531.907 54.8483 529.12 54.3236 526.509 53.2742C524.055 52.3031 521.809 50.8717 519.896 49.0583C518.025 47.2634 516.536 45.1094 515.515 42.7299C514.438 40.2445 513.893 37.5567 513.916 34.8504C513.898 32.1671 514.415 29.5068 515.441 27.0261C518.496 19.6068 525.779 14.788 533.829 14.8524C536.454 14.8294 539.052 15.3725 541.446 16.4403C543.747 17.4667 545.817 18.9395 547.536 20.7713C549.293 22.6721 550.656 24.8951 551.552 27.3207C552.537 29.9625 553.027 32.7562 552.999 35.573V38.2608H524.157C524.799 40.6035 526.209 42.6654 528.168 44.1106C530.183 45.6018 532.642 46.3797 535.151 46.329C536.773 46.3383 538.382 46.0667 539.907 45.5144C541.316 45.0173 542.605 44.2349 543.696 43.2131L550.397 49.3069ZM533.608 23.2612C531.417 23.2152 529.282 23.9654 527.6 25.3692C525.872 26.8466 524.652 28.8257 524.111 31.0303H543.058C542.471 28.8579 541.242 26.9064 539.528 25.4428C537.896 24.0068 535.784 23.2198 533.608 23.2382V23.2612Z" fill="white"></path>
<path d="M16.804 1.9553C13.5088 3.29112 10.51 5.27232 7.98172 7.78392C5.45341 10.2955 3.44598 13.2875 2.07581 16.5862C0.705636 19.8849 0 23.4247 0 27C0 30.5753 0.705636 34.1151 2.07581 37.4138C3.44598 40.7125 5.45341 43.7045 7.98172 46.2161C10.51 48.7277 13.5088 50.7089 16.804 52.0447C20.0992 53.3805 23.6253 54.0444 27.1774 53.9977C28.7583 53.9977 30.2743 53.3657 31.3921 52.2407C32.5099 51.1156 33.1379 49.5898 33.1379 47.9987C33.1379 46.4077 32.5099 44.8818 31.3921 43.7568C30.2743 42.6318 28.7583 41.9997 27.1774 41.9997C24.2291 42.0007 21.3467 41.1216 18.8949 39.4737C16.443 37.8258 14.5316 35.4831 13.4027 32.7419C12.2738 30.0007 11.9781 26.9842 12.5527 24.0738C13.1273 21.1634 14.5465 18.4898 16.631 16.3913C18.7155 14.2927 21.3715 12.8635 24.2631 12.2843C27.1547 11.705 30.152 12.0018 32.876 13.1372C35.6 14.2725 37.9283 16.1954 39.5664 18.6625C41.2045 21.1297 42.0788 24.0304 42.0788 26.9977C42.0788 28.5887 42.7068 30.1146 43.8246 31.2396C44.9425 32.3647 46.4586 32.9967 48.0394 32.9967C49.6203 32.9967 51.1364 32.3647 52.2542 31.2396C53.372 30.1146 54 28.5887 54 26.9977C54 19.8381 51.174 12.9717 46.1438 7.90907C41.1136 2.84645 34.2912 0.00230039 27.1774 0.00230039C23.6253 -0.0443685 20.0992 0.619476 16.804 1.9553Z" fill="url(#paint0_linear_4_122)"></path>
<path fill-rule="evenodd" clip-rule="evenodd" d="M54 48C54 51.3137 51.3137 54 48 54C44.6863 54 42 51.3137 42 48C42 44.6863 44.6863 42 48 42C51.3137 42 54 44.6863 54 48Z" fill="#0ECC7E"></path>
<defs>
<linearGradient id="paint0_linear_4_122" x1="33.8963" y1="-7.04146" x2="-2.65878" y2="21.6671" gradientUnits="userSpaceOnUse">
<stop stop-color="#00C6D1"></stop>
<stop offset="1" stop-color="#0ECC7E"></stop>
</linearGradient>
</defs>
</svg>